/* XPM */
static char * tb_menu_insert_symbol_xpm[] = {
"16 16 80 1",
" 	c None",
".	c #000000",
"+	c #F1F1F1",
"@	c #F0F0F0",
"#	c #EFEFEF",
"$	c #EEEEEE",
"%	c #EDEDED",
"&	c #ECECEC",
"*	c #E5E5E5",
"=	c #E3E3E3",
"-	c #DBDBDB",
";	c #EBEBEB",
">	c #E0E0E0",
",	c #B1B1B1",
"'	c #E2E2E2",
")	c #E4E4E4",
"!	c #E7E7E7",
"~	c #D1D1D1",
"{	c #A6A6A6",
"]	c #ADADAD",
"^	c #1C1C1C",
"/	c #3A3A3A",
"(	c #B0B0B0",
"_	c #F3F3F3",
":	c #B9B9B9",
"<	c #9D9D9D",
"[	c #242424",
"}	c #363636",
"|	c #E8E8E8",
"1	c #F6F6F6",
"2	c #979797",
"3	c #1F1F1F",
"4	c #323232",
"5	c #E9E9E9",
"6	c #ACACAC",
"7	c #919191",
"8	c #262626",
"9	c #EAEAEA",
"0	c #8D8D8D",
"a	c #313131",
"b	c #F8F8F8",
"c	c #A1A1A1",
"d	c #8A8A8A",
"e	c #6A6A6A",
"f	c #AEAEAE",
"g	c #2A2A2A",
"h	c #B5B5B5",
"i	c #A2A2A2",
"j	c #FAFAFA",
"k	c #868686",
"l	c #F5F5F5",
"m	c #F7F7F7",
"n	c #D8D8D8",
"o	c #989898",
"p	c #838383",
"q	c #CDCDCD",
"r	c #C0C0C0",
"s	c #BDBDBD",
"t	c #C3C3C3",
"u	c #BFBFBF",
"v	c #BEBEBE",
"w	c #AFAFAF",
"x	c #B7B7B7",
"y	c #7C7C7C",
"z	c #D4D4D4",
"A	c #CFCFCF",
"B	c #ABABAB",
"C	c #A4A4A4",
"D	c #A0A0A0",
"E	c #9A9A9A",
"F	c #BBBBBB",
"G	c #949494",
"H	c #D5D5D5",
"I	c #A3A3A3",
"J	c #9F9F9F",
"K	c #9C9C9C",
"L	c #9B9B9B",
"M	c #939393",
"N	c #888888",
"O	c #7A7A7A",
" .............. ",
".++++@@#$$%&*=-.",
".+++@@#$$%&;&>,.",
".+++>>>>'=)$!~{.",
".+@>>]^/()*!_:<.",
".@#>>['=}*!|1,2.",
".##>>3=4,!|5167.",
".#$>'3)*8|591{0.",
".%%=)3!|a9;%bcd.",
".%&)*efgh;%$bid.",
".;|*!a59;%$#j<k.",
".=)=l111mbbbnop.",
".q=rstruvvvwxuy.",
".zAB{CiicDDE7FG.",
".HIcJ<JDcKLMNO(.",
" .............. "};
