/* XPM */
static char *tb_menu_print_preview_xpm [] = {
/* width height ncolors chars_per_pixel */
"16 16 137 2",
/* colors */
"`` c #000000000000",
"`a c #1B601D24D8B4",
"`b c #846984698469",
"`c c #851A851A851A",
"`d c #D74DD789ECB3",
"`e c #36AE36AE3A39",
"`f c #BDABBDABBDE5",
"`g c #4ED44ED44ED4",
"`h c #85B985B985B9",
"`i c #ABF3ABF3AC06",
"`j c #39E039E19BCE",
"`k c #4B694B308B2B",
"`l c #4DDF4DDF4D6C",
"`m c #5A7859CF58EC",
"`n c #BFDFC019CB02",
"`o c #500C500C500C",
"`p c #3B483B483B48",
"`q c #5BC95BC95BC9",
"`r c #53A953AAB2B4",
"`s c #56EC56EC56EC",
"`t c #62E46603EA41",
"`u c #D4A1D4A1D4A1",
"`v c #ED9DEF69ED40",
"`w c #30D530D530D5",
"`x c #459745974597",
"`y c #254627B5AD81",
"`z c #3D473D473D47",
"a` c #03CE03CE03CE",
"aa c #65E26739EEEC",
"ab c #081C07E37737",
"ac c #D48DD48DD48D",
"ad c #9A319A319A31",
"ae c #BD83C113ED24",
"af c #4DB84DB98918",
"ag c #2E442F99E83A",
"ah c #37A337A337A3",
"ai c #1A3D1CE9DEDB",
"aj c #07DC07DC07DC",
"ak c #003B003B003B",
"al c #905F905F905F",
"am c #762F7D8BF0A5",
"an c #9EE69EE69EE6",
"ao c #41EC41EC41EC",
"ap c #85688568E74E",
"aq c #3B083A24614C",
"ar c #B9DDB9DDB9DD",
"as c #2FE42FE42FE4",
"at c #8AA18D17E9F1",
"au c #B027B027B027",
"av c #43F543F543F5",
"aw c #EEA9EEA9EEA9",
"ax c #A8D7A948AC2B",
"ay c #143014301430",
"az c #77D57880B443",
"b` c #5E755E755E75",
"ba c #4E524E524E52",
"bb c #A769AC1BECB1",
"bc c #BE94BE94BF06",
"bd c #1E341F19BF1F",
"be c #41A443A4EBAF",
"bf c #2622265B98BB",
"bg c #C221C340E025",
"bh c #681168116811",
"bi c #48D448D576DC",
"bj c #53C453C453C4",
"bk c #965499E6EBEB",
"bl c #6EEC72B8EE0E",
"bm c #4F9A4F9A4F9A",
"bn c #68BD6E6CF188",
"bo c #8C028D58D59F",
"bp c #A010A010A010",
"bq c #BE09BE09BE09",
"br c #3C2A3C2A3C2A",
"bs c #D4DCD4DCD4DC",
"bt c #60BA60BA61A0",
"bu c #A408A408A441",
"bv c #297329732973",
"bw c #BB2DC016ED40",
"bx c #626962696269",
"by c #A13EA13EA177",
"bz c #1A2F1A2F1A2F",
"c` c #5F246561F62E",
"ca c #4FA74FA74FA6",
"cb c #70E270E270E2",
"cc c #BA40BA40BA40",
"cd c #79087E9FEC62",
"ce c #04AA04AA04AA",
"cf c #ABB1ABB1ABB1",
"cg c #7FE97FE97FC2",
"ch c #319F319F319F",
"ci c #F48CF48CF48C",
"cj c #BA30BA30BA30",
"ck c #67D167D167D1",
"cl c #979297929792",
"cm c #86F486F486F4",
"cn c #7D407D407D40",
"co c #1EE61EE61EE6",
"cp c #1685161413A7",
"cq c #B074B074B074",
"cr c #87D28C81EBEC",
"cs c #AE5BAE5BAE5B",
"ct c #2B592C928D9A",
"cu c none",
"cv c #2D1D2D1D805A",
"cw c #EEE4EEE4EEE4",
"cx c #8AAF90EEEB79",
"cy c #3FE743ADEEB1",
"cz c #BF1FBF1FBF1F",
"d` c #7940797ABE4D",
"da c #1A9C1A9C1A9C",
"db c #25CB25925518",
"dc c #B20EB0B7B565",
"dd c #EED0EED0EED0",
"de c #4F2A4F2A4F2A",
"df c #39203CE7CAF3",
"dg c #34D234D234D2",
"dh c #508050805080",
"di c #EEB2EEB2EEB2",
"dj c #8E438E438E43",
"dk c #3248339DE07C",
"dl c #CBDFCD6EEA0A",
"dm c #506250625062",
"dn c #780D780D780D",
"do c #76A976A976A9",
"dp c #262726272627",
"dq c #A4A2A78AEB60",
"dr c #4FA74FA74FA7",
"ds c #510D510EBA1F",
"dt c #4FA14FA14FA1",
"du c #B9BEB9BEB9BE",
"dv c #847184718471",
"dw c #4F9D4F9D4F9D",
"dx c #EE9CEE9DEED4",
"dy c #82E687B1EF81",
"dz c #672B6BA2EE62",
"e` c #21382271A6EA",
"ea c #140115C756C6",
/* pixels */
"cucucucucucucucucucucucucucucucu",
"cucucucucucucucuddcwcucucucucucu",
"cucucucucucucubc`lclbuaccucucucu",
"cucucucucucu`nbfafcv`jcgca`ocucu",
"cucucucucudxbdaadldqcyapdc`mcucu",
"cucucudi`f`r`tae`dbbblagaz`ucucu",
"cucwanbxcnbibg`vbkcxam`ydbdoarcu",
"cu`bbhczcidsatbwcrcdc``a`k`wdhcu",
"cudrcscfbqbobedzdybndfabaqbrdhcu",
"cudtdjaucq`id`dkcte`aieacpchdhcu",
"cudw`q`scmalbyaxadbt`eaja`cedhcu",
"cucjco`zbabjb`ckdndedgbvayakdadu",
"cucucu`cdmah`pbmcb`gasao`hdv````",
"cucucucucuccbp`xdpbzavbscuawbpbp",
"cucucucucucucucucucucucucucucucu",
"cucucucucucucucucucucucucucucucu"
};
