/* XPM */
static char * tb_menu_insert_graphic_xpm[] = {
"24 24 132 2",
"  	c None",
". 	c #020202",
"+ 	c #FEFEFE",
"@ 	c #FCFCFC",
"# 	c #F8F8F8",
"$ 	c #E6E6E6",
"% 	c #000000",
"& 	c #EBEBEB",
"* 	c #B7B7B7",
"= 	c #688EB3",
"- 	c #CFCFCF",
"; 	c #F4F4F4",
"> 	c #AEAEAE",
", 	c #7396B9",
"' 	c #8FAABD",
") 	c #DCE4C4",
"! 	c #7B9CB9",
"~ 	c #BCBCBC",
"{ 	c #EDEDED",
"] 	c #7E9EBE",
"^ 	c #EBEEC7",
"/ 	c #FEFEDF",
"( 	c #DAE2D0",
"_ 	c #A8A8A8",
": 	c #E5E5E5",
"< 	c #88A6C3",
"[ 	c #83A0BC",
"} 	c #435261",
"| 	c #99B1C0",
"1 	c #EAEFC8",
"2 	c #A3BACB",
"3 	c #9E9E9E",
"4 	c #DADADA",
"5 	c #FDFDFD",
"6 	c #93AEC9",
"7 	c #91A2B6",
"8 	c #2F2414",
"9 	c #5E8858",
"0 	c #1F1C12",
"a 	c #8FA9C4",
"b 	c #90ADC9",
"c 	c #8DABC9",
"d 	c #6687A6",
"e 	c #1B2126",
"f 	c #72869C",
"g 	c #A0A0A0",
"h 	c #FAFAFA",
"i 	c #9EB6CE",
"j 	c #9AA7B7",
"k 	c #42260F",
"l 	c #668759",
"m 	c #668C60",
"n 	c #5E8658",
"o 	c #2D2720",
"p 	c #54779A",
"q 	c #212110",
"r 	c #557549",
"s 	c #0B0D0E",
"t 	c #8195A8",
"u 	c #9C9C9C",
"v 	c #D3D3D3",
"w 	c #F5F5F5",
"x 	c #A6B4C7",
"y 	c #492F19",
"z 	c #678A59",
"A 	c #668D5D",
"B 	c #658E5F",
"C 	c #669663",
"D 	c #648756",
"E 	c #222713",
"F 	c #413309",
"G 	c #607346",
"H 	c #64905E",
"I 	c #5F8454",
"J 	c #090807",
"K 	c #929292",
"L 	c #CCCCCC",
"M 	c #F0F0EF",
"N 	c #463E25",
"O 	c #66905C",
"P 	c #669562",
"Q 	c #66905F",
"R 	c #638E5D",
"S 	c #649562",
"T 	c #678E5C",
"U 	c #668C59",
"V 	c #649260",
"W 	c #678C5C",
"X 	c #688C5C",
"Y 	c #66915E",
"Z 	c #4F7547",
"` 	c #929392",
" .	c #CCCCCB",
"..	c #EFEFEF",
"+.	c #638B56",
"@.	c #668B58",
"#.	c #639461",
"$.	c #62915D",
"%.	c #668552",
"&.	c #648B56",
"*.	c #678A56",
"=.	c #6A8653",
"-.	c #697E4F",
";.	c #668252",
">.	c #5F8653",
",.	c #838383",
"'.	c #C2C2C2",
").	c #ECECEC",
"!.	c #757575",
"~.	c #BDBDBD",
"{.	c #010101",
"].	c #8D8D8D",
"^.	c #7E7E7E",
"/.	c #7B7B7B",
"(.	c #7F7F7E",
"_.	c #818181",
":.	c #7F7F7F",
"<.	c #777777",
"[.	c #C7C7C7",
"}.	c #E4E4E4",
"|.	c #C5C5C5",
"1.	c #C2C3C2",
"2.	c #BBBBBA",
"3.	c #BEBEBE",
"4.	c #BBBBBB",
"5.	c #DEDEDE",
"6.	c #EFEFEE",
"7.	c #EAEAEA",
"8.	c #E7E7E7",
"9.	c #E8E8E8",
"0.	c #E3E3E3",
"a.	c #999999",
"                                                ",
"                                                ",
"                                                ",
"              . . . . . . . . . . . . . . .     ",
"              . + + + + + + + @ # @ + + $ .     ",
"    % % % % % % % % % % % % % % % & @ + * .     ",
"    % = = = = = = = = = = = = = % - ; + > .     ",
"    % , , , , , , , ' ) ! , , , % ~ { + > .     ",
"    % ] ] ] ] ] ] ] ^ / ( ] ] ] % _ : + > .     ",
"    % < < < [ } [ < | 1 2 < < < % 3 4 5 > .     ",
"    % 6 6 7 8 9 0 a b c d e f 6 % g 4 h > .     ",
"    % i j k l m n o i p q r s t % u v w > .     ",
"    % x y z A B C D E F G H I J % K L M > .     ",
"    % N O P Q R S T U V W X Y Z % `  ...> .     ",
"    % +.@.S #.$.@.%.&.*.=.-.;.>.% ,.'.).> .     ",
"    % % % % % % % % % % % % % % % !.~.$ > .     ",
"              {.].,.^./.(._.:.<.!.K [.}.> .     ",
"              . - |.1.2.3.~ 4.~.~.[.5.: > .     ",
"              . h 6.{ ).7.8.8.9.8.$ : 0.> .     ",
"              . - * * * * * * * * * * * a..     ",
"              . . . . . . . . . . . . . . .     ",
"                                                ",
"                                                ",
"                                                "};
