/* XPM */
static char * abi_app_48_xpm[] = {
"48 48 199 2",
"  	c None",
". 	c #636B67",
"+ 	c #000000",
"@ 	c #111110",
"# 	c #4C4C4C",
"$ 	c #494C47",
"% 	c #111111",
"& 	c #181813",
"* 	c #565656",
"= 	c #1F1F1F",
"- 	c #636363",
"; 	c #363636",
"> 	c #181818",
", 	c #3D3D3D",
"' 	c #5E5E5E",
") 	c #6A6A6A",
"! 	c #303030",
"~ 	c #191919",
"{ 	c #454545",
"] 	c #676B60",
"^ 	c #222222",
"/ 	c #656763",
"( 	c #656863",
"_ 	c #050505",
": 	c #569FEA",
"< 	c #8495AD",
"[ 	c #889DBF",
"} 	c #8294AE",
"| 	c #717885",
"1 	c #7E96B7",
"2 	c #6F819A",
"3 	c #606977",
"4 	c #8295B1",
"5 	c #80A0CA",
"6 	c #75AEF0",
"7 	c #73ACEC",
"8 	c #6EA8ED",
"9 	c #5DA1EC",
"0 	c #5CA0EA",
"a 	c #66A5EC",
"b 	c #699BD6",
"c 	c #677E9C",
"d 	c #43464B",
"e 	c #7B8392",
"f 	c #64A3E9",
"g 	c #5FA2EA",
"h 	c #6797D2",
"i 	c #6496D1",
"j 	c #6496D4",
"k 	c #6492C5",
"l 	c #5EA1E9",
"m 	c #68A5E8",
"n 	c #6881A2",
"o 	c #85AFE1",
"p 	c #70A9ED",
"q 	c #539DE9",
"r 	c #4B98E6",
"s 	c #2E3034",
"t 	c #5A9EE8",
"u 	c #519BE7",
"v 	c #559DE8",
"w 	c #649BDB",
"x 	c #53523E",
"y 	c #8391AA",
"z 	c #74ADEF",
"A 	c #68A5EA",
"B 	c #5AA1E9",
"C 	c #529CE8",
"D 	c #33587F",
"E 	c #6091CA",
"F 	c #5DA0E7",
"G 	c #83B1E9",
"H 	c #549CE7",
"I 	c #5F8DC3",
"J 	c #35393F",
"K 	c #5C9DE1",
"L 	c #59A0E8",
"M 	c #589AE2",
"N 	c #83ADDE",
"O 	c #62A4E9",
"P 	c #5D8ECA",
"Q 	c #72ABEB",
"R 	c #77AEEE",
"S 	c #5BA2EB",
"T 	c #57A0EA",
"U 	c #82A6D3",
"V 	c #5199DF",
"W 	c #79ABE9",
"X 	c #4C9AE9",
"Y 	c #567397",
"Z 	c #6EA7E9",
"` 	c #65A4EA",
" .	c #539BE6",
"..	c #5090D5",
"+.	c #2C2C2C",
"@.	c #659AD6",
"#.	c #549BE3",
"$.	c #4895DF",
"%.	c #5D5D5D",
"&.	c #587394",
"*.	c #5F90C9",
"=.	c #4C93DC",
"-.	c #4F76A5",
";.	c #4C9BE9",
">.	c #5D8BC1",
",.	c #6181A9",
"'.	c #4E91D8",
").	c #4A80B9",
"!.	c #4391DD",
"~.	c #548DCA",
"{.	c #588CC6",
"].	c #4D90D7",
"^.	c #487EB7",
"/.	c #4186C9",
"(.	c #4290DC",
"_.	c #597BA4",
":.	c #4B8DD3",
"<.	c #4779AF",
"[.	c #4974A2",
"}.	c #4786C8",
"|.	c #5B8FC9",
"1.	c #529AE0",
"2.	c #4A8ACC",
"3.	c #496E99",
"4.	c #4E5E73",
"5.	c #5696D6",
"6.	c #4F95DB",
"7.	c #3F84C7",
"8.	c #535353",
"9.	c #020202",
"0.	c #2D2F31",
"a.	c #5F7EA1",
"b.	c #5898DC",
"c.	c #4E8ED2",
"d.	c #3B79B5",
"e.	c #17181A",
"f.	c #383D45",
"g.	c #4F5A6A",
"h.	c #5994D5",
"i.	c #5094DB",
"j.	c #4280BF",
"k.	c #3A6898",
"l.	c #0F0F0F",
"m.	c #5096DC",
"n.	c #4481BD",
"o.	c #346CA4",
"p.	c #212121",
"q.	c #5696D8",
"r.	c #242424",
"s.	c #5077A6",
"t.	c #448AD0",
"u.	c #4887CB",
"v.	c #4987C9",
"w.	c #4886C8",
"x.	c #4683C0",
"y.	c #3F77B2",
"z.	c #32669A",
"A.	c #414141",
"B.	c #3C4249",
"C.	c #595959",
"D.	c #45709E",
"E.	c #3E75AE",
"F.	c #3973AD",
"G.	c #3670AA",
"H.	c #33689C",
"I.	c #515151",
"J.	c #070707",
"K.	c #579EE7",
"L.	c #2D3034",
"M.	c #2D2D2D",
"N.	c #323232",
"O.	c #333333",
"P.	c #2A2A2A",
"Q.	c #202020",
"R.	c #585858",
"S.	c #7AAAE5",
"T.	c #536F91",
"U.	c #83B1EA",
"V.	c #66A5EA",
"W.	c #5CA0EB",
"X.	c #4A98E7",
"Y.	c #5779A6",
"Z.	c #212223",
"`.	c #31455C",
" +	c #619DE0",
".+	c #5F9EE4",
"++	c #65A1E3",
"@+	c #5EA1EA",
"#+	c #5EA2EA",
"$+	c #5AA0E9",
"%+	c #222425",
"&+	c #212224",
"*+	c #29333F",
"=+	c #2E3D51",
"-+	c #5C9EE5",
";+	c #5C9CE2",
">+	c #2A3544",
",+	c #5B9FE9",
"'+	c #5A9CE4",
"                                                                                                ",
"                                                                                                ",
"                                                                                                ",
"                                                                                                ",
"                                                                                                ",
"                                                                                                ",
"                        .                                                                       ",
"                      + + +                                                                     ",
"                @ + + + # $ +                                   + + + %                         ",
"          & + + + *         +                                   +   * + + + =                   ",
"      + + + -               ; *                                 +           + + + =             ",
"> + , '                       +                               + )               ! + + + + + ~ { ",
"                              + *                           ] +                                 ",
"                                +                           +                                   ",
"                                ^ *                       / +                                   ",
"                                  +                       + (                                   ",
"                                  + *     + _ _ _ _ _ _ _ +                                     ",
"                                  * + _ : : < [ } | 1 2 3 _ _                                   ",
"                                  _ 4 5 6 7 7 8 9 9 9 0 a b c d _                               ",
"                                  e 6 7 a f f g h i j k 9 l g m n _                             ",
"                                _ o p g : : : : q r % s t u % % v w _                           ",
"                              x y z A B : : : : : C D % E r D % F l g _                         ",
"                              _ G p g : : : : : : H D % I r D J K 0 9 L _                       ",
"                            x y z A 0 : : : : : : : D D H v D D : : 0 L M _                     ",
"                            _ N 7 O : : : : : : : : : q v : v q v : : B q P _                   ",
"                          x Q R 8 S : : : : : : : : : : : : : : v v : : T r _                   ",
"                          x U Q a L : : : : : : : : : : : : : : : : v : : H V _                 ",
"                          _ W 8 g : : : : : : : : : : : : : : : : : v v : v X Y !               ",
"                          % Z ` 0 : : : : : : : : : : : : : : : : : : v v v  ...+.              ",
"                          % @.0 T v q r u : : : : : : : : : : : : : : : v v #.$._ %.            ",
"                            &.X v q *.% % v v : : : : : : : : : : : : : : v  .=.-._             ",
"                            % =.;.>.% % ,.u : : : : : : : : : : : : : : : : H '.)._             ",
"                              % !.~.{.% *.q : : : : : : : : : : : : : : : : H ].^._             ",
"                                % /.(._.% r v v : : : : : : : : : : : : : :  .:.<._             ",
"                                  % [.}.% |.;.: : : : : : : : : : : : : : : 1.2.3._             ",
"                                    % [.4.% 5.X H v v : : : : : : : : : : v 6.7.8._             ",
"                                      % % 9.0.a.b.H u q v v v v : : : : v  .c.d._ {             ",
"                                          + 9.9.e.f.g.h.u 1.H v v : : : H i.j.k.l.              ",
"                                          l.C C C C + J ~.$.i.m.1. .#.V ..n.o._ _               ",
"                                          p.C C q.5.C _ r.s.t.u.v.v.w.x.y.z.A._                 ",
"                                          p.C C C C r B.C._ _ D.E.F.G.H.I._ _                   ",
"                                        p.J.C K.X ;.u L.J.    M.M.N.O.P.Q.R.                    ",
"                                        p.S.J.X X X X J.T.p.                                    ",
"                                      p.U.V.W.J.J.J.J.H X.Y.p.                                  ",
"                                    Z.`. +.+++l 0 0 @+#+0 $+%+&+                                ",
"                                  *+=+-+0 0 0 0 0 0 0 0 0 0 ;+>+*+                              ",
"                                    ,+0 0 0 0 0 0 0 0 0 0 0 0 '+                                ",
"                                                                                                "};
