/* XPM */
static char *abisourceXPM[] = {
/* width height num_colors chars_per_pixel */
"   208    56       12            1",
/* colors */
". c #000000",
"# c #303030",
"a c #3098c8",
"b c #606460",
"c c #6098c8",
"d c #60ccc8",
"e c #989898",
"f c #98ccf8",
"g c #c8ccc8",
"h c #c8ccf8",
"i c #c8fcf8",
"j c #f8fcf8",
/* pixels */
"jjjjjjjjjjjjjjjjjjjjjjjjjjjjjjjjjjjjjjjjjjjjjjjjjjjjjjjjjjjjjjjjjjjjjjjjjjjjjjjjjjjjjjjjjjjjjjjjjjjjjjjjjjjjjjjjjjjjjjjjjjjjjjjjjjjjjjjjjjjjjjjjjjjjjjjjjjjjjjjjjjjjjjjjjjjjjjjjjjjjjjjjjjjjjjjjjjjjjjjjjjjjjjjj",
"jjjjjjjjjjjjjjjjjjjjjjjjjjjjjjjjjjjjjjjjjjjjjjjjjjjjjjjjjjjjjjjjjjjjjjjjjjjjjjjjjjjjjjjjjjjjjjjjjjjjjjjjjjjjjjjjjjjjjjjjjjjjjjjjjjjjjjjjjjjjjjjjjjjjjjjjjjjjjjjjjjjjjjjjjjjjjjjjjjjjjjjjjjjjjjjjjjjjjjjjjjjjjjjj",
"jjjjjjjjjjjjjjjjjjjjjjjjjjjjjjjjjjjjjjjjjjjfaaahjjjjjjjjjjjjjjjjjjjjjjjjjjjjjjjjjjjjjjjjjjjjjjjjjjjjjjjjjjjjjjjjjjjjjjjjjjjjjjjjjjjjjjjjjjjjjjjjjjjjjjjjjjjjjjjjjjjjjjjjjjjjjjjjjjjjjjjjjjjjjjjjjjjjjjjjjjjjjjjj",
"jjjjjjjjjjjjjjjjjjjjjjjjjjjjjjjjjjjjjjjjjicaaaaadijjjjjjjjjjjjjjjjjjjjjjjjjjjjjjjjjjjjjjjjjjjjjjjjjjjjjjjjjjjjjjjjjjjjjjjjjjjjjjjjjjjjjjjjjjjjjjjjjjjjjjjjjjjjjjjjjjjjjjjjjjjjjjjjjjjjjjjjjjjjjjjjjjjjjjjjjjjjjj",
"jjjjjjjjjjjjjjjjjjjjjjjjjjjjjjjjjjjjjjjjhaaaaaaaaaijjjjjjjjjjjjjjjjjjjjjjjjjjjjjjjjjjjjjjjjjjjjjjjjjjjjjjjjjjjjjjjjjjjjjjjjjjjjjjjjjjjjjjjjjjjjjjjjjjjjjjjjjjjjjjjjjjjjjjjjjjjjjjjjjjjjjjjjjjjjjjjjjjjjjjjjjjjjj",
"jjjjjjjjjjjjjjjjjjjjjjjjjjjjjjjjjjjjjjjhaaaaaaaaaacijjjjjjjjjjjjjjjjjjjjjjjjjjjjjjjjjjjjjjjjjjjjjjjjjjjjjjjjjjjjjjjjjjjjjjjjjjjjjjjjjjjjjjjjjjjjjjjjjjjjjjjjjjjjjjjjjjjjjjjjjjjjjjjjjjjjjjjjjjjjjjjjjjjjjjjjjjjj",
"jjjjjjjjjjjjjjjjjjjjjjjjjjjjjjjjjjjjjjiaaaaaaaaaaaacjjjjjjjjjjjjjjjjjjjjjjjjjjjjjjjjjjjjjjjjjjjjjjjjjjjjjjjjjjjjjjjjjjjjjjjjjjjjjjjjjjjjjjjjjjjjjjjjjjjjjjjjjjjjjjjjjjjjjjjjjjjjjjjjjjjjjjjjjjjjjjjjjjjjjjjjjjjj",
"jjjjjjjjjjjjjjjjjjjjjjjjjjjjjjjjjjjjjicaaaaaaaaaaaaafjjjjjjjjjjjjjjjjjjjjjjjjjjjjjjjjjjjjjjjjjjjjjjjjjjjjjjjjjjjjjjjjjjjjjjjjjjjjjjjjjjjjjjjjjjjjjjjjjjjjjjjjjjjjjjjjjjjjjjjjjjjjjjjjjjjjjjjjjjjjjjjjjjjjjjjjjjj",
"jjjjjjjjjjjjjjjjjjjjjjjjjjjjjjjjjjjjjdaaaaaaaaaaaaaaaijjjjjjjjjjjjjjjjjjjjjjjjjjjjjjjjjjjjjjjjjjjjjjjjjjjjjjjjjjjjjjjjjjjjjjjjjjjjjjjjjjjjjjjjjjjjjjjjjjjjjjjjjjjjjjjjjjjjjjjjjjjjjjjjjjjjjjjjjjjjjjjjjjjjjjjjjj",
"jjjjjjjjjjjjjjjjjjjjjjjjjjjjjjjjjjjjfaaaaaaaaaaaaaaaacjjjjjjjjjjjjjjjjjjjjjjjjjjjjjjjjjjjjjjjjjjjjjjjjjjjjjjjjjjjjjjjjjjjjjjjjjjjjjjjjjjjjjjjjjjjjjjjjjjjjjjjjjjjjjjjjjjjjjjjjjjjjjjjjjjjjjjjjjjjjjjjjjjjjjjjjjj",
"jjjjjjjjjjjjjjjjjjjjjjjjjjjjjjjjjjjiaaaaaaaaaaaaaaaaaafjjjjjjjjjjjjjjjjjjjjjjjjjjjjjjjjjjjjjjjjjjjjjjjjjjjjjjjjjjjjjjjjjjjjjjjjjjjjjjjjjjjjjjjjjjjjjjjjjjjjjjjjjjjjjjjjjjjjjjjjjjjjjjjjjjjjjjjjjjjjjjjjjjjjjjjjj",
"jjjjjjjjjjjjjjjjjjjjjjjjjjjjjjjjjjjcaaaaaaaaaaaaaaaaaaaijjjjjjjjjjjjjjjjjjjjjjjjjjjjjjjjjjjjjjjjjjjjjjjjjjjjjjjjjjjjjjjjjjjjjjjjjjjjjjjjjjjjjjjjjjjjjjjjjjjjjjjjjjjjjjjjjjjjjjjjjjjjjjjjjjjjjjjjjjjjjjjjjjjjjjjj",
"jjjjjjjjjjjjjjjjjjjjjjjjjjjjjjjjjjfaaaaaaaaadhcaaaaaaaadjjjjjjjjjjjjjjjjjjjjjjjjjjjjjjjjjjjjjjjjjjjjjjjjjjjjjjjjjjjjjjjjjjjjjjjjjjjjjjjjjjjjjjjjjjjjjjjjjjjjjjjjjjjjjjjjjjjjjjjjjjjjjjjjjjjjjjjjjjjjjjjjjjjjjjjj",
"jjjjjjjjjjjjjjjjjjjjjjjjjjjjjjjjjiaaaaaaaaahjjjfaaaaaaaahjjjjjjjjjjjjjjjjjjjjjjjjjjjjjjjjjjjjjjjjjjjjjjjjjjjjjjjjjjjjjjjjjjjjjjjjjjjjjjjjjjjjjjjjjjjjjjjjjjjjjjjjjjjjjjjjjjjjjjjjjjjjjjjjjjjjjjjjjjjjjjjjjjjjjjj",
"jjjjjjjjjjjjjjjjjjjjjjjjjjjjjjjjjcaaaaaaaafjjjjjfaaaaaaaajjjjjjjjjjjjjjjjjjjjjjjjjjjjjjjjjjjjjjjjjjjjjjjjjjjjjjjjjjjjjjjjjjjjjjjjjjjjjjjjjjjjjjjjjjjjjjjjjjjjjjjjjjjjjjjjjjjjjjjjjjjjjjjjjjjjjjjjjjjjjjjjjjjjjjj",
"jjjjjjjjjjjjjjjjjjjjjjjjjjjjjjjjhaaaaaaaadjjjjjjjdaaaaaaafjjjjjjjjjjjjjjjjjjjjjjjjjjjjjjjjjjjjjjjjjjjjjjjjjjjjjjjjjjjjjjjjjjjjjjjjjjjjjjjjjjjjjjjjjjjjjjjjjjjjjjjjjjjjjjjjjjjjjjjjjjjjjjjjjjjjjjjjjjjjjjjjjjjjjj",
"jjjjjjjjjjjjjjjjjjjjjjjjjjjjjjjjaaaaaaaaajjjjjjjjjcaaaaaaajjjjjjjjjjjjjjjjjjjjjjjjjjjjjjjjjjjjjjjjjjjjjjjjjjjjjjjjjjjjjjjjjjjjjjjjjjjjjjjjjjjjjjjjjjjjjjjjjjjjjjjjjjjjjjjjjjjjjjjjjjjjjjjjjjjjjjjjjjjjjjjjjjjjjj",
"jjjjjjjjjjjjjjjjjjjjjjjjjjjjjjjdaaaaaaaaijjjjjjjjjiaaaaaaafjjjjjjjjjjjjjjjjjjjjjjjjjjjjjjjjjjjjjjjjjjjjjjjjjjjjjjjjjjjjjjjjjjjjjjjjjjjjjjjjjjjjjjjjjjjjjjjjjjjjjjjjjjjjjjjjjjjjjjjjjjjjjjjjjjjjjjjjjjjjjjjjjjjjj",
"jjjjjjjjjjjjjjjjjjjjjjjjjjjjjjiaaaaaaaafjjjjjjjjjjjfaaaaaacjjjjjjjjjjjjjjjjjjjjjjjjjjjjjjjjjjjjjjjjjjjjjjjjjjjjjjjjjjjjjjjjjjjjjjjjjjjjjjjjjjjjjjjjjjjjjjjjjjjjjjjjjjjjjjjjjjjjjjjjjjjjjjjjjjjjjjjjjjjjjjjjjjjjj",
"jjjjjjjjjjjjjjjjjjjjjjjjjjjjjjdaaaaaaacjjjjjjjjjjjjjcaaaaaadjjjjjjjjjjjjjjjjjjjjjjjjjjjjjjjjjjjjjjjjjjjjjjjjjjjjjjjjjjjjjjjjjjjjjjjjjjjjjjjjjjjjjjjjjjjjjjjjjjjjjjjjjjjjjjjjjjjjjjjjjjjjjjjjjjjjjjjjjjjjjjjjjjjj",
"jjjjjjjjjjjjjjjjjjjjjjjjjjjjjhaaaaaaaaijjjjjjjjjjjjjiaaaaaacijjjjjjjjjjjjjjjjjjjjjjjjjjjjjjjjjjjjjjjjjjjjjjjjjjjjjjjjjjjjjjjjjjjjjjjjjjjjjjjjjjjjjjjjjjjjjjjjjjjjjjjjjjjjjjjjjjjjjjjjjjjjjjjjjjjjjjjjjjjjjjjjjjj",
"jjjjjjjjjjjjjjjjjjjjjjjjjjjjjdaaaaaaafjjjjjjjjjjjjjjjdaaaaaafjjjjjjjjjjjjjjjjjjjjjjjjjjjjjjjjjjjjjjjjjjjjjjjjjjjjjjjjjjjjjjjjjjjjjjjjjjjjjjjjjjjjjjjjjjjjjjjjjjjjjjjjjjjjjjjjjjjjjjjjjjjjjjjjjjjjjjjjjjjjjjjjjjj",
"jjjjjjjjjjjjjjjjjjjjjjjjjjjjiaaaaaaacijjjjjjjjjjjjjjjjcaaaaacijjjjjjjjjjjjjjjjjjjjjjjjjjjjjjjjjjjjjjjjjjjjjjjjjjjjjjjjjjjjjjjjjjjjjjjjjjjjjjjjjjjjjjjjjjjjjjjjjjjjjjjjjjjjjjjjjjjjjjjjjjjjjjjjjjjjjjjjjjjjjjjjjj",
"jjjjjjjjjjjjjjjjjjjjjjjjjjjjcaaaaaaahjjjjjjjjjjjjjjjjjhaaaaaafjjjjjjjjjjjjjjjjjjjjjjjjjjjjjjjjjjjjjjjjjjjjjjjjjjjjjjjjjjjjjjjjjjjjjjjjjjjjjjjjjjjjjjjjjjjjjjjjjjjjjjjjjjjjjjjjjjjjjjjjjjjjjjjjjjjjjjjjjjjjjjjjjj",
"jjjjjjjjjjjjjjjjjjjjjjjjjjjiaaaaaaacjjjjjjjjjjjjjjjjjjjcaaaaacijjjjjjjjjjjjjjjjjjjjjjjjjjjjjjjjjjjjjjjjjjjjjjjjjjjjjjjjjjjjjjjjjjjjjjjjjjjjjjjjjjjjjjjjjjjjjjjjjjjjjjjjjjjjjjjjjjjjjjjjjjjjjjjjjjjjjjjjjjjjjjjjj",
"jjjjjjjjjjjjjjjjjjjjjjjjjjjcaaaaaaaijjjjjjjjjjjjjjjjjjjiaaaaaahjjjjjjjjjjjjjjjjjjjjjjjjjjjjjjjjjjjjjjjjjjjjjjjjjjjjjjjjjjjjjjjjjjjjjjjjjjjjjjjjjjjjjjjjjjjjjjjjjjjjjjjjjjjjjjjjjjjjjjjjjjjjjjjjjjjjjjjjjjjjjjjjj",
"jjjjjjjjjjjjjjjjjjjjjjjjjjiaaaaaaadjjjjjjjjjjjjjjjjjjjjjfaaaaacjjjjjjjjjjjjjjjjjjjjjjjjjjjjjjjjjjjjjjjjjjjjjjjjjjjjjjjjjjjjjjjjjjjjjjjjjjjjjjjjjjjjjjjjjjjjjjjjjjjjjjjjjjjjjjjjjjjjjjjjjjjjjjjjjjjjjjjjjjjjjjjjj",
"jjjjjjjjjjjjjjjjjjjjjjjjjjcaaaaaaajjjjjjjjjjjjjjjjjjjjjjjcaaaaahjjjjjjjjjjjjjjjjjjjjjjjjjjjjjjjjjjjjjjjjjjjjjjjjjjjjjjjjjjjjjjjjjjjjjjjjjjjjjjjjjjjjjjjjjjjjjjjjjjjjjjjjjjjjjjjjjjjjjjjjjjjjjjjjjjjjjjjjjjjjjjjj",
"jjjjjjjjjjjjjjjjjjjjjjjjjiaaaaaaafjjjjjjjjjjjjjjjjjjjjjjjhaaaaadjjjjjjjjjjjjjjjjjjjjjjjjjjjjjjjjjjjjjjjjjjjjjjjjjjjjjjjjjjjjjgebegjjjjjjjjjjjjjjjjjjjjjjjjjjjjjjjjjjjjjjjjjjjjjjjjjjjjjjjjjjjjjjjjjjjjjjjjjjjjjj",
"jjjjjjjjjjjjjjjjjjjjjjjjjdaaaaaaaijjjjjjjjjjjjjjjjjjjjjjjjcaaaaaijjjjjjjjjjjjjjjjjjjjjg...gjjjjjjjjb..gjjjjjjjjjjjjb..#jjjje.......bjjjjjjjjjjjjjjjjjjjjjjjjjjjjjjjjjjjjjjjjjjjjjjjjjjjjjjjjjjjjjjjjjjjjjjjjjjjj",
"jjjjjjjjjjjjjjjjjjjjjjjjiaaaaaaafjjjjjjjjjjjjjjjjjjjjjjjjjiaaaaadjjjjjjjjjjjjjjjjjjjjjb...bjjjjjjjjb..gjjjjjjjjjjjjb..#jjjb..#bbb#..#jjjjjjjjjjjjjjjjjjjjjjjjjjjjjjjjjjjjjjjjjjjjjjjjjjjjjjjjjjjjjjjjjjjjjjjjjjj",
"jjjjjjjjjjjjjjjjjjjjjjjjdaaaaaacijjjjjjjjjjjjjjjjjjjjjjjjjjfaaaaajjjjjjjjjjjjjjjjjjjjj.....jjjjjjjjb..gjjjjjjjjjjjjb..#jje..ejjjjjj#.bjjjjjjjjjjjjjjjjjjjjjjjjjjjjjjjjjjjjjjjjjjjjjjjjjjjjjjjjjjjjjjjjjjjjjjjjjj",
"jjjjjjjjjjjjjjjjjjjjjjjjcaaaaaafjjjjjjjjjjjjjjjjjjjjjjjjjjjiaaaaahjjjjjjjjjjjjjjjjjjje..#..ejjjjjjjb..gjjjjjjjjjjjjgbbejj..gjjjjjjjj..jjjjjjjjjjjjjjjjjjjjjjjjjjjjjjjjjjjjjjjjjjjjjjjjjjjjjjjjjjjjjjjjjjjjjjjjjj",
"jjjjjjjjjjjjjjjjjjjjjjjdaaaaaacijjjjjjjjjjjjjjjjjjjjjjjjjjjjfaaaacjjjjjjjjjjjjjjjjjjjb..g..bjjjjjjjb..gjjjjjjjjjjjjjjjjjg.#jjjjjjjjjb.ejjjjjjjjjjjjjjjjjjjjjjjjjjjjjjjjjjjjjjjjjjjjjjjjjjjjjjjjjjjjjjjjjjjjjjjjj",
"jjjjjjjjjjjjjjjjjjjjjjjcaaaaaafjjjjjjjjjjjjjjjjjjjjjjjjjjjjjjcaaaaijjjjjjjjjjjjjjjjjj..bj#..jjjjjjjb..gjjjjjjjjjjjjjjjjje.bjjjjjjjjjgggjjjjjjjjjjjjjjjjjjjjjjjjjjjjjjjjjjjjjjjjjjjjjjjjjjjjjjjjjjjjjjjjjjjjjjjjj",
"jjjjjjjjjjjjjjjjjjjjjjhaaaaaacijjjjjjjjjjjjjjjjjjjjjjjjjjjjjjhaaaadjjjjjjjjjjjjjjjjje..ejb..ejjjjjjb..gjjjjjjjjjjjjjjjjje.bjjjjjjjjjjjjjjjjjjjjjjjjjjjjjjjjjjjjjjjjjjjjjjjjjjjjjjjjjjjjjjjjjjjjjjjjjjjjjjjjjjjjj",
"jjjjjjjjjjjjjjjjjjjjjjfaaaaaadjjjjjjjjjjjjjjjjjjjjjjjjjjjjfhjjcaaacijjjjjjjjjjjjjjjj#..jjg..#jjjjjjb..gje#..#ejjjjjgbbgjg.#jjjjjjjjjjjjjjjjje#..#bjjjjjbejjjjjjjjebjjbeje#.#jgb..#bgjjjjjje#..#bgjjjjjjjjjjjjjjj",
"jjjjjjjjjjjjjjjjjjjjjiaaaaaaaijjjjjjjjjjjjjjjjjjjjjjjjjjhcahjjiaaaafjjjjjjjjjjjjjjjg..bjjj...jjjjjjb..g#......#jjjjb..gjj..ejjjjjjjjjjjjjjjb...#...gjjj.#jjjjjjjj#.jj.#e..##e...#...gjjjj#...#...ejjjjjjjjjjjjjj",
"jjjjjjjjjjjjjjjjjjjjjhaaaaaadjjjjjjjjjjjjjjjjjjjjjjjjjfcacijjjjdaaadjjjjjjjjjjjjjjjb..gjjjb..ejjjjjb..#.#eeb...bjjjb..gjje..ejjjjjjjjjjjjjb.#gjjjb..gjj.#jjjjjjjj#.jj.#.bjjg..ejjje..jjjb.#gjjje..ejjjjjjjjjjjjj",
"jjjjjjjjjjjjjjjjjjjjjdaaaaaaijjjjjjjjjjjjjjjjjjjjjjidaaahjjjjjjiaaaaijjjjjjjjjjjjjj#.#jjjjg..#jjjjjb...#jjjjj#..ejjb..gjjjb..#ejjjjjjjjjjg..gjjjjjb.#jj.#jjjjjjjj#.jj..#jjj#.ejjjjjb.bjg.#jjjjjjg.#jjjjjjjjjjjjj",
"jjjjjjjjjjjjjjjjjjjjiaaaaaacjjjjjjjjjjjjjjjjjjjjihcaaafjjjjjjjjjfaaafjjjjjjjjjjjjjg..bjjjjj...gjjjjb...gjjjjje..#jjb..gjjjje....bgjjjjjjjb.ejjjjjjj#.gj.#jjjjjjjj#.jj..gjjg.#jjjjjjj.#j#.gjjjjjjjb.gjjjjjjjjjjjj",
"jjjjjjjjjjjjjjjjjjjjhaaaaaafjjjjjjjjjjjjjjjjjjidaaaacijjjjjjjjjjjaaadjjjjjjjjjjjjjb..gjjjjjb..ejjjjb..#jjjjjjj...jjb..gjjjjjje....#gjjjjj..jjjjjjjje.ej.#jjjjjjjj#.jj..jjjb.ejjjjjjjbbj.#jjjjjjjjg.bjjjjjjjjjjjj",
"jjjjjjjjjjjjjjjjjjjjdaaaaaajjjjjjjjjjjjjjjjihcaaaachjjjjjjjjjjjjjfaaahjjjjjjjjjjjj..#jjjjjjg..#jjjjb..bjjjjjjjb..gjb..gjjjjjjjjgb...ejjjg.bjjjjjjjjg.#j.#jjjjjjjj#.jj.#jjj#.gjjjjjjjjjg.bjjjjjjjjj.#jjjjjjjjjjjj",
"jjjjjjjjjjjjjjjjjjjiaaaaaacjjjjjjjjjjjjjjhdaaaaaadjjjjjjjjjjjjjjjjaaafjjjjjjjjjjje..bjjjjjjj...gjjjb..ejjjjjjjb..ejb..gjjjjjjjjjjjb..ejje.bjjjjjjjjj.#j.#jjjjjjjj#.jj.#jjj#.jjjjjjjjjje.#bbbbbbbbb.#jjjjjjjjjjjj",
"jjjjjjjjjjjjjjjjjjjiaaaaaaijjjjjjjjjjjhdcaaaaaadijjjjjjjjjjjjjjjjjhaadjjjjjjjjjjj#...#######...bjjjb..gjjjjjjjb..bjb..gjjjjjjjjjjjje..jjb.ejjjjjjjjj#.j.#jjjjjjjj#.jj.#jjj.#jjjjjjjjjjb.............jjjjjjjjjjjj",
"jjjjjjjjjjjjjjjjjjjfaaaaaajjjjjjjjjhdcaaaaaaachjjjjjjjjjjjjjjjjjjjjcaaijjjjjjjjjg..............#jjjb..gjjjjjjjb..bjb..gjjjjjjjjjjjjj#.gjb.ejjjjjjjjj#.j.#jjjjjjjj#.jj.#jjj.#jjjjjjjjjje.beeeeeeeeeeejjjjjjjjjjjj",
"jjjjjjjjjjjjjjjjjjjcaaaaadjjjjjihcaaaaaaaaachjjjjjjjjjjjjjjjjjjjjjjhaafjjjjjjjjje...............gjjb..ejjjjjjjb..ejb..gjjjjjjjjjjjjjb.eje.bjjjjjjjjj.#j.#jjjjjjjj#.jj.#jjj#.jjjjjjjjjje.ejjjjjjjjjjjjjjjjjjjjjjj",
"jjjjjjjjjjjjjjjjjjjaaaaaaaiiidcaaaaaaaaaaahjjjjjjjjjjjjjjjjjjjjjjjjjdacjjjjjjjjj#..gjjjjjjjjjb..bjjb..ejjjjjjjb..gjb..gj##jjjjjjjjjjb.ejg.bjjjjjjjjg.#j.#jjjjjjjj#.jj.#jjj#.gjjjjjjjjjg.bjjjjjjjjjjjjjjjjjjjjjjj",
"jjjjjjjjjjjjjjjjjjjaaaaaaaaaaaaaaaaaaaachjjjjjjjjjjjjjjjjjjjjjjjjjjjhaaijjjjjjjg..#jjjjjjjjjjg...jjb..#jjjjjjj...jjb..gj#.gjjjjjjjjj#.ejj..jjjjjjjje.ej.#jjjjjjjj..jj.#jjjb.ejjjjjjj##j.#jjjjjjjjg.bjjjjjjjjjjjj",
"jjjjjjjjjjjjjjjjjjjaaaaaaaaaaaaaaaaaachjjjjjjjjjjjjjjjjjjjjjjjjjjjjjjdaijjjjjjjb..ejjjjjjjjjjj...ejb...gjjjjje..#jjb..gjb.bjjjjjjjjg..gjjb.ejjjjjjj#.gj#.jjjjjjje..jj.#jjjg.#jjjjjjg.#j#.gjjjjjjjb.ejjjjjjjjjjjj",
"jjjjjjjjjjjjjjjjjjjaaaaaaaaaaaaaaaadhjjjjjjjjjjjjjjjjjjjjjjjjjjjjjjjjiadjjjjjjj...jjjjjjjjjjjjb..bjb...#jjjjg...ejjb..gjg..gjjjjjjj#.#jjjg..gjjjjjb.#jje.bjjjjjj#..jj.#jjjj#.ejjjjjb.eje.#jjjjjjg..jjjjjjjjjjjjj",
"jjjjjjjjjjjjjjjjjjjaaaaaaaaaaaaacfijjjjjjjjjjjjjjjjjjjjjjjjjjjjjjjjjjjcajjjjjjg..#jjjjjjjjjjjjg...jb..b.#eeb...#jjjb..gjjb..bgjjge#..gjjjjb.#gjjjb..gjjj..bjjjg###.jj.#jjjjg..ejjgb..jjjb.#ejjje..ejjjjjjjjjjjjj",
"jjjjjjjjjjjjjjjjjjjaaaaaaaaaaafijjjjjjjjjjjjjjjjjjjjjjjjjjjjjjjjjjjjjjiajjjjjjb..ejjjjjjjjjjjjj#..eb..gb......#gjjjb..gjjjb........#gjjjjjjb...#...gjjjje...#..#g#.gj.#jjjjje...#...gjjjj#...#...bjjjjjjjjjjjjjj",
"jjjjjjjjjjjjjjjjjjjhaaaaaacdijjjjjjjjjjjjjjjjjjjjjjjjjjjjjjjjjjjjjjjjjjcjjjjjjebbjjjjjjjjjjjjjjgbbeebbgje#..#bjjjjjgbbgjjjje#...#bejjjjjjjjje#..#bjjjjjjjgb..#bjjebjjbejjjjjjgb..#bgjjjjjje#..#bgjjjjjjjjjjjjjjj",
"jjjjjjjjjjjjjjjjjjjjiiihiijjjjjjjjjjjjjjjjjjjjjjjjjjjjjjjjjjjjjjjjjjjjjijjjjjjjjjjjjjjjjjjjjjjjjjjjjjjjjjjjjjjjjjjjjjjjjjjjjjjjjjjjjjjjjjjjjjjjjjjjjjjjjjjjjjjjjjjjjjjjjjjjjjjjjjjjjjjjjjjjjjjjjjjjjjjjjjjjjjjjj",
"jjjjjjjjjjjjjjjjjjjjjjjjjjjjjjjjjjjjjjjjjjjjjjjjjjjjjjjjjjjjjjjjjjjjjjjjjjjjjjjjjjjjjjjjjjjjjjjjjjjjjjjjjjjjjjjjjjjjjjjjjjjjjjjjjjjjjjjjjjjjjjjjjjjjjjjjjjjjjjjjjjjjjjjjjjjjjjjjjjjjjjjjjjjjjjjjjjjjjjjjjjjjjjjj"
};
