/* XPM */
static const char * abiword_48_xpm[] = {
"48 48 649 2",
"  	c None",
". 	c #010305",
"+ 	c #020509",
"@ 	c #03090F",
"# 	c #394C64",
"$ 	c #7B8FA9",
"% 	c #889BB7",
"& 	c #4C6078",
"* 	c #060E18",
"= 	c #0A1522",
"- 	c #8598B3",
"; 	c #A0B7D6",
"> 	c #91ADD0",
", 	c #8FABD0",
"' 	c #92ACCF",
") 	c #94A7C1",
"! 	c #162434",
"~ 	c #08131E",
"{ 	c #90A4BD",
"] 	c #99B2D3",
"^ 	c #97B1D4",
"/ 	c #95B0D3",
"( 	c #93AED2",
"_ 	c #90ACD1",
": 	c #8DA8CD",
"< 	c #9CB0CA",
"[ 	c #0B1523",
"} 	c #08111B",
"| 	c #8B9EB7",
"1 	c #9EB5D5",
"2 	c #9DB6D7",
"3 	c #9BB4D6",
"4 	c #99B3D5",
"5 	c #96B1D3",
"6 	c #94AFD2",
"7 	c #91ADD1",
"8 	c #8EABCD",
"9 	c #7E93AC",
"0 	c #040A11",
"a 	c #050C15",
"b 	c #8498B1",
"c 	c #A3B9D7",
"d 	c #A3BAD9",
"e 	c #A1B9D8",
"f 	c #9FB8D8",
"g 	c #9DB6D6",
"h 	c #9AB4D5",
"i 	c #97B2D4",
"j 	c #97B0D1",
"k 	c #5A6E86",
"l 	c #010408",
"m 	c #010306",
"n 	c #5C7089",
"o 	c #A8BEDA",
"p 	c #A8BFDC",
"q 	c #A7BEDB",
"r 	c #A5BCDA",
"s 	c #A0B9D8",
"t 	c #9BB4D5",
"u 	c #98B2D4",
"v 	c #35495F",
"w 	c #25364B",
"x 	c #B6C8E2",
"y 	c #AEC3DF",
"z 	c #ACC2DE",
"A 	c #ABC1DD",
"B 	c #A9BFDC",
"C 	c #A6BDDB",
"D 	c #A4BBDA",
"E 	c #9EB7D7",
"F 	c #90ACD0",
"G 	c #A3B6D2",
"H 	c #08121E",
"I 	c #08111C",
"J 	c #A4B6CE",
"K 	c #B1C5E0",
"L 	c #B2C6E1",
"M 	c #B0C5E0",
"N 	c #AFC4DF",
"O 	c #AAC0DD",
"P 	c #A4BBD9",
"Q 	c #93ACCF",
"R 	c #5B6F89",
"S 	c #010204",
"T 	c #687C96",
"U 	c #B3C5DF",
"V 	c #B7CAE3",
"W 	c #B6C9E3",
"X 	c #B4C8E2",
"Y 	c #B2C7E1",
"Z 	c #B0C4DF",
"` 	c #A4B6CF",
" .	c #95A9C2",
"..	c #A9BEDA",
"+.	c #A0B8D8",
"@.	c #9CB6D6",
"#.	c #152334",
"$.	c #2D3E54",
"%.	c #BDCDE4",
"&.	c #BCCEE6",
"*.	c #BBCEE5",
"=.	c #BACDE5",
"-.	c #B8CBE4",
";.	c #B5C9E1",
">.	c #4A5E76",
",.	c #050C16",
"'.	c #495C75",
").	c #ABC0DC",
"!.	c #9FB7D7",
"~.	c #8EA9CD",
"{.	c #7A8EA7",
"].	c #02060B",
"^.	c #050D16",
"/.	c #A3B5CC",
"(.	c #BFD0E7",
"_.	c #C0D1E8",
":.	c #C0D1E7",
"<.	c #BED0E7",
"[.	c #B8CAE2",
"}.	c #5B6E89",
"|.	c #677992",
"1.	c #99B3D4",
"2.	c #A2B9D8",
"3.	c #293B4F",
"4.	c #797C76",
"5.	c #B3B7B0",
"6.	c #080807",
"7.	c #465B72",
"8.	c #BCCDE3",
"9.	c #C4D4EA",
"0.	c #C5D5EA",
"a.	c #C4D4E9",
"b.	c #C2D3E9",
"c.	c #B9CAE1",
"d.	c #7387A0",
"e.	c #03080E",
"f.	c #040B14",
"g.	c #8C9EB8",
"h.	c #9CB5D4",
"i.	c #96B0D3",
"j.	c #92ADD1",
"k.	c #8CA9CE",
"l.	c #8FA2BC",
"m.	c #122204",
"n.	c #3F532C",
"o.	c #CCD1C5",
"p.	c #D8DCD4",
"q.	c #2C2D2A",
"r.	c #091422",
"s.	c #B6C6DC",
"t.	c #C7D7EB",
"u.	c #C9D8EC",
"v.	c #C8D7EB",
"w.	c #C6D6EA",
"x.	c #B4C6DC",
"y.	c #0B1725",
"z.	c #0F1C2B",
"A.	c #ACBED9",
"B.	c #9BB5D6",
"C.	c #92AED2",
"D.	c #8EABCF",
"E.	c #9FB7D6",
"F.	c #293A4E",
"G.	c #0A1101",
"H.	c #87C44E",
"I.	c #AEDF7E",
"J.	c #80B750",
"K.	c #858C7F",
"L.	c #5F728C",
"M.	c #C0D0E4",
"N.	c #CBD9ED",
"O.	c #CDDBEE",
"P.	c #CCDAED",
"Q.	c #C1D0E6",
"R.	c #41546D",
"S.	c #000001",
"T.	c #43566F",
"U.	c #A2B8D7",
"V.	c #93AFD2",
"W.	c #8AA7CD",
"X.	c #8699B5",
"Y.	c #040701",
"Z.	c #6DA139",
"`.	c #BCDD9B",
" +	c #D6EEBF",
".+	c #9FD36C",
"++	c #2F5013",
"@+	c #132131",
"#+	c #BFCFE5",
"$+	c #D1DEF0",
"%+	c #D2DFF0",
"&+	c #97A9C0",
"*+	c #040B12",
"=+	c #040B13",
"-+	c #92A5BE",
";+	c #97B1D2",
">+	c #8FACD0",
",+	c #8BA8CE",
"'+	c #203044",
")+	c #4C7824",
"!+	c #BAD3A1",
"~+	c #E1E3DE",
"{+	c #B0CD96",
"]+	c #80BC47",
"^+	c #081002",
"/+	c #010407",
"(+	c #7689A2",
"_+	c #BFD0E4",
":+	c #CAD9ED",
"<+	c #CFDCEF",
"[+	c #D3E0F1",
"}+	c #D6E2F2",
"|+	c #C7D5EA",
"1+	c #213246",
"2+	c #AABFDC",
"3+	c #87A4CA",
"4+	c #7C8EA9",
"5+	c #020508",
"6+	c #2E4D12",
"7+	c #AAD680",
"8+	c #D8DCD5",
"9+	c #D8DBD3",
"0+	c #8DC25E",
"a+	c #1E360B",
"b+	c #C1D0E7",
"c+	c #CAD9EC",
"d+	c #CEDCEE",
"e+	c #C9D6E8",
"f+	c #6E809B",
"g+	c #697E98",
"h+	c #93ADCF",
"i+	c #87A5CC",
"j+	c #A3B9D9",
"k+	c #182639",
"l+	c #172807",
"m+	c #9DD567",
"n+	c #D3D8CE",
"o+	c #DFE2DC",
"p+	c #9DC17B",
"q+	c #456D1F",
"r+	c #000203",
"s+	c #677B96",
"t+	c #B9CBE3",
"u+	c #CBDAED",
"v+	c #BBCBE0",
"w+	c #0D1928",
"x+	c #0C1726",
"y+	c #A7BBD5",
"z+	c #86A5CC",
"A+	c #82A0C8",
"B+	c #687D97",
"C+	c #8BC452",
"D+	c #CDD5C5",
"E+	c #E8EAE6",
"F+	c #BACBA9",
"G+	c #6EA43B",
"H+	c #030601",
"I+	c #0C1725",
"J+	c #BACBE2",
"K+	c #C2D2E8",
"L+	c #C1D1E6",
"M+	c #445971",
"N+	c #41556D",
"O+	c #98B2D3",
"P+	c #86A4CB",
"Q+	c #81A1C9",
"R+	c #A1B5D2",
"S+	c #06101B",
"T+	c #6DA23A",
"U+	c #C3D5B0",
"V+	c #E4E7E1",
"W+	c #D0D7C8",
"X+	c #86C14C",
"Y+	c #0E1B03",
"Z+	c #586C84",
"`+	c #B3C5DE",
" @	c #C1D2E8",
".@	c #C1D1E7",
"+@	c #9AADC4",
"@@	c #8EA2BB",
"#@	c #88A6CC",
"$@	c #85A3CB",
"%@	c #81A0C9",
"&@	c #8BA7CB",
"*@	c #394A61",
"=@	c #4C7823",
"-@	c #B4D791",
";@	c #DBDFD8",
">@	c #DADDD4",
",@	c #86C051",
"'@	c #2B4812",
")@	c #07101B",
"!@	c #B0C2DA",
"~@	c #B5C9E2",
"{@	c #BBCDE5",
"]@	c #BECFE6",
"^@	c #BECEE4",
"/@	c #2C3D53",
"(@	c #1F2F44",
"_@	c #84A3CB",
":@	c #809FC8",
"<@	c #7C9CC5",
"[@	c #8396B1",
"}@	c #2F5017",
"|@	c #A6E06F",
"1@	c #D0D8C9",
"2@	c #E0E3DE",
"3@	c #92BD69",
"4@	c #54822A",
"5@	c #485A72",
"6@	c #AEC1DB",
"7@	c #BACCE5",
"8@	c #A1B1C9",
"9@	c #697D97",
"0@	c #85A2C8",
"a@	c #7F9FC8",
"b@	c #7A9BC6",
"c@	c #80A296",
"d@	c #9DD963",
"e@	c #B6E587",
"f@	c #B3CA9A",
"g@	c #8EBC63",
"h@	c #78B242",
"i@	c #050A00",
"j@	c #03080F",
"k@	c #94A7C0",
"l@	c #B2C4DE",
"m@	c #465971",
"n@	c #111D2D",
"o@	c #A6BBD8",
"p@	c #7D9DC7",
"q@	c #6F93A7",
"r@	c #8BC752",
"s@	c #B0E37F",
"t@	c #85CD3E",
"u@	c #6DBB20",
"v@	c #82C344",
"w@	c #152607",
"x@	c #172638",
"y@	c #ABC1DE",
"z@	c #B1C3DC",
"A@	c #07121E",
"B@	c #637691",
"C@	c #7B9BBA",
"D@	c #75AD48",
"E@	c #A4DF6B",
"F@	c #8CD248",
"G@	c #6FBE22",
"H@	c #74BA31",
"I@	c #385C1A",
"J@	c #5E728B",
"K@	c #A0B7D5",
"L@	c #A5BCDB",
"M@	c #A8BEDC",
"N@	c #A8BED9",
"O@	c #62758E",
"P@	c #000103",
"Q@	c #000102",
"R@	c #050D17",
"S@	c #112338",
"T@	c #70A056",
"U@	c #99DB57",
"V@	c #8ED54A",
"W@	c #71C123",
"X@	c #6AB322",
"Y@	c #649733",
"Z@	c #010300",
"`@	c #A2B5CF",
" #	c #A2BAD9",
".#	c #A4BCDA",
"+#	c #B4C8E1",
"@#	c #121F30",
"##	c #030910",
"$#	c #1A293B",
"%#	c #62768F",
"&#	c #A1B3CE",
"*#	c #365B3F",
"=#	c #93D950",
"-#	c #89D43E",
";#	c #73C425",
">#	c #6AB71F",
",#	c #81C048",
"'#	c #091205",
")#	c #27384C",
"!#	c #A6BCD9",
"~#	c #9CB5D6",
"{#	c #A1B8D6",
"]#	c #7C90AA",
"^#	c #0E1A29",
"/#	c #4D6078",
"(#	c #92A6C2",
"_#	c #A6BDDC",
":#	c #A6BAD7",
"<#	c #506368",
"[#	c #89CA4C",
"}#	c #81D32F",
"|#	c #75C726",
"1#	c #6CBA20",
"2#	c #7EC13E",
"3#	c #7A9E87",
"4#	c #72859F",
"5#	c #93AED1",
"6#	c #AAC0DC",
"7#	c #24354A",
"8#	c #060F1B",
"9#	c #36485F",
"0#	c #8195B0",
"a#	c #A9BFDB",
"b#	c #94AED1",
"c#	c #94B0D3",
"d#	c #98ACC6",
"e#	c #3C4245",
"f#	c #6E706B",
"g#	c #56753A",
"h#	c #76C528",
"i#	c #6EBD21",
"j#	c #73B92F",
"k#	c #5E8F54",
"l#	c #7797C2",
"m#	c #3E5269",
"n#	c #A1B5D1",
"o#	c #92AED1",
"p#	c #93A7C1",
"q#	c #223245",
"r#	c #6B8099",
"s#	c #A6BAD6",
"t#	c #99B2D2",
"u#	c #8BA9CD",
"v#	c #89A5CC",
"w#	c #A4BAD9",
"x#	c #5A6E87",
"y#	c #23272B",
"z#	c #6A6D67",
"A#	c #626560",
"B#	c #656763",
"C#	c #535F48",
"D#	c #62A225",
"E#	c #6FA448",
"F#	c #658BB6",
"G#	c #6289BA",
"H#	c #849AB5",
"I#	c #02070C",
"J#	c #122031",
"K#	c #A7BEDC",
"L#	c #8EABD0",
"M#	c #91ACD1",
"N#	c #94AECE",
"O#	c #4F637D",
"P#	c #566A82",
"Q#	c #9CAFC9",
"R#	c #8FAACD",
"S#	c #8DAACF",
"T#	c #98B1D3",
"U#	c #8EA2BC",
"V#	c #1E2E42",
"W#	c #101213",
"X#	c #696C67",
"Y#	c #5F625D",
"Z#	c #5C5F5A",
"`#	c #5A5E58",
" $	c #5F615B",
".$	c #475960",
"+$	c #7193BE",
"@$	c #6087B9",
"#$	c #121F2E",
"$$	c #41546A",
"%$	c #8DA8CC",
"&$	c #8AA8CE",
"*$	c #8DA9CF",
"=$	c #1B2B3E",
"-$	c #0B1625",
";$	c #45576F",
">$	c #8B9EBA",
",$	c #ABC0DD",
"'$	c #91ACCE",
")$	c #8EAACF",
"!$	c #9DB1CC",
"~$	c #3A4E66",
"{$	c #070707",
"]$	c #63645F",
"^$	c #636661",
"/$	c #60635E",
"($	c #5D605B",
"_$	c #5A5C58",
":$	c #575A55",
"<$	c #585B56",
"[$	c #0B141E",
"}$	c #99AFCE",
"|$	c #5E85B8",
"1$	c #6C8FBC",
"2$	c #405369",
"3$	c #72839F",
"4$	c #83A3C9",
"5$	c #89A6CD",
"6$	c #A5B9D4",
"7$	c #050E18",
"8$	c #07121F",
"9$	c #3B4D63",
"0$	c #94AECF",
"a$	c #8EAAD0",
"b$	c #4B5F78",
"c$	c #060F19",
"d$	c #030303",
"e$	c #50524F",
"f$	c #636660",
"g$	c #61645F",
"h$	c #5E605C",
"i$	c #5B5D59",
"j$	c #585A56",
"k$	c #656762",
"l$	c #0E0E0D",
"m$	c #6D90BD",
"n$	c #5A80B4",
"o$	c #6E819C",
"p$	c #95ABC7",
"q$	c #83A2CA",
"r$	c #A5B8D5",
"s$	c #455972",
"t$	c #5B6F88",
"u$	c #7C8FAA",
"v$	c #A8BCD8",
"w$	c #8CA8CE",
"x$	c #89A6CA",
"y$	c #A7BCD8",
"z$	c #091523",
"A$	c #000101",
"B$	c #2D2F2D",
"C$	c #666964",
"D$	c #626460",
"E$	c #5F615D",
"F$	c #5C5E5A",
"G$	c #595B57",
"H$	c #5D5F5B",
"I$	c #2A2A2A",
"J$	c #070F1A",
"K$	c #95ACCA",
"L$	c #557FB4",
"M$	c #8CA3C1",
"N$	c #06101D",
"O$	c #A1B7D6",
"P$	c #82A1CA",
"Q$	c #88A4C9",
"R$	c #8AA5CA",
"S$	c #86A3C9",
"T$	c #87A5CB",
"U$	c #A5BAD9",
"V$	c #6B7D9A",
"W$	c #101E2D",
"X$	c #0C0D0C",
"Y$	c #6A6C67",
"Z$	c #595C57",
"`$	c #575954",
" %	c #4E4F4B",
".%	c #020202",
"+%	c #475A72",
"@%	c #6E92BE",
"#%	c #06111D",
"$%	c #799AC5",
"%%	c #7B9CC6",
"&%	c #7E9EC8",
"*%	c #8EA9CC",
"=%	c #A3B7D5",
"-%	c #677C96",
";%	c #18273A",
">%	c #000000",
",%	c #4F504C",
"'%	c #575955",
")%	c #636560",
"!%	c #080808",
"~%	c #93A9C8",
"{%	c #7898C6",
"]%	c #314156",
"^%	c #9FB6D5",
"/%	c #7597C3",
"(%	c #7799C4",
"_%	c #7C9CC6",
":%	c #7E9EC7",
"<%	c #819FC6",
"[%	c #A1B8D8",
"}%	c #869BB5",
"|%	c #3B4E64",
"1%	c #06101C",
"2%	c #20201F",
"3%	c #676A65",
"4%	c #61635F",
"5%	c #646661",
"6%	c #1E1F1D",
"7%	c #40536B",
"8%	c #7D9EC9",
"9%	c #60738C",
"0%	c #9DB5D4",
"a%	c #7194C1",
"b%	c #7396C2",
"c%	c #7698C4",
"d%	c #789AC4",
"e%	c #8FA9CE",
"f%	c #9BB1CE",
"g%	c #5C7189",
"h%	c #132233",
"i%	c #5E615C",
"j%	c #5B5E59",
"k%	c #62645F",
"l%	c #282827",
"m%	c #040C14",
"n%	c #8EA5C3",
"o%	c #849AB6",
"p%	c #02060A",
"q%	c #576A84",
"r%	c #8CA2BD",
"s%	c #9DB4D3",
"t%	c #99B0CE",
"u%	c #8A9FB9",
"v%	c #6F829D",
"w%	c #2F4156",
"x%	c #313330",
"y%	c #696B66",
"z%	c #60625D",
"A%	c #303230",
"B%	c #3A4D64",
"C%	c #8297B2",
"D%	c #081321",
"E%	c #7C8B6D",
"F%	c #676965",
"G%	c #393A36",
"H%	c #02050A",
"I%	c #091727",
"J%	c #11160D",
"K%	c #D5DAD0",
"L%	c #E7E9E4",
"M%	c #848581",
"N%	c #6B6D68",
"O%	c #454642",
"P%	c #020200",
"Q%	c #849473",
"R%	c #E3E6E0",
"S%	c #E0E3DD",
"T%	c #BCC5B1",
"U%	c #171A14",
"V%	c #11150D",
"W%	c #D4D9CF",
"X%	c #E8EAE5",
"Y%	c #AFBCA4",
"Z%	c #0A0C08",
"`%	c #535552",
" &	c #A6B897",
".&	c #9EAE91",
"+&	c #050704",
"@&	c #252624",
"#&	c #4E504C",
"                                          . +                                                   ",
"                                      @ # $ % & *                                               ",
"                                    = - ; > , ' ) !                                             ",
"                                  ~ { ] ^ / ( _ : < [                                           ",
"                                } | 1 2 3 4 5 6 7 8 9 0                                         ",
"                              a b c d e f g h i 6 7 j k l                                       ",
"                            m n o p q r d s 2 t u 6 7 d v                                       ",
"                            w x y z A B C D e E t i 6 F G H                                     ",
"                          I J K L M N z O q P e 2 h 5 ( Q R S                                   ",
"                        l T U V W X Y M Z `  ...+.@.4 / 7 ..#.                                  ",
"                        $.%.&.*.=.-.W ;.>.,.0 '.).!.3 ^ ( ~.{.].                                ",
"                      ^./.(._.:.<.&.[.}.].    + |.c g 1.6 F 2.3.                          4.5.6.",
"                      7.8.9.0.a.b.c.d.e.        f.g.h.h i.j.k.l.@                     m.n.o.p.q.",
"                    r.s.t.u.u.v.w.x.y.            z.A.B.^ C.D.E.F.                  G.H.I.J.K.  ",
"                  S L.M.N.O.O.P.Q.R.              S.T.U.u V., W.X.].              Y.Z.`. +.+++  ",
"                  @+#+u.O.$+%+P.&+*+                =+-+;+6 >+,+2.'+              )+!+~+{+]+^+  ",
"                /+(+_+:+<+[+}+|+1+                    1+2+6 F ,+3+4+5+          6+7+8+9+0+a+    ",
"                @+b+0.c+d+$+e+f+l                     /+g+h+>+,+i+j+k+        l+m+n+o+p+q+      ",
"              r+s+t+a.v.u+O.v+w+                        x+y+, ,+z+A+B+r+    G.C+D+E+F+G+H+      ",
"              I+J+<.K+0.v.L+M+S.                          N+O+W.P+Q+R+S+  H+T+U+V+W+X+Y+        ",
"              Z+`+*.(. @.@+@f.                            *+@@#@$@%@&@*@  =@-@;@>@,@'@          ",
"            )@!@~@-.{@]@^@/@                                (@2._@:@<@[@}@|@1@2@3@4@            ",
"            5@6@L ~@-.7@8@=+                                /+9@0@a@b@c@d@e@f@g@h@i@            ",
"          j@k@z N L X l@m@                                    n@o@p@q@r@s@t@u@v@w@              ",
"          x@L B y@y M z@A@                                    S B@C@D@E@F@G@H@I@                ",
"          J@K@L@M@O N@O@P@                                  Q@R@S@T@U@V@W@X@Y@Z@                ",
"        ,.`@f  #.#C +#@#                                ##$#%#&#*#=#-#;#>#,#'#                  ",
"        )#!#~#E s {#]#5+                          + ^#/#(#_#:#<#[#}#|#1#2#3#A@                  ",
"      S 4#5#u h @.6#7#                      r+8#9#0#a#b#c#d#e#f#g#h#i#j#k#l#m#                  ",
"      ,.n#o#6 5 u p#0                   =+q#r#s#t#u#v#w#x#y#z#A#B#C#D#E#F#G#H#I#                ",
"      J#K#L#M#C.N#O#              I#@#P#Q#P R#S#,+T#U#V#W#X#A#Y#Z#`# $.$+$@$j.#$                ",
"      $$%$&$*$, D =$        5+-$;$>$,$'$F )$k.' !$~$=+{$]$^$/$($_$:$<$[$}$|$1$2$                ",
"    P@3$4$i+5$&$6$7$  . 8$9$0#2+0$a$L#S#k.%$6$b$c$  d$e$f$g$h$i$j$k$l$  & m$n$o$S.              ",
"    =+p$%@q$$@i+r$s$t$u$v$0$w$k.k.,+W.x$y$}.z$A$    B$C$D$E$F$G$H$I$    J$K$L$M$##              ",
"    N$O$p@a@%@P$Q$R$S$T$i+#@#@#@i+S$U$V$W$S       X$Y$A#Y#Z#Z$`$ %.%      +%@%7 z$              ",
"    #%O$$%%%p@&%:@%@P$q$q$q$P$*%=%-%;%/+        >%,%A#/$H$_$'%)%!%        ^.~%{%]%              ",
"    #%^%/%(%$%b@_%p@:%&%<%[%}%|%1%P@            2%3%4%h$i$j$5%6%            7%8%9%              ",
"    #%0%a%b%/%c%(%d%e%f%g%h%I#                {$k$g$i%j%<$k%l%              m%n%o%p%            ",
"    /+q%r%s%f t%u%v%w%7$S.                    x%y%Y#Z#G$z%A%                  B%C%R@            ",
"      Q@e.1%D%R@I#A$                          E%F%B#_$H$G%                    H%I%S             ",
"                                            J%K%L%M%N%O%P%                                      ",
"                                            Q%R%S%T%U%d$                                        ",
"                                          V%W%X%Y%Z%                                            ",
"                                          `% &.&+&                                              ",
"                                          @&#&                                                  ",
"                                                                                                ",
"                                                                                                ",
"                                                                                                "};
