/* XPM */
static char * abiword_48_xpm[] = {
"48 48 590 2",
"  	c None",
". 	c #404356",
"+ 	c #4B4D66",
"@ 	c #55597B",
"# 	c #2E3147",
"$ 	c #020203",
"% 	c #484A5A",
"& 	c #8186A4",
"* 	c #777B99",
"= 	c #5D607F",
"- 	c #4A4E6C",
"; 	c #2E324F",
"> 	c #05060B",
", 	c #E1E1E1",
"' 	c #D7D7D7",
") 	c #686C83",
"! 	c #8E92AD",
"~ 	c #A1A3B9",
"{ 	c #A5A5BA",
"] 	c #525571",
"^ 	c #363954",
"/ 	c #3F4259",
"( 	c #080911",
"_ 	c #E2E2E2",
": 	c #EAEAEA",
"< 	c #EDEDED",
"[ 	c #E5E5E5",
"} 	c #BABABA",
"| 	c #4D4F5E",
"1 	c #9C9FBB",
"2 	c #BCBDCD",
"3 	c #AFB1C2",
"4 	c #646786",
"5 	c #444864",
"6 	c #2D304D",
"7 	c #393C50",
"8 	c #252636",
"9 	c #EBEBEB",
"0 	c #EEEEEE",
"a 	c #E9E9E9",
"b 	c #CFCFCF",
"c 	c #BFBFBF",
"d 	c #C0C0C0",
"e 	c #313660",
"f 	c #8E91AD",
"g 	c #B2B4C8",
"h 	c #C4C5D4",
"i 	c #707593",
"j 	c #5E627F",
"k 	c #363A58",
"l 	c #2D3051",
"m 	c #3A3D54",
"n 	c #1E1F29",
"o 	c #000000",
"p 	c #E4E4E4",
"q 	c #D6D6D6",
"r 	c #C1C1C1",
"s 	c #56596B",
"t 	c #606485",
"u 	c #B4B6CB",
"v 	c #C3C4D5",
"w 	c #ACAEC2",
"x 	c #6E708F",
"y 	c #505574",
"z 	c #383C5D",
"A 	c #34385B",
"B 	c #3A3D58",
"C 	c #282937",
"D 	c #E3E3E3",
"E 	c #ECECEC",
"F 	c #DDDDDD",
"G 	c #C2C2C2",
"H 	c #C3C3C3",
"I 	c #BBBCBD",
"J 	c #616581",
"K 	c #8A8EAF",
"L 	c #BCBED2",
"M 	c #B7B8CC",
"N 	c #8E90AA",
"O 	c #5E6382",
"P 	c #363A60",
"Q 	c #323658",
"R 	c #313454",
"S 	c #484B68",
"T 	c #0D0E13",
"U 	c #EFEFEF",
"V 	c #C4C4C4",
"W 	c #A1A3B1",
"X 	c #65698C",
"Y 	c #AEB2C8",
"Z 	c #BABCCD",
"` 	c #9DA1B7",
" .	c #64678B",
"..	c #404466",
"+.	c #393D61",
"@.	c #363A5F",
"#.	c #494C6D",
"$.	c #4E5064",
"%.	c #0B0C10",
"&.	c #E7E7E7",
"*.	c #C7C7C7",
"=.	c #C5C5C5",
"-.	c #B6B7BB",
";.	c #6D7294",
">.	c #7B7EA7",
",.	c #B1B4C9",
"'.	c #777C9C",
").	c #4F5477",
"!.	c #3D4065",
"~.	c #2E314F",
"{.	c #4F5370",
"].	c #28293A",
"^.	c #08080B",
"/.	c #E8E8E8",
"(.	c #C6C6C6",
"_.	c #BBBBBB",
":.	c #9092A6",
"<.	c #52567E",
"[.	c #A5A9BF",
"}.	c #9A9DB5",
"|.	c #656A90",
"1.	c #373B64",
"2.	c #3C3F62",
"3.	c #4C4F6E",
"4.	c #3C405D",
"5.	c #252635",
"6.	c #C8C8C8",
"7.	c #B4B5BA",
"8.	c #6C7091",
"9.	c #636893",
"0.	c #B8BACC",
"a.	c #B5B6CA",
"b.	c #767B9E",
"c.	c #51557B",
"d.	c #373B62",
"e.	c #34385E",
"f.	c #333658",
"g.	c #555876",
"h.	c #33354C",
"i.	c #090A0D",
"j.	c #F7F7F7",
"k.	c #DCDCDC",
"l.	c #BABABC",
"m.	c #B6B6B9",
"n.	c #AEAEB4",
"o.	c #B8B8BB",
"p.	c #B7B7BA",
"q.	c #C9C9C9",
"r.	c #CACACA",
"s.	c #A3A5B1",
"t.	c #434978",
"u.	c #9B9EBC",
"v.	c #BDBED0",
"w.	c #9DA1BC",
"x.	c #646A8E",
"y.	c #303564",
"z.	c #30345E",
"A.	c #313455",
"B.	c #555977",
"C.	c #3F4261",
"D.	c #232432",
"E.	c #E6E6E6",
"F.	c #B9B9BB",
"G.	c #9595A3",
"H.	c #7A7A92",
"I.	c #5C5C7E",
"J.	c #6A6A87",
"K.	c #9595A4",
"L.	c #B5B5BA",
"M.	c #CBCBCB",
"N.	c #BCBDC0",
"O.	c #8B8EA6",
"P.	c #5F6493",
"Q.	c #B9BACD",
"R.	c #BBBCCF",
"S.	c #7479A1",
"T.	c #353C6F",
"U.	c #2D3152",
"V.	c #40446A",
"W.	c #4D5171",
"X.	c #292A3F",
"Y.	c #060608",
"Z.	c #BCBCBD",
"`.	c #A7A7AF",
" +	c #57577A",
".+	c #A1A1AC",
"++	c #787891",
"@+	c #9B9BA9",
"#+	c #C4C4C5",
"$+	c #CCCCCC",
"%+	c #CDCDCD",
"&+	c #A5A7B4",
"*+	c #484E7F",
"=+	c #9699B7",
"-+	c #BDBFD1",
";+	c #A3A7C1",
">+	c #646A90",
",+	c #323A6A",
"'+	c #3A3E62",
")+	c #525578",
"!+	c #262946",
"~+	c #0D0E15",
"{+	c #72728D",
"]+	c #A4A4AE",
"^+	c #B2B2B9",
"/+	c #7F7F97",
"(+	c #C2C2C4",
"_+	c #CECECE",
":+	c #B4BBBB",
"<+	c #7B7F9E",
"[+	c #646994",
"}+	c #BDBED1",
"|+	c #787DA5",
"1+	c #394171",
"2+	c #333764",
"3+	c #30345B",
"4+	c #4C4F73",
"5+	c #5D607B",
"6+	c #191B29",
"7+	c #D8D8D8",
"8+	c #717171",
"9+	c #565656",
"0+	c #A6A6B1",
"a+	c #7C7C95",
"b+	c #BFBFC2",
"c+	c #D0D0D0",
"d+	c #B0B2BB",
"e+	c #565B86",
"f+	c #8C92B3",
"g+	c #BFC0D2",
"h+	c #A7ABC1",
"i+	c #656B91",
"j+	c #353D6D",
"k+	c #323663",
"l+	c #2F3252",
"m+	c #4E5274",
"n+	c #0B0C13",
"o+	c #ADADB5",
"p+	c #B0B0B7",
"q+	c #8F8FA2",
"r+	c #84849A",
"s+	c #ACACB6",
"t+	c #D1D1D1",
"u+	c #D2D2D2",
"v+	c #9497AE",
"w+	c #646A96",
"x+	c #7276A0",
"y+	c #343865",
"z+	c #505378",
"A+	c #191A27",
"B+	c #ABABB5",
"C+	c #8D8DA1",
"D+	c #A9A9B5",
"E+	c #9999AA",
"F+	c #D3D3D3",
"G+	c #D4D4D4",
"H+	c #444A80",
"I+	c #858BB0",
"J+	c #A3A7BE",
"K+	c #51557F",
"L+	c #363C6A",
"M+	c #30355F",
"N+	c #323561",
"O+	c #5C5F7E",
"P+	c #272A47",
"Q+	c #0E0E13",
"R+	c #DEDEDE",
"S+	c #D9D9D9",
"T+	c #B8B8BE",
"U+	c #8A8A9F",
"V+	c #B7B7BE",
"W+	c #C7C7CA",
"X+	c #9898AA",
"Y+	c #C4C4C8",
"Z+	c #D5D5D5",
"`+	c #8A8EA8",
" @	c #3C437D",
".@	c #B3B6CB",
"+@	c #5A6088",
"@@	c #2E325B",
"#@	c #515476",
"$@	c #454A6B",
"%@	c #131520",
"&@	c #272727",
"*@	c #C0C0C4",
"=@	c #9090A4",
"-@	c #B4B4BC",
";@	c #CDCDCE",
">@	c #AEAEB9",
",@	c #B1B1BC",
"'@	c #D2D2D3",
")@	c #D1D4D3",
"!@	c #686D92",
"~@	c #6D73A3",
"{@	c #B7BBCF",
"]@	c #9EA2BD",
"^@	c #384070",
"/@	c #2E3359",
"(@	c #43466B",
"_@	c #5A5E7A",
":@	c #242741",
"<@	c #2B2B2E",
"[@	c #3D3D3D",
"}@	c #282828",
"|@	c #C9C9CB",
"1@	c #A1A1B0",
"2@	c #B3B3BC",
"3@	c #CCCCCF",
"4@	c #AAAAB7",
"5@	c #C2C2C8",
"6@	c #A1A3B6",
"7@	c #363D6E",
"8@	c #B4B6CC",
"9@	c #394073",
"0@	c #353B69",
"a@	c #30355D",
"b@	c #525778",
"c@	c #2C3159",
"d@	c #0D0F15",
"e@	c #3B3B3B",
"f@	c #525252",
"g@	c #4B4B4B",
"h@	c #B4B4BD",
"i@	c #9E9EAE",
"j@	c #CECED0",
"k@	c #D0D0D2",
"l@	c #ABABB8",
"m@	c #B5B5BF",
"n@	c #CECED2",
"o@	c #D0D0D3",
"p@	c #BFC6C7",
"q@	c #898CA7",
"r@	c #898EA8",
"s@	c #B5B9C9",
"t@	c #8D91AC",
"u@	c #44486A",
"v@	c #151622",
"w@	c #353636",
"x@	c #5C5C5C",
"y@	c #5E5E5E",
"z@	c #454545",
"A@	c #F2F2F2",
"B@	c #AFAFBA",
"C@	c #C2C2C7",
"D@	c #C3C3CA",
"E@	c #B6B6C1",
"F@	c #C9C9CE",
"G@	c #B9B9C3",
"H@	c #B7B7C2",
"I@	c #ACB2B7",
"J@	c #7A7D93",
"K@	c #ADB0C3",
"L@	c #D8D8DB",
"M@	c #727892",
"N@	c #494C6F",
"O@	c #2F335E",
"P@	c #282C4C",
"Q@	c #1D1D22",
"R@	c #595959",
"S@	c #646464",
"T@	c #737373",
"U@	c #787878",
"V@	c #1C1C1C",
"W@	c #DBDBDB",
"X@	c #B6B6BF",
"Y@	c #C0C0C6",
"Z@	c #D1D1D3",
"`@	c #CACACF",
" #	c #C7C7CD",
".#	c #CDADAA",
"+#	c #F5EEDC",
"@#	c #C9DDDA",
"##	c #BACCCC",
"$#	c #7A7D99",
"%#	c #4D5070",
"&#	c #434769",
"*#	c #3E4364",
"=#	c #65687E",
"-#	c #13151F",
";#	c #393A3A",
">#	c #535353",
",#	c #5F5F5F",
"'#	c #6D6D6D",
")#	c #828282",
"!#	c #959595",
"~#	c #8B8B8B",
"{#	c #C1C1C7",
"]#	c #BCBCC4",
"^#	c #CECED1",
"/#	c #C4C4CB",
"(#	c #C2C2CA",
"_#	c #DFDFDF",
":#	c #E0E0E0",
"<#	c #AD9B96",
"[#	c #FFFBFA",
"}#	c #DECBD1",
"|#	c #0F0F0F",
"1#	c #B4CB9B",
"2#	c #848E9D",
"3#	c #686B86",
"4#	c #6B6D87",
"5#	c #1B1C32",
"6#	c #2B3030",
"7#	c #474747",
"8#	c #686868",
"9#	c #797979",
"0#	c #939393",
"a#	c #AFAFAF",
"b#	c #B1B1B1",
"c#	c #CBCBCF",
"d#	c #C1C1C9",
"e#	c #9B9B8C",
"f#	c #BABAAE",
"g#	c #E1E1DD",
"h#	c #F3F3F3",
"i#	c #700F12",
"j#	c #892C0F",
"k#	c #7C848F",
"l#	c #575973",
"m#	c #161828",
"n#	c #444544",
"o#	c #575757",
"p#	c #636363",
"q#	c #898989",
"r#	c #A5A5A5",
"s#	c #F1F1F1",
"t#	c #D0D0D4",
"u#	c #9F9F8A",
"v#	c #BBBB93",
"w#	c #F7F7DE",
"x#	c #FBFBF4",
"y#	c #F3EFE0",
"z#	c #BBBAA7",
"A#	c #D5CAC7",
"B#	c #630F0F",
"C#	c #BB150F",
"D#	c #6F282E",
"E#	c #142719",
"F#	c #515151",
"G#	c #606060",
"H#	c #818181",
"I#	c #9B9B9B",
"J#	c #B7B7B7",
"K#	c #9E9E93",
"L#	c #BDBD88",
"M#	c #F4F4CB",
"N#	c #FAFAE9",
"O#	c #FCFCF6",
"P#	c #EFEFD8",
"Q#	c #DADA96",
"R#	c #545400",
"S#	c #51433D",
"T#	c #7E110A",
"U#	c #570F0B",
"V#	c #434343",
"W#	c #919191",
"X#	c #AEAEAE",
"Y#	c #F4F4F4",
"Z#	c #A4A480",
"`#	c #F1F1B7",
" $	c #F7F7DB",
".$	c #FDFDF3",
"+$	c #FBFBEF",
"@$	c #EEEECD",
"#$	c #DADA6F",
"$$	c #BFBF00",
"%$	c #333302",
"&$	c #211C1D",
"*$	c #383838",
"=$	c #656565",
"-$	c #A4A4A4",
";$	c #F8F8F8",
">$	c #FBFBFB",
",$	c #909090",
"'$	c #B4B4B4",
")$	c #CFCF91",
"!$	c #F4F4C8",
"~$	c #E4E4D2",
"{$	c #686866",
"]$	c #F9F9F6",
"^$	c #F0F0C1",
"/$	c #E0E000",
"($	c #BABA00",
"_$	c #6E6E02",
":$	c #707070",
"<$	c #838383",
"[$	c #9C9C9C",
"}$	c #B8B8B8",
"|$	c #FDFDFD",
"1$	c #FEFEFE",
"2$	c #F6F6F6",
"3$	c #F0F0F0",
"4$	c #ADADAD",
"5$	c #F0F0AF",
"6$	c #F6F6D6",
"7$	c #A2A299",
"8$	c #EBEBAB",
"9$	c #D8D800",
"0$	c #BCBC00",
"a$	c #737302",
"b$	c #3F3F3F",
"c$	c #626262",
"d$	c #7F7F7F",
"e$	c #969696",
"f$	c #FCFCFC",
"g$	c #FFFFFF",
"h$	c #F9F9F9",
"i$	c #F2F2C3",
"j$	c #F8F8E2",
"k$	c #BDBDBB",
"l$	c #D0D0CD",
"m$	c #E9E9BD",
"n$	c #D7D700",
"o$	c #B9B900",
"p$	c #909000",
"q$	c #777704",
"r$	c #444444",
"s$	c #696969",
"t$	c #7A7A7A",
"u$	c #ABABAB",
"v$	c #F5F5D2",
"w$	c #FAFAEC",
"x$	c #B3B3AD",
"y$	c #ECECD0",
"z$	c #D1D16F",
"A$	c #A6A600",
"B$	c #858500",
"C$	c #8E8E01",
"D$	c #373737",
"E$	c #5D5D5D",
"F$	c #727272",
"G$	c #888888",
"H$	c #A2A2A2",
"I$	c #B0B0B0",
"J$	c #F8F8DF",
"K$	c #C8C8C0",
"L$	c #E3E3DF",
"M$	c #D7D7A5",
"N$	c #8C8C00",
"O$	c #676700",
"P$	c #0E0E0E",
"Q$	c #2F2F20",
"R$	c #585858",
"S$	c #6A6A6A",
"T$	c #7D7D7D",
"U$	c #B3B3B3",
"V$	c #DADADA",
"W$	c #B6B6B6",
"X$	c #7B7B7B",
"Y$	c #F9F9E9",
"Z$	c #9B9B95",
"`$	c #DFDFB8",
" %	c #717100",
".%	c #111111",
"+%	c #2C2C2C",
"@%	c #505050",
"#%	c #767676",
"$%	c #8A8A8A",
"%%	c #A6A6A6",
"&%	c #AAAAAA",
"*%	c #676767",
"=%	c #B2B2B2",
"-%	c #C3C3BA",
";%	c #F2F2E0",
">%	c #7E7E01",
",%	c #252525",
"'%	c #5B5B5B",
")%	c #9F9F9F",
"!%	c #B9B9B9",
"~%	c #F5F5F5",
"{%	c #FAFAFA",
"]%	c #8D8D8D",
"^%	c #A7A7A4",
"/%	c #78781F",
"(%	c #757575",
"_%	c #2B2B2B",
":%	c #BEBEBE",
"<%	c #63635F",
"[%	c #404040",
"}%	c #868686",
"|%	c #999999",
"1%	c #ACACAC",
"2%	c #A7A7A7",
"3%	c #4A4A4A",
"4%	c #979797",
"5%	c #878787",
"6%	c #292929",
"7%	c #8C8C8C",
"8%	c #242424",
"9%	c #A9A9A9",
"                                                                                                ",
"                                                                    . + @ # $                   ",
"                                                                  % & * = - ; >                 ",
"                                                      , '       ) ! ~ { ] ^ / (                 ",
"                                                _ : < [ }     | 1 2 3 4 5 6 7 8                 ",
"                                          [ 9 0 a b c c d   e f g h i j k l m n o               ",
"                                    p a 0 9 q d c c d r c s t u v w x y z A B C o               ",
"                              D a 0 E F r d c c d r G H I J K L M N O P Q R S T o               ",
"                        _ a U < D V r d c c d r G H V c W X Y Z `  ...+.@.#.$.%.o o             ",
"                    &.< 0 &.*.r d c c c d r G H V =.V -.;.>.Z ,.'.).!.+.~.{.].^.o o             ",
"              /.< 0 : b G r d c c d r r G H V =.(.*._.:.<.[.Z }.|.1.2.Q 3.4.5.o o o             ",
"        /.< U 9 q H G r d c c d r G H H V =.(.*.6.6.7.8.9.0.a.b.c.d.e.f.g.h.i.o o               ",
"      j.E k.V H G r l.m.n.o.p.r H V =.(.(.*.6.q.r.(.s.t.u.v.w.x.y.z.A.B.C.D.o o o               ",
"      E.H H G r d F.G.H.I.J.K.L.=.(.*.6.6.q.r.M.M.N.O.P.Q.R.S.T.e U.V.W.X.Y.o o o               ",
"      9 r r d c Z.`. +.+H V ++@+#+6.q.r.M.M.$+%+=.&+*+=+-+;+>+,+e '+)+!+~+o o o                 ",
"      [ M.c c d .+{+]+V =.(.^+/+(+r.M.$+%+%+_+_+:+<+[+Q.}+|+1+2+3+4+5+6+o o o o                 ",
"      7+D r r G 8+9+=.(.*.6.0+a+b+$+%+_+b c+c+$+d+e+f+g+h+i+j+k+l+m+!+n+o o o                   ",
"        E H H V o+p+*.6.q.r.q+r+s+_+b c+t+u+u+q.v+w+Q.-+x+1+y+3+z+g.A+o o o o                   ",
"        /.=.(.(.*.6.q.r.M.B+C+D+E+c+t+u+F+G+F+u+H+I+}+J+K+L+M+N+O+P+Q+o o o o                   ",
"        R+S+6.6.q.r.M.$+T+U+V+W+X+Y+F+G+Z+q _+`+ @.@Q.+@j+k+@@#@$@%@&@o o o                     ",
"          9 r.M.M.$+%+*@=@-@t+;@>@,@'@q ' ' )@!@~@{@]@^@2+/@(@_@:@<@[@}@o o                     ",
"          a $+%+%+_+|@1@2@c+F+G+3@4@5@7+S+G+6@7@Y 8@9@0@e a@b@c@d@e@f@g@o o                     ",
"          , D b c+c+h@i@j@G+Z+q k@l@m@n@o@p@q@r@s@t@j+2+@@u@{.v@w@g@x@y@z@o                     ",
"            A@t+u+u+B@C@j@q ' q D@E@F@G@H@I@J@K@L@M@N@3+O@5+P@Q@z@R@S@T@U@V@                    ",
"            p W@G+Z+X@Y@Z@7+S+`@E@ #F R+k..#+#@###$#%#&#*#=#-#;#>#,#'#)#!#~#                    ",
"              A@q ' {#]#^#^#/#H@(#F _#:#H <#[#}#|#1#2#3#4#5#6#7#x@8#9#0#a#b#)#                  ",
"              < F S+c#H@E@H@G@d#F :#_#r.e#f#g#h#G+i#j#k#l#m#n#o#p#T@q#r#d 7+q.                  ",
"                s#W@k.W@o@t#R+:#, _ $+u#v#w#x#y#z#A#B#C#D#E#F#G#'#H#I#J#t+D U d                 ",
"                U p R+_#_#:#, _ D W@K#L#M#N#O#P#Q#R#S#T#U#V#x@8#9#W#X#q.R+< Y#9 X#              ",
"                  U :#, , _ D p [ *.Z#`# $.$+$@$#$$$%$&$*$o#=$T@q#-$d 7+a h#;$>$U ,$            ",
"                  U a D D p [ E.&.'$)$!$~${$]$^$/$($_$e@x@S@:$<$[$}$u+[ A@;$>$|$1$2$            ",
"                    3$[ E.E.&./.a 4$5$6$7$o ;$8$9$0$a$b$c$'#d$e$b#M.:#U ;$f$1$g$g$g$h$          ",
"                    U 0 /./.a : : X#i$j$k$l$m$n$o$p$q$r$s$t$W#u$(.k.E j.f$1$g$g$g$g$g$1$a#      ",
"                      h#: 9 9 E E a#v$w$x$y$z$A$B$C$D$E$F$G$H$c 7+: 2$f$1$g$g$g$g$>$:#(.!#      ",
"                      : h#< < 0 0 I$J$K$L$M$N$O$P$Q$R$S$T$e$U$c+E.Y#>$1$g$g$g$0 V$W$X$          ",
"                        2$U 3$3$3$b#Y$Z$`$ %.%+%@%p#s$#%$%%%=.R+3$h$|$g$g$/.b &%*%              ",
"                        &.2$A@A@A@=%-%;%>%,%'%S$8#'#U@G$)%!%G+/.~%f${%, q.]%g@                  ",
"                          Y#Y#~%Y#U$^%/%D$)#T$F$(%d$,$H$J#_+_ s#9 S+}$X$_%                      ",
"                            h$j.2$:%<%[%H$I#}%)#~#|%1%:%t+, Z+%+2%3%                            ",
"                            E.h$h$< r.G c %%4%4%-$W$q.F+r.:%5%6%                                ",
"                              A@>$;$3$:#M.W$4$=%d H G u$T@                                      ",
"                                j.f$~%a S+M.G }$W$7%V#                                          ",
"                                  3$h$s#R+H r#U@8%                                              ",
"                                    _+q 9%F$                                                    ",
"                                                                                                ",
"                                                                                                ",
"                                                                                                ",
"                                                                                                "};
