/* XPM */
static const char * menu_delete_column_xpm[] = {
"16 16 19 1",
" 	c None",
".	c #000000",
"+	c #FFFFFF",
"@	c #E4E4E4",
"#	c #ECECEC",
"$	c #B8B8B8",
"%	c #FCFCFC",
"&	c #F7F7F1",
"*	c #E6E6DA",
"=	c #CCCC98",
"-	c #9E9E91",
";	c #CCCC97",
">	c #9D9D90",
",	c #F5F5ED",
"'	c #E1E1D3",
")	c #ABAB9A",
"!	c #7E7E7C",
"~	c #330000",
"{	c #CE3131",
"  .....   ..... ",
"  .++@.....++@. ",
"  .+#$.%&*.+#$. ",
"  .+#$.&=-.+#$. ",
"  .+#$.&;>.+#$. ",
"  .+#$.&;>.+#$. ",
"  .+#$.&;>.+#$. ",
"  .@$$.&;>.@$$. ",
"  .....,=-..... ",
"      .')!.     ",
"      ..~..     ",
"                ",
"                ",
"      {{ {{     ",
"       {{{      ",
"      {{ {{     "};
