/* XPM */
static const char * menu_subscript_xpm[] = {
"16 16 59 1",
" 	c None",
".	c #000000",
"+	c #BFBFBF",
"@	c #F5F5F5",
"#	c #F6F6F6",
"$	c #F7F7F7",
"%	c #F8F8F8",
"&	c #F9F9F9",
"*	c #B9B9B9",
"=	c #E1E1E1",
"-	c #E2E2E2",
";	c #E3E3E3",
">	c #E4E4E4",
",	c #E5E5E5",
"'	c #E7E7E7",
")	c #E8E8E8",
"!	c #E9E9E9",
"~	c #EAEAEA",
"{	c #EBEBEB",
"]	c #EDEDED",
"^	c #EEEEEE",
"/	c #EFEFEF",
"(	c #F0F0F0",
"_	c #4C4C4C",
":	c #2B2B2B",
"<	c #F1F1F1",
"[	c #DCDCDC",
"}	c #353535",
"|	c #434343",
"1	c #C4C4C4",
"2	c #F3F3F3",
"3	c #959595",
"4	c #7D7D7D",
"5	c #949494",
"6	c #757575",
"7	c #4A4A4A",
"8	c #F4F4F4",
"9	c #474747",
"0	c #CDCDCD",
"a	c #DFDFDF",
"b	c #2D2D2D",
"c	c #4B4B4B",
"d	c #DADADA",
"e	c #131313",
"f	c #3A3A3A",
"g	c #C3C3C3",
"h	c #909090",
"i	c #818181",
"j	c #9C9C9C",
"k	c #727272",
"l	c #414141",
"m	c #C9C9C9",
"n	c #E0E0E0",
"o	c #252525",
"p	c #FAFAFA",
"q	c #FBFBFB",
"r	c #FCFCFC",
"s	c #BEBEBE",
"t	c #C1C1C1",
" .............  ",
" +@@####$$%%&&* ",
".@=-;>,')!~{]^/.",
".@-;>,')!~{]^/(.",
".#;>,_:!~{]^/(<.",
".#>,[}|1{]^/(<2.",
".#,'3456]7..._8.",
".#')90ab^/c._8@.",
".$)deffeg(<_8@#.",
".$!hi]^jk<28@#$.",
".%~lm^/no2...$&.",
".&]^/(<28@#.&pq.",
".&^/(<28@#$.pqr.",
".s/(<28@#$&pqrt ",
"  ............  ",
"                "};
