/* XPM */
static const char * menu_cut_xpm[] = {
"16 16 23 1",
" 	c None",
".	c #000000",
"+	c #D9D8D2",
"@	c #D1CEC3",
"#	c #E0DED9",
"$	c #C8C4B8",
"%	c #CCCAC6",
"&	c #C3C2BC",
"*	c #E5E3DD",
"=	c #A09D94",
"-	c #4E4E4E",
";	c #D8D6D1",
">	c #C8C5B9",
",	c #54514D",
"'	c #E4E2DD",
")	c #9D9A94",
"!	c #D0CCC1",
"~	c #BFBBB1",
"{	c #C7C4BB",
"]	c #CAC5BB",
"^	c #161614",
"/	c #161616",
"(	c #0D0D0C",
"                ",
"    .     .     ",
"    .     .     ",
"   .+.   .@.    ",
"   .#.   .$.    ",
"   .%&. .*=.    ",
"    -;. .>,     ",
"    .').!~.     ",
"     .{.]^      ",
"      ./(       ",
"   .... ....    ",
"  .  .   .  .   ",
"  .  .   .  .   ",
"  .  .   .  .   ",
"   ..     ..    ",
"                "};
