/* XPM */
static const char *menu_revert_xpm[] = {
/* width height num_colors chars_per_pixel */
"    16    16      110            2",
/* colors */
".. c None",
".# c #000000",
".a c #766b3f",
".b c #f7f8fa",
".c c #cbddeb",
".d c #5d5332",
".e c #efe5ba",
".f c #7a7a7a",
".g c #e9e9e9",
".h c #eaeaea",
".i c #f1f1f1",
".j c #bfd5e8",
".k c #dce5e8",
".l c #5a5230",
".m c #eee5bb",
".n c #eed680",
".o c #231f13",
".p c #2a2516",
".q c #12100a",
".r c #707070",
".s c #ababab",
".t c #c0c0c0",
".u c #e0e0e0",
".v c #8da9be",
".w c #54697c",
".x c #574f2e",
".y c #efe4b6",
".z c #ccb76d",
".A c #96864f",
".B c #636363",
".C c #fefefe",
".D c #f9f9f9",
".E c #84a0b5",
".F c #4f6475",
".G c #4b4428",
".H c #eee2b2",
".I c #af9d5d",
".J c #919191",
".K c #819aae",
".L c #496072",
".M c #494227",
".N c #8f6406",
".O c #d1940c",
".P c #d7a328",
".Q c #deb446",
".R c #a49357",
".S c #cfcfcf",
".T c #302c19",
".U c #765204",
".V c #9e7009",
".W c #d9aa35",
".X c #909090",
".Y c #666e75",
".Z c #272315",
".0 c #986b07",
".1 c #737373",
".2 c #5c4003",
".3 c #b07d0a",
".4 c #767676",
".5 c #cfe0ed",
".6 c #6c7e87",
".7 c #1e1a0f",
".8 c #896611",
".9 c #676d73",
"#. c #54595e",
"## c #986b08",
"#a c #57626a",
"#b c #6b7c85",
"#c c #221e11",
"#d c #0b0b06",
"#e c #576876",
"#f c #ae9141",
"#g c #847645",
"#h c #8ca8bd",
"#i c #8e96a0",
"#j c #616161",
"#k c #c5c5c5",
"#l c #cecece",
"#m c #e0c978",
"#n c #131d24",
"#o c #a0a8af",
"#p c #183042",
"#q c #c9b46b",
"#r c #817444",
"#s c #0e222d",
"#t c #586d80",
"#u c #97a5b0",
"#v c #86a4b9",
"#w c #cdcdcd",
"#x c #ae9c5c",
"#y c #626262",
"#z c #112835",
"#A c #5a7082",
"#B c #9da9b0",
"#C c #6b7882",
"#D c #839eb2",
"#E c #e6e6e6",
"#F c #213648",
"#G c #666666",
"#H c #8d8d8d",
"#I c #112c3a",
"#J c #9fa9b0",
"#K c #59636d",
"#L c #a1a1a1",
"#M c #868686",
"#N c #6e6e6e",
"#O c #2d3949",
"#P c #3e4f5c",
"#Q c #80878f",
"#R c #1a3140",
/* pixels */
"...#.#.#.a.#.#.#.#.#.#.#.#.#.#..",
".#.b.c.d.e.#.f.g.g.g.h.g.i.j.j.#",
".#.k.l.m.n.#.o.p.q.r.s.t.u.v.w.#",
".#.x.y.n.n.n.n.z.A.#.B.C.D.E.F.#",
".G.H.n.n.n.n.n.n.n.I.#.J.i.K.L.#",
".M.N.O.O.O.O.O.P.Q.n.R.#.S.K.L.#",
".#.T.N.O.O.#.#.U.V.W.z.#.X.K.L.#",
".#.Y.Z.0.O.#.1.#.2.3.n.#.4.K.L.#",
".#.5.6.7.8.#.9#..###.n.##a.K.L.#",
".#.5.v#b#c#d#e.K.##f#g.#.K.K.L.#",
".#.5.v#h#i#j#k#l.##m.##n#o.K.L.#",
".#.5.v.E#k#k#p.##q#r.##s#t#u.L.#",
".#.5#v.K#k#w.##x.A.##y#z#A#B.L.#",
".##C#D.K#w#E#F.#.##G#H#I#A#J.L.#",
"...##K.F#L.t.X.X#M#N.f#O#P#Q#R.#",
".....#.#.#.#.#.#.#.#.#.#.#.#.#.."
};
