/* XPM */
static const char * menu_font_xpm[] = {
"16 16 44 1",
" 	c None",
".	c #080808",
"+	c #000000",
"@	c #F0F4F0",
"#	c #F8F8F8",
"$	c #E0E0E0",
"%	c #E0E4E0",
"&	c #E8E8E8",
"*	c #E8ECE8",
"=	c #B0B0B0",
"-	c #282C28",
";	c #000400",
">	c #101410",
",	c #888C88",
"'	c #F0F0F0",
")	c #202020",
"!	c #989898",
"~	c #B0B4B0",
"{	c #080C08",
"]	c #D0D0D0",
"^	c #707470",
"/	c #484848",
"(	c #181C18",
"_	c #C0C4C0",
":	c #303030",
"<	c #A8A8A8",
"[	c #C0C0C0",
"}	c #808080",
"|	c #505450",
"1	c #B8B8B8",
"2	c #D0D4D0",
"3	c #505050",
"4	c #404040",
"5	c #808480",
"6	c #101010",
"7	c #909490",
"8	c #A8ACA8",
"9	c #686868",
"0	c #404440",
"a	c #282828",
"b	c #707070",
"c	c #D8D8D8",
"d	c #202420",
"e	c #F8FCF8",
"  .+++++++++++  ",
"  @@@@@@@@####  ",
"+@$$$%%%&&&&***+",
"+@$=-;>,&&&***'+",
"+@$)!$~{&&***''+",
"+@%]^/(+&_+('''+",
"+@%:,<[+*}+|''@+",
"+@%.123+*4+).5@+",
"+@&566}+%;+7+>@+",
"+@&&&***8+-*+;@+",
"+#&&***'9+1~+0#+",
"+#***'''a+~b{2#+",
"+#**'''c+d/.8#e+",
"  *'''@@@@###e  ",
"  ++++++++++++  ",
"                "};
