/* XPM */
static char * menu_split_cells_xpm[] = {
"16 16 14 1",
" 	c None",
".	c #000000",
"+	c #DEDEDE",
"@	c #A2A2A2",
"#	c #CECECE",
"$	c #D3D3D3",
"%	c #9A9A9A",
"&	c #C3C3C3",
"*	c #8E8E8E",
"=	c #F2F2F2",
"-	c #B1B1B1",
";	c #E0E0E0",
">	c #A3A3A3",
",	c #D0D0D0",
"................",
".++@++@++@++@+#.",
".+$%$$%$$%$$%$&.",
".@%%%%%%%%%%%%*.",
".+$%=====-====;.",
".+$%=====-====;.",
".@%%---------->.",
".+$%==-==-==-=;.",
".+$%==-==-==-=;.",
".@%%==-==-==-=;.",
".+$%==-==-==-=;.",
".+$%==-==-==-=;.",
".@%%---------->.",
".+$%=====-====;.",
".#&*;;;;;>;;;;,.",
"................"};
