/* XPM */
static const char * menu_text_right_xpm[] = {
"16 16 41 1",
" 	c None",
".	c #000000",
"+	c #BFBFBF",
"@	c #F5F5F5",
"#	c #F6F6F6",
"$	c #F7F7F7",
"%	c #F8F8F8",
"&	c #F9F9F9",
"*	c #B9B9B9",
"=	c #E1E1E1",
"-	c #E2E2E2",
";	c #E3E3E3",
">	c #E4E4E4",
",	c #E5E5E5",
"'	c #E7E7E7",
")	c #E8E8E8",
"!	c #E9E9E9",
"~	c #EAEAEA",
"{	c #EBEBEB",
"]	c #EDEDED",
"^	c #EEEEEE",
"/	c #EFEFEF",
"(	c #6F6F6F",
"_	c #707070",
":	c #717171",
"<	c #727272",
"[	c #F0F0F0",
"}	c #F1F1F1",
"|	c #737373",
"1	c #F3F3F3",
"2	c #F4F4F4",
"3	c #747474",
"4	c #757575",
"5	c #767676",
"6	c #777777",
"7	c #787878",
"8	c #FAFAFA",
"9	c #FBFBFB",
"0	c #FCFCFC",
"a	c #BEBEBE",
"b	c #C1C1C1",
" .............  ",
" +@@####$$%%&&* ",
".@=-;>,')!~{]^/.",
".@-;>,'(__:<</[.",
".#;>,')!~{]^/[}.",
".#>,')!~:<<||}1.",
".#,')!~{]^/[}12.",
".#')!_:<<||342@.",
".$)!~{]^/[}12@#.",
".$!~{]^/[3445#$.",
".%~{]^/[}12@#$&.",
".&]^/[}44556789.",
".&^/[}12@#$&890.",
".a/[}12@#$&890b ",
"  ............  ",
"                "};
