/* XPM */
static const char * menu_text_strikethrough_xpm[] = {
"16 16 55 1",
" 	c None",
".	c #000000",
"+	c #BFBFBF",
"@	c #F5F5F5",
"#	c #F6F6F6",
"$	c #F7F7F7",
"%	c #F8F8F8",
"&	c #F9F9F9",
"*	c #B9B9B9",
"=	c #E1E1E1",
"-	c #E2E2E2",
";	c #E3E3E3",
">	c #E4E4E4",
",	c #E5E5E5",
"'	c #E7E7E7",
")	c #E8E8E8",
"!	c #E9E9E9",
"~	c #EAEAEA",
"{	c #EBEBEB",
"]	c #EDEDED",
"^	c #EEEEEE",
"/	c #EFEFEF",
"(	c #F0F0F0",
"_	c #D0D0D0",
":	c #020202",
"<	c #0A0A0A",
"[	c #DDDDDD",
"}	c #F1F1F1",
"|	c #797979",
"1	c #8A8A8A",
"2	c #F3F3F3",
"3	c #202020",
"4	c #3C3C3C",
"5	c #2D2D2D",
"6	c #F4F4F4",
"7	c #AEAEAE",
"8	c #8F8F8F",
"9	c #757575",
"0	c #BDBDBD",
"a	c #060606",
"b	c #DBDBDB",
"c	c #070707",
"d	c #0B0B0B",
"e	c #E6E6E6",
"f	c #888888",
"g	c #ADADAD",
"h	c #919191",
"i	c #1F1F1F",
"j	c #151515",
"k	c #303030",
"l	c #FAFAFA",
"m	c #FBFBFB",
"n	c #BEBEBE",
"o	c #FCFCFC",
"p	c #C1C1C1",
" .............  ",
" +@@####$$%%&&* ",
".@=-;>,')!~{]^/.",
".@-;>,,,,,{]^/(.",
".#;>>,_:<[{]/(}.",
".#>,,'|..1]^(}2.",
".#,'''3435^/}26.",
".#'))7.89.0(26@.",
".$)aaaaaaaaaa@#.",
".$!~bc....de@#$.",
".%~{f.+/(g.h#$&.",
".&]^5i/(}(jk&lm.",
".&^)))((((&&&&&.",
".n/(}26@#$&lmop ",
"  ............  ",
"                "};
