/* XPM */
static const char *menu_exec_xpm[] = {
/* width height num_colors chars_per_pixel */
"    16    16       38            1",
/* colors */
". c None",
"# c #000000",
"a c #dddcda",
"b c #eeeeee",
"c c #b2b2b0",
"d c #484641",
"e c #9f9d96",
"f c #888781",
"g c #9d9c98",
"h c #91908a",
"i c #908e86",
"j c #97958e",
"k c #807d74",
"l c #595854",
"m c #605e57",
"n c #898883",
"o c #76746b",
"p c #43423f",
"q c #282724",
"r c #363430",
"s c #6d6b63",
"t c #eeeeed",
"u c #b6b5af",
"v c #21201e",
"w c #0a0908",
"x c #181816",
"y c #e6e6e4",
"z c #65635c",
"A c #161614",
"B c #8c8b89",
"C c #dfdedc",
"D c #b0afa9",
"E c #d5d4d1",
"F c #93918b",
"G c #aba9a3",
"H c #5d5c55",
"I c #494943",
"J c #42413c",
/* pixels */
"................",
".......###......",
"....##.#a#.##...",
"...#bc#ded#f##..",
"...#gheeeijkd#..",
"....#eelmnko#...",
"..##dempqresd##.",
"..#tuelvwxykzm#.",
"..##denrABCzd##.",
"....#DkuyEFz#...",
"...#uGekkooHd#..",
"...##l#dod#I##..",
"....##.#J#.##...",
".......###......",
"................",
"................"
};
