/* XPM */
static char * menu_merge_cells_xpm[] = {
"16 16 12 1",
" 	c None",
".	c #000000",
"+	c #DEDEDE",
"@	c #A2A2A2",
"#	c #CECECE",
"$	c #D3D3D3",
"%	c #9A9A9A",
"&	c #C3C3C3",
"*	c #8E8E8E",
"=	c #F2F2F2",
"-	c #E0E0E0",
";	c #D0D0D0",
"................",
".++@++@++@++@+#.",
".+$%$$%$$%$$%$&.",
".@%%%%%%%%%%%%*.",
".+$%==========-.",
".+$%==========-.",
".@%%==========-.",
".+$%==========-.",
".+$%==========-.",
".@%%==========-.",
".+$%==========-.",
".+$%==========-.",
".@%%==========-.",
".+$%==========-.",
".#&*----------;.",
"................"};
