/* XPM */
static const char * menu_text_bottomline_xpm[] = {
"16 16 37 1",
" 	c None",
".	c #3A3A3A",
"+	c #3C3C3C",
"@	c #3D3D3D",
"#	c #3E3E3E",
"$	c #333333",
"%	c #E9E9E9",
"&	c #EAEAEA",
"*	c #EBEBEB",
"=	c #ECECEC",
"-	c #EDEDED",
";	c #EEEEEE",
">	c #EFEFEF",
",	c #F0F0F0",
"'	c #F1F1F1",
")	c #F2F2F2",
"!	c #323232",
"~	c #000000",
"{	c #F3F3F3",
"]	c #E6E6E6",
"^	c #F4F4F4",
"/	c #949494",
"(	c #E2E2E2",
"_	c #E8E8E8",
":	c #F5F5F5",
"<	c #F7F7F7",
"[	c #F6F6F6",
"}	c #F8F8F8",
"|	c #F9F9F9",
"1	c #FAFAFA",
"2	c #FBFBFB",
"3	c #FCFCFC",
"4	c #FDFDFD",
"5	c #353535",
"6	c #E1E1E1",
"7	c #FEFEFE",
"8	c #FFFFFF",
" .++@@@@@@@@##@$",
".%%&&*=-;>>,'))!",
"+%%&&*=~;>,'){]!",
"@&&*==-~>,'){^'!",
"@*%~~/-!~~()/~!!",
"@_*=(!>~'(~^!({!",
"@%(!~~,~){~:~<:!",
"@%~;>~'~^^~[~}]!",
"@*!(>~'!{^![~(<!",
"@((~!/!/!~(}/!!!",
"#]);>)')^^)[)}|!",
"#])(>)'){^)[)(|!",
"#(!!!!!!!!!!!!!!",
"@)){^(((}|12234!",
"56::[<}|134788:!",
" ~~~~~~~~~~~~~~!"};
