/* XPM */
static const char * menu_import_xpm[] = {
"16 16 90 1",
" 	c None",
".	c #000000",
"+	c #E4E5DF",
"@	c #D5D6CB",
"#	c #D6D7CA",
"$	c #A3A39D",
"%	c #F5F6F0",
"&	c #8D907B",
"*	c #92957E",
"=	c #90937D",
"-	c #979B84",
";	c #6D705F",
">	c #EAECDB",
",	c #8A8C7D",
"'	c #8E917B",
")	c #91947F",
"!	c #8B8E7A",
"~	c #999B87",
"{	c #919480",
"]	c #989B86",
"^	c #B1B4A2",
"/	c #A2A394",
"(	c #F7F7F7",
"_	c #878A75",
":	c #666858",
"<	c #4B4D3F",
"[	c #4D4F40",
"}	c #404135",
"|	c #424337",
"1	c #434437",
"2	c #404236",
"3	c #3C3D32",
"4	c #48493C",
"5	c #1A1A16",
"6	c #C6C6BE",
"7	c #848672",
"8	c #25261F",
"9	c #F1F2E9",
"0	c #DDE0C7",
"a	c #D6DABB",
"b	c #CDD2AC",
"c	c #C7CCA7",
"d	c #989C80",
"e	c #C6C7BE",
"f	c #5F6152",
"g	c #888980",
"h	c #A7AB8C",
"i	c #878A70",
"j	c #9FA19A",
"k	c #EFF0E5",
"l	c #B0B594",
"m	c #8B8F75",
"n	c #80817B",
"o	c #96968D",
"p	c #E3E5D1",
"q	c #807F7A",
"r	c #97998D",
"s	c #EDEFE2",
"t	c #A2A09B",
"u	c #97958F",
"v	c #898781",
"w	c #8E8C85",
"x	c #838078",
"y	c #767671",
"z	c #E7E9DA",
"A	c #D1D3BD",
"B	c #BBBF9D",
"C	c #7B7973",
"D	c #67655F",
"E	c #403F3B",
"F	c #686661",
"G	c #7C7A72",
"H	c #6E6D6B",
"I	c #9A9992",
"J	c #53524E",
"K	c #171614",
"L	c #767573",
"M	c #9B9993",
"N	c #53514B",
"O	c #7B7A75",
"P	c #86847D",
"Q	c #9A9996",
"R	c #B7B6B3",
"S	c #7D7B75",
"T	c #8C8A85",
"U	c #6C6A65",
"V	c #78756C",
"W	c #5F5D56",
"X	c #54534D",
"Y	c #41403B",
"  ....          ",
" .+@#$.         ",
".%&*=-;.....    ",
".>,')!~{]{^/.   ",
".(_:<[}||12345  ",
".67890abbbbbcd. ",
".efg0bbbbbbbhi. ",
".j8kabbblm....  ",
".nopbbbb...q... ",
".rsbbbbb.tuvwx. ",
".yzABBB..CDEFG..",
" .......HIJKLMN.",
"       ..OPQRS..",
"        .TUVWX. ",
"        ...Y... ",
"          ...   "};
