/* XPM */
static const char * menu_superscript_xpm[] = {
"16 16 56 1",
" 	c None",
".	c #000000",
"+	c #BFBFBF",
"@	c #F5F5F5",
"#	c #F6F6F6",
"$	c #F7F7F7",
"%	c #F8F8F8",
"&	c #F9F9F9",
"*	c #B9B9B9",
"=	c #E1E1E1",
"-	c #E2E2E2",
";	c #E3E3E3",
">	c #E4E4E4",
",	c #E5E5E5",
"'	c #E7E7E7",
")	c #E8E8E8",
"!	c #E9E9E9",
"~	c #EBEBEB",
"{	c #EEEEEE",
"]	c #EFEFEF",
"^	c #EAEAEA",
"/	c #F0F0F0",
"(	c #F1F1F1",
"_	c #4C4C4C",
":	c #2B2B2B",
"<	c #EDEDED",
"[	c #F3F3F3",
"}	c #DDDDDD",
"|	c #353535",
"1	c #434343",
"2	c #C5C5C5",
"3	c #4B4B4B",
"4	c #F4F4F4",
"5	c #959595",
"6	c #7D7D7D",
"7	c #767676",
"8	c #474747",
"9	c #CECECE",
"0	c #E0E0E0",
"a	c #2D2D2D",
"b	c #DBDBDB",
"c	c #131313",
"d	c #3A3A3A",
"e	c #C4C4C4",
"f	c #919191",
"g	c #828282",
"h	c #9D9D9D",
"i	c #737373",
"j	c #424242",
"k	c #CBCBCB",
"l	c #262626",
"m	c #FAFAFA",
"n	c #FBFBFB",
"o	c #FCFCFC",
"p	c #BEBEBE",
"q	c #C1C1C1",
" .............  ",
" +@@####$$%%&&* ",
".@=-;>,')!.~.{].",
".@-;>,')!^...]/.",
".#;>,')!^~.{./(.",
".#>,'_:^~<{]/([.",
".#,'}|12<{]3([4.",
".#')5657{]3._4@.",
".$)!890a]3..._#.",
".$!bcddce([4@#$.",
".%^fg{]hi[4@#$&.",
".&<jk/(;l@#$&mn.",
".&{]/([4@#$&mno.",
".p]/([4@#$&mnoq ",
"  ............  ",
"                "};
