/* XPM */
static char * menu_add_row_xpm[] = {
"16 16 48 1",
" 	c None",
".	c #000000",
"+	c #FFFFFF",
"@	c #C1C1C1",
"#	c #EBEBEB",
"$	c #E0E0E0",
"%	c #AAAAAA",
"&	c #E2E2E2",
"*	c #E4E4E4",
"=	c #E5E5E5",
"-	c #E7E7E7",
";	c #E9E9E9",
">	c #EAEAEA",
",	c #ECECEC",
"'	c #EEEEEE",
")	c #EFEFEF",
"!	c #F1F1F1",
"~	c #DFDFDF",
"{	c #ABABAB",
"]	c #ACACAC",
"^	c #ADADAD",
"/	c #AFAFAF",
"(	c #B0B0B0",
"_	c #B1B1B1",
":	c #B3B3B3",
"<	c #B5B5B5",
"[	c #B6B6B6",
"}	c #B7B7B7",
"|	c #DEDEDE",
"1	c #CCCCCC",
"2	c #B2B2B2",
"3	c #B4B4B4",
"4	c #B8B8B8",
"5	c #B9B9B9",
"6	c #BABABA",
"7	c #EED680",
"8	c #DBC575",
"9	c #BBBBBB",
"0	c #BCBCBC",
"a	c #BDBDBD",
"b	c #BEBEBE",
"c	c #BFBFBF",
"d	c #C0C0C0",
"e	c #E8E8E8",
"f	c #D9D9D9",
"g	c #A6A6A6",
"h	c #C9C9C9",
"i	c #AEAEAE",
"................",
".++@++++++++++#.",
".+$%&*=-;>,')!~.",
".@%{]^/(_::<[}%.",
".+&]||||||<|||1.",
".+.^||||||[|||1.",
".+../(2:3[[456^.",
".+...7777747778.",
".+..77777757778.",
".+._2:<[}5590a(.",
".+>2||||||9|||1.",
".+#:||||||0|||1.",
".+,3<[45600bcd2.",
".+'<||||||b|||1.",
".efghhhhhhihhh5.",
"................"};
