/* XPM */
static const char * menu_spellcheck_xpm[] = {
"16 16 11 1",
" 	c None",
".	c #000000",
"+	c #5B9159",
"@	c #8ABA88",
"#	c #132C13",
"$	c #77A676",
"%	c #A8CBA6",
"&	c #6D9D6C",
"*	c #B8D6B8",
"=	c #9FC59D",
"-	c #93BE92",
"                ",
" ...  ....      ",
"..  . ..  .     ",
"..  . ....      ",
"..... ..  .     ",
"..  . ..  .     ",
"..  . ....    . ",
"             .+.",
"    ..      .+. ",
"    .@.    .+.  ",
"     #$.  .+.   ",
"     .%&..+.    ",
"      .*++.     ",
"      .=-.      ",
"       ..       ",
"                "};
