/* XPM */
static const char * menu_search_xpm[] = {
"16 16 61 1",
" 	c None",
".	c #000000",
"+	c #FEFEFE",
"@	c #FDFDFD",
"#	c #E0E0E0",
"$	c #C1C1C1",
"%	c #F1F1F1",
"&	c #C3C3C3",
"*	c #FBFBFB",
"=	c #A8A8A8",
"-	c #ADADAD",
";	c #767676",
">	c #5D5D5D",
",	c #404040",
"'	c #898989",
")	c #E2E2E2",
"!	c #858585",
"~	c #4B4B49",
"{	c #161616",
"]	c #888888",
"^	c #6C6C6C",
"/	c #D6D6D6",
"(	c #F3F3F3",
"_	c #EEEEEE",
":	c #C5C5C5",
"<	c #EFEFEF",
"[	c #CACACA",
"}	c #F6F6F6",
"|	c #D2D2D2",
"1	c #ECECEC",
"2	c #C4C4C4",
"3	c #B4B4B4",
"4	c #E7E7E7",
"5	c #F9F9F9",
"6	c #E3E3E3",
"7	c #EBEBEB",
"8	c #EDEDED",
"9	c #838383",
"0	c #666666",
"a	c #B3B3B3",
"b	c #6B6B6B",
"c	c #6F6F6F",
"d	c #CFCFCF",
"e	c #EAEAEA",
"f	c #E8E8E8",
"g	c #848484",
"h	c #5B5B5B",
"i	c #CDCDCD",
"j	c #C0C0C0",
"k	c #E9E9E9",
"l	c #A9A9A9",
"m	c #E6E6E6",
"n	c #E5E5E5",
"o	c #B2B2B2",
"p	c #E4E4E4",
"q	c #A5A5A5",
"r	c #C2C2C2",
"s	c #BDBDBD",
"t	c #BCBCBC",
"u	c #BBBBBB",
"v	c #A0A0A0",
"  .........     ",
" .++++++@#$.    ",
" .+%%%%%%&*=.   ",
" .+%%%%%%-;>,.  ",
" .+%%'..')!~{.  ",
" .+%]^/(^]__:.  ",
" .+<.[}+(.|12.  ",
" .@_.3456.|7&.  ",
" .@890a$bcde$.  ",
" .@7fg..h..ij.  ",
" .@eekkfi...l.  ",
" .@fmmmmm3....  ",
" .@44mmmnno...  ",
" .@mnnnpp66oq.  ",
" .rsssttuuuuv.  ",
"  ...........   "};
