/* XPM */
static const char * menu_export_xpm[] = {
"16 16 100 2",
"  	c None",
". 	c #000000",
"+ 	c #F7F8FA",
"@ 	c #CBDDEB",
"# 	c #C88A80",
"$ 	c #D18F84",
"% 	c #807F7A",
"& 	c #DBE7F1",
"* 	c #8DA9BE",
"= 	c #B7877E",
"- 	c #C77568",
"; 	c #C77467",
"> 	c #A29F9A",
", 	c #97958F",
"' 	c #898781",
") 	c #8E8C85",
"! 	c #838078",
"~ 	c #CFE0ED",
"{ 	c #D7D7D7",
"] 	c #FEFEFE",
"^ 	c #7B7973",
"/ 	c #67655F",
"( 	c #403F3B",
"_ 	c #686661",
": 	c #7C7A72",
"< 	c #6F6E6C",
"[ 	c #9A9992",
"} 	c #53524E",
"| 	c #171614",
"1 	c #767573",
"2 	c #9B9993",
"3 	c #52514B",
"4 	c #7C7B76",
"5 	c #86847D",
"6 	c #9A9996",
"7 	c #B7B6B3",
"8 	c #7D7B75",
"9 	c #D4D4D4",
"0 	c #8D8B86",
"a 	c #6C6A65",
"b 	c #78756C",
"c 	c #5F5D56",
"d 	c #54534D",
"e 	c #EEEEEE",
"f 	c #F2F2F2",
"g 	c #EBEBEB",
"h 	c #45443F",
"i 	c #AEBFCD",
"j 	c #CAD6DF",
"k 	c #C7CFDA",
"l 	c #BFCBD6",
"m 	c #819AAE",
"n 	c #496072",
"o 	c #89A6BC",
"p 	c #7F9AAE",
"q 	c #7E99AD",
"r 	c #7D97AC",
"s 	c #8CA8BD",
"t 	c #A8B1BD",
"u 	c #C5C5C5",
"v 	c #CECECE",
"w 	c #9C9D9D",
"x 	c #2F4656",
"y 	c #80868C",
"z 	c #84A0B5",
"A 	c #183042",
"B 	c #33495A",
"C 	c #D6D6D6",
"D 	c #B9B9B9",
"E 	c #132D3C",
"F 	c #586D80",
"G 	c #97A5B0",
"H 	c #86A4B9",
"I 	c #CDCDCD",
"J 	c #2E4353",
"K 	c #5A7082",
"L 	c #BFBFBF",
"M 	c #112835",
"N 	c #9DA9B0",
"O 	c #6B7882",
"P 	c #839EB2",
"Q 	c #E6E6E6",
"R 	c #213648",
"S 	c #5F7989",
"T 	c #C2C2C2",
"U 	c #B2B2B2",
"V 	c #112C3A",
"W 	c #9FA9B0",
"X 	c #59636D",
"Y 	c #4F6475",
"Z 	c #A1A1A1",
"` 	c #C0C0C0",
" .	c #909090",
"..	c #868686",
"+.	c #6E6E6E",
"@.	c #7A7A7A",
"#.	c #2D3949",
"$.	c #3E4F5C",
"%.	c #80878F",
"&.	c #1A3140",
"  . . . . . . . . . . . . . .   ",
". + @ # $ $ $ $ . . . % . . . . ",
". & * = - ; ; ; . > , ' ) ! . . ",
". ~ * { ] ] ] . . ^ / ( _ : . . ",
". ~ * { { { { . < [ } | 1 2 3 . ",
". ~ * { ] ] ] . . 4 5 6 7 8 . . ",
". ~ * { { { { 9 . 0 a b c d . . ",
". ~ * e ] ] f g . . . h . . . . ",
". ~ * i j k l l l l . . . m n . ",
". ~ * * o p m m m m q r m m n . ",
". ~ * s t u u v g { w x y m n . ",
". ~ * z u u A B C u D E F G n . ",
". ~ H m u I J K u u L M K N n . ",
". O P m I Q R S u T U V K W n . ",
"  . X Y Z `  . ...+.@.#.$.%.&.. ",
"    . . . . . . . . . . . . .   "};
