/* XPM */
static const char * menu_text_overline_xpm[] = {
"16 16 57 1",
" 	c None",
".	c #000000",
"+	c #BFBFBF",
"@	c #F5F5F5",
"#	c #F6F6F6",
"$	c #F7F7F7",
"%	c #F8F8F8",
"&	c #F9F9F9",
"*	c #B9B9B9",
"=	c #E1E1E1",
"-	c #E2E2E2",
";	c #E3E3E3",
">	c #E4E4E4",
",	c #E5E5E5",
"'	c #E7E7E7",
")	c #E8E8E8",
"!	c #E9E9E9",
"~	c #EAEAEA",
"{	c #EBEBEB",
"]	c #EDEDED",
"^	c #EEEEEE",
"/	c #EFEFEF",
"(	c #2D2D2D",
"_	c #F0F0F0",
":	c #F1F1F1",
"<	c #D0D0D0",
"[	c #535353",
"}	c #DDDDDD",
"|	c #F3F3F3",
"1	c #797979",
"2	c #8A8A8A",
"3	c #F4F4F4",
"4	c #202020",
"5	c #3C3C3C",
"6	c #AEAEAE",
"7	c #8F8F8F",
"8	c #757575",
"9	c #BDBDBD",
"0	c #060606",
"a	c #DEDEDE",
"b	c #CACACA",
"c	c #5E5E5E",
"d	c #DBDBDB",
"e	c #070707",
"f	c #0B0B0B",
"g	c #E6E6E6",
"h	c #888888",
"i	c #ADADAD",
"j	c #919191",
"k	c #FAFAFA",
"l	c #FBFBFB",
"m	c #1F1F1F",
"n	c #151515",
"o	c #303030",
"p	c #FCFCFC",
"q	c #BEBEBE",
"r	c #C1C1C1",
" .............  ",
" +@@####$$%%&&* ",
".@=-;>,')!~{]^/.",
".@--((((((((-/_.",
".#;>,'))))]^/_:.",
".#>,>,<[[}{]_:|.",
".#,','1..2]^:|3.",
".#')''454(^/|3@.",
".$)!)6.78.9_3@#.",
".$!~![0ab.c:@#$.",
".%~{de....fg#$&.",
".&]^h.+/_i.j&kl.",
".&^)(m/_:_no)lp.",
".q/_:|3@#$&klpr ",
"  ............  ",
"                "};
