/* XPM */
static const char * menu_undo_xpm[] = {
"16 16 35 1",
" 	c None",
".	c #000000",
"+	c #F7F3DF",
"@	c #F9F6EA",
"#	c #EED680",
"$	c #303030",
"%	c #F9F5E4",
"&	c #F4E4AD",
"*	c #F7EECC",
"=	c #EFE4C2",
"-	c #948A6F",
";	c #F9F5E6",
">	c #F1DD97",
",	c #D1B051",
"'	c #F2EFE4",
")	c #C0A048",
"!	c #C3A970",
"~	c #D1940C",
"{	c #E0B74C",
"]	c #D9C374",
"^	c #BCA36B",
"/	c #D59D1C",
"(	c #B1933F",
"_	c #BEA56F",
":	c #986B07",
"<	c #DFB74A",
"[	c #CCB76D",
"}	c #BC9F5F",
"|	c #B8820A",
"1	c #D9A72E",
"2	c #D4B150",
"3	c #A39256",
"4	c #E2CB79",
"5	c #C9B46B",
"6	c #8D7E4A",
"      .         ",
"     ..         ",
"    .+.         ",
"   .@#....      ",
"  $%##&*=-..    ",
" .;>######,..   ",
".'>########).   ",
" .!~~~~~~{#].   ",
"  .^~~~~~~/#(.  ",
"   ._~...:~<[.  ",
"    .}.  .|1#.  ",
"     ..   .~#.  ",
"      .   .23.  ",
"          .4.   ",
"         .56.   ",
"          ..    "};
