/* XPM */
static const char * menu_hyperlink_xpm[] = {
"16 16 121 2",
"  	c None",
". 	c #000000",
"+ 	c #686868",
"@ 	c #CCCCCC",
"# 	c #F4F4F4",
"$ 	c #8E8E8E",
"% 	c #787878",
"& 	c #DCDCDC",
"* 	c #2B4743",
"= 	c #2E4646",
"- 	c #354C4D",
"; 	c #2A4348",
"> 	c #21373B",
", 	c #081C1F",
"' 	c #0F1A18",
") 	c #546D67",
"! 	c #B7C7D3",
"~ 	c #E2EBF8",
"{ 	c #BDCFE5",
"] 	c #C6D4EC",
"^ 	c #97A6D1",
"/ 	c #375178",
"( 	c #0E293E",
"_ 	c #888888",
": 	c #EFEFEF",
"< 	c #AAAAAA",
"[ 	c #F3FAFD",
"} 	c #DFEBF2",
"| 	c #DFEDF0",
"1 	c #D8E4EE",
"2 	c #CBD9E9",
"3 	c #ADC1DC",
"4 	c #849CCD",
"5 	c #6982B3",
"6 	c #FAFAFA",
"7 	c #A9A9A9",
"8 	c #F5FDFD",
"9 	c #F9FFFD",
"0 	c #F5FEFA",
"a 	c #DFEBF0",
"b 	c #C3D3E5",
"c 	c #ABBED9",
"d 	c #92AAD0",
"e 	c #61849E",
"f 	c #EBEBEB",
"g 	c #626262",
"h 	c #CDDEE6",
"i 	c #CBDCE4",
"j 	c #ECF4F7",
"k 	c #DFECF2",
"l 	c #B9CBE0",
"m 	c #B7CEDB",
"n 	c #B7CAD8",
"o 	c #98B1C3",
"p 	c #010101",
"q 	c #A8A9AA",
"r 	c #040505",
"s 	c #CEDEE6",
"t 	c #B9CFDC",
"u 	c #C4D5E0",
"v 	c #C0D2E0",
"w 	c #CCDCE7",
"x 	c #E0EDF0",
"y 	c #A8BED1",
"z 	c #567495",
"A 	c #030405",
"B 	c #AAACB0",
"C 	c #202223",
"D 	c #A0BBC3",
"E 	c #9BB8C2",
"F 	c #E2EEF2",
"G 	c #C7D6E0",
"H 	c #ABC2D5",
"I 	c #B5C9D9",
"J 	c #486989",
"K 	c #6E8E99",
"L 	c #A0A0A0",
"M 	c #090D10",
"N 	c #A8ADB7",
"O 	c #2B333B",
"P 	c #BECCDF",
"Q 	c #9DB8C1",
"R 	c #B6C9DB",
"S 	c #6E8CAA",
"T 	c #8CA9BF",
"U 	c #AABFD4",
"V 	c #5C79A2",
"W 	c #86A1A9",
"X 	c #F9F9F9",
"Y 	c #0E151A",
"Z 	c #99A3AB",
"` 	c #3D4755",
" .	c #98B0C1",
"..	c #93ADC2",
"+.	c #7A98BE",
"@.	c #3D6082",
"#.	c #587892",
"$.	c #C5D3E5",
"%.	c #405C86",
"&.	c #284462",
"*.	c #54595A",
"=.	c #57696F",
"-.	c #2C3C42",
";.	c #6E9091",
">.	c #7C9AB6",
",.	c #63839E",
"'.	c #4D6E86",
").	c #3A5781",
"!.	c #5D7B93",
"~.	c #57748B",
"{.	c #3F5D71",
"].	c #152B2E",
"^.	c #3F626B",
"/.	c #44686E",
"(.	c #668A95",
"_.	c #44636E",
":.	c #506E97",
"<.	c #183651",
"[.	c #2F4E6E",
"}.	c #51709A",
"|.	c #597A94",
"                                ",
"                                ",
"                                ",
"  . + @ # $ % .                 ",
"    . . & . .                   ",
"      . @ .       * = - ; > ,   ",
"    . . @ . . ' ) ! ~ { ] ^ / ( ",
"  . _ : < @ % . [ } | 1 2 3 4 5 ",
"  . 6 . $ . 7 . 8 9 0 a b c d e ",
"  . f . g . 7 . h i j k l m n o ",
"  . @ . . p q r s t u v w x y z ",
"  . @ . . A B C D E F G H I J K ",
"  . @ . L M N O P Q R S T U V W ",
"  . @ . X Y Z `  ...+.@.#.$.%.&.",
"          *.=.-.;.>.,.'.).!.~.{.",
"            ].^./.(._.:.<.[.}.|."};
