/* XPM */
static const char * menu_insert_graphic_xpm[] = {
"16 16 23 1",
" 	c None",
".	c #000000",
"+	c #494227",
"@	c #EFE3BC",
"#	c #F5E9BF",
"$	c #ECDEAF",
"%	c #F2E1A5",
"&	c #EED680",
"*	c #E0C978",
"=	c #E87B61",
"-	c #E46143",
";	c #A59458",
">	c #DF421E",
",	c #C2C8D0",
"'	c #BBA764",
")	c #828282",
"!	c #8BA2BB",
"~	c #7D220D",
"{	c #C7D0D8",
"]	c #7590AE",
"^	c #617891",
"/	c #6A6A6A",
"(	c #9EB1C6",
"                ",
"                ",
"        ...     ",
"       +@#$+    ",
"      .@%&&*.   ",
"  ......&&&&.   ",
"  .=---..;&*.   ",
"  .->>>.,.'+    ",
"  .->>>)!..     ",
"  .->>~{]^.     ",
"  .->>/(]].     ",
"  ....{]]]^.    ",
"     .......    ",
"                ",
"                ",
"                "};
