/* XPM */
static const char * menu_file_properties_xpm[] = {
"16 16 54 1",
" 	c None",
".	c #000000",
"+	c #FEFEFE",
"@	c #FDFDFD",
"#	c #E0E0E0",
"$	c #C1C1C1",
"%	c #A8A8A8",
"&	c #F1F1F1",
"*	c #C3C3C3",
"=	c #FBFBFB",
"-	c #FFFFFF",
";	c #EFEFEF",
">	c #BEBEBE",
",	c #CACACA",
"'	c #ADADAD",
")	c #767676",
"!	c #5D5D5D",
"~	c #404040",
"{	c #F0F0F0",
"]	c #E2E2E2",
"^	c #858585",
"/	c #4B4B49",
"(	c #161616",
"_	c #BDBDBD",
":	c #B3B3B3",
"<	c #EEEEEE",
"[	c #C5C5C5",
"}	c #ECECEC",
"|	c #C4C4C4",
"1	c #D3D3D3",
"2	c #BCBCBC",
"3	c #C7C7C7",
"4	c #EBEBEB",
"5	c #EAEAEA",
"6	c #C2C2C2",
"7	c #E8E8E8",
"8	c #686E83",
"9	c #C0C0C0",
"0	c #E9E9E9",
"a	c #878BA5",
"b	c #7C84A3",
"c	c #E7E7E7",
"d	c #BFBFBF",
"e	c #E6E6E6",
"f	c #A7A2A6",
"g	c #9795A1",
"h	c #E5E5E5",
"i	c #686D83",
"j	c #676D82",
"k	c #E4E4E4",
"l	c #9F9F9F",
"m	c #E3E3E3",
"n	c #BBBBBB",
"o	c #A0A0A0",
"   .........    ",
"  .++++++@#$.   ",
" ..+..%&&&*=%.  ",
".-.+.;.>,&')!~. ",
".-...;.&&{]^/(. ",
".-;;;*._:#;<<[. ",
" .-;*.;<<<<<}|. ",
"  .-.:1:22334*. ",
"  .-.}}}44555$. ",
" .-;*.67888879. ",
".-;;;*.08ab8cd. ",
".-...;.e8fg8h>. ",
".-.@.;.e8iijk_. ",
" ..@..lhkkmmmn. ",
"  .6___22nnnno. ",
"   ...........  "};
