/* XPM */
static char * menu_add_column_xpm[] = {
"16 16 48 1",
" 	c None",
".	c #000000",
"+	c #FFFFFF",
"@	c #C1C1C1",
"#	c #EBEBEB",
"$	c #E0E0E0",
"%	c #AAAAAA",
"&	c #E2E2E2",
"*	c #ECECEC",
"=	c #EEEEEE",
"-	c #EFEFEF",
";	c #F1F1F1",
">	c #DFDFDF",
",	c #ABABAB",
"'	c #ACACAC",
")	c #ADADAD",
"!	c #B3B3B3",
"~	c #B5B5B5",
"{	c #B6B6B6",
"]	c #B7B7B7",
"^	c #EED680",
"/	c #DEDEDE",
"(	c #CCCCCC",
"_	c #E3E3E3",
":	c #E4E4E4",
"<	c #AEAEAE",
"[	c #AFAFAF",
"}	c #B0B0B0",
"|	c #B2B2B2",
"1	c #B4B4B4",
"2	c #B8B8B8",
"3	c #B9B9B9",
"4	c #BABABA",
"5	c #E6E6E6",
"6	c #E7E7E7",
"7	c #E8E8E8",
"8	c #B1B1B1",
"9	c #BBBBBB",
"0	c #BCBCBC",
"a	c #BDBDBD",
"b	c #EAEAEA",
"c	c #BEBEBE",
"d	c #BFBFBF",
"e	c #C0C0C0",
"f	c #D9D9D9",
"g	c #A6A6A6",
"h	c #D6C173",
"i	c #C9C9C9",
"................",
".++@++++++++++#.",
".+$%&.....*=-;>.",
".@%,')...!!~{]%.",
".+&'^^^.^^~///(.",
".+_)^^^^^^{///(.",
".+:<[}|!1{{234).",
".+5[^^^^^^2///(.",
".+6}^^^^^^3///(.",
".+78|!~{]3390a}.",
".+b|^^^^^^9///(.",
".+#!^^^^^^0///(.",
".+*1~{23400cde|.",
".+=~^^^^^^c///(.",
".7fghhhhhh<iii3.",
"................"};
