/* XPM */
static const char *menu_search_replace_xpm[] = {
/* width height num_colors chars_per_pixel */
"    16    16       76            2",
/* colors */
".. c None",
".# c #000000",
".a c #fefefe",
".b c #fdfdfd",
".c c #e0e0e0",
".d c #c1c1c1",
".e c #f1f1f1",
".f c #c3c3c3",
".g c #fbfbfb",
".h c #a8a8a8",
".i c #898989",
".j c #adadad",
".k c #767676",
".l c #5d5d5d",
".m c #404040",
".n c #6c6c6c",
".o c #f5f5f5",
".p c #d8d8d8",
".q c #e2e2e2",
".r c #858585",
".s c #4b4b49",
".t c #161616",
".u c #f3f3f3",
".v c #f7f7f7",
".w c #cacaca",
".x c #efefef",
".y c #eeeeee",
".z c #c4c4c4",
".A c #e4e4e4",
".B c #f9f9f9",
".C c #e7e7e7",
".D c #b4b4b4",
".E c #eaeaea",
".F c #a49626",
".G c #634a1e",
".H c #707070",
".I c #6b6b6b",
".J c #b5b5b5",
".K c #666666",
".L c #848484",
".M c #ececec",
".N c #fceb3d",
".O c #f7b544",
".P c #5f522d",
".Q c #868686",
".R c #ebebeb",
".S c #e8e8e8",
".T c #f9df39",
".U c #f7b545",
".V c #6c5f34",
".W c #f8d837",
".X c #efb44d",
".Y c #584d2b",
".Z c #878787",
".0 c #cfcfcf",
".1 c #e9e9e9",
".2 c #f6d236",
".3 c #eda43e",
".4 c #584e2b",
".5 c #cdcdcd",
".6 c #e6e6e6",
".7 c #d7ae74",
".8 c #61562f",
".9 c #6f6f6f",
"#. c #e5e5e5",
"## c #4f4115",
"#a c #a9a9a9",
"#b c #e3e3e3",
"#c c #b7b7b7",
"#d c #bbbbbb",
"#e c #c2c2c2",
"#f c #bdbdbd",
"#g c #bababa",
"#h c #b0b0b0",
"#i c #9f9f9f",
"#j c #a0a0a0",
/* pixels */
".....#.#.#.#.#.#.#.#.#..........",
"...#.a.a.a.a.a.a.b.c.d.#........",
"...#.a.e.e.e.e.e.e.f.g.h.#......",
"...#.a.e.i.#.#.i.e.j.k.l.m.#....",
"...#.a.i.n.o.p.n.i.q.r.s.t.#....",
"...#.a.#.u.a.v.w.#.x.y.y.z.#.#..",
"...#.a.#.A.B.C.D.#.y.y.E.#.F.G.#",
"...#.b.H.I.z.J.K.L.y.M.#.N.O.P.#",
"...#.#.#.l.#.#.Q.R.S.#.T.U.V.#..",
"...#.#.#.Q.S.S.S.C.#.W.X.Y.#....",
".#.#.#.Z.0.1.1.C.#.2.3.4.#.#....",
".#.#.h.5.6.6.6.A.#.7.8.#.9.#....",
"...#.b.C.C.6#..###.#.#.i#a.#....",
"...#.b.6#.#.#b.#.#.L#c#b#d.#....",
"...##e#f#f#f#g#h#i#d#d#d#j.#....",
".....#.#.#.#.#.#.#.#.#.#.#......"
};
