/* XPM */
static const char * menu_text_underline_xpm[] = {
"16 16 60 1",
" 	c None",
".	c #000000",
"+	c #BFBFBF",
"@	c #F5F5F5",
"#	c #F6F6F6",
"$	c #F7F7F7",
"%	c #F8F8F8",
"&	c #F9F9F9",
"*	c #B9B9B9",
"=	c #E1E1E1",
"-	c #E2E2E2",
";	c #E3E3E3",
">	c #E4E4E4",
",	c #E5E5E5",
"'	c #E7E7E7",
")	c #E8E8E8",
"!	c #E9E9E9",
"~	c #EAEAEA",
"{	c #EBEBEB",
"]	c #EDEDED",
"^	c #EEEEEE",
"/	c #EFEFEF",
"(	c #D0D0D0",
"_	c #020202",
":	c #0A0A0A",
"<	c #DDDDDD",
"[	c #F0F0F0",
"}	c #797979",
"|	c #8A8A8A",
"1	c #F1F1F1",
"2	c #202020",
"3	c #3C3C3C",
"4	c #2D2D2D",
"5	c #F3F3F3",
"6	c #AEAEAE",
"7	c #8F8F8F",
"8	c #757575",
"9	c #BDBDBD",
"0	c #F4F4F4",
"a	c #535353",
"b	c #060606",
"c	c #DEDEDE",
"d	c #CACACA",
"e	c #5E5E5E",
"f	c #DBDBDB",
"g	c #070707",
"h	c #0B0B0B",
"i	c #E6E6E6",
"j	c #888888",
"k	c #ADADAD",
"l	c #919191",
"m	c #1F1F1F",
"n	c #151515",
"o	c #303030",
"p	c #FAFAFA",
"q	c #FBFBFB",
"r	c #B7B7B7",
"s	c #FCFCFC",
"t	c #BEBEBE",
"u	c #C1C1C1",
" .............  ",
" +@@####$$%%&&* ",
".@=-;>,')!~{]^/.",
".@-;>,(_:<{]^/[.",
".#;>,'}..|]^/[1.",
".#>,''2324^/[15.",
".#,')6.78.9[150.",
".#')!abcd.e150@.",
".$)!fg....hi0@#.",
".$!~j.+/[k.l@#$.",
".%~{4m/[1[no#$&.",
".&]^/[150@#$&pq.",
".&^r........kqs.",
".t/[150@#$&pqsu ",
"  ............  ",
"                "};
