/* XPM */
static char * menu_delete_row_xpm[] = {
"16 16 27 1",
" 	c None",
".	c #000000",
"+	c #D7D7D7",
"@	c #B5B5B5",
"#	c #FFFFFF",
"$	c #E7E7E7",
"%	c #CCCCCC",
"&	c #ACACAC",
"*	c #F2F2F2",
"=	c #C9C9C9",
"-	c #DF421E",
";	c #E6BEB5",
">	c #CAA299",
",	c #F3CBC1",
"'	c #E7795F",
")	c #FCF1EF",
"!	c #FDFBFA",
"~	c #FDF6F4",
"{	c #F9DFDA",
"]	c #FBECE9",
"^	c #B0B0B0",
"/	c #B1B1B1",
"(	c #ADADAD",
"_	c #959595",
":	c #D1D1D1",
"<	c #FBEAE7",
"[	c #FDF9F8",
"                ",
" .............. ",
" .++++@######$. ",
" .+%%%&******=. ",
" .+%%%&******=. ",
" .------------. ",
" .-;;;>,,,,,,-. ",
" .-;;;>,,,,,,-. ",
" .-;;;>,,,,,,-. ",
" .-;;;>,,'------",
" .--------)!-~{-",
" .+%%%&**-!#]#~-",
" .+%%%&**--)#]--",
" .=^/(_%:-~#<#[-",
" ........-)[-~{-",
"         -------"};
