/* XPM */
static const char * menu_redo_xpm[] = {
"16 16 46 1",
" 	c None",
".	c #000000",
"+	c #9FA59A",
"@	c #E3EBD8",
"#	c #92998C",
"$	c #292929",
"%	c #A5A99E",
"&	c #EAEEE8",
"*	c #E8EDDF",
"=	c #EAF0E3",
"-	c #D5E2C5",
";	c #C2D6A9",
">	c #99A28F",
",	c #CFD9CE",
"'	c #EAEFE3",
")	c #CFDDBE",
"!	c #D2E0BF",
"~	c #C5D7AE",
"{	c #BAD09D",
"]	c #919889",
"^	c #B2BBA9",
"/	c #EAEFE5",
"(	c #D4E1C3",
"_	c #D1DFBE",
":	c #BFD3A6",
"<	c #616B54",
"[	c #4E4E4E",
"}	c #DEE3DA",
"|	c #DAE5CE",
"1	c #92AD62",
"2	c #7C9B40",
"3	c #59702D",
"4	c #B7BEAD",
"5	c #DFE9D4",
"6	c #85A24D",
"7	c #53692A",
"8	c #D7DFCF",
"9	c #9BB572",
"0	c #D5E1C4",
"a	c #6D8839",
"b	c #C7D9B0",
"c	c #657255",
"d	c #98AF74",
"e	c #AFC394",
"f	c #6D7A5B",
"g	c #9CAF84",
"         .      ",
"         ..     ",
"         .+.    ",
"      ....@#.   ",
"     $%&*=-;>.  ",
"    .,')!~{{{]. ",
"   .^/(_:{{{{{<.",
"  .[}|12222223. ",
"  .4562222227.  ",
"  .8923...27.   ",
"  .02a.  .3.    ",
"  .b2..  ..     ",
"  .cd.   .      ",
"   .e.          ",
"   .fg.         ",
"    ...         "};
