/* XPM */
static const char * menu_help_xpm[] = {
"16 16 83 1",
" 	c None",
".	c #000000",
"+	c #857C60",
"@	c #E2DAC1",
"#	c #F6F2E6",
"$	c #F8F5EA",
"%	c #F8F4E8",
"&	c #F4F0E0",
"*	c #DED6BA",
"=	c #81795E",
"-	c #171716",
";	c #E7E0CA",
">	c #F9F6ED",
",	c #FAF8F0",
"'	c #FBF9F1",
")	c #F6F3E4",
"!	c #F6F0DF",
"~	c #E1D9BD",
"{	c #161615",
"]	c #F0EAD9",
"^	c #F9F6EB",
"/	c #FBFAF5",
"(	c #363635",
"_	c #060606",
":	c #121211",
"<	c #8A8882",
"[	c #F8F4E7",
"}	c #F6F1E0",
"|	c #F4EFDC",
"1	c #EAE3CA",
"2	c #CBC1A0",
"3	c #FDFBF8",
"4	c #909090",
"5	c #D8D8D7",
"6	c #3F3F3F",
"7	c #080808",
"8	c #FBF8F1",
"9	c #F6F2E2",
"0	c #F3ECD6",
"a	c #C5BA95",
"b	c #F3EDDC",
"c	c #E1E1DE",
"d	c #1A1A19",
"e	c #3E3E3D",
"f	c #FEFEFE",
"g	c #EDE6CD",
"h	c #323130",
"i	c #333331",
"j	c #ECEBEA",
"k	c #FCFCF8",
"l	c #F4EEDA",
"m	c #F2ECD4",
"n	c #F1EAD1",
"o	c #F1ECD9",
"p	c #F7F3E5",
"q	c #98968F",
"r	c #D6D6D3",
"s	c #FDFCF9",
"t	c #F6F2E4",
"u	c #F5EFDE",
"v	c #F3EDD7",
"w	c #F2EBD2",
"x	c #C8BE9B",
"y	c #DCD9CD",
"z	c #EFEDE4",
"A	c #F7F3E6",
"B	c #C5BA94",
"C	c #F2EEE0",
"D	c #959289",
"E	c #F5EFDF",
"F	c #E9E1C6",
"G	c #FFFFFF",
"H	c #F7F4E6",
"I	c #DED5B6",
"J	c #151514",
"K	c #F1E9CF",
"L	c #EFE8D2",
"M	c #EEE7CE",
"N	c #D8CFAE",
"O	c #7E765B",
"P	c #E8DAAD",
"Q	c #757575",
"R	c #4C4C4C",
"     ......     ",
"   .+@#$%&*=.   ",
"  -;>,',>$)!~{  ",
" .]^,/(_:<[}|1. ",
".2[>'3456789|0a.",
".b[^,/3cdef}|0g.",
".!)$>,'hijk!lmn.",
".o9p$^>qrstuvwg.",
".xu9)[[yzAul0nB.",
" .Cu!}9.DEl0nF. ",
" .uul|||GH0nIJ  ",
" .uuuKL0mMNO.   ",
" .uPQR.....     ",
"....            ",
"                ",
"                "};
