/* XPM */
static const char * menu_text_justify_xpm[] = {
"16 16 43 1",
" 	c None",
".	c #000000",
"+	c #BFBFBF",
"@	c #F5F5F5",
"#	c #F6F6F6",
"$	c #F7F7F7",
"%	c #F8F8F8",
"&	c #F9F9F9",
"*	c #B9B9B9",
"=	c #E1E1E1",
"-	c #E2E2E2",
";	c #E3E3E3",
">	c #E4E4E4",
",	c #E5E5E5",
"'	c #E7E7E7",
")	c #E8E8E8",
"!	c #E9E9E9",
"~	c #EAEAEA",
"{	c #EBEBEB",
"]	c #EDEDED",
"^	c #EEEEEE",
"/	c #EFEFEF",
"(	c #6D6D6D",
"_	c #6E6E6E",
":	c #6F6F6F",
"<	c #707070",
"[	c #717171",
"}	c #727272",
"|	c #F0F0F0",
"1	c #F1F1F1",
"2	c #737373",
"3	c #F3F3F3",
"4	c #F4F4F4",
"5	c #747474",
"6	c #757575",
"7	c #767676",
"8	c #777777",
"9	c #787878",
"0	c #FAFAFA",
"a	c #FBFBFB",
"b	c #FCFCFC",
"c	c #BEBEBE",
"d	c #C1C1C1",
" .............  ",
" +@@####$$%%&&* ",
".@=-;>,')!~{]^/.",
".@-((_::<<[}}/|.",
".#;>,')!~{]^/|1.",
".#>_::<<[}}2213.",
".#,')!~{]^/|134.",
".#':<<[}}22564@.",
".$)!~{]^/|134@#.",
".$!<[}}225667#$.",
".%~{]^/|134@#$&.",
".&]}2256677890a.",
".&^/|134@#$&0ab.",
".c/|134@#$&0abd ",
"  ............  ",
"                "};
