/* XPM */
static char * menu_delete_column_xpm[] = {
"16 16 27 1",
" 	c None",
".	c #000000",
"+	c #D7D7D7",
"@	c #DF421E",
"#	c #C9C9C9",
"$	c #CCCCCC",
"%	c #E6BEB5",
"&	c #B0B0B0",
"*	c #B1B1B1",
"=	c #ADADAD",
"-	c #B5B5B5",
";	c #ACACAC",
">	c #CAA299",
",	c #959595",
"'	c #FFFFFF",
")	c #F2F2F2",
"!	c #F3CBC1",
"~	c #D1D1D1",
"{	c #E7795F",
"]	c #FCF1EF",
"^	c #FDFBFA",
"/	c #FDF6F4",
"(	c #F9DFDA",
"_	c #FBECE9",
":	c #E7E7E7",
"<	c #FBEAE7",
"[	c #FDF9F8",
"                ",
" .............. ",
" .+++@@@@@@++#. ",
" .+$$@%%%%@$$&. ",
" .+$$@%%%%@$$*. ",
" .+$$@%%%%@$$=. ",
" .-;;@>>>>@;;,. ",
" .'))@!!!!@))$. ",
" .'))@!!!!@))~. ",
" .'))@!!!{@@@@@@",
" .'))@!!!@]^@/(@",
" .'))@!!!@^'_'/@",
" .'))@!!!@@]'_@@",
" .:##@@@@@/'<'[@",
" ........@][@/(@",
"         @@@@@@@"};
