/* XPM */
static char * menu_insert_table_xpm[] = {
"16 16 76 1",
" 	c None",
".	c #EDD484",
"+	c #E7D288",
"@	c #000000",
"#	c #060402",
"$	c #302A18",
"%	c #8E7F4F",
"&	c #DBCB9A",
"*	c #F2EACC",
"=	c #DCCD9A",
"-	c #EBD484",
";	c #797293",
">	c #625B81",
",	c #665F80",
"'	c #857A7F",
")	c #C9B78C",
"!	c #F0E8CD",
"~	c #FBFAF6",
"{	c #EFE7CA",
"]	c #EEDA91",
"^	c #FFFFFF",
"/	c #DFDFDF",
"(	c #E2E2E2",
"_	c #E4E3E0",
":	c #E6E0C9",
"<	c #ECDDA7",
"[	c #F3EBCF",
"}	c #F0E8CB",
"|	c #EED990",
"1	c #999999",
"2	c #9A9A9A",
"3	c #9E9D9B",
"4	c #E8E3D0",
"5	c #CDC08E",
"6	c #EADCA9",
"7	c #F6EDD0",
"8	c #F7EFD1",
"9	c #DCCE9A",
"0	c #E4E4E4",
"a	c #E6E6E6",
"b	c #E8E8E7",
"c	c #EAE8E0",
"d	c #EBE4C8",
"e	c #EDDFAE",
"f	c #E9DBA3",
"g	c #8E804F",
"h	c #9C9C9C",
"i	c #9D9D9D",
"j	c #9F9F9F",
"k	c #EDECEA",
"l	c #A8A69D",
"m	c #B0AB99",
"n	c #B5B097",
"o	c #F0EBD2",
"p	c #2F2A18",
"q	c #E8E8E8",
"r	c #EBEBEB",
"s	c #EDEDED",
"t	c #EFEFEF",
"u	c #F1F0EF",
"v	c #F0F0ED",
"w	c #F2F1ED",
"x	c #F5F4F0",
"y	c #040402",
"z	c #A0A0A0",
"A	c #A3A3A3",
"B	c #A4A4A4",
"C	c #F6F6F6",
"D	c #F1F1F1",
"E	c #F3F3F3",
"F	c #F8F8F8",
"G	c #A2A2A2",
"H	c #A6A6A6",
"I	c #A8A8A8",
"J	c #FAFAFA",
"K	c #FCFCFC",
"                ",
"                ",
"          .++.  ",
"   @@@@#$%&**=- ",
"   @;>>,')!~~{] ",
"   @^/(_:<[~~}| ",
"   @^123456789- ",
"   @^0abcdeffg  ",
"   @^hijklmnop  ",
"   @^qrstuvwxy  ",
"   @^ijztAABC@  ",
"   @^rstDEECF@  ",
"   @^zGAEHHIJ@  ",
"   @^tDECFFJK@  ",
"   @@@@@@@@@@@  ",
"                "};
