/* XPM */
static const char *menu_preferences_xpm[] = {
/* width height num_colors chars_per_pixel */
"    16    16       46            1",
/* colors */
". c #000000",
"# c #cac8c1",
"a c #b1b1b1",
"b c #ebebe8",
"c c #d8d8d8",
"d c #f9f8f8",
"e c #313131",
"f c #d2d0cc",
"g c #f7f7f7",
"h c #dedbd6",
"i c #303030",
"j c #d3d2cf",
"k c #e3e2e1",
"l c #dfdedc",
"m c #dbdad7",
"n c #a4a19c",
"o c #1d1d1d",
"p c #292929",
"q c #d2d1d0",
"r c #50504f",
"s c #494746",
"t c #363636",
"u c #c8c7c6",
"v c #6c6967",
"w c #708295",
"x c #cfd6dd",
"y c #7c91a7",
"z c #d6d5d5",
"A c #8a8784",
"B c #7d8c9c",
"C c #788da4",
"D c #7f99b3",
"E c #1f272f",
"F c #ecebea",
"G c #72706d",
"H c #8d99a5",
"I c #748aa2",
"J c #849eb9",
"K c #4d5f73",
"L c #d5d4d3",
"M c #6b6a69",
"N c #7d91a7",
"O c #849eba",
"P c #525252",
"Q c #66798f",
"R c None",
/* pixels */
"RRRRRRRRRRRRRRRR",
"RRRR.RRRRRRRR.RR",
"RRR.#.RRRRRR.a.R",
"RRRR.b.RRRR.c.RR",
"R.RR.d.RRRe..RRR",
".f..gh.RRR.iRRRR",
"R.jklmn.opRRRRRR",
"RR....qr.oRRRRRR",
"RRRRRR..s.RRRRRR",
"RRR...t.uv.RRRRR",
"RR.wxy.R.zA.RRRR",
"R.BxCDERR.FG.RRR",
".HxIJK.RRR.LM.RR",
".xNOK.RRRRR.qPRR",
".NQK.RRRRRRR..RR",
"R...RRRRRRRRRRRR"
};
