/* XPM */
static const char * menu_print_setup_xpm[] = {
"16 16 69 1",
" 	c None",
".	c #000000",
"+	c #FFFFFF",
"@	c #ECECEC",
"#	c #353535",
"$	c #D3D3D3",
"%	c #131313",
"&	c #C7C7C7",
"*	c #D7D7D7",
"=	c #EBEBEB",
"-	c #E9E9E9",
";	c #DBDBDB",
">	c #A4A4A4",
",	c #EFEFEF",
"'	c #8C8C8C",
")	c #979797",
"!	c #C3C3C3",
"~	c #D0D0CF",
"{	c #B5B5B5",
"]	c #FAFAFA",
"^	c #FBFBFB",
"/	c #F8F8F8",
"(	c #F4F4F3",
"_	c #ECECEB",
":	c #AEADAB",
"<	c #8D8D8D",
"[	c #F1F1F1",
"}	c #A0A0A0",
"|	c #E2E2E2",
"1	c #D9D9D8",
"2	c #DEDDDC",
"3	c #DCDCDA",
"4	c #D8D7D4",
"5	c #B3B2B0",
"6	c #CCCAC6",
"7	c #1B1B1B",
"8	c #DCDCDB",
"9	c #DEDDDD",
"0	c #DFDEDD",
"a	c #DDDCDB",
"b	c #DBDBD9",
"c	c #DAD9D7",
"d	c #D9D8D6",
"e	c #81807E",
"f	c #9F9E9A",
"g	c #54524E",
"h	c #514F4B",
"i	c #52504C",
"j	c #504D49",
"k	c #4D4B47",
"l	c #4F4D49",
"m	c #514F4C",
"n	c #939291",
"o	c #9B9A97",
"p	c #AFAEAC",
"q	c #B0AEAC",
"r	c #ACACA9",
"s	c #A6A6A4",
"t	c #ABAAA7",
"u	c #AEADAA",
"v	c #AAA9A6",
"w	c #454542",
"x	c #42423F",
"y	c #403F3D",
"z	c #3F3E3C",
"A	c #3A3936",
"B	c #393835",
"C	c #31302D",
"D	c #1E1D1B",
"    .........   ",
"    .++++++@.   ",
"    .+#$.%&*.   ",
"    .+=---=;.   ",
" .. ..#.=.>;.   ",
".+. .,.====;.   ",
".+...,.='.);..  ",
".+,,,!.-----~{. ",
" .+,!.+]^^]/(_:.",
" ..+.<[}|1234567",
" ..+.890a1bcdef.",
" .+,!.ghijklmno.",
".+,,,!.pqrstupv.",
".+...,.wxyzABCD.",
".+...,......... ",
" .. ..          "};
