/* XPM */
static const char * menu_view_showpara_xpm[] = {
"16 16 2 1",
" 	c None",
".	c #000000",
"                ",
"                ",
"     .....      ",
"    .... .      ",
"    .... .      ",
"    .... .      ",
"    .... .      ",
"     ... .      ",
"       . .      ",
"       . .      ",
"       . .      ",
"       . .      ",
"       . .      ",
"       . .      ",
"       . .      ",
"                "};
