/* XPM */
static const char * menu_text_italic_xpm[] = {
"16 16 62 1",
" 	c None",
".	c #000000",
"+	c #BFBFBF",
"@	c #F5F5F5",
"#	c #F6F6F6",
"$	c #F7F7F7",
"%	c #F8F8F8",
"&	c #F9F9F9",
"*	c #B9B9B9",
"=	c #E1E1E1",
"-	c #E2E2E2",
";	c #E3E3E3",
">	c #E4E4E4",
",	c #E5E5E5",
"'	c #E7E7E7",
")	c #E8E8E8",
"!	c #E9E9E9",
"~	c #EAEAEA",
"{	c #EBEBEB",
"]	c #EDEDED",
"^	c #EEEEEE",
"/	c #EFEFEF",
"(	c #F0F0F0",
"_	c #313131",
":	c #2F2F2F",
"<	c #F1F1F1",
"[	c #969696",
"}	c #414141",
"|	c #111111",
"1	c #F3F3F3",
"2	c #1B1B1B",
"3	c #B8B8B8",
"4	c #1E1E1E",
"5	c #D2D2D2",
"6	c #F4F4F4",
"7	c #7A7A7A",
"8	c #484848",
"9	c #3F3F3F",
"0	c #ADADAD",
"a	c #D5D5D5",
"b	c #0E0E0E",
"c	c #C5C5C5",
"d	c #646464",
"e	c #878787",
"f	c #5E5E5E",
"g	c #616161",
"h	c #C4C4C4",
"i	c #0A0A0A",
"j	c #CBCBCB",
"k	c #AEAEAE",
"l	c #3A3A3A",
"m	c #DCDCDC",
"n	c #424242",
"o	c #7D7D7D",
"p	c #DDDDDD",
"q	c #131313",
"r	c #C8C8C8",
"s	c #FAFAFA",
"t	c #FBFBFB",
"u	c #FCFCFC",
"v	c #BEBEBE",
"w	c #C1C1C1",
" .............  ",
" +@@####$$%%&&* ",
".@=-;>,')!~{]^/.",
".@-;>,')!~{]^/(.",
".#;>,'))_:]^/(<.",
".#>,')![}|]/(<1.",
".#,')!-2345(<16.",
".#')!~78^90<16@.",
".$)!~abc/de16@#.",
".$!~{f....g'@#$.",
".%~{hij(<klm#$&.",
".&]^no<16pqr&st.",
".&^/(<16@#$&stu.",
".v/(<16@#$&stuw ",
"  ............  ",
"                "};
