/* XPM */
static char * widget1_xpm[] = {
"11 11 6 1",
" 	g None",
".	g #000000",
"+	g #FFFFFF",
"@	g #B2B2B2",
"#	g #CCCCCC",
"$	g #666666",
"     .     ",
"    .+.    ",
"   .+@#.   ",
"  .+@@@#.  ",
" .+@@@@@#. ",
".+@@@@@@@$.",
".+@@@@@@@$.",
".+@@@@@@@$.",
".+@@@@@@@$.",
".#$$$$$$$$.",
"..........."};
