/* XPM */
static char * widget3_xpm[] = {
"11 8 6 1",
" 	g None",
".	g #000000",
"+	g #FFFFFF",
"@	g #CCCCCC",
"#	g #B2B2B2",
"$	g #666666",
"...........",
".++++++++@.",
".+#######$.",
".+#######$.",
".+#######$.",
".+#######$.",
".@$$$$$$$$.",
"..........."};
