/* XPM */
static char * widget2_xpm[] = {
"11 11 7 1",
" 	g None",
".	g #262626",
"+	g #FFFFFF",
"@	g #CCCCCC",
"#	g #B2B2B2",
"$	g #666666",
"%	g #000000",
"...........",
".++++++++@.",
".+#######$.",
".+#######$.",
".+#######$.",
"%+#######$%",
" %@#####$% ",
"  %@###$%  ",
"   %@#$%   ",
"    %@%    ",
"     %     "};
