/* XPM */
static const char * stock_new_text_xpm[] = {
"24 24 203 2",
"  	c None",
". 	c #000000",
"+ 	c #0E0E0E",
"@ 	c #282828",
"# 	c #616161",
"$ 	c #D3D3D3",
"% 	c #F6F6F6",
"& 	c #FFFFFF",
"* 	c #F9F9F9",
"= 	c #F9F9F8",
"- 	c #E7E7E7",
"; 	c #E4E4E4",
"> 	c #CDCDCD",
", 	c #1F1F1F",
"' 	c #CACACA",
") 	c #F0F0F0",
"! 	c #C0C0C0",
"~ 	c #D6D6D6",
"{ 	c #EFEFEE",
"] 	c #AFAFAE",
"^ 	c #E9E9E9",
"/ 	c #B3B3B3",
"( 	c #383838",
"_ 	c #FEFEFE",
": 	c #FDFDFD",
"< 	c #EEEEEE",
"[ 	c #A4A4A3",
"} 	c #F4F4F4",
"| 	c #ABABAB",
"1 	c #050505",
"2 	c #A5A5A5",
"3 	c #E3E3E3",
"4 	c #C9C9C9",
"5 	c #E1E1E1",
"6 	c #C7C7C6",
"7 	c #BEBEBE",
"8 	c #FBFBFB",
"9 	c #F2F2F2",
"0 	c #9E9E9E",
"a 	c #FCFCFB",
"b 	c #FAFAF9",
"c 	c #D4D4D3",
"d 	c #B9B7B6",
"e 	c #838381",
"f 	c #848381",
"g 	c #6A6763",
"h 	c #C6C6C6",
"i 	c #C6C6C5",
"j 	c #D0D0D0",
"k 	c #DCDCDB",
"l 	c #C5C5C4",
"m 	c #F8F7F6",
"n 	c #F3F2F1",
"o 	c #E0E0DF",
"p 	c #DCDAD8",
"q 	c #CACAC8",
"r 	c #B6B6B4",
"s 	c #72706C",
"t 	c #F8F8F7",
"u 	c #F7F6F5",
"v 	c #F6F6F4",
"w 	c #F4F3F2",
"x 	c #F1F0EF",
"y 	c #F0EFED",
"z 	c #E5E4E2",
"A 	c #C4C3C0",
"B 	c #817D74",
"C 	c #B1B1B1",
"D 	c #E9E9E8",
"E 	c #D0CFCE",
"F 	c #CFCECD",
"G 	c #CECECC",
"H 	c #E6E5E4",
"I 	c #CDCCCB",
"J 	c #C1C0BF",
"K 	c #B7B6B6",
"L 	c #B0B0AE",
"M 	c #A9A7A5",
"N 	c #E1DFDC",
"O 	c #8B867D",
"P 	c #F5F4F3",
"Q 	c #F3F3F1",
"R 	c #F2F2F0",
"S 	c #EFEFED",
"T 	c #EEEDEB",
"U 	c #EDEDEB",
"V 	c #E5E5E2",
"W 	c #A49E93",
"X 	c #F6F5F4",
"Y 	c #CDCDCB",
"Z 	c #CBCBCA",
"` 	c #BFBFBE",
" .	c #CBCBC9",
"..	c #D6D6D4",
"+.	c #CAC9C7",
"@.	c #A9A9A7",
"#.	c #C6C5C3",
"$.	c #B6B6B3",
"%.	c #B3B2B0",
"&.	c #BFBEBB",
"*.	c #F0F0EE",
"=.	c #F1F0EE",
"-.	c #EFEEEC",
";.	c #ECEBE9",
">.	c #E8E7E5",
",.	c #E5E4E1",
"'.	c #E4E3E0",
").	c #E2E1DE",
"!.	c #D8D7D6",
"~.	c #BEBEBC",
"{.	c #D4D4D2",
"].	c #D6D5D3",
"^.	c #C9C8C6",
"/.	c #555E7A",
"(.	c #545D79",
"_.	c #545D78",
":.	c #525B77",
"<.	c #525B76",
"[.	c #515A76",
"}.	c #515A75",
"|.	c #EDECEA",
"1.	c #6F7EAD",
"2.	c #80839A",
"3.	c #80859E",
"4.	c #6274A7",
"5.	c #6676A7",
"6.	c #505975",
"7.	c #E0DFDB",
"8.	c #A19C90",
"9.	c #DFDEDC",
"0.	c #DEDDDB",
"a.	c #D2D1CF",
"b.	c #C5C4C2",
"c.	c #CFCECB",
"d.	c #EBEAE8",
"e.	c #535C77",
"f.	c #AEB0C0",
"g.	c #9996A1",
"h.	c #928F9A",
"i.	c #6A7FB4",
"j.	c #697DB2",
"k.	c #505874",
"l.	c #DDDCD8",
"m.	c #A19B90",
"n.	c #E9E8E6",
"o.	c #E8E7E4",
"p.	c #E7E6E3",
"q.	c #B9B2B0",
"r.	c #A39B9A",
"s.	c #A09694",
"t.	c #9B9EAE",
"u.	c #858FAF",
"v.	c #4F5873",
"w.	c #DCDBD7",
"x.	c #CCCBC9",
"y.	c #D8D7D4",
"z.	c #C1C0BD",
"A.	c #C0BFBC",
"B.	c #CCCAC8",
"C.	c #CBCAC7",
"D.	c #E6E4E1",
"E.	c #B3ACA9",
"F.	c #9E9795",
"G.	c #9B9390",
"H.	c #B1A9A9",
"I.	c #918A8B",
"J.	c #4F5773",
"K.	c #D9D7D3",
"L.	c #9F998D",
"M.	c #E3E2DF",
"N.	c #E3E2DE",
"O.	c #E4E2DF",
"P.	c #E4E3DF",
"Q.	c #E2E1DD",
"R.	c #4E5772",
"S.	c #D8D6D2",
"T.	c #9E988D",
"U.	c #EDEDED",
"V.	c #E1E0DD",
"W.	c #E1E0DC",
"X.	c #DFDEDA",
"Y.	c #E0DEDA",
"Z.	c #DDDBD7",
"`.	c #DCDAD6",
" +	c #D8D6D1",
".+	c #D7D5D1",
"++	c #9D978B",
"@+	c #D1D1D1",
"#+	c #E1DFDB",
"$+	c #DEDDD9",
"%+	c #DEDCD8",
"&+	c #D7D6D1",
"*+	c #D5D3CE",
"=+	c #9B958A",
"-+	c #999891",
";+	c #A39E92",
">+	c #A39D92",
",+	c #A39D91",
"'+	c #A29C90",
")+	c #A19B8F",
"!+	c #9D978C",
"~+	c #9B968A",
"{+	c #676359",
"                                                ",
"      . . . . . . . . . . . . . + @ #           ",
"    . $ % & & & & & & & & * = = - ; > ,         ",
"    . % & ' ) ! ' ) ! ~ & & = { ] ^ & / (       ",
"    . & & ) & & & & _ & _ : = < [ ) & } | 1     ",
"    . & & 2 3 ~ 4 5 6 7 6 8 = 9 0 . . . . .     ",
"    . & & & _ : a 8 b 8 b = = } c d e f g .     ",
"    . & _ 7 / h i j k l k m = n o p q r s .     ",
"    . & a 8 b = t m u m u v w x y y z A B .     ",
"    . & b C D E F G H ] I J J K J L M N O .     ",
"    . & t m u v P w Q w Q R S T U V N N W .     ",
"    . & X Y J J Z ` q  ...+.@.#.$.%.&.N W .     ",
"    . & w n R *.S =.y =.y -.;.>.,.'.).N W .     ",
"    . & w !.` ~.{.].^.=./.(._.:.<.[.}.N W .     ",
"    . & *.S S -.T |.|.|.(.1.2.3.4.5.6.7.8..     ",
"    . & U 9.0.a.#.b.c.d.e.f.g.h.i.j.k.l.m..     ",
"    . & d.n.n.>.o.o.p.o.:.q.r.s.t.u.v.w.m..     ",
"    . & p.x.y.z.A.B.C.D.<.E.F.G.H.I.J.K.L..     ",
"    . * '.M.N.O.P.Q.N.Q.}.6.6.k.v.v.R.S.T..     ",
"    . U.V.N W.7.Q.7.W.7.W.X.Y.Z.`.K. +.+++.     ",
"    . @+#+Y.X.$+7.$+Y.$+Y.%+%+`.`.S.&+*+=+.     ",
"    . -+;+W >+,+>+8.'+8.'+)+m.L.L.!+!+~+{+.     ",
"      . . . . . . . . . . . . . . . . . .       ",
"                                                "};
