/* XPM */
static char * sugar_format_justify_right_48_xpm[] = {
"48 48 36 1",
" 	c None",
".	c #90938D",
"+	c #888A85",
"@	c #FFFFFF",
"#	c #F7F7F7",
"$	c #F6F6F6",
"%	c #F5F5F5",
"&	c #F4F4F4",
"*	c #F3F3F3",
"=	c #F2F2F2",
"-	c #999999",
";	c #F1F1F1",
">	c #F0F0F0",
",	c #EFEFEF",
"'	c #EEEEEE",
")	c #EDEDED",
"!	c #ECECEC",
"~	c #EBEBEB",
"{	c #EAEAEA",
"]	c #E9E9E9",
"^	c #E8E8E8",
"/	c #E7E7E7",
"(	c #E6E6E6",
"_	c #E6E6E5",
":	c #E5E5E5",
"<	c #E5E5E4",
"[	c #E4E4E3",
"}	c #E4E4E2",
"|	c #E3E3E2",
"1	c #E3E3E1",
"2	c #E2E2E0",
"3	c #E2E2DF",
"4	c #E1E1DF",
"5	c #E1E1DE",
"6	c #868783",
"7	c #848581",
"                                                ",
"    .++++++++++++++++++++++++++++++++++++++.    ",
"    +@@@@@@@@@@@@@@@@@@@@@@@@@@@@@@@@@@@@@@+    ",
"    +@###################################$@+    ",
"    +@#################################$$%@+    ",
"    +@################################$$%%@+    ",
"    +@##############################$$%%%&@+    ",
"    +@############################$$$%%&&*@+    ",
"    +@###########################$$%%&&&**@+    ",
"    +@#########################$$$%%&&**==@+    ",
"    +@######---------------------------==;@+    ",
"    +@######---------------------------=;;@+    ",
"    +@#####################$$%%&&***==;;>>@+    ",
"    +@###################$$%%%&&**==;;;>>,@+    ",
"    +@##################$$%%&&***==;;>>,,,@+    ",
"    +@################$$%%%&&**==;;;>>,,''@+    ",
"    +@########-------------------------'')@+    ",
"    +@########-------------------------)))@+    ",
"    +@###########$$$%%&&**===;;>>,,'''))!!@+    ",
"    +@##########$$%%&&&**==;;>>>,,''))!!!~@+    ",
"    +@########$$%%%&&**===;;>>,,'''))!!~~{@+    ",
"    +@#######$$%%&&***==;;>>>,,''))!!!~~{{@+    ",
"    +@#####$$%%%-----------------------{{]@+    ",
"    +@###$$$%%&&-----------------------]]^@+    ",
"    +@##$$%%&&&**==;;;>>,,'')))!!~~{{{]]^^@+    ",
"    +@$$$%%&&**===;;>>,,,''))!!~~~{{]]^^//@+    ",
"    +@$%%&&&**==;;>>>,,'')))!!~~{{]]]^^//(@+    ",
"    +@%%&&**===;;>>,,'''))!!~~~{{]]^^///((@+    ",
"    +@&&&**=---------------------------((_@+    ",
"    +@&**===---------------------------__:@+    ",
"    +@**==;;>>>,,''))!!!~~{{]]^^^//(((_:<<@+    ",
"    +@==;;;>>,,'')))!!~~{{{]]^^//(((_::<<<@+    ",
"    +@=;;>>,,,''))!!~~~{{]]^^^//(((_:<<<[[@+    ",
"    +@;;>>,,'')))!!~~{{]]]^^//(((_::<<[[[}@+    ",
"    +@>>,,,''))!!~~~{{-----------------[}|@+    ",
"    +@>,,'')))!!~~{{]]-----------------||1@+    ",
"    +@,'''))!!~~~{{]]^^///((__:<<<[[}}|111@+    ",
"    +@''))!!!~~{{]]]^^//(((_:<<<[[[}||1122@+    ",
"    +@'))!!~~{{{]]^^///((__:<<<[[}}|111223@+    ",
"    +@)!!!~~{{]]^^^//(((_:<<<[[[}|11122234@+    ",
"    +@!!~~{{{]]^^//(((_::<<<[[}}|111223345@+    ",
"    +@~~~{{]]^^^//(((_:<<<[[[}|11122234555@+    ",
"    +@~{{]]]^^//(((_::<<[[[}||111223345555@+    ",
"    +@{{]]^^///((__:<<<[[[}|11122234555555@+    ",
"    +@]]]^^//(((_::<<[[[}||112223445555555@+    ",
"    +@@@@@@@@@@@@@@@@@@@@@@@@@@@@@@@@@@@@@@+    ",
"    6++++++++++++++++++++++++++++++++++++++7    ",
"                                                "};
