/* XPM */
static char * sugar_edit_undo_48_xpm[] = {
"48 48 254 2",
"  	c None",
". 	c #C5A000",
"+ 	c #C6A100",
"@ 	c #C49F00",
"# 	c #C6A200",
"$ 	c #DCC13A",
"% 	c #C4A000",
"& 	c #E8D361",
"* 	c #FAF4C4",
"= 	c #C5A100",
"- 	c #C6A102",
"; 	c #EDDD77",
"> 	c #FBF4BE",
", 	c #FBF5C6",
"' 	c #C8A407",
") 	c #F3E691",
"! 	c #FAF2B0",
"~ 	c #F4E460",
"{ 	c #FAF3C0",
"] 	c #CCAB14",
"^ 	c #F6ECA6",
"/ 	c #F9F0A8",
"( 	c #F3E35B",
"_ 	c #F3E359",
": 	c #FAF4C0",
"< 	c #C7A200",
"[ 	c #D0B224",
"} 	c #F8F1B7",
"| 	c #F8EFA0",
"1 	c #F4E45F",
"2 	c #F3E35A",
"3 	c #F4E45C",
"4 	c #FAF4C3",
"5 	c #D8BE3B",
"6 	c #FAF5C4",
"7 	c #F7ED96",
"8 	c #F4E565",
"9 	c #F4E461",
"0 	c #F3E45C",
"a 	c #E0CB53",
"b 	c #FBF6CB",
"c 	c #F7EC90",
"d 	c #F5E66D",
"e 	c #F4E668",
"f 	c #F4E563",
"g 	c #F4E45E",
"h 	c #C6A300",
"i 	c #E9D76F",
"j 	c #FBF7CD",
"k 	c #F7EB8C",
"l 	c #F5E773",
"m 	c #F5E76F",
"n 	c #F4E66A",
"o 	c #C6A000",
"p 	c #C7A300",
"q 	c #EFE18A",
"r 	c #FBF6CA",
"s 	c #F7EB8A",
"t 	c #F6E879",
"u 	c #F5E874",
"v 	c #F4E561",
"w 	c #FAF4BC",
"x 	c #F9F1B1",
"y 	c #F7EDA1",
"z 	c #F1E482",
"A 	c #E7D353",
"B 	c #D5B925",
"C 	c #C8A509",
"D 	c #F4E99E",
"E 	c #FBF4BF",
"F 	c #F6E980",
"G 	c #F5E876",
"H 	c #F5E772",
"I 	c #F5E76E",
"J 	c #F4E669",
"K 	c #F4E564",
"L 	c #F4E45D",
"M 	c #F3E252",
"N 	c #F2DE40",
"O 	c #F2E047",
"P 	c #F4E567",
"Q 	c #F7ED92",
"R 	c #F6EC95",
"S 	c #E6D253",
"T 	c #CAA70F",
"U 	c #CCAC16",
"V 	c #F7EEAD",
"W 	c #F9F2B1",
"X 	c #F5E875",
"Y 	c #F5E66B",
"Z 	c #F4E562",
"` 	c #F2E04A",
" .	c #EFD91C",
"..	c #EDD401",
"+.	c #EDD400",
"@.	c #F0DA25",
"#.	c #F5E66C",
"$.	c #F8EFA2",
"%.	c #E3CC4A",
"&.	c #C6A101",
"*.	c #D1B325",
"=.	c #F8F2B8",
"-.	c #F4E66B",
";.	c #F1DD38",
">.	c #EDD504",
",.	c #EFD91E",
"'.	c #F6EA85",
").	c #F1E484",
"!.	c #C9A80C",
"~.	c #C39F00",
"{.	c #CBAB1E",
"].	c #F7ED98",
"^.	c #F4E566",
"/.	c #F0DC2E",
"(.	c #F5EA95",
"_.	c #ECDC76",
":.	c #FAF4BD",
"<.	c #F0DC31",
"[.	c #F5E88E",
"}.	c #C9A607",
"|.	c #E7D666",
"1.	c #FAF5C0",
"2.	c #F5E770",
"3.	c #F1DE3E",
"4.	c #EFDF6F",
"5.	c #E3CD58",
"6.	c #FAF4C1",
"7.	c #F3E358",
"8.	c #F3E357",
"9.	c #F2E14B",
"0.	c #EDD506",
"a.	c #EDD402",
"b.	c #F7EB88",
"c.	c #DBC02B",
"d.	c #DDC74A",
"e.	c #F6E875",
"f.	c #F3E253",
"g.	c #EED60D",
"h.	c #EFD818",
"i.	c #EED60C",
"j.	c #F0DA24",
"k.	c #F5E98C",
"l.	c #C7A201",
"m.	c #DAC03E",
"n.	c #FAF3BC",
"o.	c #F5E774",
"p.	c #F0DC30",
"q.	c #EED609",
"r.	c #EED60A",
"s.	c #F7EDA5",
"t.	c #F7EEA5",
"u.	c #F8EFA7",
"v.	c #F7EC8C",
"w.	c #F1DD34",
"x.	c #EDD505",
"y.	c #DABE2E",
"z.	c #D2B520",
"A.	c #F7ED9D",
"B.	c #C7A408",
"C.	c #CFB124",
"D.	c #E0CA4B",
"E.	c #F0E282",
"F.	c #F3E150",
"G.	c #F2DF43",
"H.	c #EFDF6E",
"I.	c #C7A100",
"J.	c #CEAE17",
"K.	c #F6EB97",
"L.	c #D1B21F",
"M.	c #F0E27B",
"N.	c #F7EC8E",
"O.	c #EFD816",
"P.	c #EED711",
"Q.	c #F8EEA0",
"R.	c #CBAA0F",
"S.	c #F4E88E",
"T.	c #E6D24B",
"U.	c #F8ED96",
"V.	c #F8EF9E",
"W.	c #CFAD14",
"X.	c #CAA70A",
"Y.	c #F2E584",
"Z.	c #E7D34A",
"`.	c #F6EA81",
" +	c #F6EA84",
".+	c #D8BD2F",
"++	c #C8A306",
"@+	c #F0E17A",
"#+	c #F6E97F",
"$+	c #EED508",
"%+	c #F2E47A",
"&+	c #F1DE3A",
"*+	c #F6E97D",
"=+	c #DDC336",
"-+	c #C7A302",
";+	c #EEDD6E",
">+	c #F7EB89",
",+	c #D8BC2B",
"'+	c #DCC33A",
")+	c #C5A101",
"!+	c #EAD760",
"~+	c #F8EE9D",
"{+	c #F6EDA0",
"]+	c #D6B927",
"^+	c #E7D25A",
"/+	c #C8A300",
"(+	c #EEDF7B",
"_+	c #F1DD36",
":+	c #F9EFA3",
"<+	c #CBA90E",
"[+	c #DEC53D",
"}+	c #E9D66D",
"|+	c #F2E045",
"1+	c #EFDA21",
"2+	c #F5EA90",
"3+	c #E8D66D",
"4+	c #F3E255",
"5+	c #E9D65D",
"6+	c #BF9B00",
"7+	c #C19B00",
"8+	c #EBDC7A",
"9+	c #F1DD37",
"0+	c #F8EE9A",
"a+	c #CCAC13",
"b+	c #F4E99B",
"c+	c #F3E251",
"d+	c #ECDB68",
"e+	c #CCAD18",
"f+	c #F6E982",
"g+	c #EED820",
"h+	c #F6EB93",
"i+	c #CAA90E",
"j+	c #BD9B00",
"k+	c #E5CE42",
"l+	c #F0DF53",
"m+	c #F3E679",
"n+	c #D5B926",
"o+	c #CEAF0D",
"p+	c #EFE05F",
"q+	c #EFE063",
"r+	c #D9BD25",
"s+	c #BA9800",
"t+	c #C5A504",
"u+	c #E2CD33",
"v+	c #E6D540",
"w+	c #D1B414",
"x+	c #B79500",
"y+	c #BFA000",
"z+	c #D5BD00",
"A+	c #D9C00A",
"B+	c #C6A802",
"C+	c #C2A600",
"D+	c #CBB300",
"E+	c #C7AC00",
"                                                                                                ",
"                                                                                                ",
"                                            .                                                   ",
"                                          + @                                                   ",
"                                        # $ %                                                   ",
"                                      # & * =                                                   ",
"                                    - ; > , =                                                   ",
"                                  ' ) ! ~ { =                                                   ",
"                                ] ^ / ( _ : =                                                   ",
"                            < [ } | 1 2 3 4 =                                                   ",
"                          # 5 6 7 8 9 0 1 * =                                                   ",
"                        # a b c d e f g ~ * =                                                   ",
"                      h i j k l m n 8 1 ~ * @ o o < p                                           ",
"                    - q r s t u m n 8 ~ v b w x y z A B = #                                     ",
"                  C D E F t G H I J K 1 ( L 0 M N O P Q R S T +                                 ",
"                U V W X u u H m Y P Z L _ `  ...+.+.+.+.@.#.$.%.&.                              ",
"            p *.=.| -.d I I d Y P K 1 ( ;.>.+.+.+.+.+.+.+.+.,.'.).!.                            ",
"          ~.{.b ].f ^.e J J e ^.f ~ 0 /.+.+.+.+.+.+.+.+.+.+.+...g (.]                           ",
"            = _.:.d 9 Z f f f 9 1 0 <.+.+.+.+.+.+.+.+.+.+.+.+.+.+.` [.}.                        ",
"              + |.1.2.L g g L 0 2 3...+.+.+.+.+.+.+.+.+.+.+.+.+.+.+.9 4.p                       ",
"                + 5.6.H 7.7.7.8.9.0.+.+.+.+.+.+.+.+.+.+.+.+.+.+.+.+.a.b.c.                      ",
"                  + d.: e.f.M ` g.+.+.+...h.i.i.+.+.+.+.+.+.+.+.+.+.+.j.k.l.                    ",
"                    + m.n.o.p.q.+.+.+.+.r.W s.t.u.v.n w.x.+.+.+.+.+.+.+.'.y.                    ",
"                      < z.A.9.+.+.+.+.+.r.u.@ # B.C.D.E.$.F.0.+.+.+.+.+.G.H.p                   ",
"                        I.J.K._ +.+.+.+.r.u.=         h L.M.N.O.+.+.+.+.P.Q.%                   ",
"                            R.S.P ..+.+.r.u.%             # T.U.P.+.+.+.+.V.W.                  ",
"                              X.Y.l >.+.r.u.=               # Z.`.+.+.+.+. +.+                  ",
"                                ++@+#+$+r.u.=                 h %+&++.+.+.*+=+                  ",
"                                  -+;+>+O.u.=                   ,+b.+.+.+.t '+                  ",
"                                    )+!+~+x =                   < {+P.+.+.v.]+                  ",
"                                      + ^+x =                   /+(+_++...:+<+                  ",
"                                        + [+@                     }+|++.1+2++                   ",
"                                          = @                     3+|++.4+5+#                   ",
"                                            6+                  7+8+9+x.0+a+                    ",
"                                                                + b+O.c+d+#                     ",
"                                                                e+f+g+h+i+                      ",
"                                                              j+k+l+m+n+                        ",
"                                                              o+p+q+r+s+                        ",
"                                                            t+u+v+w+x+                          ",
"                                                          y+z+A+B+                              ",
"                                                        C+D+E+s+                                ",
"                                                                                                ",
"                                                                                                ",
"                                                                                                ",
"                                                                                                ",
"                                                                                                ",
"                                                                                                ",
"                                                                                                "};
