/* XPM */
static char * sugar_text_underline_48_xpm[] = {
"48 48 486 2",
"  	c None",
". 	c #3567A6",
"+ 	c #3364A4",
"@ 	c #3868A5",
"# 	c #CBDAEC",
"$ 	c #D2E0EF",
"% 	c #D1DFEF",
"& 	c #CCDBEC",
"* 	c #3968A6",
"= 	c #658CBC",
"- 	c #C6D8EB",
"; 	c #8FB2D8",
"> 	c #8EB1D7",
", 	c #8DB0D7",
"' 	c #8CB0D7",
") 	c #8BAFD7",
"! 	c #C0D3E9",
"~ 	c #6A8FBF",
"{ 	c #3A69A7",
"] 	c #A9C1DE",
"^ 	c #ABC5E2",
"/ 	c #8AAED6",
"( 	c #89ADD6",
"_ 	c #A2BEDF",
": 	c #AAC2DE",
"< 	c #3969A7",
"[ 	c #4371AC",
"} 	c #CCDCED",
"| 	c #91B4D8",
"1 	c #80A5D1",
"2 	c #7FA4D1",
"3 	c #88ADD6",
"4 	c #87ACD5",
"5 	c #87ADD6",
"6 	c #C7D8EC",
"7 	c #4974AE",
"8 	c #3867A7",
"9 	c #8BAACE",
"0 	c #B6CDE6",
"a 	c #8DB1D7",
"b 	c #4F7DB5",
"c 	c #4F7CB5",
"d 	c #85AAD5",
"e 	c #83AAD5",
"f 	c #8EACD1",
"g 	c #3665A7",
"h 	c #3667A5",
"i 	c #C1D3E8",
"j 	c #99B8DB",
"k 	c #89AED6",
"l 	c #8EB0D8",
"m 	c #3465A4",
"n 	c #8BAED7",
"o 	c #84AAD4",
"p 	c #81A8D4",
"q 	c #8BAFD8",
"r 	c #C1D3E9",
"s 	c #3868A7",
"t 	c #668DBD",
"u 	c #C2D5EA",
"v 	c #87ACD6",
"w 	c #8CAFD7",
"x 	c #7199C8",
"y 	c #3667A7",
"z 	c #6F97C7",
"A 	c #88ACD6",
"B 	c #7FA7D4",
"C 	c #7EA6D3",
"D 	c #B6CCE6",
"E 	c #6D92C0",
"F 	c #3767A5",
"G 	c #A8C0DD",
"H 	c #A5C1E0",
"I 	c #86ACD5",
"J 	c #85ABD5",
"K 	c #93B4DA",
"L 	c #4874AE",
"M 	c #4774AE",
"N 	c #8EB1D8",
"O 	c #7EA5D3",
"P 	c #7CA4D3",
"Q 	c #94B5DB",
"R 	c #ABC2DF",
"S 	c #3666A5",
"T 	c #436FAA",
"U 	c #C8DAEC",
"V 	c #84AAD5",
"W 	c #8AAED7",
"X 	c #86A9D2",
"Y 	c #3564A3",
"Z 	c #82A7D2",
"` 	c #83A9D6",
" .	c #7AA3D2",
"..	c #C0D3EA",
"+.	c #4D77AF",
"@.	c #3563A4",
"#.	c #8AA8CE",
"$.	c #B1C9E4",
"%.	c #83A9D5",
"&.	c #82A9D4",
"*.	c #94B5DA",
"=.	c #5E87BA",
"-.	c #3464A1",
";.	c #5C86BA",
">.	c #8DB0D9",
",.	c #78A1D2",
"'.	c #77A1D2",
").	c #9FBCDF",
"!.	c #8FACD2",
"~.	c #3565A1",
"{.	c #BFD2E8",
"].	c #92B4D9",
"^.	c #85AAD6",
"/.	c #97B6DB",
"(.	c #90B3DA",
"_.	c #7BA4D3",
":.	c #759FD1",
"<.	c #7DA4D4",
"[.	c #BED1E8",
"}.	c #3968A4",
"|.	c #678DBB",
"1.	c #BED2E9",
"2.	c #80A7D4",
"3.	c #92B4DA",
"4.	c #739AC7",
"5.	c #3665A1",
"6.	c #7097C7",
"7.	c #89ADD8",
"8.	c #739ED1",
"9.	c #729DD0",
"0.	c #ABC4E3",
"a.	c #7194C2",
"b.	c #3564A0",
"c.	c #A6BFDC",
"d.	c #9EBCDE",
"e.	c #9FBDDF",
"f.	c #4170A8",
"g.	c #4170A9",
"h.	c #98B7DD",
"i.	c #739DD1",
"j.	c #709CD0",
"k.	c #86ABD7",
"l.	c #AAC1DE",
"m.	c #3364A0",
"n.	c #426FA6",
"o.	c #C3D5EA",
"p.	c #8EB1D9",
"q.	c #89ABD3",
"r.	c #33629E",
"s.	c #85A8D3",
"t.	c #81A8D6",
"u.	c #6E9ACF",
"v.	c #6E99CF",
"w.	c #B4C9E5",
"x.	c #507AAE",
"y.	c #34619E",
"z.	c #87A5CB",
"A.	c #A9C3E1",
"B.	c #7BA3D2",
"C.	c #A1BEDF",
"D.	c #5982B7",
"E.	c #5981B7",
"F.	c #96B6DD",
"G.	c #6C99CF",
"H.	c #6B98CE",
"I.	c #90B1DA",
"J.	c #8DAACF",
"K.	c #32619E",
"L.	c #33619C",
"M.	c #B7CBE3",
"N.	c #79A2D2",
"O.	c #87ACD7",
"P.	c #9DBADD",
"Q.	c #32609C",
"R.	c #99B8DC",
"S.	c #76A0D2",
"T.	c #6996CE",
"U.	c #6F9BD0",
"V.	c #B4C9E4",
"W.	c #3965A0",
"X.	c #6489B7",
"Y.	c #B3C9E3",
"Z.	c #78A2D2",
"`.	c #7297C5",
" +	c #7197C5",
".+	c #8FB1DB",
"++	c #6795CD",
"@+	c #6694CD",
"#+	c #99B7DD",
"$+	c #6F93BF",
"%+	c #32619B",
"&+	c #9DB7D7",
"*+	c #94B4DA",
"=+	c #76A0D1",
"-+	c #7EA5D4",
";+	c #ADC6E4",
">+	c #3A67A1",
",+	c #3C69A3",
"'+	c #A5C0E2",
")+	c #6A97CF",
"!+	c #6493CD",
"~+	c #A1BADA",
"{+	c #416DA3",
"]+	c #B8CCE4",
"^+	c #749FD1",
"/+	c #98B8DD",
"(+	c #88A9D2",
"_+	c #315F9A",
":+	c #88AAD3",
"<+	c #85AAD7",
"[+	c #6291CC",
"}+	c #6090CC",
"|+	c #A3BEE0",
"1+	c #5078AA",
"2+	c #33609A",
"3+	c #81A0C8",
"4+	c #9FBBDD",
"5+	c #AFC7E5",
"6+	c #4E79AD",
"7+	c #547CB1",
"8+	c #A2BEE1",
"9+	c #6190CC",
"0+	c #5E8FCB",
"a+	c #7EA4D4",
"b+	c #315E98",
"c+	c #305F96",
"d+	c #ADC4DF",
"e+	c #719DD0",
"f+	c #8CAFD9",
"g+	c #9AB8DC",
"h+	c #305D96",
"i+	c #2F5D96",
"j+	c #9AB8DD",
"k+	c #739DD2",
"l+	c #5C8DCB",
"m+	c #5F90CC",
"n+	c #A4BDDC",
"o+	c #39649B",
"p+	c #6086B5",
"q+	c #A9C2E0",
"r+	c #A8C2E2",
"s+	c #658DBD",
"t+	c #315D97",
"u+	c #6B90C2",
"v+	c #91B3DC",
"w+	c #5A8CCA",
"x+	c #598BCA",
"y+	c #87AAD7",
"z+	c #6B8EBB",
"A+	c #315D96",
"B+	c #95B1D4",
"C+	c #8BADD7",
"D+	c #7FA6D5",
"E+	c #A6C1E2",
"F+	c #33619A",
"G+	c #36639B",
"H+	c #A2BDE1",
"I+	c #6191CD",
"J+	c #578AC9",
"K+	c #97B2D5",
"L+	c #325D96",
"M+	c #3F69A0",
"N+	c #ACC3DF",
"O+	c #9BBADF",
"P+	c #7A9ECB",
"Q+	c #2C5992",
"R+	c #7CA0CE",
"S+	c #80A6D6",
"T+	c #5588C9",
"U+	c #5488C9",
"V+	c #8FAFD7",
"W+	c #5076A8",
"X+	c #315B94",
"Y+	c #799BC5",
"Z+	c #94B3D9",
"`+	c #6B98CF",
" @	c #729ED1",
".@	c #B1C9E5",
"+@	c #B0C8E5",
"@@	c #AEC7E5",
"#@	c #AEC6E4",
"$@	c #ACC5E4",
"%@	c #ABC5E4",
"&@	c #ABC4E4",
"*@	c #AAC4E4",
"=@	c #A9C3E3",
"-@	c #A8C2E3",
";@	c #A7C1E3",
">@	c #A6C1E3",
",@	c #5286C8",
"'@	c #6E99D0",
")@	c #81A0C9",
"!@	c #2F5A94",
"~@	c #2F5A92",
"{@	c #A3BCDC",
"]@	c #78A0D1",
"^@	c #6997CE",
"/@	c #6896CE",
"(@	c #6795CE",
"_@	c #6594CD",
":@	c #6392CC",
"<@	c #6191CC",
"[@	c #5D8ECB",
"}@	c #5B8DCA",
"|@	c #588ACA",
"1@	c #5789C9",
"2@	c #5689C9",
"3@	c #5387C8",
"4@	c #5185C8",
"5@	c #5085C8",
"6@	c #94B1D7",
"7@	c #3B6399",
"8@	c #5C83B2",
"9@	c #9DB9DB",
"0@	c #6D9ACF",
"a@	c #6D99CF",
"b@	c #6C98CE",
"c@	c #6B97CE",
"d@	c #6A97CE",
"e@	c #6492CC",
"f@	c #6292CD",
"g@	c #6091CD",
"h@	c #5E8FCC",
"i@	c #5D8ECC",
"j@	c #5C8ECB",
"k@	c #5B8DCB",
"l@	c #5A8CCB",
"m@	c #598BCB",
"n@	c #578ACA",
"o@	c #568ACA",
"p@	c #5588CA",
"q@	c #4F84C7",
"r@	c #4E83C7",
"s@	c #4D82C7",
"t@	c #769ED1",
"u@	c #668BB7",
"v@	c #2D5A91",
"w@	c #8CAAD0",
"x@	c #80A6D3",
"y@	c #6695CD",
"z@	c #9BB7DA",
"A@	c #9AB7DA",
"B@	c #9AB6DA",
"C@	c #99B6DA",
"D@	c #99B5D9",
"E@	c #98B5D9",
"F@	c #9CB8DA",
"G@	c #9BB8DB",
"H@	c #99B5DA",
"I@	c #98B5DA",
"J@	c #97B4DA",
"K@	c #97B4D9",
"L@	c #95B3D9",
"M@	c #94B2D8",
"N@	c #94B1D8",
"O@	c #4F84C8",
"P@	c #4B81C6",
"Q@	c #5587C9",
"R@	c #8CAAD1",
"S@	c #305B91",
"T@	c #3F689C",
"U@	c #A0BADA",
"V@	c #6996CD",
"W@	c #7EA4D3",
"X@	c #7FA1C9",
"Y@	c #2B568D",
"Z@	c #779AC7",
"`@	c #6793CC",
" #	c #497FC6",
".#	c #487FC6",
"+#	c #7EA3D3",
"@#	c #5075A5",
"##	c #2D598F",
"$#	c #7295C1",
"%#	c #89ABD5",
"&#	c #6292CC",
"*#	c #93B2D7",
"=#	c #4E76A7",
"-#	c #4972A6",
";#	c #83A6D3",
">#	c #5F8ECB",
",#	c #7899C4",
"'#	c #2C588F",
")#	c #2D598D",
"!#	c #96B4D7",
"~#	c #6E99CE",
"{#	c #6B97CF",
"]#	c #92B0D4",
"^#	c #2D598E",
"/#	c #2B578D",
"(#	c #81A3CE",
"_#	c #5A8BCA",
":#	c #4980C6",
"<#	c #85A7D2",
"[#	c #3B6294",
"}#	c #2C568B",
"|#	c #577EAD",
"1#	c #90AFD6",
"2#	c #688CB7",
"3#	c #2D578D",
"4#	c #2C568D",
"5#	c #577EB1",
"6#	c #779ED0",
"7#	c #6A95CD",
"8#	c #6487B4",
"9#	c #2A568B",
"0#	c #82A4CC",
"a#	c #769ED0",
"b#	c #5F8FCB",
"c#	c #92AFD5",
"d#	c #396193",
"e#	c #2F5A8F",
"f#	c #86A7D3",
"g#	c #84A5CD",
"h#	c #2F598C",
"i#	c #3C6598",
"j#	c #94B1D6",
"k#	c #7D9EC5",
"l#	c #2C568C",
"m#	c #2B558B",
"n#	c #648CBD",
"o#	c #6C97CE",
"p#	c #749CCF",
"q#	c #4F74A2",
"r#	c #2D578A",
"s#	c #6A90BD",
"t#	c #7EA3D1",
"u#	c #7FA3D1",
"v#	c #5378A4",
"w#	c #3A6599",
"x#	c #82A5D1",
"y#	c #7496C1",
"z#	c #2C568A",
"A#	c #2E578B",
"B#	c #93B0D5",
"C#	c #91AED4",
"D#	c #90AED4",
"E#	c #8CA9CF",
"F#	c #30598C",
"G#	c #2A5489",
"H#	c #7298C9",
"I#	c #84A6D0",
"J#	c #3C6293",
"K#	c #295387",
"L#	c #295385",
"M#	c #275284",
"N#	c #3262A1",
"O#	c #A8C3E2",
"P#	c #A9C3E2",
"Q#	c #AAC4E3",
"R#	c #ADC5E4",
"S#	c #AFC7E6",
"T#	c #B0C8E6",
"U#	c #B2C9E6",
"V#	c #B3CAE7",
"W#	c #B4CBE7",
"X#	c #B5CCE7",
"Y#	c #B6CCE8",
"Z#	c #B8CDE8",
"`#	c #B9CEE9",
" $	c #BACFE9",
".$	c #BCD0EA",
"+$	c #BDD1EA",
"@$	c #BFD2EB",
"#$	c #C1D4EB",
"$$	c #C2D5EC",
"%$	c #C4D6ED",
"&$	c #C6D7ED",
"*$	c #C9D9EE",
"=$	c #CBDBEF",
"-$	c #CDDCF0",
";$	c #D0DEF0",
">$	c #D3E0F1",
",$	c #D5E1F2",
"'$	c #D7E3F2",
")$	c #D9E4F3",
"!$	c #DAE5F4",
"~$	c #30609D",
"{$	c #719CD0",
"]$	c #6C98CF",
"^$	c #5B8CCA",
"/$	c #5186C8",
"($	c #5084C8",
"_$	c #4C82C7",
":$	c #4A80C6",
"<$	c #2F5E99",
"                                                                                                ",
"                                                                                                ",
"                                      . + + + + + + + + .                                       ",
"                                      @ # $ $ $ $ % % & *                                       ",
"                                      = - ; ; > , ' ) ! ~                                       ",
"                                    { ] ^ > , ' ) / ( _ : <                                     ",
"                                    [ } | ' ) 1 2 3 4 5 6 7                                     ",
"                                  8 9 0 ) / a b c / d e ^ f g                                   ",
"                                  h i j k k l m m n o p q r s                                   ",
"                                  t u 3 v w x y y z A B C D E                                   ",
"                                F G H I J K L     M N O P Q R S                                 ",
"                                T U k V W X Y     Y Z `  . ...+.                                ",
"                              @.#.$.%.&.*.=.-.    -.;.>.,.'.).!.@.                              ",
"                              ~.{.].p ^./.~.        ~.(._.:.<.[.}.                              ",
"                              |.1.2.B 3.4.5.        5.6.7.8.9.0.a.                              ",
"                            b.c.d.C 2.e.f.            g.h.i.j.k.l.m.                            ",
"                            n.o.p P p.q.r.            r.s.t.u.v.w.x.                            ",
"                          y.z.A._.B.C.D.                E.F.G.H.I.J.K.                          ",
"                          L.M.( N.O.P.Q.                Q.R.S.T.U.V.W.                          ",
"                          X.Y.Z.'.).`.L.                L. +.+++@+#+$+                          ",
"                        %+&+*+=+-+;+>+                    ,+'+)+!+:.~+%+                        ",
"                        {+]+N.^+/+(+_+                    _+:+<+[+}+|+1+                        ",
"                      2+3+4+8.:.5+6+                        7+8+9+0+a+z.b+                      ",
"                      c+d+2.e+f+g+h+                        i+j+k+l+m+n+o+                      ",
"                      p+q+j.U.r+s+t+                        t+u+v+w+x+y+z+                      ",
"                    A+B+C+u.D+E+F+                            G+H+I+J+!+K+L+                    ",
"                    M+N+j.G.O+P+Q+Q+Q+Q+Q+Q+Q+Q+Q+Q+Q+Q+Q+Q+Q+Q+R+S+T+U+V+W+                    ",
"                  X+Y+Z+`+ @.@+@+@5+5+@@#@;+$@$@%@&@*@=@=@-@-@;@>@>@T+,@'@)@!@                  ",
"                  ~@{@]@^@/@(@@+_@!+:@[+<@m+0+[@l+}@w+x+|@1@2@U+3@,@4@5@4@6@7@                  ",
"                  8@9@T.(@0@u.a@b@c@d@T.e@f@I+g@m+h@i@j@k@l@m@n@o@p@q@r@s@t@u@                  ",
"                v@w@x@y@d@n+z@A@B@C@D@E@F@G@z@B@B@C@H@I@J@K@L@Z+M@N@K@O@P@Q@R@S@                ",
"                T@U@V@!+W@X@Y@Y@Y@Y@Y@Y@Y@Y@Y@Y@Y@Y@Y@Y@Y@Y@Y@Y@Y@Y@Z@`@ #.#+#@#                ",
"              ##$#%#!+&#*#=#                                        -#;#.#.#>#,#'#              ",
"              )#!#~#<@{#]#^#                                        /#(#_#.#:#<#[#              ",
"            }#|#1#<@m+2 2#3#                                        4#5#6#.#.#7#8#9#            ",
"            }#0#a#b#0+c#d#                                            e#f#5@.#q@g#h#            ",
"            i#j#9+[@b@k#l#                                            m#n#o#.#.#p#q#            ",
"          r#s#t#l+w+u#v#                                                w#x#P@.#x+y#z#          ",
"          A#B#B#C#D#E#F#                                                G#H#<#<#<#I#J#          ",
"        K#K#K#K#K#K#K#L#                                                M#K#K#K#K#K#K#K#        ",
"                                                                                                ",
"        + + + + + + + + + + + + + + + + + + + + + + + + + + + + + + + + + + + + + + + +         ",
"        N#O#O#P#Q#Q#%@$@R##@5+S#T#U#V#W#X#Y#Z#`# $.$+$@$#$$$%$&$*$=$-$;$>$,$'$)$!$!$!$N#        ",
"        ~$8.{$U.0@]$d@/@@+!+&#}+0+[@^$x+J+T+3@/$($r@_$:$.#.#.#.#.#.#.#.#.#.#.#.#.#.#.#~$        ",
"        <$<$<$<$<$<$<$<$<$<$<$<$<$<$<$<$<$<$<$<$<$<$<$<$<$<$<$<$<$<$<$<$<$<$<$<$<$<$<$<$        ",
"                                                                                                ",
"                                                                                                ",
"                                                                                                "};
