/* XPM */
static char * sugar_edit_redo_48_xpm[] = {
"48 48 268 2",
"  	c None",
". 	c #778600",
"+ 	c #788700",
"@ 	c #9AA834",
"# 	c #798800",
"$ 	c #E6ECC5",
"% 	c #A6B549",
"& 	c #E8EDC8",
"* 	c #E0E7B6",
"= 	c #B3C160",
"- 	c #788800",
"; 	c #E8EEC9",
"> 	c #B9C959",
", 	c #DCE4AC",
"' 	c #C0CD75",
") 	c #7B8903",
"! 	c #E8EECA",
"~ 	c #B5C650",
"{ 	c #B6C753",
"] 	c #D8E1A2",
"^ 	c #CAD489",
"/ 	c #7D8E09",
"( 	c #7A8805",
"_ 	c #E9EECB",
": 	c #B7C753",
"< 	c #B5C64F",
"[ 	c #D2DC93",
"} 	c #D3DB99",
"| 	c #849414",
"1 	c #E9EFCC",
"2 	c #B8C755",
"3 	c #B6C752",
"4 	c #B4C54C",
"5 	c #CBD683",
"6 	c #D9E0A5",
"7 	c #8E9C21",
"8 	c #EAEFCD",
"9 	c #B9C858",
"0 	c #B6C651",
"a 	c #B5C54E",
"b 	c #B3C44B",
"c 	c #C4D173",
"d 	c #DCE3AC",
"e 	c #99A732",
"f 	c #798801",
"g 	c #7A8A00",
"h 	c #798901",
"i 	c #798700",
"j 	c #7D8C0C",
"k 	c #BAC95A",
"l 	c #B8C857",
"m 	c #B4C54D",
"n 	c #B3C449",
"o 	c #BECD65",
"p 	c #A4B345",
"q 	c #7A8900",
"r 	c #7B8802",
"s 	c #9EAB3E",
"t 	c #BDC972",
"u 	c #D3DC9D",
"v 	c #DFE6B5",
"w 	c #E4EAC0",
"x 	c #E7ECC5",
"y 	c #EAEFCE",
"z 	c #BACA5C",
"A 	c #B3C44A",
"B 	c #B2C347",
"C 	c #D9E2A5",
"D 	c #B1BE5C",
"E 	c #859418",
"F 	c #C1CD7C",
"G 	c #E5EBC3",
"H 	c #E6EBC2",
"I 	c #DBE3A9",
"J 	c #D1DB92",
"K 	c #CAD680",
"L 	c #C5D275",
"M 	c #C2D06E",
"N 	c #C0CE68",
"O 	c #BBCA5E",
"P 	c #B2C348",
"Q 	c #B1C245",
"R 	c #B3C349",
"S 	c #D4DD97",
"T 	c #BFCA71",
"U 	c #7A8903",
"V 	c #BCC774",
"W 	c #E9EDCB",
"X 	c #DDE5AF",
"Y 	c #CDD98A",
"Z 	c #C3D070",
"` 	c #C1CF6C",
" .	c #C0CE69",
"..	c #BDCC62",
"+.	c #BCCB5F",
"@.	c #B7C754",
"#.	c #ADBF3C",
"$.	c #9EB317",
"%.	c #98AF0A",
"&.	c #9BB212",
"*.	c #CAD681",
"=.	c #C8D384",
"-.	c #7E8D0A",
";.	c #869418",
">.	c #DCE3B0",
",.	c #E3E9BD",
"'.	c #CDD888",
").	c #C8D47B",
"!.	c #C7D47A",
"~.	c #C6D378",
"{.	c #C4D172",
"].	c #C0CE6A",
"^.	c #BFCD67",
"/.	c #BECC63",
"(.	c #BCCB60",
"_.	c #AEC03E",
":.	c #99B00C",
"<.	c #C2CF6D",
"[.	c #D1DA95",
"}.	c #859315",
"|.	c #8B9A22",
"1.	c #D9E2A6",
"2.	c #C9D57E",
"3.	c #C9D57F",
"4.	c #C8D57D",
"5.	c #C7D379",
"6.	c #C6D277",
"7.	c #C2D06F",
"8.	c #C1CF6B",
"9.	c #BECC64",
"0.	c #BBCA5D",
"a.	c #9CB213",
"b.	c #DFE6B4",
"c.	c #7F8D0F",
"d.	c #829112",
"e.	c #E1E7BA",
"f.	c #D4DE99",
"g.	c #CAD682",
"h.	c #A8BC30",
"i.	c #A3B724",
"j.	c #D7E09F",
"k.	c #AFBB55",
"l.	c #7A8901",
"m.	c #C4D274",
"n.	c #C8D47C",
"o.	c #9BB111",
"p.	c #A6BA2C",
"q.	c #D8E1A4",
"r.	c #A5B346",
"s.	c #A7B54B",
"t.	c #E1E8B7",
"u.	c #C5D276",
"v.	c #C3D171",
"w.	c #ADBF3B",
"x.	c #AABD35",
"y.	c #9DAC3A",
"z.	c #788900",
"A.	c #7B8A04",
"B.	c #C1CF6D",
"C.	c #C3D170",
"D.	c #C4D171",
"E.	c #BAC95B",
"F.	c #9FB51B",
"G.	c #AFC140",
"H.	c #D9E1A6",
"I.	c #98A52F",
"J.	c #A5B349",
"K.	c #DEE6B1",
"L.	c #D0DA8F",
"M.	c #E4EABE",
"N.	c #EAEECD",
"O.	c #E8ECC9",
"P.	c #E7ECC7",
"Q.	c #B0C244",
"R.	c #D8E0A2",
"S.	c #909E24",
"T.	c #D0DA97",
"U.	c #BFCD66",
"V.	c #D7DF9F",
"W.	c #D9E0AC",
"X.	c #B8C270",
"Y.	c #99A53E",
"Z.	c #818F10",
"`.	c #7A8A03",
" +	c #798804",
".+	c #9FB41A",
"++	c #D5DE9E",
"@+	c #89991C",
"#+	c #798701",
"$+	c #E5EBC0",
"%+	c #D5DDA2",
"&+	c #94A030",
"*+	c #798900",
"=+	c #A9BC31",
"-+	c #98AF0B",
";+	c #D1DB96",
">+	c #849314",
",+	c #8F9C23",
"'+	c #E3E9BC",
")+	c #B8C569",
"!+	c #CDD78D",
"~+	c #80900D",
"{+	c #A3B044",
"]+	c #DCE4AB",
"^+	c #E0E7B5",
"/+	c #B5C262",
"(+	c #798703",
"_+	c #E2E9BB",
":+	c #9AB110",
"<+	c #C7D283",
"[+	c #7D8D09",
"}+	c #AAB750",
"|+	c #CCD786",
"1+	c #D2DB98",
"2+	c #DFE7B4",
"3+	c #9CB214",
"4+	c #CDD889",
"5+	c #C1CC77",
"6+	c #7A8904",
"7+	c #A9B64F",
"8+	c #D8E0A1",
"9+	c #E1E7B7",
"0+	c #97A633",
"a+	c #9EB418",
"b+	c #D1DC92",
"c+	c #BAC76B",
"d+	c #7A8701",
"e+	c #9AA838",
"f+	c #DFE6B6",
"g+	c #D5DE9B",
"h+	c #B3C05E",
"i+	c #869516",
"j+	c #E1E8B9",
"k+	c #CBD490",
"l+	c #ABB850",
"m+	c #DDE5B1",
"n+	c #BCCA5D",
"o+	c #CBD783",
"p+	c #C1CA80",
"q+	c #A3B043",
"r+	c #7A8902",
"s+	c #C4CD7E",
"t+	c #CDD88A",
"u+	c #CDD887",
"v+	c #C1CB81",
"w+	c #788701",
"x+	c #91A025",
"y+	c #E6EBC3",
"z+	c #B8C858",
"A+	c #CBD784",
"B+	c #CDD596",
"C+	c #758400",
"D+	c #D2D99D",
"E+	c #D2DB97",
"F+	c #C3CF71",
"G+	c #E1E7BE",
"H+	c #798802",
"I+	c #8E9B23",
"J+	c #E8EDD0",
"K+	c #C3CF7B",
"L+	c #E6EBC7",
"M+	c #94A02F",
"N+	c #A9B85F",
"O+	c #E5EAC8",
"P+	c #D9E0B1",
"Q+	c #C2CC83",
"R+	c #DEE4C4",
"S+	c #DCE2BE",
"                                                                                                ",
"                                                                                                ",
"                                                  .                                             ",
"                                                  . +                                           ",
"                                                  . @ #                                         ",
"                                                  . $ % #                                       ",
"                                                  . & * = -                                     ",
"                                                  . ; > , ' )                                   ",
"                                                  . ! ~ { ] ^ /                                 ",
"                                                  ( _ : ~ < [ } | #                             ",
"                                                  ( 1 2 3 < 4 5 6 7 -                           ",
"                                                  ( 8 9 2 0 a b c d e f                         ",
"                                          g h i + j 8 k l : ~ m n o , p +                       ",
"                                    q r s t u v w x y z > 2 3 a A B l C D #                     ",
"                                i E F G H I J K L M N O k l : < 4 P Q R S T U                   ",
"                              U V W X Y L c Z `  .o ..+.z 9 @.~ m #.$.%.&.*.=.-.                ",
"                            ;.>.,.'.).!.~.L {.M ].^./.(.z > 2 0 _.:.%.%.%.:.<.[.}.+             ",
"                          |.w 1.).2.3.4.5.6.c 7.8.N 9.(.0.> 2 m a.%.%.%.%.%.%.8.b.c..           ",
"                        d.e.f.~.).3.g.2.!.6.c 7.` N 9.(.0.> 2 h.%.%.%.%.%.%.i.j.k.#             ",
"                      l.u ] m.~.!.4.2.n.5.6.c 7.8.^.9.(.0.> : o.%.%.%.%.%.p.q.r.h               ",
"                      s.t.7.c u.~.!.!.5.~.L v.M ].^./.(.z > w.%.%.%.%.%.x.1.y.z.                ",
"                    A.* n.<.v.c u.6.6.6.L {.7.B.C.<.D.+.E.9 F.%.%.%.%.G.H.I.-                   ",
"                    J.K.N 8.M Z {.c m.u.L., M.N.O.P.y O k Q.%.%.%.%.4 R.S.-                     ",
"                  h T.'.U.N 8.<.M c V._ W.X.Y.Z.`. +y z l .+%.%.%.> ++@+z.                      ",
"                  #+H ^./.o N  .!.$+%+&+*+        ( 8 k =+%.%.-+U.;+>+#                         ",
"                  ,+'+O (...9.D.H )+q             ( 8 x.%.%.:.c !+~+                            ",
"                  {+]+E.O (...^+/+#               (+_+%.%.:+2.<+[+                              ",
"                  }+] 9 k z |+1+f                 . 2+%.3+4+5+6+                                ",
"                  7+8+2 l > 9+0+                  . 2+a+b+c+d+                                  ",
"                  e+]+3 @.o f+f                   . 2+g+h+-                                     ",
"                  i+j+a ~ n.k+*+                  . 2+l++                                       ",
"                  #+m+n+m o+p+                    . q+-                                         ",
"                  r+s+t+< u+v+                    . w+                                          ",
"                    x+y+z+A+B+                    C+                                            ",
"                      D+E+F+G+H+                                                                ",
"                      I+J+K+L+M+                                                                ",
"                        N+O+P+Q+                                                                ",
"                            R+S+                                                                ",
"                                                                                                ",
"                                                                                                ",
"                                                                                                ",
"                                                                                                ",
"                                                                                                ",
"                                                                                                ",
"                                                                                                ",
"                                                                                                ",
"                                                                                                ",
"                                                                                                "};
