/* XPM */
static char * sugar_document_open_48_xpm[] = {
"48 48 322 2",
"  	c None",
". 	c #4B4B4B",
"+ 	c #545454",
"@ 	c #555555",
"# 	c #565656",
"$ 	c #575757",
"% 	c #5A5A5A",
"& 	c #5C5C5C",
"* 	c #5E5E5E",
"= 	c #606060",
"- 	c #636363",
"; 	c #666666",
"> 	c #676767",
", 	c #696969",
"' 	c #6B6B6B",
") 	c #6D6D6D",
"! 	c #6F6F6F",
"~ 	c #6C6C6C",
"{ 	c #717171",
"] 	c #737373",
"^ 	c #747474",
"/ 	c #767676",
"( 	c #777777",
"_ 	c #797979",
": 	c #FCFCFC",
"< 	c #F3F3F3",
"[ 	c #F1F1F1",
"} 	c #F0F0F0",
"| 	c #F4F4F4",
"1 	c #F5F5F5",
"2 	c #F2F2F2",
"3 	c #F7F7F7",
"4 	c #FAFAFA",
"5 	c #F9F9F9",
"6 	c #EAEAEA",
"7 	c #7C7C7C",
"8 	c #7A7A7A",
"9 	c #595959",
"0 	c #F8F8F8",
"a 	c #E6E6E6",
"b 	c #B9B9B9",
"c 	c #C8C8C8",
"d 	c #CCCCCC",
"e 	c #F6F6F6",
"f 	c #C5C5C5",
"g 	c #A6A6A6",
"h 	c #DADADA",
"i 	c #7B7B7B",
"j 	c #BFBFBF",
"k 	c #AFAFAF",
"l 	c #9C9C9C",
"m 	c #E8E8E8",
"n 	c #E7E7E7",
"o 	c #E9E9E9",
"p 	c #EBEBEB",
"q 	c #5F5F5F",
"r 	c #CACACA",
"s 	c #BDBDBD",
"t 	c #A4A4A4",
"u 	c #656565",
"v 	c #E4E4E4",
"w 	c #BBBBBB",
"x 	c #A5A5A5",
"y 	c #E5E5E5",
"z 	c #B5B5B5",
"A 	c #616161",
"B 	c #B0B0B0",
"C 	c #959595",
"D 	c #858585",
"E 	c #979797",
"F 	c #EFEFEF",
"G 	c #DDDDDD",
"H 	c #DBDBDB",
"I 	c #DCDCDC",
"J 	c #DEDEDE",
"K 	c #E2E2E2",
"L 	c #E3E3E3",
"M 	c #999999",
"N 	c #5D5D5D",
"O 	c #B3B3B3",
"P 	c #C9C9C9",
"Q 	c #787878",
"R 	c #D4D4D4",
"S 	c #D6D6D6",
"T 	c #D7D7D7",
"U 	c #ABABAB",
"V 	c #C3C3C3",
"W 	c #7E7E7E",
"X 	c #5B5B5B",
"Y 	c #D2D2D2",
"Z 	c #D0D0D0",
"` 	c #CDCDCD",
" .	c #CECECE",
"..	c #CFCFCF",
"+.	c #D1D1D1",
"@.	c #D3D3D3",
"#.	c #6A6A6A",
"$.	c #989898",
"%.	c #D5D5D5",
"&.	c #969696",
"*.	c #838383",
"=.	c #EDEDED",
"-.	c #A3A3A3",
";.	c #808080",
">.	c #949494",
",.	c #C1C1C1",
"'.	c #C2C2C2",
").	c #C4C4C4",
"!.	c #C6C6C6",
"~.	c #C7C7C7",
"{.	c #8A8A8A",
"].	c #A2A2A2",
"^.	c #BCBCBC",
"/.	c #C0C0C0",
"(.	c #646464",
"_.	c #A0A0A0",
":.	c #B6B6B6",
"<.	c #B7B7B7",
"[.	c #B8B8B8",
"}.	c #BABABA",
"|.	c #9F9F9F",
"1.	c #D8D8D8",
"2.	c #AEAEAE",
"3.	c #626262",
"4.	c #E0E0E0",
"5.	c #A9A9A9",
"6.	c #B1B1B1",
"7.	c #B4B4B4",
"8.	c #727272",
"9.	c #939393",
"0.	c #878787",
"a.	c #A8A8A8",
"b.	c #AAAAAA",
"c.	c #ACACAC",
"d.	c #ADADAD",
"e.	c #A1A1A1",
"f.	c #5C7DA7",
"g.	c #3868A5",
"h.	c #3B69A5",
"i.	c #3A69A5",
"j.	c #3867A4",
"k.	c #3766A5",
"l.	c #3767A5",
"m.	c #3566A4",
"n.	c #8E8E8E",
"o.	c #8D8D8D",
"p.	c #535353",
"q.	c #3E6CA7",
"r.	c #A4BFDD",
"s.	c #ADC7E2",
"t.	c #AAC5E1",
"u.	c #B9CFE7",
"v.	c #6890BF",
"w.	c #3567A3",
"x.	c #9B9B9B",
"y.	c #898989",
"z.	c #7D7D7D",
"A.	c #A8ABAF",
"B.	c #3A6AA5",
"C.	c #BCD1E8",
"D.	c #91B4DA",
"E.	c #8FB3D9",
"F.	c #8EB3D9",
"G.	c #8EB2D9",
"H.	c #8DB2D9",
"I.	c #8DB1D9",
"J.	c #8DB1D8",
"K.	c #8BAFD8",
"L.	c #4D7BB2",
"M.	c #686868",
"N.	c #BEBEBE",
"O.	c #B2B2B2",
"P.	c #96A1AF",
"Q.	c #517BB0",
"R.	c #B2CAE5",
"S.	c #84ABD5",
"T.	c #83ABD5",
"U.	c #83AAD5",
"V.	c #82AAD4",
"W.	c #81AAD4",
"X.	c #81A9D4",
"Y.	c #80A9D4",
"Z.	c #80A8D4",
"`.	c #7EA7D3",
" +	c #7FA7D4",
".+	c #AEC7E3",
"++	c #3666A5",
"@+	c #8F8F8F",
"#+	c #585858",
"$+	c #8597AF",
"%+	c #648CBD",
"&+	c #A6C2E1",
"*+	c #7FA8D4",
"=+	c #75A1D0",
"-+	c #90B0D5",
";+	c #3969A7",
">+	c #718BAE",
",+	c #769CC8",
"'+	c #9BBBDD",
")+	c #7FA8D3",
"!+	c #729FCF",
"~+	c #9ABADD",
"{+	c #6E97C5",
"]+	c #3567A6",
"^+	c #5A7FAC",
"/+	c #87A9D1",
"(+	c #7DA6D3",
"_+	c #74A1D0",
":+	c #4A78B1",
"<+	c #4671A9",
"[+	c #95B5D8",
"}+	c #89AFD7",
"|+	c #7DA7D3",
"1+	c #7BA5D2",
"2+	c #73A0CF",
"3+	c #7CA6D2",
"4+	c #9CBCDE",
"5+	c #3566A6",
"6+	c #CBCBCB",
"7+	c #BFC0C1",
"8+	c #9FBEDE",
"9+	c #78A3D1",
"0+	c #739FCF",
"a+	c #88AED7",
"b+	c #81A7D0",
"c+	c #3869A6",
"d+	c #A7A7A7",
"e+	c #ACB4BE",
"f+	c #4C77AF",
"g+	c #99BADD",
"h+	c #7AA4D2",
"i+	c #93B5DA",
"j+	c #628FC0",
"k+	c #3667A5",
"l+	c #92A3BA",
"m+	c #6089BB",
"n+	c #91B4D9",
"o+	c #96B7DB",
"p+	c #4271AC",
"q+	c #7490B5",
"r+	c #6F97C5",
"s+	c #89AED7",
"t+	c #87ACD5",
"u+	c #537AAD",
"v+	c #7DA4CF",
"w+	c #79A4D1",
"x+	c #77A2D1",
"y+	c #76A2D1",
"z+	c #76A2D0",
"A+	c #6B95C6",
"B+	c #3969A9",
"C+	c #888888",
"D+	c #AEB0B2",
"E+	c #3C6CA7",
"F+	c #8AAFD6",
"G+	c #4C7BB4",
"H+	c #4C4C4C",
"I+	c #4F5C6D",
"J+	c #4C78AC",
"K+	c #3868A7",
"L+	c #4D688B",
"M+	c #608BBF",
"N+	c #7BA5D1",
"O+	c #719ECE",
"P+	c #709ECE",
"Q+	c #709DCE",
"R+	c #6F9DCE",
"S+	c #6A96C7",
"T+	c #3869A7",
"U+	c #717272",
"V+	c #3B68A2",
"W+	c #729ECC",
"X+	c #6E9CCD",
"Y+	c #6D9CCD",
"Z+	c #6D9BCD",
"`+	c #6C9BCD",
" @	c #6B9BCD",
".@	c #75A2D1",
"+@	c #4A7BB6",
"@@	c #546171",
"#@	c #4371A8",
"$@	c #6A9ACC",
"%@	c #699ACC",
"&@	c #6999CC",
"*@	c #6899CC",
"=@	c #6898CC",
"-@	c #6A9ACD",
";@	c #6C99CD",
">@	c #606061",
",@	c #3F6597",
"'@	c #5787BE",
")@	c #6899CB",
"!@	c #6698CB",
"~@	c #6697CB",
"{@	c #6597CB",
"]@	c #6497CB",
"^@	c #6496CB",
"/@	c #6697CC",
"(@	c #5384BD",
"_@	c #3767A2",
":@	c #515151",
"<@	c #415978",
"[@	c #3D6CA7",
"}@	c #6296C9",
"|@	c #6396CA",
"1@	c #6395CA",
"2@	c #6295CA",
"3@	c #6195CA",
"4@	c #6194CA",
"5@	c #5F94CA",
"6@	c #505050",
"7@	c #4C6C95",
"8@	c #3767A4",
"9@	c #5C8FC6",
"0@	c #6094CA",
"a@	c #5E93C9",
"b@	c #4678B3",
"c@	c #33619C",
"d@	c #3A5E8A",
"e@	c #3465A4",
"f@	c #3464A3",
"g@	c #335F98",
"                                                                                                ",
"                                                                                                ",
"                      . + + + @ @ @ @ @ # # # $ % & * = - ; > , ' ) ! ~ ) ! { ] ^ / ( _         ",
"                      . : < < < [ [ [ } } < | | 1 | | | < < < < 2 2 2 3 4 4 5 5 5 5 6 7         ",
"                      $ 3 5 5 5 5 5 5 5 5 5 5 5 5 5 5 5 5 5 5 5 5 5 5 5 5 5 5 5 5 5 6 8         ",
"    = = = = = = = = = 9 1 3 3 0 0 0 0 5 5 5 5 5 5 5 5 5 5 5 5 5 5 5 5 5 5 5 5 5 5 5 a _         ",
"  * b c c c c c c c d ! e [ [ f g g g g g g g g g g g g g g g g g g g g g g g 3 3 0 h i         ",
"  * j k l l l l l l l = 3 6 6 m a a a n n n n m m m m o o o o 6 6 6 6 p p p p [ [ [ c 8         ",
"  q r s g g g g g g t u e v v w x x x x x x x x x x x x x x x x x g g y o 6 6 6 6 p z ^         ",
"  A k B C C C C C C D E F G G h h h h h H H H H I I I I G G G G J J J K L L L L v v M           ",
"  N O P g g g g g g Q R L S T U t t t t t t t t t t x x x x x x x x x x x x x V G G W           ",
"    l w C C C C C C X 1 Y Z Z `  . . . .........Z Z Z Z +.+.+.+.Y Y Y Y @.@.@.R T R #.          ",
"    $.%.g g g g g &.*.=.P P O -.-.-.t t t t t t t t t t t t t t t t t t t t f Z Z z ~           ",
"    ;.f C C C C >.) ` %.V V ,.,.'.'.'.'.V V V V ).).).).f f f f !.!.!.!.~.~.P P r {.            ",
"    ( J g g g x ].% [ s ^.O -.-.-.-.-.-.-.-.-.-.-.-.-.-.-.-.-.-.-.-.-.-.-.'.V V /.(.            ",
"    - ~.M C >.>.8 _.h z :.:.z z :.:.:.:.<.<.<.<.[.[.[.[.b b b b }.}.}.}.}.^.^.^.|.u             ",
"    X 1.2.x x x 3.4.[.k 5.].].].].].].].].].].].].].].].].].].6.7.7.z z z z :.:.8.              ",
"    * c -.9.9.0.' L a.a.a.5.5.5.5.b.b.b.b.U U U U c.c.c.c.c.c.d.d.2.2.2.2.k k |.q               ",
"    q V 7.e.e.] w ,.5.f.g.h.h.h.h.h.h.h.h.h.i.i.i.i.i.i.i.i.i.i.i.i.i.h.h.h.h.j.k.l.l.l.l.l.m.  ",
"    q 5.t n.o.p.a d.c.q.r.s.t.t.t.t.t.t.t.t.t.t.t.t.t.t.t.t.t.t.t.t.t.t.t.t.t.t.t.t.t.t.t.u.v.w.",
"    N 5.b x.y.z.h k A.B.C.D.E.E.E.E.E.E.E.E.E.E.E.E.E.F.F.F.G.G.H.H.H.I.I.I.I.I.J.I.I.I.K.C.L.  ",
"    X C a.y.M.N.'.O.P.Q.R.S.S.S.S.S.S.S.S.S.S.S.S.T.T.T.U.U.U.V.V.W.W.W.X.X.Y.Y.Y.Z.Z.`. +.+++  ",
"      @+w &.#+J z z $+%+&+S.S.S.S.S.S.S.S.T.T.U.U.U.V.V.V.W.W.X.X.X.Y.Y.Y.Z.Z.*+*+*+`.=+J.-+;+  ",
"      z.c.7 A 4.[.[.>+,+'+S.S.S.T.T.T.U.U.U.V.V.W.W.W.X.X.Y.Y.Y.Z.Z.Z.*+*+)+)+)+`.`.=+!+~+{+]+  ",
"      8.,.( &.R w w ^+/+D.T.T.U.U.V.V.V.W.W.X.X.X.Y.Y.Y.Z.Z.*+*+*+)+)+`.`.`.`.`.(+_+!+!+&+:+    ",
"      ; d.u s ~.N.N.<+[+}+V.V.W.W.W.X.X.X.Y.Y.Z.Z.Z.*+*+)+)+)+`.`.`.`.`.|+|+|+1+2+!+!+3+4+5+    ",
"      & /.u 6+,.,.7+g.8+U.X.X.X.Y.Y.Y.Z.Z.*+*+*+)+)+)+`.`.`.`.`.|+|+(+(+(+3+9+0+!+!+!+a+b+c+    ",
"      & d+X ..).).e+f+g+Y.Y.Z.Z.Z.*+*+)+)+)+`.`.`.`.`.|+|+|+(+(+(+3+3+1+h+=+!+!+!+!+!+i+j+k+    ",
"      q d.X r ~.~.l+m+n+*+*+*+)+)+)+`.`.`.`.`.|+|+(+(+(+3+3+3+1+1+1+h+=+!+!+!+!+!+!+_+o+p+      ",
"      q &.% ~.r r q+r+s+)+`.`.`.`.`.|+|+|+(+(+(+3+3+1+1+1+1+1+h+9+=+!+!+!+!+!+!+!+!+(+t+++      ",
"      = E N s ` ` u+v+V.`.`.|+|+|+(+(+3+1+h+w+9+x+y+z+z+=+=+2+!+!+!+!+!+!+!+!+!+!+!+S.A+B+      ",
"      & C+q M <.D+E+F+`.(+(+(+1+w+y+_+0+!+!+!+!+!+!+!+!+!+!+!+!+!+!+!+!+!+!+!+!+!+!+a+G+        ",
"        *.~ H+$ I+J+S.3+1+9+=+0+!+!+!+!+!+!+!+!+!+!+!+!+!+!+!+!+!+!+!+!+!+!+!+!+!+x+W.K+        ",
"        / y.#.#.L+M+N+2+O+O+O+O+O+O+O+P+P+P+P+P+P+P+Q+Q+Q+Q+Q+R+R+R+R+R+R+R+R+R+R+9+S+T+        ",
"        ~ M ] U+V+W+Q+X+Y+Y+Y+Y+Y+Y+Y+Y+Y+Y+Y+Z+`+`+`+`+`+`+`+`+`+`+`+`+ @ @ @ @`+.@+@          ",
"        - y.A @@#@P+$@$@$@$@$@$@$@%@%@&@&@&@&@&@&@&@&@&@&@*@*@*@*@*@*@*@*@*@*@=@-@;@l.          ",
"        9 o.>@,@'@)@!@!@!@!@!@!@~@~@~@~@~@~@{@{@{@{@{@{@{@{@{@{@{@{@{@]@^@^@^@^@/@(@_@          ",
"        :@Q <@[@}@|@|@|@1@1@1@2@2@2@2@2@2@2@2@2@2@2@2@2@3@3@3@3@4@4@4@4@4@4@4@4@5@c+            ",
"        6@7@8@9@0@0@0@0@0@0@0@0@0@0@0@0@0@0@0@0@0@0@0@0@0@0@0@0@0@0@0@0@0@0@0@a@b@c@            ",
"          d@e@e@e@e@e@e@e@e@e@e@e@e@e@e@e@e@e@e@e@e@e@e@e@e@e@e@e@e@e@e@e@e@e@f@g@              ",
"                                                                                                ",
"                                                                                                ",
"                                                                                                ",
"                                                                                                ",
"                                                                                                ",
"                                                                                                ",
"                                                                                                ",
"                                                                                                "};
