/* XPM */
static char * sugar_document_save_48_xpm[] = {
"48 48 407 2",
"  	c None",
". 	c #204C87",
"+ 	c #25508A",
"@ 	c #43699E",
"# 	c #597DAC",
"$ 	c #5F82B1",
"% 	c #6284B2",
"& 	c #4F73A5",
"* 	c #365C94",
"= 	c #224C89",
"- 	c #1F4B87",
"; 	c #335B94",
"> 	c #6D8CB7",
", 	c #8CA7CC",
"' 	c #94ADCF",
") 	c #97B0D1",
"! 	c #96AFD0",
"~ 	c #92ADCF",
"{ 	c #93ADCF",
"] 	c #86A1C7",
"^ 	c #5B7DAB",
"/ 	c #274F8B",
"( 	c #234C8A",
"_ 	c #6283AF",
": 	c #98B3D1",
"< 	c #8DA8CC",
"[ 	c #8FAACD",
"} 	c #91ACCE",
"| 	c #91ABCE",
"1 	c #8EA9CD",
"2 	c #8BA7CB",
"3 	c #88A4CA",
"4 	c #85A3C9",
"5 	c #8CA8CC",
"6 	c #87A2C6",
"7 	c #41679A",
"8 	c #1F4A87",
"9 	c #264F8C",
"0 	c #849DC1",
"a 	c #A8BED8",
"b 	c #9BB3D2",
"c 	c #96AFCF",
"d 	c #8FABCE",
"e 	c #90AACD",
"f 	c #8FA9CD",
"g 	c #89A5CA",
"h 	c #82A0C7",
"i 	c #7E9DC6",
"j 	c #7F9EC6",
"k 	c #8EA9CC",
"l 	c #5074A5",
"m 	c #1F4B88",
"n 	c #234D88",
"o 	c #889FC0",
"p 	c #B3C6DC",
"q 	c #809BBD",
"r 	c #5577A6",
"s 	c #40659A",
"t 	c #386095",
"u 	c #466A9D",
"v 	c #6384B0",
"w 	c #8CA7CA",
"x 	c #87A4C9",
"y 	c #83A1C8",
"z 	c #809EC6",
"A 	c #7D9CC5",
"B 	c #7999C3",
"C 	c #7798C2",
"D 	c #4C6EA1",
"E 	c #1E4A85",
"F 	c #6582AC",
"G 	c #9EB0CB",
"H 	c #3D6298",
"I 	c #204A87",
"J 	c #204C88",
"K 	c #27518D",
"L 	c #6D8DB8",
"M 	c #90ABCD",
"N 	c #81A0C7",
"O 	c #7D9DC5",
"P 	c #7A9AC4",
"Q 	c #7495C1",
"R 	c #7596C1",
"S 	c #8AA5CA",
"T 	c #2E5791",
"U 	c #365B93",
"V 	c #26508B",
"W 	c #698AB5",
"X 	c #8AA6CB",
"Y 	c #7B9BC4",
"Z 	c #7898C3",
"` 	c #7193C0",
" .	c #6E91BE",
"..	c #7999C4",
"+.	c #7190BA",
"@.	c #214C89",
"#.	c #254E8A",
"$.	c #254F8C",
"%.	c #84A0C6",
"&.	c #7C9CC5",
"*.	c #7294C0",
"=.	c #6F92BF",
"-.	c #6C8FBD",
";.	c #698DBC",
">.	c #315892",
",.	c #315A92",
"'.	c #5276A5",
").	c #88A4C9",
"!.	c #6D90BE",
"~.	c #668BBB",
"{.	c #6183B0",
"].	c #535353",
"^.	c #2B5487",
"/.	c #8DA7CA",
"(.	c #7092BF",
"_.	c #678CBB",
":.	c #6489BA",
"<.	c #6B8EBD",
"[.	c #819DC3",
"}.	c #2D4D7D",
"|.	c #525252",
"1.	c #CCCCCC",
"2.	c #F9F9F9",
"3.	c #FBFBFB",
"4.	c #FAFAFA",
"5.	c #F8F8F8",
"6.	c #758FB4",
"7.	c #7F9CC1",
"8.	c #6187B9",
"9.	c #5F86B7",
"0.	c #92ACCD",
"a.	c #305890",
"b.	c #F2F2F2",
"c.	c #F1F1F1",
"d.	c #F0F0F0",
"e.	c #EFEFEF",
"f.	c #DADADA",
"g.	c #5D5D5D",
"h.	c #888888",
"i.	c #E4E4E4",
"j.	c #E3E3E3",
"k.	c #8C9FBA",
"l.	c #7390B9",
"m.	c #5E85B7",
"n.	c #5C83B6",
"o.	c #8DA9CC",
"p.	c #355B92",
"q.	c #D8D9DB",
"r.	c #DDDDDD",
"s.	c #DCDCDC",
"t.	c #DBDBDB",
"u.	c #D9D9D9",
"v.	c #E8E8E8",
"w.	c #B2B2B2",
"x.	c #545454",
"y.	c #D6D6D6",
"z.	c #BEC6D1",
"A.	c #335991",
"B.	c #395E94",
"C.	c #4B6C9C",
"D.	c #4A6C9C",
"E.	c #6B89B4",
"F.	c #7496C1",
"G.	c #6288B9",
"H.	c #6187B8",
"I.	c #5981B5",
"J.	c #396095",
"K.	c #416597",
"L.	c #486A9A",
"M.	c #788EAE",
"N.	c #555555",
"O.	c #5C5C5C",
"P.	c #768EAF",
"Q.	c #3C6297",
"R.	c #85A0C2",
"S.	c #7C9AC1",
"T.	c #7E9CC3",
"U.	c #809DC3",
"V.	c #839FC4",
"W.	c #8CA7C9",
"X.	c #7293C0",
"Y.	c #5F85B8",
"Z.	c #5D84B7",
"`.	c #5B82B6",
" +	c #567FB4",
".+	c #91ABCD",
"++	c #95AECE",
"@+	c #90A9CB",
"#+	c #91AACC",
"$+	c #92ABCC",
"%+	c #90AACB",
"&+	c #95AECD",
"*+	c #7591B8",
"=+	c #224C88",
"-+	c #C9CCD1",
";+	c #EBEBEB",
">+	c #AAAAAA",
",+	c #F5F5F5",
"'+	c #E0E0E0",
")+	c #788FB0",
"!+	c #5A7AA8",
"~+	c #819FC6",
"{+	c #688CBB",
"]+	c #6489B9",
"^+	c #6388B9",
"/+	c #6388BA",
"(+	c #5880B4",
"_+	c #557EB3",
":+	c #537CB2",
"<+	c #547DB3",
"[+	c #507BB1",
"}+	c #4D78B0",
"|+	c #4A76AF",
"1+	c #8CA6C8",
"2+	c #325A91",
"3+	c #BEC4CD",
"4+	c #C8C8C8",
"5+	c #E7E7E7",
"6+	c #E9E9E9",
"7+	c #E2E2E2",
"8+	c #E2E2E3",
"9+	c #6C87AC",
"0+	c #5D7EAA",
"a+	c #7F9DC5",
"b+	c #6086B8",
"c+	c #527CB2",
"d+	c #507AB1",
"e+	c #4B76AF",
"f+	c #4370AB",
"g+	c #3D6CA9",
"h+	c #3C6BA8",
"i+	c #8BA6C9",
"j+	c #375E94",
"k+	c #B3BCC9",
"l+	c #D8D8D8",
"m+	c #D7D7D7",
"n+	c #EAEAEA",
"o+	c #626262",
"p+	c #747474",
"q+	c #E1E1E1",
"r+	c #E5E5E5",
"s+	c #E4E5E6",
"t+	c #5B7AA4",
"u+	c #6584B0",
"v+	c #5B83B6",
"w+	c #577FB4",
"x+	c #4C77AF",
"y+	c #4270AB",
"z+	c #3968A6",
"A+	c #3364A4",
"B+	c #4471AB",
"C+	c #87A3C8",
"D+	c #3F6499",
"E+	c #A2B0C3",
"F+	c #DEDEDE",
"G+	c #A5A5A5",
"H+	c #C4C4C4",
"I+	c #DFDFDF",
"J+	c #E6E6E6",
"K+	c #E1E2E3",
"L+	c #4C6E9D",
"M+	c #6284B0",
"N+	c #6C90BE",
"O+	c #4975AD",
"P+	c #4572AC",
"Q+	c #3D6BA8",
"R+	c #3666A5",
"S+	c #86A3C8",
"T+	c #496C9F",
"U+	c #8D9FBA",
"V+	c #F3F3F3",
"W+	c #D4D6DA",
"X+	c #416598",
"Y+	c #5A7DAD",
"Z+	c #81A0C6",
"`+	c #5A7BA9",
" @	c #738AAD",
".@	c #7D7D7D",
"+@	c #959595",
"@@	c #CACDD2",
"#@	c #365C91",
"$@	c #6586B3",
"%@	c #3566A5",
"&@	c #6686B1",
"*@	c #52709E",
"=@	c #D2D3D4",
"-@	c #D5D5D5",
";@	c #BCBCBC",
">@	c #D4D4D4",
",@	c #C1C6CD",
"'@	c #315990",
")@	c #6C8DB8",
"!@	c #7193BF",
"~@	c #718FB8",
"{@	c #406495",
"]@	c #CACCCE",
"^@	c #D1D1D1",
"/@	c #D2D2D2",
"(@	c #D3D3D3",
"_@	c #5B5B5B",
":@	c #646464",
"<@	c #F6F6F6",
"[@	c #B3BBC5",
"}@	c #335A91",
"|@	c #7494BD",
"1@	c #7996BE",
"2@	c #BEC1C6",
"3@	c #CDCDCD",
"4@	c #CFCFCF",
"5@	c #D0D0D0",
"6@	c #989898",
"7@	c #B1B1B1",
"8@	c #EEEEEE",
"9@	c #A8B1BE",
"0@	c #345A91",
"a@	c #7E9BC3",
"b@	c #517AB1",
"c@	c #AFB5BE",
"d@	c #C9C9C9",
"e@	c #CBCBCB",
"f@	c #CECECE",
"g@	c #9BA7B7",
"h@	c #365E94",
"i@	c #85A2C7",
"j@	c #658ABA",
"k@	c #85A1C6",
"l@	c #345B92",
"m@	c #A1AAB7",
"n@	c #C5C5C5",
"o@	c #C6C6C6",
"p@	c #CACACA",
"q@	c #717171",
"r@	c #7F7F7F",
"s@	c #F4F4F4",
"t@	c #8C9BB1",
"u@	c #406499",
"v@	c #90A9CA",
"w@	c #3F6497",
"x@	c #919FB2",
"y@	c #AFAFAF",
"z@	c #8192AE",
"A@	c #27508B",
"B@	c #575757",
"C@	c #5A5A5A",
"D@	c #A2ADBB",
"E@	c #8C8C8C",
"F@	c #9D9D9D",
"G@	c #EDEDED",
"H@	c #C2C2C2",
"I@	c #ECECEC",
"J@	c #636363",
"K@	c #5F5F5F",
"L@	c #BABABA",
"M@	c #B9B9B9",
"N@	c #B8B8B8",
"O@	c #B7B7B7",
"P@	c #B6B6B6",
"Q@	c #B5B5B5",
"R@	c #B4B4B4",
"S@	c #B3B3B3",
"T@	c #B0B0B0",
"U@	c #AEAEAE",
"V@	c #ADADAD",
"W@	c #ACACAC",
"X@	c #ABABAB",
"Y@	c #A9A9A9",
"Z@	c #A8A8A8",
"`@	c #A7A7A7",
" #	c #A6A6A6",
".#	c #A4A4A4",
"+#	c #A3A3A3",
"@#	c #A2A2A2",
"##	c #A1A1A1",
"$#	c #A0A0A0",
"%#	c #9F9F9F",
"&#	c #919191",
"*#	c #9C9C9C",
"=#	c #C7C7C7",
"-#	c #979797",
";#	c #939393",
">#	c #929292",
",#	c #828282",
"'#	c #8D8D8D",
")#	c #9E9E9E",
"!#	c #969696",
"~#	c #949494",
"{#	c #8F8F8F",
"]#	c #5E5E5E",
"^#	c #838383",
"/#	c #878787",
"(#	c #909090",
"_#	c #9B9B9B",
":#	c #C0C0C0",
"<#	c #C3C3C3",
"[#	c #BEBEBE",
"}#	c #505050",
"|#	c #595959",
"1#	c #4A4A4A",
"2#	c #C1C1C1",
"3#	c #BFBFBF",
"4#	c #BDBDBD",
"5#	c #BBBBBB",
"6#	c #4F4F4F",
"7#	c #4C4C4C",
"8#	c #565656",
"9#	c #606060",
"0#	c #585858",
"                                                                                                ",
"                                                                                                ",
"                                                                                                ",
"                        . + @ # $ % & * =                                                       ",
"                    - ; > , ' ) ! ' ~ { ] ^ /                                                   ",
"                  ( _ : { < [ } | 1 2 3 4 5 6 7 8                                               ",
"                9 0 a b c d e | f 2 g 4 h i j k l m                                             ",
"              n o p q r s t u v w e x y z A B C < D                                             ",
"            E F G H I         J K L M N O P C Q R S T                                           ",
"            U   V                 m W X Y Z R `  ...+.@.                                        ",
"              #.                    $.%.&.R *.=.-.;.< >.                                        ",
"            ,.                        '.).*.=.!.;.~.P {.                                        ",
"                    ].].].].].].].].].^./.(.!.;._.:.<.[.}.].].].].].].].].|.                    ",
"                  ].1.2.3.4.4.2.2.2.5.6.7.(.;._.:.8.9.0.a.b.b.c.d.d.e.e.d.f.g.                  ",
"                  h.4.i.j.i.i.i.i.i.i.k.l.Q ~.:.8.m.n.o.p.q.r.s.s.t.t.f.u.v.w.x.                ",
"                |.y.e.z.A.B.C.D.D.D.D.8 E.F.G.H.m.n.I.X J.K.L.L.L.L.L.8 M.r.j.N.                ",
"                O.2.i.i.P.Q.R.S.S.T.U.V.W.X.Y.Z.`.I. +.+++@+#+$+%+&+*+=+-+t.;+h.                ",
"                >+,+'+i.j.)+!+~+{+]+^+/+G.Y.n.I.(+_+:+<+:+[+}+|+-.1+2+3+r.u.'+4+x.              ",
"              |.5+6+'+'+7+8+9+0+a+b+Z.n.`.I.(+ +<+c+d+e+f+g+h+:+i+j+k+l+f.m+l+n+o+              ",
"              p+2.'+'+q+r+5+s+t+u+P v+I.w+ +_+:+x+y+z+A+A+A+B+C+D+E+F+t.f.m+y.r+G+              ",
"            ].H+e.I+q+J+J+J+J+K+L+M+N+O+P+y+Q+R+A+A+A+A+A+g+S+T+U+r.r.s.f.u.y.t.u.].            ",
"            N.V+j.'+r+r+r+i.i.q+W+X+Y+Z.A+A+A+A+A+A+A+A+z+Z+`+ @f.t.f.t.f.f.u.y.v..@            ",
"            +@,+r.i.i.i.q+I+F+s.t.@@#@$@`.A+A+A+A+A+A+%@B &@*@=@-@m+m+l+l+u.u.l+I+;@].          ",
"          x.u.6+F+j.q+F+F+t.l+y.>@-@,@'@)@(+A+A+A+A+A+!@~@{@]@^@/@(@(@-@-@m+m+l+m+j._@          ",
"          :@<@F+'+I+r.s.u.y.-@>@>@(@>@[@}@|@_+A+A+A+G.1@#@2@1.3@4@5@^@^@(@>@y.f.>@q+6@          ",
"          7@8@s.r.q+f.l+-@-@>@>@>@(@^@4@9@0@a@b@A+_+U.'@c@4+d@e@1.3@5@^@/@(@-@r./@u.f@].        ",
"        ].v.7+f.u.j.s.y.y.-@y.-@(@^@4@3@e@g@h@i@j@k@l@m@n@o@4+p@e@3@f@5@^@/@I+y./@(@j.q@        ",
"        r@s@f.t.u.f.J+I+m+m+m+-@>@^@4@3@p@4+t@u@v@w@x@n@o@4+d@1.1.f@4@^@(@q+t.^@/@>@s.y@].      ",
"      x.4+5+f.f.f.l+f.r+J+s.m+y.>@^@5@f@3@1.d@z@A@z@4+d@p@1.3@3@4@4@(@f.i.t.^@/@>@(@-@f.B@      ",
"      C@d.s.u.t.f.f.u.l+'+v.J+r.m+>@/@^@4@f@f@3@D@1.1.3@4@5@5@^@-@s.J+j.y./@(@>@-@y.(@F+E@      ",
"      F@G@l+v.n+q+f.f.f.l+u.'+5+;+5+q+s.u.y.>@>@/@>@(@-@l+s.'+5+v.7+l+(@>@-@>@y.J+5+f.m+H@].    ",
"    ]./@j.l+i.v.I+u.u.f.f.f.f.u.t.I+r+v.;+G@I@I@;+;+;+I@v.r+q+t.y.-@y.-@-@-@>@-@'+7+y./@i.O.    ",
"    x.v.'+m+l+l+l+u.u.u.u.u.u.f.f.f.f.f.u.f.s.r.r.t.f.l+l+m+m+m+y.y.-@-@-@>@>@(@(@/@/@/@I@J@    ",
"    x.t.8@V+s@s@V+V+V+V+V+V+V+V+V+V+V+V+V+b.b.b.b.b.b.b.b.c.c.c.c.c.c.c.c.d.d.d.d.d.d.8@5@K@    ",
"    x.(@o@L@L@L@M@N@O@O@P@Q@R@S@S@w.7@T@T@y@U@V@W@W@X@>+Y@Z@Z@`@ #G+.#.#+#@###$#$#%#%#%#M@K@    ",
"    x./@o@L@L@M@M@N@O@P@P@Q@R@S@w.w.7@T@y@U@U@V@W@X@>+>+Y@Z@`@ # #G+.#+#@#@###$#%#%#%#%#O@K@    ",
"    x.^@n@L@L@R@&#+@6@*#%#+#.#`@Y@X@X@V@V@V@V@W@W@X@>+Y@Z@Z@=#6@o@-#o@+@H+;#H+>#n@%#%#%#P@K@    ",
"    x.5@n@L@L@R@,#h.'#>#6@*#)#+#G+Z@Y@X@W@W@V@W@X@X@>+Y@Z@`@1.!#e@~#p@;#d@&#4+{#4+%#%#%#R@]#    ",
"    x.4@n@L@M@Q@^#h.'#>#-#*#)#+#G+Z@Y@X@W@W@V@W@X@>+Y@Y@Z@`@1.+@e@~#p@>#d@&#4+{#4+%#%#%#S@]#    ",
"    x.3@n@L@M@Q@/#h.'#>#-#*#)#+#G+Z@Y@X@W@W@W@W@X@>+Y@Z@`@`@1.+@e@;#p@>#d@(#4+{#4+%#%#%#7@]#    ",
"    x.1.H+M@M@O@@#$#@#)#_#*#)#@#G+Z@Y@X@X@W@W@W@>+Y@Y@Z@`@ #1.+@e@;#d@>#d@(#4+{#4+%#%#%#T@]#    ",
"    |.e@H+M@N@O@H@:#H@<#n@<#[#L@P@w.y@y@V@X@W@W@>+>+Z@Z@`@ #e@~#e@;#d@&#4+(#4+{#4+%#%#%#y@g.    ",
"    }#H+4+M@N@O@P@Q@Q@R@S@w.w.7@T@y@U@U@V@W@X@>+>+Y@Z@`@ # #>+##Z@%#`@)#G+*#.#F@@#%#%#%#U@|#    ",
"    1#E@I+F+r.s.t.f.l+l+y.-@>@/@^@5@4@3@1.e@d@4+o@n@H+H@2#3#[#4#5#M@O@O@Q@S@w.7@T@y@U@U@(#6#    ",
"      7#8#9#K@K@K@K@K@]#]#]#]#]#]#]#]#]#g.g.O.O.O.O.O._@_@_@_@_@_@_@_@_@_@_@C@C@C@C@C@0#6#      ",
"                                                                                                ",
"                                                                                                ",
"                                                                                                "};
