/* XPM */
static char * sugar_text_italic_48_xpm[] = {
"48 48 427 2",
"  	c None",
". 	c #3868A6",
"+ 	c #3364A4",
"@ 	c #5C84B8",
"# 	c #DBE6F2",
"$ 	c #DBE7F3",
"% 	c #DBE6F3",
"& 	c #DAE6F2",
"* 	c #DAE5F2",
"= 	c #4472AD",
"- 	c #CEDCED",
"; 	c #A4C0E0",
"> 	c #87ACD6",
", 	c #86ACD5",
"' 	c #85ABD5",
") 	c #84AAD5",
"! 	c #83A9D5",
"~ 	c #D9E5F2",
"{ 	c #3969A7",
"] 	c #BDD0E6",
"^ 	c #B3CAE5",
"/ 	c #82A9D4",
"( 	c #81A8D4",
"_ 	c #D9E4F2",
": 	c #3768A6",
"< 	c #A4BDDA",
"[ 	c #C2D5EA",
"} 	c #6B94C5",
"| 	c #83AAD5",
"1 	c #80A7D4",
"2 	c #7FA6D4",
"3 	c #D8E4F2",
"4 	c #83A2CC",
"5 	c #CDDCEE",
"6 	c #8AADD7",
"7 	c #779FCD",
"8 	c #3565A5",
"9 	c #84A9D6",
"0 	c #7EA6D3",
"a 	c #7DA5D3",
"b 	c #D7E4F2",
"c 	c #3567A6",
"d 	c #6289BB",
"e 	c #D2E0EF",
"f 	c #91B3D9",
"g 	c #83A9D4",
"h 	c #82A9D5",
"i 	c #80A6D4",
"j 	c #3C6AA9",
"k 	c #7CA4D3",
"l 	c #7BA3D3",
"m 	c #D7E3F1",
"n 	c #4975AE",
"o 	c #9CBBDE",
"p 	c #82A8D4",
"q 	c #86ABD6",
"r 	c #4775B0",
"s 	c #3666A6",
"t 	c #3464A4",
"u 	c #7AA3D2",
"v 	c #79A2D2",
"w 	c #D6E3F1",
"x 	c #3263A3",
"y 	c #C0D2E8",
"z 	c #ABC5E2",
"A 	c #88ADD6",
"B 	c #5883B8",
"C 	c #3665A5",
"D 	c #3463A3",
"E 	c #84AAD6",
"F 	c #78A1D2",
"G 	c #77A0D1",
"H 	c #D6E2F1",
"I 	c #3262A2",
"J 	c #3665A3",
"K 	c #AAC2DE",
"L 	c #BBD0E8",
"M 	c #7FA6D3",
"N 	c #87ABD6",
"O 	c #6A92C5",
"P 	c #3463A2",
"Q 	c #76A0D1",
"R 	c #759FD1",
"S 	c #D5E2F1",
"T 	c #3262A1",
"U 	c #8BA7CE",
"V 	c #C8D9EC",
"W 	c #83A8D5",
"X 	c #7EA5D3",
"Y 	c #85ABD6",
"Z 	c #7A9ECC",
"` 	c #3665A2",
" .	c #3362A1",
"..	c #85AAD6",
"+.	c #749ED1",
"@.	c #739ED0",
"#.	c #D4E1F1",
"$.	c #3161A0",
"%.	c #3563A0",
"&.	c #688DBC",
"*.	c #D0DEEF",
"=.	c #89ADD7",
"-.	c #82A8D5",
";.	c #84A9D3",
">.	c #3867A4",
",.	c #3362A0",
"'.	c #729DD0",
").	c #719CD0",
"!.	c #31619F",
"~.	c #4C76AC",
"{.	c #CDDCED",
"].	c #93B5DB",
"^.	c #8BAFD7",
"/.	c #4370A9",
"(.	c #32619F",
"_.	c #86ABD7",
":.	c #709BD0",
"<.	c #6F9BCF",
"[.	c #D3E1F1",
"}.	c #30609E",
"|.	c #3A69A2",
"1.	c #C0D2E7",
"2.	c #A2BEE0",
"3.	c #8EB0D9",
"4.	c #537DB3",
"5.	c #3364A0",
"6.	c #32629E",
"7.	c #6E9ACF",
"8.	c #6D99CF",
"9.	c #CFDDEE",
"0.	c #30609D",
"a.	c #3464A0",
"b.	c #A9C0DC",
"c.	c #AFC7E3",
"d.	c #7AA2D2",
"e.	c #8CAFD9",
"f.	c #688FC0",
"g.	c #33629F",
"h.	c #32619D",
"i.	c #87ABD7",
"j.	c #6C98CF",
"k.	c #6B98CE",
"l.	c #CBDAEC",
"m.	c #305F9C",
"n.	c #33619E",
"o.	c #8CA9CC",
"p.	c #BBCFE6",
"q.	c #87ACD7",
"r.	c #799ECA",
"s.	c #33629E",
"t.	c #31609C",
"u.	c #88ACD8",
"v.	c #6A97CE",
"w.	c #6996CE",
"x.	c #C7D6EA",
"y.	c #2F5E9B",
"z.	c #6B8FBB",
"A.	c #C2D3E9",
"B.	c #80A7D5",
"C.	c #77A1D2",
"D.	c #88AAD4",
"E.	c #34629E",
"F.	c #31609B",
"G.	c #89ACD8",
"H.	c #6896CE",
"I.	c #6795CD",
"J.	c #C3D4E8",
"K.	c #2F5E9A",
"L.	c #4E76AA",
"M.	c #BED1E6",
"N.	c #88ACD7",
"O.	c #7DA4D4",
"P.	c #91B1D9",
"Q.	c #406CA4",
"R.	c #32609B",
"S.	c #89ADD8",
"T.	c #6694CD",
"U.	c #6493CD",
"V.	c #BFD1E6",
"W.	c #2F5D99",
"X.	c #39679E",
"Y.	c #B4C8E0",
"Z.	c #92B3D8",
"`.	c #78A2D2",
" +	c #94B4DC",
".+	c #4E78AD",
"++	c #31609A",
"@+	c #8AADD9",
"#+	c #6292CC",
"$+	c #BBCDE4",
"%+	c #2E5D98",
"&+	c #33609A",
"*+	c #A2BAD7",
"=+	c #9FBBDC",
"-+	c #749FD1",
";+	c #759FD2",
">+	c #92B3DB",
",+	c #638BBB",
"'+	c #32609A",
")+	c #315F99",
"!+	c #8BAED9",
"~+	c #6291CC",
"{+	c #6090CC",
"]+	c #B7CBE3",
"^+	c #2E5C97",
"/+	c #325F99",
"(+	c #88A5CB",
"_+	c #AAC2DF",
":+	c #799DCA",
"<+	c #325E98",
"[+	c #315E98",
"}+	c #8CAFDA",
"|+	c #5E8FCB",
"1+	c #B3C8E1",
"2+	c #2E5B96",
"3+	c #305F98",
"4+	c #698DB9",
"5+	c #B0C6E0",
"6+	c #719DD0",
"7+	c #85ABD7",
"8+	c #89ABD3",
"9+	c #316099",
"0+	c #315E97",
"a+	c #8DAFDA",
"b+	c #5D8ECB",
"c+	c #5C8DCB",
"d+	c #AFC4DF",
"e+	c #2D5B95",
"f+	c #315D96",
"g+	c #4E76A8",
"h+	c #B1C6DF",
"i+	c #709CD0",
"j+	c #7DA5D5",
"k+	c #95B3DA",
"l+	c #39669D",
"m+	c #8EB0DB",
"n+	c #5B8DCB",
"o+	c #5A8CCA",
"p+	c #ACC2DE",
"q+	c #2D5A94",
"r+	c #3B659C",
"s+	c #A9C0DB",
"t+	c #86A9D4",
"u+	c #77A0D2",
"v+	c #9AB9DD",
"w+	c #4972A8",
"x+	c #305D94",
"y+	c #2E5B93",
"z+	c #92B3DC",
"A+	c #598BCA",
"B+	c #588BCA",
"C+	c #A7BFDC",
"D+	c #2D5A93",
"E+	c #305D95",
"F+	c #98B2D1",
"G+	c #90AFD6",
"H+	c #9EBBDF",
"I+	c #6288B8",
"J+	c #315D95",
"K+	c #2C5992",
"L+	c #94B4DD",
"M+	c #578ACA",
"N+	c #5689C9",
"O+	c #A3BBDA",
"P+	c #305B95",
"Q+	c #84A2C7",
"R+	c #9AB7D9",
"S+	c #6E99CE",
"T+	c #91B2DB",
"U+	c #A3C0E1",
"V+	c #9FBCDF",
"W+	c #9DBBDF",
"X+	c #9DBADF",
"Y+	c #9CBADF",
"Z+	c #9BBADF",
"`+	c #9BB9DE",
" @	c #9AB8DE",
".@	c #98B7DE",
"+@	c #97B7DE",
"@@	c #99B8DE",
"#@	c #9AB9DF",
"$@	c #99B8DF",
"%@	c #99B7DE",
"&@	c #97B6DE",
"*@	c #96B6DE",
"=@	c #95B5DD",
"-@	c #5588C9",
";@	c #5488C9",
">@	c #9FB9D9",
",@	c #2C5891",
"'@	c #305C93",
")@	c #698CB8",
"!@	c #6997CE",
"~@	c #6795CE",
"{@	c #6594CD",
"]@	c #6392CC",
"^@	c #6191CC",
"/@	c #5F90CC",
"(@	c #5B8DCA",
"_@	c #588ACA",
":@	c #5789C9",
"<@	c #5387C8",
"[@	c #5286C8",
"}@	c #9AB5D7",
"|@	c #2C5890",
"1@	c #2E5A92",
"2@	c #4F76A5",
"3@	c #A2BAD9",
"4@	c #6695CD",
"5@	c #5F8FCB",
"6@	c #578AC9",
"7@	c #5487C9",
"8@	c #5186C8",
"9@	c #5085C8",
"0@	c #97B2D6",
"a@	c #2B578F",
"b@	c #3C6599",
"c@	c #9BB5D4",
"d@	c #7BA2D1",
"e@	c #6C98CE",
"f@	c #9DB7D7",
"g@	c #A0B9D7",
"h@	c #9FB9D7",
"i@	c #9FB8D7",
"j@	c #9EB7D7",
"k@	c #9DB6D7",
"l@	c #9CB6D6",
"m@	c #9CB5D6",
"n@	c #9BB5D6",
"o@	c #9AB5D6",
"p@	c #99B4D6",
"q@	c #98B3D6",
"r@	c #98B3D5",
"s@	c #97B3D5",
"t@	c #97B2D5",
"u@	c #96B2D5",
"v@	c #96B1D4",
"w@	c #95B1D4",
"x@	c #94B0D4",
"y@	c #4F84C7",
"z@	c #4E83C7",
"A@	c #92AFD4",
"B@	c #2B578E",
"C@	c #315C92",
"D@	c #8FABCE",
"E@	c #82A6D2",
"F@	c #8FADD4",
"G@	c #698AB2",
"H@	c #2B568D",
"I@	c #355E92",
"J@	c #88A8D1",
"K@	c #4D83C7",
"L@	c #4C82C7",
"M@	c #8EACD2",
"N@	c #2C588F",
"O@	c #7D9EC5",
"P@	c #8AABD3",
"Q@	c #85A7D2",
"R@	c #7796BE",
"S@	c #2E5A90",
"T@	c #335C90",
"U@	c #85A7D1",
"V@	c #4B81C6",
"W@	c #4A80C6",
"X@	c #8BAAD2",
"Y@	c #2A558C",
"Z@	c #2E598F",
"`@	c #6589B5",
" #	c #8FAED3",
".#	c #7DA3D1",
"+#	c #83A1C7",
"@#	c #315B90",
"##	c #335C8F",
"$#	c #81A3CF",
"%#	c #4980C6",
"&#	c #487FC6",
"*#	c #87A7D1",
"=#	c #2A558B",
"-#	c #2E588C",
";#	c #4F75A4",
">#	c #739DCF",
",#	c #8AA7CC",
"'#	c #365D90",
")#	c #325A8D",
"!#	c #7DA0CE",
"~#	c #83A4CF",
"{#	c #2A5489",
"]#	c #3A6495",
"^#	c #8DABCF",
"/#	c #709BCF",
"(#	c #6D98CD",
"_#	c #8AA9CF",
":#	c #3C6597",
"<#	c #315A8C",
"[#	c #7A9FCD",
"}#	c #81A3CE",
"|#	c #295488",
"1#	c #30598C",
"2#	c #84A4CB",
"3#	c #759DCE",
"4#	c #6392CD",
"5#	c #6896CD",
"6#	c #89A8D0",
"7#	c #4B71A1",
"8#	c #2C5488",
"9#	c #31598B",
"0#	c #779CCC",
"a#	c #7EA1CD",
"b#	c #295387",
"c#	c #2C558A",
"d#	c #7396C1",
"e#	c #7BA1CF",
"f#	c #83A5CF",
"g#	c #5980AE",
"h#	c #2C5589",
"i#	c #30588A",
"j#	c #759BCC",
"k#	c #7B9FCC",
"l#	c #2C578A",
"m#	c #6287B4",
"n#	c #8AAAD0",
"o#	c #8AA9D0",
"p#	c #88A8CF",
"q#	c #678DBB",
"r#	c #30598B",
"s#	c #789DCB",
"t#	c #285286",
"                                                                                                ",
"                                                                                                ",
"                                                                                                ",
"                                                                                                ",
"                                                                  . + + + + + + + +             ",
"                                                                  @ # $ % % & & * +             ",
"                                                                = - ; > , ' ) ! ~ +             ",
"                                                              { ] ^ , ' ' ) / ( _ +             ",
"                                                            : < [ , ) ) } | 1 2 3 +             ",
"                                                          . 4 5 6 | ) 7 8 9 0 a b +             ",
"                                                        c d e f g h i j 8 ) k l m +             ",
"                                                        n - o p p q r s t 9 u v w x             ",
"                                                      { y z ( 1 A B C   D E F G H I             ",
"                                                    J K L 1 M N O J     P E Q R S T             ",
"                                                  J U V W X Y Z `        ...+.@.#.$.            ",
"                                                %.&.*.=.a -.;.>.        ,.q '.).#.!.            ",
"                                                ~.{.].k 2 ^./.          (._.:.<.[.}.            ",
"                                              |.1.2.l k 3.4.5.          6._.7.8.9.0.            ",
"                                            a.b.c.u d.e.f.g.            h.i.j.k.l.m.            ",
"                                          n.o.p.l F q.r.s.              t.u.v.w.x.y.            ",
"                                        n.z.A.B.C.-.D.E.                F.G.H.I.J.K.            ",
"                                        L.M.N.Q O.P.Q.                  R.S.T.U.V.W.            ",
"                                      X.Y.Z.R `. +.+++                  ++@+U.#+$+%+            ",
"                                    &+*+=+-+;+>+,+'+                    )+!+~+{+]+^+            ",
"                                  /+(+_+-+'.e.:+<+                      [+}+{+|+1+2+            ",
"                                3+4+5+F 6+7+8+9+                        0+a+b+c+d+e+            ",
"                              f+g+h+X i+j+k+l+                          f+m+n+o+p+q+            ",
"                              r+s+t+:.u+v+w+x+                          y+z+A+B+C+D+            ",
"                            E+F+G+<.i+H+I+J+J+J+J+J+J+J+J+J+y+K+K+K+K+K+K+L+M+N+O+K+            ",
"                          P+Q+R+S+8.T+U+V+H+W+X+Y+Z+`+ @.@+@@@#@$@%@.@&@*@=@-@;@>@,@            ",
"                        '@)@>@:.j.k.!@H.~@T.{@U.]@~+^@/@|+b+c+(@o+A+_@:@N+;@<@[@}@|@            ",
"                      1@2@3@R k.v.w.~@4@{@U.]@~+^@{+5@b+c+n+o+A+_@6@N+-@7@[@8@9@0@a@            ",
"                      b@c@d@v.e@f@g@h@i@j@j@f@k@l@m@n@o@p@p@q@r@s@t@u@v@w@x@y@z@A@B@            ",
"                    C@D@E@w.w.F@G@H@H@H@H@H@H@H@H@H@H@H@H@H@H@H@H@H@H@H@I@J@K@L@M@H@            ",
"                  N@O@P@H.I.Q@R@S@                                      T@U@V@W@X@Y@            ",
"                Z@`@ #!@T..#+#@#                                        ##$#%#&#*#=#            ",
"              -#;#A@e@{@>#,#'#                                          )#!#&#&#~#{#            ",
"              ]#^#/#U.(#_#:#                                            <#[#&#&#}#|#            ",
"            1#2#3#4#5#6#7#8#                                            9#0#&#&#a#b#            ",
"          c#d#e##+U.f#g#h#                                              i#j#&#&#k#b#            ",
"        l#m#n#o#6#p#q#h#                                                r#s#s#s#s#b#            ",
"      t#b#b#b#b#b#b#b#                                                  b#b#b#b#b#b#            ",
"                                                                                                ",
"                                                                                                ",
"                                                                                                ",
"                                                                                                ",
"                                                                                                ",
"                                                                                                "};
