/* XPM */
static char * tb_2column_xpm[] = {
"24 24 2 1",
" 	c None",
".	c #000000",
"                        ",
"                        ",
"                        ",
"                        ",
"                        ",
"                        ",
"    ........ ........   ",
"                        ",
"    ........ ........   ",
"                        ",
"    ........ ........   ",
"                        ",
"    ........ ........   ",
"                        ",
"    ........ ........   ",
"                        ",
"    ........ ........   ",
"                        ",
"    ........ ........   ",
"                        ",
"                        ",
"                        ",
"                        ",
"                        "};
