/* XPM */
static const char * tb_add_column_xpm[] = {
"24 24 26 1",
" 	c None",
".	c #000000",
"+	c #FFC663",
"@	c #93572B",
"#	c #965C2D",
"$	c #FFC863",
"%	c #A44020",
"&	c #FFBF5F",
"*	c #FFC662",
"=	c #FFBD5E",
"-	c #FF5C2E",
";	c #FFB559",
">	c #FFC261",
",	c #FF7038",
"'	c #FFB65A",
")	c #330000",
"!	c #F7F7F1",
"~	c #E1E1D3",
"{	c #CCCC98",
"]	c #9D9D90",
"^	c #FFFFFF",
"/	c #E4E4E4",
"(	c #CCCC97",
"_	c #ECECEC",
":	c #B8B8B8",
"<	c #7E7E7C",
"                        ",
"           ...          ",
"           .+.          ",
"         .@#$%%.        ",
"         .&$*=-.        ",
"          .;>,.         ",
"           .'.          ",
"            .           ",
"                        ",
"          ..)..         ",
"          .!!~.         ",
"      .....!{].....     ",
"      .^^/.!(].^^/.     ",
"      .^_:.!(].^_:.     ",
"      .^_:.!(].^_:.     ",
"      .^_:.!(].^_:.     ",
"      .^_:.!(].^_:.     ",
"      .^_:.!(].^_:.     ",
"      .^_:.!(].^_:.     ",
"      .^_:.!{].^_:.     ",
"      .^_:.~]<.^_:.     ",
"      ./::...../::.     ",
"      .....   .....     ",
"                        "};
