/* XPM */
static const char *tb_anchor[] = {
/* width height num_colors chars_per_pixel */
"    20    20       16            1",
/* colors */
"` c #000000",
". c #800000",
"# c #008000",
"n c #808000",
"b c #000080",
"c c #800080",
"d c #008080",
"e c #c0c0c0",
"f c #808080",
"g c #ff0000",
"h c #00ff00",
"i c #ffff00",
"j c #0000ff",
"A c None",
"l c #00ffff",
"m c #ffffff",
/* pixels */
"AAAAAAAAAAAAAAAAAAAA",
"AAAAAAAAAAAAAAAAAAAA",
"AAAAAAAAA```AAA```AA",
"AAAAAAAAA`e`AA`fe`AA",
"AAAAAAAAA`fe``fem`AA",
"AAA```AAAA`fefem`AAA",
"AA`fe`AAAAA`fem`AAAA",
"A`fem`AAAA`feme`AAAA",
"A`fm`AAAA`fem`me``AA",
"A`fm`AAA`fem`A`me`AA",
"A`fm`AA`fem`AAA```AA",
"A`fm`A`fem`AAAAAAAAA",
"A`fme`fem`AAAAAAAAAA",
"AA`mefem`AAAAAAAAAAA",
"AA`efem`AAAA```AAAAA",
"AAA`eeme````fe`AAAAA",
"AAA``emmffffem`AAAAA",
"AAAAA``mmmmmm`AAAAAA",
"AAAAAAA``````AAAAAAA",
"AAAAAAAAAAAAAAAAAAAA"
};
/* Alan Horkan.  Anchor.  */
