/* XPM */
static const char * tb_add_row_xpm[] = {
"24 24 34 1",
" 	c None",
".	c #000000",
"+	c #FFFFFF",
"@	c #E4E4E4",
"#	c #ECECEC",
"$	c #B8B8B8",
"%	c #93572B",
"&	c #FFBF5F",
"*	c #965C2D",
"=	c #FFC863",
"-	c #FFB559",
";	c #FCFCFC",
">	c #F0F0E3",
",	c #F7F7F1",
"'	c #F5F5ED",
")	c #E1E1D3",
"!	c #523E1E",
"~	c #FFC663",
"{	c #FFC662",
"]	c #FFC261",
"^	c #FFB65A",
"/	c #330000",
"(	c #F8F8F5",
"_	c #CCCC98",
":	c #CCCC97",
"<	c #ABAB9A",
"[	c #A44020",
"}	c #FFBD5E",
"|	c #FF7038",
"1	c #E6E6DA",
"2	c #9E9E91",
"3	c #9D9D90",
"4	c #7E7E7C",
"5	c #FF5C2E",
"                        ",
"                        ",
"           ............ ",
"           .+++++++++@. ",
"           .+########$. ",
"   ..      .@$$$$$$$$$. ",
"   %&.   .............. ",
" ..*=-.  .;>,,,,,,,').  ",
" !~={]^. /(_:::::::_<.  ",
" ..[}|.  .12333333324.  ",
"   [5.   .............. ",
"   ..      .+++++++++@. ",
"           .+########$. ",
"           .@$$$$$$$$$. ",
"           ............ ",
"           .+++++++++@. ",
"           .+########$. ",
"           .@$$$$$$$$$. ",
"           ............ ",
"           .+++++++++@. ",
"           .+########$. ",
"           .@$$$$$$$$$. ",
"           ............ ",
"                        "};
