/* XPM */
static char * tb_cut_xpm[] = {
"24 24 140 2",
"  	c None",
". 	c #000000",
"+ 	c #B9B9B9",
"@ 	c #FEFEFE",
"# 	c #F9F9F9",
"$ 	c #757575",
"% 	c #F5F5E8",
"& 	c #DCDCD0",
"* 	c #565651",
"= 	c #FFFFFF",
"- 	c #A0A0A0",
"; 	c #939393",
"> 	c #7C7C7C",
", 	c #B1B1A8",
"' 	c #CFC6A0",
") 	c #D7CEAA",
"! 	c #C1B898",
"~ 	c #3C3A30",
"{ 	c #6D6D6D",
"] 	c #6C6C6C",
"^ 	c #A9A9A9",
"/ 	c #3D3A30",
"( 	c #87826B",
"_ 	c #8A793D",
": 	c #C3BB9A",
"< 	c #AFA78A",
"[ 	c #444236",
"} 	c #FAFAFA",
"| 	c #EFEFEF",
"1 	c #C7C7C7",
"2 	c #D8D8D8",
"3 	c #D2D2D2",
"4 	c #7B7B7B",
"5 	c #302E26",
"6 	c #89846C",
"7 	c #C4BC9A",
"8 	c #847235",
"9 	c #4B483C",
"0 	c #C5C5C5",
"a 	c #A7A7A7",
"b 	c #ADADAD",
"c 	c #9A9A9A",
"d 	c #9B9B9B",
"e 	c #868686",
"f 	c #424242",
"g 	c #847033",
"h 	c #C9C09E",
"i 	c #7B7660",
"j 	c #464337",
"k 	c #35332A",
"l 	c #2D2B23",
"m 	c #C6BE9D",
"n 	c #826F33",
"o 	c #ADA689",
"p 	c #979178",
"q 	c #181816",
"r 	c #13120F",
"s 	c #312F26",
"t 	c #2A2921",
"u 	c #2E2C24",
"v 	c #1E1D18",
"w 	c #8D876F",
"x 	c #806F33",
"y 	c #B3B3B3",
"z 	c #D6D6D6",
"A 	c #1A1914",
"B 	c #7F6C32",
"C 	c #383838",
"D 	c #CFCFCF",
"E 	c #11100D",
"F 	c #B1AA8C",
"G 	c #BBB394",
"H 	c #7F6E32",
"I 	c #878787",
"J 	c #848484",
"K 	c #969696",
"L 	c #E7E7E7",
"M 	c #484848",
"N 	c #D48B43",
"O 	c #2F2F2F",
"P 	c #BABABA",
"Q 	c #7A7A7A",
"R 	c #AAAAAA",
"S 	c #010101",
"T 	c #F1DD8E",
"U 	c #D68A3F",
"V 	c #984621",
"W 	c #212121",
"X 	c #E2E2E2",
"Y 	c #EFDE90",
"Z 	c #F5E186",
"` 	c #AC632D",
" .	c #A45B2F",
"..	c #222222",
"+.	c #151410",
"@.	c #7D692E",
"#.	c #3D3D3D",
"$.	c #F1E28C",
"%.	c #EDE094",
"&.	c #F1DF8C",
"*.	c #B46E35",
"=.	c #BB6632",
"-.	c #C37B54",
";.	c #464646",
">.	c #0F0E0B",
",.	c #A19A7F",
"'.	c #A7A083",
").	c #BEBEBE",
"!.	c #252525",
"~.	c #1D1D1D",
"{.	c #3E3E3E",
"].	c #A66133",
"^.	c #545454",
"/.	c #7F6B2E",
"(.	c #2E2E2E",
"_.	c #F3E08A",
":.	c #A65F2F",
"<.	c #A8A8A8",
"[.	c #E4E4E4",
"}.	c #A39D81",
"|.	c #806C2F",
"1.	c #8D8D8D",
"2.	c #B4B4B4",
"3.	c #9D9D9D",
"4.	c #8F8F8F",
"5.	c #030302",
"6.	c #313131",
"7.	c #D18C48",
"8.	c #A56032",
"9.	c #A9A186",
"0.	c #A3A3A3",
"a.	c #EAEAEA",
"b.	c #9F9F9F",
"c.	c #8E8E8E",
"d.	c #F1F1F1",
"e.	c #0C0A04",
"f.	c #89783C",
"g.	c #7A672D",
"h.	c #766529",
"i.	c #78672B",
"                      . . . .                   ",
"          . . . . . . + @ # $ . . . . . .       ",
"        . % % % % & * = - ; > * , & % % ' .     ",
"        . % ) ) ) ! ~ = { ] ^ / ( ! ) ) _ .     ",
"        . % : : < [ } | 1 2 3 4 5 6 : 7 8 .     ",
"        . % ) ) 9 0 a a b c d e f 9 ) ) g .     ",
"        . % h : i j k l l l l l 5 6 : m n .     ",
"        . % ) ) o p p p p p p p p o ) ) n .     ",
"  . . . . q r s / / t / u v w : : : : m x .     ",
". y = = = = = = = = = = = z A ) ) ) ) ) B .     ",
". = = = = = = C D = = = = = E F F F F G H .     ",
". = I J K L M N O P = Q R = S ) ) ) ) ) n .     ",
". = = = = M T U V W D = = = S F F F F G x .     ",
". = K X M Y Z U `  ...P = = +.) ) ) ) ) @..     ",
". = = #.$.%.&.U *.=.-.;.D = >.,.,.,.,.'.@..     ",
". = ).!.~.{.$.U ].. ^.C K = +.) ) ) ) ) /..     ",
". = = = = (._.U :.. <.<.[.= . ,.,.,.,.}.|..     ",
". = 1.2.= (.&.N ].. 3.4.= = 5.) ) ) ) ) B .     ",
". = = = = 6.%.7.8.. <.[.= = >.,.,.,.,.9.B .     ",
". = a 0.a.. . . . . b.c.4.= +.) ) ) ) ) |..     ",
". = = = = D <.<.<.<.<.d.= = e.f.n n g.h.i..     ",
". z = = = = d.d.d.d.d.d.= z . . . . . . .       ",
"  . . . . . . . . . . . . .                     ",
"                                                "};
