/* XPM */
static char * tb_cut_xpm[] = {
"24 24 149 2",
"  	c None",
". 	c #000000",
"+ 	c #B9B9B9",
"@ 	c #FEFEFE",
"# 	c #F9F9F9",
"$ 	c #757575",
"% 	c #F5F5E8",
"& 	c #565651",
"* 	c #FFFFFF",
"= 	c #A0A0A0",
"- 	c #939393",
"; 	c #7C7C7C",
"> 	c #CFC6A0",
", 	c #D5CBA8",
"' 	c #DCD4B3",
") 	c #E3DDC0",
"! 	c #D3CAA6",
"~ 	c #474335",
"{ 	c #6D6D6D",
"] 	c #6C6C6C",
"^ 	c #A9A9A9",
"/ 	c #3C392F",
"( 	c #8E866A",
"_ 	c #D0C59F",
": 	c #CABF97",
"< 	c #DCD3B1",
"[ 	c #8A793D",
"} 	c #D6CDA9",
"| 	c #A39154",
"1 	c #D7CEAA",
"2 	c #37311B",
"3 	c #FAFAFA",
"4 	c #EFEFEF",
"5 	c #C7C7C7",
"6 	c #D8D8D8",
"7 	c #D2D2D2",
"8 	c #7B7B7B",
"9 	c #333128",
"0 	c #6E6237",
"a 	c #847235",
"b 	c #DBD1B0",
"c 	c #52514A",
"d 	c #C5C5C5",
"e 	c #A7A7A7",
"f 	c #ADADAD",
"g 	c #9A9A9A",
"h 	c #9B9B9B",
"i 	c #868686",
"j 	c #424242",
"k 	c #4A463A",
"l 	c #EBE7D0",
"m 	c #847033",
"n 	c #DAD1AF",
"o 	c #A49255",
"p 	c #979077",
"q 	c #38321C",
"r 	c #39362C",
"s 	c #242011",
"t 	c #302E26",
"u 	c #252113",
"v 	c #312F27",
"w 	c #242012",
"x 	c #333127",
"y 	c #6E6236",
"z 	c #D2C9A5",
"A 	c #CDC29A",
"B 	c #826F33",
"C 	c #D7CEAC",
"D 	c #EBE6CE",
"E 	c #948D74",
"F 	c #A5A190",
"G 	c #928B70",
"H 	c #A4A08E",
"I 	c #A5A291",
"J 	c #E9E4CA",
"K 	c #C8C8C8",
"L 	c #C2C2C2",
"M 	c #C7C7C6",
"N 	c #D2D1CE",
"O 	c #CDCCCA",
"P 	c #CDCDCA",
"Q 	c #9C8B4D",
"R 	c #CFC49E",
"S 	c #9D8C4E",
"T 	c #806F33",
"U 	c #B3B3B3",
"V 	c #D6D6D6",
"W 	c #D7CFAE",
"X 	c #EAE5CD",
"Y 	c #CABE95",
"Z 	c #7F6C32",
"` 	c #9B894A",
" .	c #C1B58C",
"..	c #7F6E32",
"+.	c #282828",
"@.	c #CDC29C",
"#.	c #C2B68D",
"$.	c #292929",
"%.	c #434343",
"&.	c #C3C3C3",
"*.	c #978648",
"=.	c #C4B88F",
"-.	c #161614",
";.	c #EAE5CB",
">.	c #CBC098",
",.	c #EBE8D2",
"'.	c #7D692E",
").	c #D1D1D1",
"!.	c #313131",
"~.	c #494949",
"{.	c #3E3E3E",
"].	c #CEC39D",
"^.	c #959595",
"/.	c #121212",
"(.	c #2F2F2F",
"_.	c #272727",
":.	c #474747",
"<.	c #171614",
"[.	c #D0C7A1",
"}.	c #CCC199",
"|.	c #7F6B2E",
"1.	c #C4C4C4",
"2.	c #2B2B2B",
"3.	c #D9D9D9",
"4.	c #949494",
"5.	c #9C8A4B",
"6.	c #BDB082",
"7.	c #806C2F",
"8.	c #333333",
"9.	c #575757",
"0.	c #2E2E2E",
"a.	c #030303",
"b.	c #BEB183",
"c.	c #323232",
"d.	c #444444",
"e.	c #9A8849",
"f.	c #99884A",
"g.	c #C1B58A",
"h.	c #343434",
"i.	c #505050",
"j.	c #E7E3C8",
"k.	c #C0B589",
"l.	c #373737",
"m.	c #C5C4C3",
"n.	c #89783C",
"o.	c #7A672D",
"p.	c #766529",
"q.	c #78672B",
"r.	c #CBCBCB",
"                                                ",
"                        . . . .                 ",
"            . . . . . . + @ # $ . . . . . .     ",
"          . % % % % % & * = - ; & % % % % > .   ",
"          . % , ' ) ! ~ * { ] ^ / ( _ : < [ .   ",
"          . % } | 1 2 3 4 5 6 7 8 9 0 ! _ a .   ",
"          . % b < c d e e f g h i j k l _ m .   ",
"          . % n o p q r s t u v w x y z A B .   ",
"          . % C z D E F G H E I E F _ J : B .   ",
"    . K . L . M . N . O . P . ! Q R S : : T .   ",
"  . U * * * * * * * * * * * V . _ J W X Y Z .   ",
"  7 * * * * * * i * * * * * * M ` A S R  ....   ",
"  . * * * * * * +.* * * * * * . _ J @.D #.B .   ",
"  5 * * * * * * $.* * * * %.* &.` @.*.W =.T .   ",
"  . * * * * * * $.* * &.%.&.* -.R ;.>.,.#.'..   ",
"  ).* * * * * * !.* ~.{.&.* * M ` ].*.z #.'..   ",
"  . * ^./.(.(.(._.:.^.* * * * <.[.;.}.D  .|..   ",
"  1.* 2.* 3._.4.(.^.* * * * * &.5.@.*._ 6.7..   ",
"  . * ^.8.9.&.* 0.8.^.* * * * a.[.;.> ;.b.Z .   ",
"  ).* * * * * c.^.* d.* * * * M e.].f._ g.Z .   ",
"  . * * * * * h.* * i.* * * * <.R j.}.D k.7..   ",
"  7 * * * * * ^.l.~.^.* * * * m.n.B B o.p.q..   ",
"  . V * * * * * * * * * * * V . . . . . . .     ",
"    . 5 . 5 . 1.. r.. r.. r..                   "};
