/* XPM */
static char * tb_cut_xpm[] = {
"24 24 131 2",
"  	c None",
". 	c #000000",
"+ 	c #B9B9B9",
"@ 	c #FEFEFE",
"# 	c #F9F9F9",
"$ 	c #757575",
"% 	c #F5F5E8",
"& 	c #565651",
"* 	c #FFFFFF",
"= 	c #A0A0A0",
"- 	c #939393",
"; 	c #7C7C7C",
"> 	c #CFC6A0",
", 	c #D7CEAA",
"' 	c #4B483C",
") 	c #6D6D6D",
"! 	c #6C6C6C",
"~ 	c #A9A9A9",
"{ 	c #3D3A30",
"] 	c #979178",
"^ 	c #8A793D",
"/ 	c #C3BB9A",
"( 	c #444236",
"_ 	c #FAFAFA",
": 	c #EFEFEF",
"< 	c #C7C7C7",
"[ 	c #D8D8D8",
"} 	c #D2D2D2",
"| 	c #7B7B7B",
"1 	c #302E26",
"2 	c #89846C",
"3 	c #C4BC9A",
"4 	c #847235",
"5 	c #C5C5C5",
"6 	c #A7A7A7",
"7 	c #ADADAD",
"8 	c #9A9A9A",
"9 	c #9B9B9B",
"0 	c #868686",
"a 	c #424242",
"b 	c #847033",
"c 	c #C9C09E",
"d 	c #464337",
"e 	c #35332A",
"f 	c #2D2B23",
"g 	c #C6BE9D",
"h 	c #826F33",
"i 	c #181816",
"j 	c #13120F",
"k 	c #312F26",
"l 	c #2A2921",
"m 	c #2E2C24",
"n 	c #1E1D18",
"o 	c #806F33",
"p 	c #B3B3B3",
"q 	c #D6D6D6",
"r 	c #1A1914",
"s 	c #7F6C32",
"t 	c #383838",
"u 	c #CFCFCF",
"v 	c #11100D",
"w 	c #B1AA8C",
"x 	c #BBB394",
"y 	c #7F6E32",
"z 	c #878787",
"A 	c #848484",
"B 	c #969696",
"C 	c #E7E7E7",
"D 	c #484848",
"E 	c #D48B43",
"F 	c #2F2F2F",
"G 	c #BABABA",
"H 	c #7A7A7A",
"I 	c #AAAAAA",
"J 	c #010101",
"K 	c #F1DD8E",
"L 	c #D68A3F",
"M 	c #984621",
"N 	c #212121",
"O 	c #E2E2E2",
"P 	c #EFDE90",
"Q 	c #F5E186",
"R 	c #AC632D",
"S 	c #A45B2F",
"T 	c #222222",
"U 	c #151410",
"V 	c #7D692E",
"W 	c #3D3D3D",
"X 	c #F1E28C",
"Y 	c #EDE094",
"Z 	c #F1DF8C",
"` 	c #B46E35",
" .	c #BB6632",
"..	c #C37B54",
"+.	c #464646",
"@.	c #0F0E0B",
"#.	c #A19A7F",
"$.	c #A7A083",
"%.	c #BEBEBE",
"&.	c #252525",
"*.	c #1D1D1D",
"=.	c #3E3E3E",
"-.	c #A66133",
";.	c #545454",
">.	c #7F6B2E",
",.	c #2E2E2E",
"'.	c #F3E08A",
").	c #A65F2F",
"!.	c #A8A8A8",
"~.	c #E4E4E4",
"{.	c #A39D81",
"].	c #806C2F",
"^.	c #8D8D8D",
"/.	c #B4B4B4",
"(.	c #9D9D9D",
"_.	c #8F8F8F",
":.	c #030302",
"<.	c #313131",
"[.	c #D18C48",
"}.	c #A56032",
"|.	c #A9A186",
"1.	c #A3A3A3",
"2.	c #EAEAEA",
"3.	c #9F9F9F",
"4.	c #8E8E8E",
"5.	c #F1F1F1",
"6.	c #0C0A04",
"7.	c #89783C",
"8.	c #7A672D",
"9.	c #766529",
"0.	c #78672B",
"                                                ",
"                        . . . .                 ",
"            . . . . . . + @ # $ . . . . . .     ",
"          . % % % % % & * = - ; & % % % % > .   ",
"          . % , , , , ' * ) ! ~ { ] , , , ^ .   ",
"          . % / / / ( _ : < [ } | 1 2 / 3 4 .   ",
"          . % , , ' 5 6 6 7 8 9 0 a ' , , b .   ",
"          . % c / 2 d e f f f f f 1 2 / g h .   ",
"          . % , , , ] ] ] ] ] ] ] ] , , , h .   ",
"    . . . . i j k { { l { m n / / / / / g o .   ",
"  . p * * * * * * * * * * * q r , , , , , s .   ",
"  . * * * * * * t u * * * * * v w w w w x y .   ",
"  . * z A B C D E F G * H I * J , , , , , h .   ",
"  . * * * * D K L M N u * * * J w w w w x o .   ",
"  . * B O D P Q L R S T G * * U , , , , , V .   ",
"  . * * W X Y Z L `  ...+.u * @.#.#.#.#.$.V .   ",
"  . * %.&.*.=.X L -.. ;.t B * U , , , , , >..   ",
"  . * * * * ,.'.L ).. !.!.~.* . #.#.#.#.{.]..   ",
"  . * ^./.* ,.Z E -.. (._.* * :., , , , , s .   ",
"  . * * * * <.Y [.}.. !.~.* * @.#.#.#.#.|.s .   ",
"  . * 6 1.2.. . . . . 3.4._.* U , , , , , ]..   ",
"  . * * * * u !.!.!.!.!.5.* * 6.7.h h 8.9.0..   ",
"  . q * * * * 5.5.5.5.5.5.* q . . . . . . .     ",
"    . . . . . . . . . . . . .                   "};
