/* XPM */
static char * tb_copy_xpm[] = {
"24 24 94 2",
"  	c None",
". 	c #000000",
"+ 	c #B9B9B9",
"@ 	c #FEFEFE",
"# 	c #F9F9F9",
"$ 	c #757575",
"% 	c #F5F5E8",
"& 	c #565651",
"* 	c #FFFFFF",
"= 	c #A0A0A0",
"- 	c #939393",
"; 	c #7C7C7C",
"> 	c #CFC6A0",
", 	c #D7CEAA",
"' 	c #4B483C",
") 	c #6D6D6D",
"! 	c #6C6C6C",
"~ 	c #A9A9A9",
"{ 	c #3D3A30",
"] 	c #979178",
"^ 	c #8A793D",
"/ 	c #C3BB9A",
"( 	c #444236",
"_ 	c #FAFAFA",
": 	c #EFEFEF",
"< 	c #C7C7C7",
"[ 	c #D8D8D8",
"} 	c #D2D2D2",
"| 	c #7B7B7B",
"1 	c #302E26",
"2 	c #89846C",
"3 	c #C4BC9A",
"4 	c #847235",
"5 	c #545042",
"6 	c #171612",
"7 	c #C5C5C5",
"8 	c #A7A7A7",
"9 	c #ADADAD",
"0 	c #9A9A9A",
"a 	c #9B9B9B",
"b 	c #868686",
"c 	c #424242",
"d 	c #12110E",
"e 	c #21201A",
"f 	c #847033",
"g 	c #434034",
"h 	c #B3B3B3",
"i 	c #B4B4B4",
"j 	c #5C5C5C",
"k 	c #464646",
"l 	c #3B3B3B",
"m 	c #3F3F3F",
"n 	c #D6D6D6",
"o 	c #181713",
"p 	c #826F33",
"q 	c #434035",
"r 	c #151410",
"s 	c #13120F",
"t 	c #8F8F8F",
"u 	c #989898",
"v 	c #C6C6C6",
"w 	c #010101",
"x 	c #806F33",
"y 	c #7F6C32",
"z 	c #39362D",
"A 	c #636363",
"B 	c #767676",
"C 	c #7F6E32",
"D 	c #413F34",
"E 	c #141310",
"F 	c #4C4C48",
"G 	c #505050",
"H 	c #343434",
"I 	c #1F1F1F",
"J 	c #2C2C2C",
"K 	c #3D3D3D",
"L 	c #161616",
"M 	c #7D692E",
"N 	c #191919",
"O 	c #1C1B16",
"P 	c #25241E",
"Q 	c #282620",
"R 	c #7F6B2E",
"S 	c #010100",
"T 	c #A19A7F",
"U 	c #A39D81",
"V 	c #806C2F",
"W 	c #0F0E0B",
"X 	c #A9A186",
"Y 	c #0C0A04",
"Z 	c #89783C",
"` 	c #7A672D",
" .	c #766529",
"..	c #78672B",
"                      . . . .                   ",
"          . . . . . . + @ # $ . . . . . .       ",
"        . % % % % % & * = - ; & % % % % > .     ",
"        . % , , , , ' * ) ! ~ { ] , , , ^ .     ",
"        . % / / / ( _ : < [ } | 1 2 / 3 4 .     ",
"        . % , 5 6 7 8 8 9 0 a b c d e , f .     ",
"        . % g h i j k l l l l l m i n o p .     ",
"        . % q * * i i i i i i i i * * r p .     ",
"        . % s * 8 t t u * v t * t v * w x .     ",
"        . % r * * * * * * * * * * * * w y .     ",
"        . % z * ) A * B t v * v t * * d C .     ",
"        . % D * * * * * * * * * * * * E p .     ",
"  . . . . F d G H I J K L t v * u t * d x .     ",
". h * * * * * * * * * * n I * * * * * r M .     ",
". * * * * * * * * * * * * N * * * * n O M .     ",
". * 8 t t u * v t * t v * . P P P P Q , R .     ",
". * * * * * * * * * * * * S T T T T T U V .     ",
". * ) A * B t v * v t * * r , , , , , , y .     ",
". * * * * * * * * * * * * W T T T T T X y .     ",
". * 8 t t * t t v * u t * r , , , , , , V .     ",
". * * * * * * * * * * * * Y V Z p p `  ....     ",
". n * * * * * * * * * * n . . . . . . . .       ",
"  . . . . . . . . . . . .                       ",
"                                                "};
