/* XPM */
static const char * tb_delete_row_xpm[] = {
"24 24 21 1",
" 	c None",
".	c #000000",
"+	c #FFFFFF",
"@	c #E4E4E4",
"#	c #ECECEC",
"$	c #B8B8B8",
"%	c #CE3131",
"&	c #FCFCFC",
"*	c #F0F0E3",
"=	c #F7F7F1",
"-	c #F5F5ED",
";	c #E1E1D3",
">	c #F8F8F5",
",	c #CCCC98",
"'	c #CCCC97",
")	c #ABAB9A",
"!	c #330000",
"~	c #E6E6DA",
"{	c #9E9E91",
"]	c #9D9D90",
"^	c #7E7E7C",
"                        ",
"                        ",
"  ............          ",
"  .+++++++++@.          ",
"  .+########$.          ",
"  .@$$$$$$$$$.          ",
"  ..............  %%  %%",
"   .&*=======-;.   %%%% ",
"   .>,''''''',)!    %%  ",
"   .~{]]]]]]]{^.   %%%% ",
"  ..............  %%  %%",
"  .+++++++++@.          ",
"  .+########$.          ",
"  .@$$$$$$$$$.          ",
"  ............          ",
"  .+++++++++@.          ",
"  .+########$.          ",
"  .@$$$$$$$$$.          ",
"  ............          ",
"  .+++++++++@.          ",
"  .+########$.          ",
"  .@$$$$$$$$$.          ",
"  ............          ",
"                        "};
