/* XPM */
static const char * tb_delete_column_xpm[] = {
"24 24 14 1",
" 	c None",
".	c #000000",
"+	c #FFFFFF",
"@	c #E4E4E4",
"#	c #ECECEC",
"$	c #B8B8B8",
"%	c #330000",
"&	c #F7F7F1",
"*	c #E1E1D3",
"=	c #CCCC98",
"-	c #9D9D90",
";	c #CCCC97",
">	c #7E7E7C",
",	c #CE3131",
"                        ",
"                        ",
"      .....   .....     ",
"      .++@.   .++@.     ",
"      .+#$..%..+#$.     ",
"      .+#$.&&*.+#$.     ",
"      .+#$.&=-.+#$.     ",
"      .+#$.&;-.+#$.     ",
"      .+#$.&;-.+#$.     ",
"      .+#$.&;-.+#$.     ",
"      .+#$.&;-.+#$.     ",
"      .+#$.&;-.+#$.     ",
"      .@$$.&;-.@$$.     ",
"      .....&=-.....     ",
"          .*->.         ",
"          .....         ",
"                        ",
"                        ",
"          ,,  ,,        ",
"           ,,,,         ",
"            ,,          ",
"           ,,,,         ",
"          ,,  ,,        ",
"                        "};
