/* XPM */
static const char * tb_edit_editfooter_xpm[] = {
"24 24 42 1",
" 	c None",
"+	c #000000",
"@	c #FFFFFF",
"#	c #E6E2E6",
"$	c #C5C2C5",
"%	c #FFFAFF",
"&	c #ACAAAC",
"*	c #8B898B",
"=	c #F6F6F6",
"-	c #F6F2EE",
";	c #ACAEAC",
">	c #737573",
",	c #5A5D5A",
"'	c #414041",
")	c #F6F2F6",
"!	c #EEEEEE",
"~	c #838583",
"{	c #4E4C4E",
"]	c #101410",
"^	c #9C9D9C",
"/	c #EEEAEE",
"(	c #EEEAE6",
"_	c #E6E6E6",
":	c #E6E2DE",
"<	c #DEDEDE",
"[	c #A4A5A4",
"}	c #DEDADE",
"|	c #DEDAD5",
"1	c #A4A1A4",
"2	c #D5D6D5",
"3	c #D5D2D5",
"4	c #CDCECD",
"5	c #D5D2CD",
"6	c #A4A19C",
"7	c #081A70",
"8	c #C0B8F9",
"9	c #CDCEC5",
"0	c #B4B2AC",
"a	c #B4B6B4",
"b	c #9C9994",
"c	c #8B8D8B",
"d	c #83817B",
"                        ",
"  ++++++++++++++++++    ",
"  +@@@@@@@@@@@@@@@#$+   ",
"  +@@@@@@@@@@@@@%%$@&+  ",
"  +@****=**-***@**;>,'+ ",
"  +@%===)-!!@@@@@@@~{]+ ",
"  +@{{){{{!*****#{{{@^+ ",
"  +@))-!!//(__#::<@@@[+ ",
"  +@{{{{/****#{{{{{{@[+ ",
"  +@!!/(___#:<<<}|<<_1+ ",
"  +@**_{{{{:{{{{|{{{#1+ ",
"  +@(__#::<<}||223<<<1+ ",
"  +@{{{:*****22***4<<1+ ",
"  +@#:<<<}|22255444<|6+ ",
"  +@******2{{{{4****21+ ",
"  +@!!/(___#:<<<}|2221+ ",
"  +@777777777777777751+ ",
"  +@788888888888888746+ ",
"  +@788888888888888741+ ",
"  +@788888888888888791+ ",
"  +@77777777777777779^+ ",
"  +@<}||22355449999996+ ",
"  +30aa66^^^bc*****d~,+ ",
"  ++++++++++++++++++++< "};
