/* XPM */
static const char * tb_edit_editheader_xpm[] = {
"24 24 43 1",
" 	c None",
".	c #00FF00",
"+	c #000000",
"@	c #FFFFFF",
"#	c #E6E2E6",
"$	c #C5C2C5",
"%	c #081A70",
"&	c #ACAAAC",
"*	c #C0B8F9",
"=	c #ACAEAC",
"-	c #737573",
";	c #5A5D5A",
">	c #414041",
",	c #838583",
"'	c #4E4C4E",
")	c #101410",
"!	c #EEEEEE",
"~	c #9C9D9C",
"{	c #EEEAEE",
"]	c #A4A5A4",
"^	c #FFFAFF",
"/	c #F6F6F6",
"(	c #F6F2F6",
"_	c #F6F2EE",
":	c #E6E6E6",
"<	c #8B898B",
"[	c #A4A1A4",
"}	c #EEEAE6",
"|	c #E6E2DE",
"1	c #DEDEDE",
"2	c #DEDADE",
"3	c #DEDAD5",
"4	c #D5D6D5",
"5	c #A4A19C",
"6	c #D5D2CD",
"7	c #D5D2D5",
"8	c #CDCECD",
"9	c #CDCEC5",
"0	c #B4B2AC",
"a	c #B4B6B4",
"b	c #9C9994",
"c	c #8B8D8B",
"d	c #83817B",
"                        ",
"  ++++++++++++++++++    ",
"  +@@@@@@@@@@@@@@@#$+   ",
"  +@%%%%%%%%%%%%%%$@&+  ",
"  +@%*************=-;>+ ",
"  +@%*************#,')+ ",
"  +@%**************%!~+ ",
"  +@%%%%%%%%%%%%%%%%{]+ ",
"  +@@@@@@^^^///(_!!!:]+ ",
"  +@<<<</<<_<<<{<<<<#[+ ",
"  +@^///(_!!!{}:::#|1[+ ",
"  +@''('''!<<<<<#'''1[+ ",
"  +@((_!!{{}::#||1123[+ ",
"  +@''''{<<<<#''''''45+ ",
"  +@!!{}:::#|11123444[+ ",
"  +@<<:''''|''''3'''6[+ ",
"  +@}::#||11233447668[+ ",
"  +@'''|<<<<<44<<<8885+ ",
"  +@#|111234446688899[+ ",
"  +@<<<<<<4''''8<<<<9[+ ",
"  +@12334476688999999~+ ",
"  +@123344766889999995+ ",
"  +70aa55~~~bc<<<<<d,;+ ",
"  ++++++++++++++++++++1 "};
