/* XPM */
static char * tb_edit_removefooter_xpm[] = {
"24 24 4 1",
" 	c None",
".	c #FFFFFF",
"+	c #000000",
"@	c #F4290E",
"                        ",
"                        ",
"   ..................   ",
"   ..................   ",
"   ..................   ",
"   ...++++++++++++...   ",
"   ..................   ",
"   ...++++++++++++...   ",
"   ..................   ",
"   ...++++++++++++...   ",
"   ..................   ",
"   ...++++++++++++...   ",
"   ..................   ",
"   ...++++++++++++...   ",
"   ..................   ",
"   ...++++++++++++...   ",
"   ..................   ",
"   ..++++++++++++++..   ",
"   @@@@@@@@@@@@@@@@@@   ",
"   @@@@@@@@@@@@@@@@@@   ",
"   ..++++++++++++++..   ",
"   ..................   ",
"                        ",
"                        "};
