/* XPM */
static const char *tb_edit_removeheader_xpm[] = {
/* width height num_colors chars_per_pixel */
"    24    24       52            1",
/* colors */
"  c None",
". c #000000",
"# c #081a70",
"a c #090f28",
"b c #101410",
"c c #13298a",
"d c #2744b9",
"e c #2845ba",
"f c #414041",
"g c #4e4c4e",
"h c #5266ca",
"i c #5a5d5a",
"j c #727fd7",
"k c #737573",
"l c #83817b",
"m c #838583",
"n c #8b898b",
"o c #8b8d8b",
"p c #929292",
"q c #9c9994",
"r c #9c9d9c",
"s c #a4a19c",
"t c #a4a1a4",
"u c #a4a5a4",
"v c #abacee",
"w c #acaaac",
"x c #acaeac",
"y c #aeaeef",
"z c #b4b2ac",
"A c #b4b6b4",
"B c #c4c4f2",
"C c #c5c2c5",
"D c #cdcec5",
"E c #cdcecd",
"F c #d5d2cd",
"G c #d5d2d5",
"H c #d5d6d5",
"I c #dbdbdb",
"J c #dedad5",
"K c #dedade",
"L c #dedede",
"M c #e6e2de",
"N c #e6e2e6",
"O c #e6e6e6",
"P c #eeeae6",
"Q c #eeeaee",
"R c #eeeeee",
"S c #f6f2ee",
"T c #f6f2f6",
"U c #f6f6f6",
"V c #fffaff",
"W c #ffffff",
/* pixels */
"                        ",
"  ..................    ",
"  .WWWWWWWWWWWWWWWNC.   ",
"  .WWWWWW#########CWw.  ",
"  .WWWWWWWyyyyyyyyxkif. ",
"  .WWWWWWWWyyyyyyyNmgb. ",
"  .WWWWW.p.WjhvyyyB#Rr. ",
"  .WWWWapIp.deeeec##Qu. ",
"  .WWWUgIWIp.UUTSRRROu. ",
"  .WnnU.gIWIpDUQnnnnNt. ",
"  .WVUUU.gI..pPOOONMLt. ",
"  .WggTUU.p...pDNgggLt. ",
"  .WTTSRRUWp...pMLLKJt. ",
"  .WggggQnnWp...pDggHs. ",
"  .WRRQPOOONWp...pHHHt. ",
"  .WnnOggggMgWp...pDFt. ",
"  .WPOONMMLLKJWp.pWFEt. ",
"  .WgggMnnnnnHHWpWEEEs. ",
"  .WNMLLLKJHHHFFWEEDDt. ",
"  .WnnnnnnHggggEnnnnDt. ",
"  .WLKJJHHGFFEEDDDDDDr. ",
"  .WLKJJHHGFFEEDDDDDDs. ",
"  .GzAAssrrrqonnnnnlmi. ",
"  ....................L "
};
