/* XPM */
static const char * tb_hyperlink_xpm[] = {
"24 24 295 2",
"  	c None",
". 	c #33343D",
"+ 	c #2B2B34",
"@ 	c #1B1B21",
"# 	c #0C0C0F",
"$ 	c #010101",
"% 	c #16161C",
"& 	c #1E1E26",
"* 	c #15151E",
"= 	c #28282B",
"- 	c #010102",
"; 	c #55555E",
"> 	c #9D9EB1",
", 	c #C4C4DA",
"' 	c #BEBEDB",
") 	c #B4B5D8",
"! 	c #ABACCE",
"~ 	c #8382A9",
"{ 	c #4B4B61",
"] 	c #181821",
"^ 	c #0C0C16",
"/ 	c #0E0E0F",
"( 	c #65656C",
"_ 	c #C3C3D4",
": 	c #CCCCE2",
"< 	c #D8DAEB",
"[ 	c #D4D6E9",
"} 	c #BFC0DE",
"| 	c #C2C2E2",
"1 	c #BCBCE0",
"2 	c #9F9FD3",
"3 	c #817FBE",
"4 	c #8785B3",
"5 	c #3A3957",
"6 	c #06060C",
"7 	c #09090B",
"8 	c #929299",
"9 	c #EDEDF6",
"0 	c #E7E7F3",
"a 	c #E0E0EF",
"b 	c #E0E1EF",
"c 	c #E0E1F0",
"d 	c #DCDCEE",
"e 	c #CFCFE9",
"f 	c #C5C6E4",
"g 	c #ACACDA",
"h 	c #9A9AD0",
"i 	c #807FC0",
"j 	c #7472B6",
"k 	c #4E4D77",
"l 	c #030307",
"m 	c #101013",
"n 	c #848490",
"o 	c #E1E2EF",
"p 	c #EFEFF7",
"q 	c #F1F1F7",
"r 	c #F5F5F9",
"s 	c #F2F3F8",
"t 	c #E9EAF4",
"u 	c #E3E3F2",
"v 	c #D4D4EB",
"w 	c #CFCFE8",
"x 	c #9696CF",
"y 	c #8A88C1",
"z 	c #8685B2",
"A 	c #5A579C",
"B 	c #2F2D5A",
"C 	c #05050B",
"D 	c #16181E",
"E 	c #4D4D58",
"F 	c #D0D1E5",
"G 	c #DADBEC",
"H 	c #000000",
"I 	c #EAEAEB",
"J 	c #EEEEF0",
"K 	c #EEEEF5",
"L 	c #E6E6F3",
"M 	c #D2D2EA",
"N 	c #BFBFE2",
"O 	c #B8B8DE",
"P 	c #ABABD6",
"Q 	c #A6A5CE",
"R 	c #7270A6",
"S 	c #6662A3",
"T 	c #555298",
"U 	c #1B1A34",
"V 	c #0B0B12",
"W 	c #CDCDE2",
"X 	c #D3D3E9",
"Y 	c #E1E2F0",
"Z 	c #DEDFEC",
"` 	c #C2C2CB",
" .	c #E3E3EA",
"..	c #DEE0EE",
"+.	c #CECFE8",
"@.	c #C5C7E2",
"#.	c #C0C3DD",
"$.	c #C3C4DC",
"%.	c #C2C1DB",
"&.	c #A4A1C5",
"*.	c #8B87BA",
"=.	c #64609F",
"-.	c #3E3C6F",
";.	c #21232F",
">.	c #404052",
",.	c #B7B7D3",
"'.	c #B4B3D1",
").	c #CAC9DD",
"!.	c #DADAE6",
"~.	c #E1B92C",
"{.	c #B7B9C3",
"].	c #CECFDF",
"^.	c #C5C8E1",
"/.	c #CCCEE4",
"(.	c #D5D7E8",
"_.	c #C5C4DC",
":.	c #ADAACE",
"<.	c #8783AC",
"[.	c #6E6B94",
"}.	c #706D9E",
"|.	c #5F5D8A",
"1.	c #131120",
"2.	c #0A0A11",
"3.	c #EDD582",
"4.	c #DFB41E",
"5.	c #A9AABB",
"6.	c #CECEDE",
"7.	c #D8D9E8",
"8.	c #DCDDEB",
"9.	c #B9B7D5",
"0.	c #8580B1",
"a.	c #666191",
"b.	c #595677",
"c.	c #72708F",
"d.	c #5C5A81",
"e.	c #282841",
"f.	c #07070C",
"g.	c #F1DFA0",
"h.	c #F0DD99",
"i.	c #F1DE9C",
"j.	c #F2E0A1",
"k.	c #EED88B",
"l.	c #EDD580",
"m.	c #161203",
"n.	c #9A9CB3",
"o.	c #B5B7D0",
"p.	c #B0B1D1",
"q.	c #7672A4",
"r.	c #7A759D",
"s.	c #837F9D",
"t.	c #74718B",
"u.	c #77758D",
"v.	c #5F5E7F",
"w.	c #2E2D48",
"x.	c #050509",
"y.	c #EDD47E",
"z.	c #EED685",
"A.	c #EDD37C",
"B.	c #ECD279",
"C.	c #E2BA31",
"D.	c #9F9FB5",
"E.	c #ADADCA",
"F.	c #7B78A8",
"G.	c #8D88AC",
"H.	c #918DA7",
"I.	c #88859E",
"J.	c #6C6984",
"K.	c #4E4B6F",
"L.	c #2F2E49",
"M.	c #030205",
"N.	c #EBD072",
"O.	c #ECD277",
"P.	c #D2AA1D",
"Q.	c #8888A7",
"R.	c #6A649B",
"S.	c #827DA8",
"T.	c #8E89A5",
"U.	c #706C8B",
"V.	c #464363",
"W.	c #413F63",
"X.	c #32304E",
"Y.	c #06050A",
"Z.	c #CAA31B",
"`.	c #AF8D18",
" +	c #755F10",
".+	c #605F71",
"++	c #8C8BA3",
"@+	c #666095",
"#+	c #4E4779",
"$+	c #4A4272",
"%+	c #3C375F",
"&+	c #323056",
"*+	c #5B597D",
"=+	c #2D2C3F",
"-+	c #050408",
";+	c #C19C1A",
">+	c #9A7C15",
",+	c #34304D",
"'+	c #5A5775",
")+	c #8581A1",
"!+	c #655F8D",
"~+	c #58527E",
"{+	c #524B75",
"]+	c #433F5F",
"^+	c #4E4C6D",
"/+	c #535171",
"(+	c #191825",
"_+	c #060609",
":+	c #37354C",
"<+	c #39345B",
"[+	c #484469",
"}+	c #69648E",
"|+	c #756F9A",
"1+	c #66608B",
"2+	c #555075",
"3+	c #4B4764",
"4+	c #5C597C",
"5+	c #4C496B",
"6+	c #0A0910",
"7+	c #282733",
"8+	c #3D3B4A",
"9+	c #3C3A4E",
"0+	c #3E3D4C",
"a+	c #312E46",
"b+	c #464267",
"c+	c #342F56",
"d+	c #484374",
"e+	c #4D4777",
"f+	c #706BA2",
"g+	c #807CAD",
"h+	c #666290",
"i+	c #5C578B",
"j+	c #5A5882",
"k+	c #35344E",
"l+	c #0A090E",
"m+	c #3F3D4F",
"n+	c #58556E",
"o+	c #504E63",
"p+	c #383746",
"q+	c #3E3B55",
"r+	c #3D395E",
"s+	c #2E2A4E",
"t+	c #3A375B",
"u+	c #3C385F",
"v+	c #3E3A68",
"w+	c #46436B",
"x+	c #524F78",
"y+	c #535078",
"z+	c #363550",
"A+	c #0B0A12",
"B+	c #14121D",
"C+	c #4D4B64",
"D+	c #52516B",
"E+	c #363446",
"F+	c #4E4C69",
"G+	c #605D88",
"H+	c #524E73",
"I+	c #4C4A6A",
"J+	c #413E60",
"K+	c #3B3856",
"L+	c #282544",
"M+	c #2C294A",
"N+	c #3D3B59",
"O+	c #0E0E19",
"P+	c #45435A",
"Q+	c #555275",
"R+	c #53507D",
"S+	c #646092",
"T+	c #6B679D",
"U+	c #504E76",
"V+	c #45445E",
"W+	c #3D3B58",
"X+	c #373652",
"Y+	c #24213E",
"Z+	c #34324E",
"`+	c #2F2E46",
" @	c #0A0A10",
".@	c #353449",
"+@	c #41415E",
"@@	c #4E4B6E",
"#@	c #545278",
"$@	c #4D4B69",
"%@	c #43415D",
"&@	c #3B3957",
"*@	c #393754",
"=@	c #323148",
"-@	c #29283B",
";@	c #0B0B13",
">@	c #000001",
",@	c #12121E",
"'@	c #191729",
")@	c #181729",
"!@	c #171628",
"~@	c #171627",
"{@	c #07070B",
"                                                ",
"                . + @ # $ % & *                 ",
"            = - ; > , ' ) ! ~ { ] ^             ",
"          / ( _ : < [ } | 1 2 3 4 5 6           ",
"        7 8 9 0 a b c d e f g h i j k l         ",
"      m n o p q r s t u v w 1 x y z A B C       ",
"    D E F G q H I J K L M N O P Q R S T U V     ",
"    $ W X Y Z H H `  ...+.@.#.$.%.&.*.=.-.H     ",
"  ;.>.,.'.).!.H ~.H {.].^./.(._.:.<.[.}.|.1.2.  ",
"  H H H H H H H 3.4.H 5.6.7.8.9.0.a.b.c.d.e.f.  ",
"  H g.h.i.j.j.j.k.l.4.m.n.o.p.q.r.s.t.u.v.w.x.  ",
"  H y.z.l.l.y.A.z.l.B.C.H D.E.F.G.H.I.J.K.L.M.  ",
"  H N.3.A.A.y.l.l.l.z.O.P.H Q.R.S.T.U.V.W.X.Y.  ",
"  H Z.`.`.`.`.`.`.`.`. +H .+++@+#+$+%+&+*+=+-+  ",
"  H ;+>+>+>+>+>+`.`. +H ,+'+)+!+~+{+]+^+/+(+_+  ",
"  H H H H H H H `. +H :+<+[+}+|+1+2+3+4+5+6+    ",
"    H 7+8+9+0+H  +H a+b+c+d+e+f+g+h+i+j+k+H     ",
"    H l+m+n+o+H H p+q+r+s+t+u+v+w+x+y+z+A+$     ",
"      H B+C+D+H E+F+G+H+I+J+K+L+M+N+k+O+$       ",
"        H 6+P+Q+R+S+T+U+V+W+X+Y+Z+`+ @H         ",
"          H A+.@+@@@#@$@%@&@*@=@-@;@$           ",
"            >@H f.,@'@)@!@~@,@{@H $             ",
"                  H H H H H H H                 ",
"                                                "};
