/* XPM */
static char *tb_hyperlink[] = {
/* width height num_colors chars_per_pixel */
"    20    20       16            1",
/* colors */
"` c #000000",
". c #800000",
"# c #008000",
"a c #808000",
"b c #000080",
"c c #800080",
"d c #008080",
"e c #c0c0c0",
"f c #808080",
"g c #ff0000",
"h c #00ff00",
"i c #ffff00",
"j c #0000ff",
"k c #ff00ff",
"l c #00ffff",
"m c None",
/* pixels */
"mmmmmmmmmmmmmmmmmmmm",
"mmmmmmmmmmmmmmmmmmmm",
"mmmmmmmmmmmmmmmmmmmm",
"mmmmmmmmmmmmmm```mmm",
"mmmmmmmmmmmmm`em`mmm",
"mmmmmmmmm````emf`mmm",
"mmmmmmmm`em`emf`mmmm",
"mmmmmmm`em`emf`mmmmm",
"mmmmmm`em``ff``mmmmm",
"mmmmm`em`mm``e`mmmmm",
"mmmm`em`mmm`em`mmmmm",
"mmmm`m``mm`em`mmmmmm",
"mmmm``ee``em`mmmmmmm",
"mmmm`emf`em`mmmmmmmm",
"mmm`emf`em`mmmmmmmmm",
"mmm`mf````mmmmmmmmmm",
"mmm```mmmmmmmmmmmmmm",
"mmmmmmmmmmmmmmmmmmmm",
"mmmmmmmmmmmmmmmmmmmm",
"mmmmmmmmmmmmmmmmmmmm"
};
/* Alan Horkan.  Hyperlink.  */

