/* XPM */
static const char * tb_help_xpm[] = {
"24 24 119 2",
"  	c None",
". 	c #000000",
"+ 	c #232323",
"@ 	c #212121",
"# 	c #222222",
"$ 	c #6F6A58",
"% 	c #C4B993",
"& 	c #E6DDC1",
"* 	c #F9F7EF",
"= 	c #F9F6ED",
"- 	c #F9F6EB",
"; 	c #F9F6EC",
"> 	c #E4DBBD",
", 	c #C3B891",
"' 	c #8F8870",
") 	c #9C957D",
"! 	c #E5DDC0",
"~ 	c #FBF9F3",
"{ 	c #FBF9F1",
"] 	c #FAF8F0",
"^ 	c #F8F5EA",
"/ 	c #F8F4E7",
"( 	c #F6F3E4",
"_ 	c #E0D6B3",
": 	c #968F76",
"< 	c #282828",
"[ 	c #CDC5AA",
"} 	c #FAF7EF",
"| 	c #F8F4E8",
"1 	c #F7F3E5",
"2 	c #F6F2E2",
"3 	c #F6F0DF",
"4 	c #F4EFDC",
"5 	c #F6F1E0",
"6 	c #C7BEA0",
"7 	c #2E2E2E",
"8 	c #D0C9AF",
"9 	c #FBFAF5",
"0 	c #FCFBF7",
"a 	c #BCBBB7",
"b 	c #393837",
"c 	c #0C0C0C",
"d 	c #040404",
"e 	c #282826",
"f 	c #9E9B93",
"g 	c #F4EED8",
"h 	c #F5EFDE",
"i 	c #8F8872",
"j 	c #FDFBF8",
"k 	c #FDFCF9",
"l 	c #8D8C8B",
"m 	c #1A1A1A",
"n 	c #616160",
"o 	c #404040",
"p 	c #D1D0C7",
"q 	c #F3ECD6",
"r 	c #7A7461",
"s 	c #2C2C2C",
"t 	c #DED6BB",
"u 	c #FFFFFF",
"v 	c #E0DFDC",
"w 	c #F9F8F6",
"x 	c #FEFEFD",
"y 	c #F0EEEB",
"z 	c #B2B2B2",
"A 	c #F7F3E4",
"B 	c #F4EEDA",
"C 	c #F2EBD2",
"D 	c #B4A262",
"E 	c #FBFAF6",
"F 	c #72716D",
"G 	c #141414",
"H 	c #EDEDED",
"I 	c #F8F5E9",
"J 	c #E1D3A3",
"K 	c #1C1C1C",
"L 	c #878681",
"M 	c #161616",
"N 	c #CCCCCC",
"O 	c #FEFEFC",
"P 	c #F6F1E2",
"Q 	c #E4D5A2",
"R 	c #131313",
"S 	c #F8F5EB",
"T 	c #D7D7D7",
"U 	c #FEFDFC",
"V 	c #F7F4E7",
"W 	c #F2ECD4",
"X 	c #F1EAD1",
"Y 	c #D4C07C",
"Z 	c #151515",
"` 	c #D6CCA9",
" .	c #D1CFC6",
"..	c #D6D6D5",
"+.	c #F7F4E8",
"@.	c #F3EDD7",
"#.	c #8E8771",
"$.	c #EBE0B9",
"%.	c #6B6A64",
"&.	c #6C6A65",
"*.	c #696454",
"=.	c #C5BC9C",
"-.	c #FBF9F2",
";.	c #ADA072",
">.	c #323232",
",.	c #E9DDB3",
"'.	c #E6D8A6",
").	c #CCBC83",
"!.	c #79725C",
"~.	c #E6D9A8",
"{.	c #E6D9AA",
"].	c #D7C483",
"^.	c #C7B473",
"/.	c #A8985F",
"(.	c #6D6856",
"_.	c #EDE4C3",
":.	c #D4BF78",
"<.	c #6E6E6E",
"[.	c #3C3C3C",
"                                                ",
"                                                ",
"                                                ",
"                  . + @ @ # . .                 ",
"            . $ % & * = - ; > , ' .             ",
"        . ) ! ~ { ] = - ^ / ( ( ( _ : .         ",
"      < [ ~ ~ { ~ { ] } - | 1 2 3 4 5 6 .       ",
"    7 8 { { ~ 9 0 a b c d e f ( 5 4 g h 6 .     ",
"    i ] } { 9 j k l m n o . . p 5 h g q 4 r     ",
"  s t } } ~ 0 k u v w x y . . z A h B q C D .   ",
"  + ; = } { 9 j k j E { F . G H I h g q C J .   ",
"  K - ^ = ] ~ 9 0 9 ~ L . M N O P 4 g q C Q .   ",
"  R S | - } ] { ~ { ] c . T U V 3 4 g W X Y .   ",
"  Z ` / ^ - = } } } =  ...u +.5 h B @.W X D .   ",
"    #.$./ | ^ - - - ^ %.&.+.2 3 4 g q C Q *.    ",
"    + =.^ 1 / | | | / . . -.3 4 B @.W Q ;..     ",
"      >.,.2 ( ( ( ( ( 2 u u 4 B @.W Q ;..       ",
"      7 ,.( g 5 5 5 5 3 h 4 B @.'.).!..         ",
"      .   ,.,.,.,.~.{.{.{.].^./.(.. .           ",
"    . ,._.:.<.[.. . . . . . . .                 ",
"  . . . . . .                                   ",
"                                                ",
"                                                ",
"                                                "};
