/* XPM */
static char * tb_hyperlink[] = {
"24 24 120 2",
"  	c None",
". 	c #000000",
"+ 	c #060708",
"@ 	c #F1EDED",
"# 	c #FAF4F2",
"$ 	c #E1DFE6",
"% 	c #B5C2D9",
"& 	c #D9D3DD",
"* 	c #89A9CA",
"= 	c #E5E5EB",
"- 	c #BDD1E7",
"; 	c #83ADD7",
"> 	c #8BB6DB",
", 	c #BBD1E4",
"' 	c #8FA8CE",
") 	c #3E76BA",
"! 	c #325DA1",
"~ 	c #4C7098",
"{ 	c #8EBAD8",
"] 	c #B1D5EA",
"^ 	c #D3E6F1",
"/ 	c #C5D9EA",
"( 	c #E8F0F5",
"_ 	c #D0DFEC",
": 	c #86ABD2",
"< 	c #8CADD1",
"[ 	c #96B2D2",
"} 	c #5378A5",
"| 	c #7EB6DD",
"1 	c #9DC8E5",
"2 	c #DAE8F2",
"3 	c #E9F1F6",
"4 	c #F0F4F7",
"5 	c #DDE8F0",
"6 	c #B9D2E4",
"7 	c #587CB0",
"8 	c #436BA6",
"9 	c #4A6F9E",
"0 	c #324E82",
"a 	c #D1940C",
"b 	c #9AC1E0",
"c 	c #BCD2E6",
"d 	c #E0E9F1",
"e 	c #D5E4F0",
"f 	c #5B96CD",
"g 	c #7CA1CA",
"h 	c #658AB7",
"i 	c #33508D",
"j 	c #2F4A80",
"k 	c #46638E",
"l 	c #040509",
"m 	c #EED680",
"n 	c #B8CAE1",
"o 	c #D7D6E5",
"p 	c #7EA7D2",
"q 	c #467BBC",
"r 	c #38548C",
"s 	c #3A527F",
"t 	c #3F5B90",
"u 	c #263A68",
"v 	c #1F2F58",
"w 	c #080B13",
"x 	c #D8E1EC",
"y 	c #D5E3EF",
"z 	c #A0BCDB",
"A 	c #49699F",
"B 	c #344D80",
"C 	c #3A507B",
"D 	c #384B72",
"E 	c #1D294E",
"F 	c #07080F",
"G 	c #D7E5F1",
"H 	c #FEFFFF",
"I 	c #BBCFE1",
"J 	c #5D82AF",
"K 	c #556F97",
"L 	c #40557E",
"M 	c #1F2D54",
"N 	c #050508",
"O 	c #AC7A09",
"P 	c #8E6407",
"Q 	c #F0F2F6",
"R 	c #D4DFE9",
"S 	c #7193BA",
"T 	c #5173A0",
"U 	c #5E759E",
"V 	c #5E7CA3",
"W 	c #223357",
"X 	c #BAC7D8",
"Y 	c #ABB9CF",
"Z 	c #93A5C3",
"` 	c #6D86AD",
" .	c #3E5C8D",
"..	c #314B7C",
"+.	c #283E6B",
"@.	c #05070D",
"#.	c #AEBCD2",
"$.	c #899BBC",
"%.	c #7184AD",
"&.	c #657AA6",
"*.	c #6075A2",
"=.	c #58729F",
"-.	c #395B89",
";.	c #1F3250",
">.	c #010204",
",.	c #020409",
"'.	c #536C87",
").	c #6E85AB",
"!.	c #5E76A3",
"~.	c #546C9C",
"{.	c #536D9C",
"].	c #486892",
"^.	c #0B1323",
"/.	c #020407",
"(.	c #0C0F16",
"_.	c #0B1220",
":.	c #101930",
"<.	c #121C35",
"[.	c #0E182C",
"}.	c #070C16",
"                                                ",
"                                                ",
"                                                ",
"                                                ",
"                                                ",
"                      . . . . . +               ",
"                  . . @ # $ % & * . .           ",
"                .   = - ; > , ' ) ! ~ .         ",
"              . . { ] ^ / ( _ : < [ } .         ",
"              . . | 1 2 3 4 5 6 7 8 9 0 .       ",
"              . a . b c d e f g h i j k l       ",
"      . . . . . m a . n o p q r s t u v w       ",
"      . m m m m m m a . x y z A B C D E F       ",
"      . m m m m m m m a . G H I J K L M N       ",
"      . a O a O a O a P . Q R S T U V W .       ",
"      . O a O a O a P . X Y Z `  ...+.@.        ",
"      . . . . . a P . #.$.%.&.*.=.-.;.>.        ",
"              . P . ,.'.).!.~.{.].^./.          ",
"              . .     (._.:.<.[.}.              ",
"              .                                 ",
"                                                ",
"                                                ",
"                                                ",
"                                                "};
