/* XPM */
static char * tb_help_xpm[] = {
"24 24 45 1",
" 	c None",
".	c #000000",
"+	c #0A0A0A",
"@	c #878787",
"#	c #E0E0E0",
"$	c #F0F0F0",
"%	c #F9F9F9",
"&	c #F5F5F5",
"*	c #F4F4F4",
"=	c #A4A4A4",
"-	c #898989",
";	c #ACACAC",
">	c #FFFFFF",
",	c #565656",
"'	c #373737",
")	c #5B5B5B",
"!	c #6B6B6B",
"~	c #C4C4C4",
"{	c #858585",
"]	c #525252",
"^	c #5D5D5D",
"/	c #505050",
"(	c #747474",
"_	c #BBBBBB",
":	c #909090",
"<	c #3C3C3C",
"[	c #818181",
"}	c #D2D2D2",
"|	c #484848",
"1	c #989898",
"2	c #E5E5E5",
"3	c #888888",
"4	c #343434",
"5	c #E4E4E4",
"6	c #AFAFAF",
"7	c #676767",
"8	c #B1B1B1",
"9	c #F6F6F6",
"0	c #EDEDED",
"a	c #DEDEDE",
"b	c #CACACA",
"c	c #B3B3B3",
"d	c #FCFCFC",
"e	c #848484",
"f	c #9B9B9B",
"                        ",
"                        ",
"                        ",
"       ..........       ",
"    ..+@#$%&&&*#=...    ",
"   .-;#>>>,')!>>>#~{.   ",
"   .#>>>>]^>>/(>>>#~.   ",
"  ._>>>>>>>>:<[>>>>}=.  ",
"  .}>>>>>>>/|:>>>>>#;.  ",
"  .~>>>>>>>11>>>>>2#;.  ",
"  ._#>>>>>>>>>>>>>#~3.  ",
"   .~#$>>>>|4>>>>5#;.   ",
"   .{6}#>>>77>>>5~;-.   ",
"    ...8~###90ab;3..    ",
"       ....cdd#e..      ",
"           .>#;.        ",
"           .#~.         ",
"           .;.          ",
"          .f.           ",
"         ...            ",
"                        ",
"                        ",
"                        ",
"                        "};
