/* XPM */
static char * tb_insert_graphic_xpm[] = {
"24 24 202 2",
"  	c None",
". 	c #000000",
"+ 	c #222222",
"@ 	c #282828",
"# 	c #515151",
"$ 	c #D3D3D3",
"% 	c #F6F6F6",
"& 	c #FFFFFF",
"* 	c #F9F9F9",
"= 	c #F9F9F8",
"- 	c #E7E7E7",
"; 	c #E4E4E4",
"> 	c #929292",
", 	c #1F1F1F",
"' 	c #EFEFEE",
") 	c #AFAFAE",
"! 	c #E9E9E9",
"~ 	c #818181",
"{ 	c #2B2B2B",
"] 	c #FEFEFE",
"^ 	c #FDFDFD",
"/ 	c #EEEEEE",
"( 	c #A4A4A3",
"_ 	c #F0F0F0",
": 	c #F4F4F4",
"< 	c #747474",
"[ 	c #050505",
"} 	c #FBFBFB",
"| 	c #FAFAFA",
"1 	c #F8F8F8",
"2 	c #F7F7F6",
"3 	c #F4F4F3",
"4 	c #9C9C9C",
"5 	c #BEBEBD",
"6 	c #B1AFAE",
"7 	c #828280",
"8 	c #848381",
"9 	c #6A6763",
"0 	c #E2E9EF",
"a 	c #9CB4CD",
"b 	c #698095",
"c 	c #A3A3A2",
"d 	c #C5C3C1",
"e 	c #C6C6C4",
"f 	c #B6B6B4",
"g 	c #72706C",
"h 	c #A3BAD1",
"i 	c #7396B9",
"j 	c #8FAABD",
"k 	c #DCE4C4",
"l 	c #7B9CB9",
"m 	c #6583A2",
"n 	c #999897",
"o 	c #CFCECC",
"p 	c #E0DFDD",
"q 	c #C4C3C0",
"r 	c #817D74",
"s 	c #AABFD4",
"t 	c #7E9EBE",
"u 	c #EBEEC7",
"v 	c #FEFEDF",
"w 	c #DAE2D0",
"x 	c #6E8AA6",
"y 	c #C9C8C7",
"z 	c #DCDAD7",
"A 	c #E1DFDC",
"B 	c #8B867D",
"C 	c #B1C4D7",
"D 	c #88A6C3",
"E 	c #83A0BC",
"F 	c #435261",
"G 	c #99B1C0",
"H 	c #EAEFC8",
"I 	c #A3BACB",
"J 	c #7791AB",
"K 	c #949493",
"L 	c #C4C4C2",
"M 	c #A49E93",
"N 	c #B8C9DB",
"O 	c #93AEC9",
"P 	c #91A2B6",
"Q 	c #2F2414",
"R 	c #5E8858",
"S 	c #1F1C12",
"T 	c #8FA9C4",
"U 	c #90ADC9",
"V 	c #8DABC9",
"W 	c #6687A6",
"X 	c #1B2126",
"Y 	c #72869C",
"Z 	c #8198B0",
"` 	c #90908E",
" .	c #C2C1BF",
"..	c #DFDEDB",
"+.	c #BFCFDE",
"@.	c #9AA7B7",
"#.	c #42260F",
"$.	c #668759",
"%.	c #668C60",
"&.	c #5E8658",
"*.	c #2D2720",
"=.	c #9EB6CE",
"-.	c #54779A",
";.	c #212110",
">.	c #557549",
",.	c #0B0D0E",
"'.	c #718293",
").	c #8F8F8D",
"!.	c #C3C2C0",
"~.	c #DDDCD9",
"{.	c #C4CDDA",
"].	c #492F19",
"^.	c #678A59",
"/.	c #668D5D",
"(.	c #658E5F",
"_.	c #669663",
":.	c #648756",
"<.	c #222713",
"[.	c #413309",
"}.	c #607346",
"|.	c #64905E",
"1.	c #5F8454",
"2.	c #070706",
"3.	c #858070",
"4.	c #66905C",
"5.	c #669562",
"6.	c #66905F",
"7.	c #638E5D",
"8.	c #649562",
"9.	c #678E5C",
"0.	c #668C59",
"a.	c #649260",
"b.	c #678C5C",
"c.	c #688C5C",
"d.	c #66915E",
"e.	c #45663E",
"f.	c #8E8D8B",
"g.	c #C2C0BD",
"h.	c #DCDBD7",
"i.	c #E0DFDB",
"j.	c #A19C90",
"k.	c #95AD8C",
"l.	c #597A4D",
"m.	c #578256",
"n.	c #568255",
"o.	c #567F51",
"p.	c #597448",
"q.	c #577A4B",
"r.	c #5A794B",
"s.	c #5D7548",
"t.	c #5C6E45",
"u.	c #597248",
"v.	c #3B5433",
"w.	c #BFBEBB",
"x.	c #D9D8D4",
"y.	c #DDDCD8",
"z.	c #A19B90",
"A.	c #8F8E8B",
"B.	c #D8D7D3",
"C.	c #A4A4A4",
"D.	c #908F8D",
"E.	c #8F8F8C",
"F.	c #8D8D8A",
"G.	c #A1A19E",
"H.	c #C5C4C1",
"I.	c #D7D5D1",
"J.	c #D9D7D3",
"K.	c #9F998D",
"L.	c #D6D6D6",
"M.	c #C2C2BF",
"N.	c #C2C2BE",
"O.	c #C3C2BF",
"P.	c #C2C1BD",
"Q.	c #C1C0BC",
"R.	c #C6C4C1",
"S.	c #D3D1CD",
"T.	c #D8D6D2",
"U.	c #9E988D",
"V.	c #DBDAD6",
"W.	c #DAD9D5",
"X.	c #DBD9D5",
"Y.	c #D8D6D1",
"Z.	c #9D978B",
"`.	c #D1D1D1",
" +	c #E1DFDB",
".+	c #E0DEDA",
"++	c #DFDEDA",
"@+	c #DEDDD9",
"#+	c #DEDCD8",
"$+	c #DCDAD6",
"%+	c #D7D6D1",
"&+	c #D5D3CE",
"*+	c #9B958A",
"=+	c #999891",
"-+	c #A39E92",
";+	c #A39D92",
">+	c #A39D91",
",+	c #A29C90",
"'+	c #A19B8F",
")+	c #9D978C",
"!+	c #9B968A",
"~+	c #676359",
"                                                ",
"      . . . . . . . . . . . . . + @ #           ",
"    . $ % & & & & & & & & * = = - ; > ,         ",
"    . % & & & & & & & & & & = ' ) ! & ~ {       ",
"    . & & & & & & & ] & ] ^ = / ( _ & : < [     ",
"    . } } | | | * 1 2 1 2 % 3 / 4 . . . . .     ",
"  . . . . . . . . . . . . . . . 5 6 7 8 9 .     ",
"  . 0 a a a a a a a a a a a b . c d e f g .     ",
"  . h i i i i i i j k l i i m . n o p q r .     ",
"  . s t t t t t t u v w t t x . n y z A B .     ",
"  . C D D E F E D G H I D D J . K L z A M .     ",
"  . N O P Q R S T U V W X Y Z . `  ...A M .     ",
"  . +.@.#.$.%.&.*.=.-.;.>.,.'.. ).!.~.A M .     ",
"  . {.].^./.(._.:.<.[.}.|.1.2.. ).!.~.A M .     ",
"  . 3.4.5.6.7.8.9.0.a.b.c.d.e.. f.g.h.i.j..     ",
"  . k.l.m.n.o.l.p.q.r.s.t.u.v.. f.w.x.y.z..     ",
"  . . . . . . . . . . . . . . . A.w.B.h.z..     ",
"    . C.` D.D.D.).D.E.D.E.A.F.A.G.H.I.J.K..     ",
"    . L.!.M.N.O.O.P.N.P.N.Q.Q.w.R.S.T.T.U..     ",
"    . ! ~.z h.V.y.V.h.V.h.W.X.J.J.T.Y.I.Z..     ",
"    . `. +.+++@+i.@+.+@+.+#+#+$+$+T.%+&+*+.     ",
"    . =+-+M ;+>+;+j.,+j.,+'+z.K.K.)+)+!+~+.     ",
"      . . . . . . . . . . . . . . . . . .       ",
"                                                "};
