/* XPM */
static const char * tb_insert_table_xpm[] = {
"24 24 32 1",
" 	c None",
".	c #000000",
"+	c #FFFFFF",
"@	c #B1B1B1",
"#	c #BABABA",
"$	c #E4E4E4",
"%	c #ECECEC",
"&	c #A8A8A8",
"*	c #ADADAD",
"=	c #B9B9B9",
"-	c #ABABAB",
";	c #B8B8B8",
">	c #B5B5B5",
",	c #AAAAAA",
"'	c #858585",
")	c #828282",
"!	c #707070",
"~	c #BCBCBC",
"{	c #A7A7A7",
"]	c #8D8D8D",
"^	c #737373",
"/	c #ACACAC",
"(	c #878787",
"_	c #747474",
":	c #A9A9A9",
"<	c #E9E9E9",
"[	c #C3C3C3",
"}	c #BFBFBF",
"|	c #757575",
"1	c #7E7E7E",
"2	c #BBBBBB",
"3	c #A3A3A3",
"                        ",
"                        ",
"                        ",
"   ...................  ",
"   .+++++@+++++#++++$.  ",
"   .+%%%%&%%%%%*%%%%=.  ",
"   .+%%%%-%%%%%-%%%%;.  ",
"   .>&,,&'&----)&---!.  ",
"   .+%%%%-%%%%%-%%%%~.  ",
"   .+%%%%-%%%%%-%%%%~.  ",
"   .+%%%%-%%%%%-%%%%~.  ",
"   .#{---'-----]*---^.  ",
"   .+%%%%-%%%%%-%%%%~.  ",
"   .+%%%%-%%%%%-%%%%;.  ",
"   .+%%%%-%%%%%-%%%%~.  ",
"   .;&--/(&{--&'&---_.  ",
"   .+%%%%-%%%%%-%%%%;.  ",
"   .+%%%%&%%%%%:%%%%~.  ",
"   .<[[[}|~~~~~1;~~23.  ",
"   ...................  ",
"                        ",
"                        ",
"                        ",
"                        "};
