/* XPM */
static char * tb_lists_numbers_xpm[] = {
"24 24 2 1",
" 	c None",
".	c #000000",
"                        ",
"                        ",
"                        ",
"                        ",
"     .                  ",
"    ..                  ",
"     .  .............   ",
"     .                  ",
"     .                  ",
"                        ",
"    ..                  ",
"      .                 ",
"     .  .............   ",
"    .                   ",
"    ...                 ",
"                        ",
"    ..                  ",
"      .                 ",
"     .  .............   ",
"      .                 ",
"    ..                  ",
"                        ",
"                        ",
"                        "};
