/* XPM */
static char * tb_line_double_space_xpm[] = {
"24 24 2 1",
" 	c None",
".	c #000000",
"                        ",
"                        ",
"                        ",
"                        ",
"                        ",
"                        ",
"    .................   ",
"                        ",
"                        ",
"                        ",
"                        ",
"                        ",
"                        ",
"    .................   ",
"                        ",
"                        ",
"                        ",
"                        ",
"                        ",
"                        ",
"                        ",
"                        ",
"                        ",
"                        "};
