/* XPM */
static const char * tb_lists_numbers_xpm[] = {
"24 24 57 1",
" 	c None",
".	c #000000",
"+	c #E2E2E2",
"@	c #F2F2F2",
"#	c #F3F3F3",
"$	c #F4F4F4",
"%	c #F5F5F5",
"&	c #F6F6F6",
"*	c #F7F7F7",
"=	c #DBDBDB",
"-	c #F0F0F0",
";	c #E0E0E0",
">	c #E1E1E1",
",	c #E3E3E3",
"'	c #E4E4E4",
")	c #E5E5E5",
"!	c #E6E6E6",
"~	c #E7E7E7",
"{	c #E8E8E8",
"]	c #E9E9E9",
"^	c #EAEAEA",
"/	c #EBEBEB",
"(	c #ECECEC",
"_	c #EDEDED",
":	c #EEEEEE",
"<	c #EFEFEF",
"[	c #CCCCCC",
"}	c #6D6D6D",
"|	c #F1F1F1",
"1	c #CDCDCD",
"2	c #6F6F6F",
"3	c #707070",
"4	c #717171",
"5	c #727272",
"6	c #737373",
"7	c #6E6E6E",
"8	c #747474",
"9	c #868686",
"0	c #F8F8F8",
"a	c #F9F9F9",
"b	c #C3C3C3",
"c	c #D7D7D7",
"d	c #FAFAFA",
"e	c #757575",
"f	c #838383",
"g	c #767676",
"h	c #777777",
"i	c #787878",
"j	c #FBFBFB",
"k	c #FCFCFC",
"l	c #D8D8D8",
"m	c #FDFDFD",
"n	c #DADADA",
"o	c #FEFEFE",
"p	c #FFFFFF",
"q	c #C9C9C9",
"r	c #BDBDBD",
" ....................   ",
".+@@@@###$$$%%%&&**$=.  ",
".-;;>+,')!~{{]^/(_:<_.  ",
".@>>[}')!~{]^^/(_:<-|.  ",
".@+1}})!~233444556-|@.  ",
".#,')7!~{]^/(__:<-|@#.  ",
".#')!2~{]344556668@#$.  ",
".#)!~2]]^/(_:<-:-|#$%.  ",
".$!~{]^^/955668@##$%&.  ",
".$~{]^/((_:<-|@#$%%&*.  ",
".%{]^/(_::<-|@#$%&**0.  ",
".%]^/(_:<--|@#$%&*00a.  ",
".%^/b5c<-|@@#$%&*0add.  ",
".&/(5:6-|8efegghhidjk.  ",
".*__:l6|@#$%%&*0adjkm.  ",
".*:<l6n@#egghhhiijkmo.  ",
".0-|88e$%&*0adjjkmopp.  ",
".0|@#$$%&*0adjkmmoppp.  ",
".@@#$%&&*0adjkmopppp(.  ",
".q_0%&*00adjkmopppp:r.  ",
" ....................   ",
"                        ",
"                        ",
"                        "};
