/* XPM */
static const char * tb_LineRight_xpm[] = {
"15 15 3 1",
" 	c None",
".	c #A4A1A4",
"+	c #000000",
". . . . . . . +",
"              +",
".      .      +",
"              +",
".      .      +",
"              +",
".      .      +",
"  . . . . . . +",
".      .      +",
"              +",
".      .      +",
"              +",
".      .      +",
"              +",
". . . . . . . +"};
