/* XPM */
static const char * tb_lists_bullets_xpm[] = {
"24 24 57 1",
" 	c None",
".	c #000000",
"+	c #E2E2E2",
"@	c #F2F2F2",
"#	c #F3F3F3",
"$	c #F4F4F4",
"%	c #F5F5F5",
"&	c #F6F6F6",
"*	c #F7F7F7",
"=	c #DBDBDB",
"-	c #F0F0F0",
";	c #E0E0E0",
">	c #E1E1E1",
",	c #E3E3E3",
"'	c #E4E4E4",
")	c #E5E5E5",
"!	c #E6E6E6",
"~	c #E7E7E7",
"{	c #E8E8E8",
"]	c #E9E9E9",
"^	c #EAEAEA",
"/	c #EBEBEB",
"(	c #ECECEC",
"_	c #EDEDED",
":	c #EEEEEE",
"<	c #EFEFEF",
"[	c #F1F1F1",
"}	c #9E9E9E",
"|	c #6D6D6D",
"1	c #9F9F9F",
"2	c #6F6F6F",
"3	c #707070",
"4	c #717171",
"5	c #727272",
"6	c #737373",
"7	c #6E6E6E",
"8	c #A0A0A0",
"9	c #A1A1A1",
"0	c #747474",
"a	c #F8F8F8",
"b	c #F9F9F9",
"c	c #FAFAFA",
"d	c #C3C3C3",
"e	c #C4C4C4",
"f	c #757575",
"g	c #838383",
"h	c #767676",
"i	c #777777",
"j	c #787878",
"k	c #FBFBFB",
"l	c #FCFCFC",
"m	c #FDFDFD",
"n	c #C6C6C6",
"o	c #FEFEFE",
"p	c #FFFFFF",
"q	c #C9C9C9",
"r	c #BDBDBD",
" ....................   ",
".+@@@@###$$$%%%&&**$=.  ",
".-;;>+,')!~{{]^/(_:<_.  ",
".@>>+,')!~{]^^/(_:<-[.  ",
".@+,}|1!~233444556-[@.  ",
".#,'777~{]^/(__:<-[@#.  ",
".#')829{]344556660@#$.  ",
".#)!~{]]^/(_:<-:-[#$%.  ",
".$!~{]^^/455660@##$%&.  ",
".$~{]^/((_:<-[@#$%%&*.  ",
".%{]^/(_::<-[@#$%&**a.  ",
".%]^/(_:<--[@#$%&*aab.  ",
".%^/(_:<-[@@#$%&*abcc.  ",
".&/(d5e-[0fgfhhiijckl.  ",
".*__566[@#$%%&*abcklm.  ",
".*:<e6n@#fhhiiijjklmo.  ",
".a-[@@#$%&*abckklmopp.  ",
".a[@#$$%&*abcklmmoppp.  ",
".@@#$%&&*abcklmopppp(.  ",
".q_a%&*aabcklmopppp:r.  ",
" ....................   ",
"                        ",
"                        ",
"                        "};
