/* XPM */
static const char * tb_LineLeft_xpm[] = {
"15 15 3 1",
" 	c None",
".	c #000000",
"+	c #A4A1A4",
". + + + + + + +",
".              ",
".      +      +",
".              ",
".      +      +",
".              ",
".      +      +",
". + + + + + +  ",
".      +      +",
".              ",
".      +      +",
".              ",
".      +      +",
".              ",
". + + + + + + +"};
