/* XPM */
static const char * tb_MergeRight_xpm[] = {
"32 32 6 1",
" 	c None",
".	c #000000",
"+	c #FFFFFF",
"@	c #6B8D8D",
"#	c #26D8D8",
"$	c #1FAEAE",
"................................",
".+++++++++.+++++++++.++++++++++.",
".+++++++++.+++++++++.++++++++++.",
".+++++++++.+++++++++.++++++++++.",
".+++++++++.+++++++++.++++++++++.",
".+++++++++.+++++++++.++++++++++.",
".+++++++++.+++++++++.++++++++++.",
".+++++++++.+++++++++.++++++++++.",
".+++++++++.+++++++++.++++++++++.",
".+++++++++.+++++++++.++++++++++.",
"...........@@@@@@@@@@@@@@@@@@@@.",
".+++++++++.#########$##########.",
".+++++++++.#########$##########.",
".+++++++++.#########$##########.",
".+++++++++.#########$##########.",
".+++++++++.#########$##########.",
".+++++++++.#########$##########.",
".+++++++++.#########$##########.",
".+++++++++.#########$##########.",
".+++++++++.#########$##########.",
"...........@@@@@@@@@@@@@@@@@@@@.",
".+++++++++.+++++++++.++++++++++.",
".+++++++++.+++++++++.++++++++++.",
".+++++++++.+++++++++.++++++++++.",
".+++++++++.+++++++++.++++++++++.",
".+++++++++.+++++++++.++++++++++.",
".+++++++++.+++++++++.++++++++++.",
".+++++++++.+++++++++.++++++++++.",
".+++++++++.+++++++++.++++++++++.",
".+++++++++.+++++++++.++++++++++.",
".+++++++++.+++++++++.++++++++++.",
"................................"};
