/* XPM */
static char * tb_MergeBelow_xpm[] = {
"32 32 19 1",
" 	c None",
".	c #FFFFFF",
"+	c #606060",
"@	c #949494",
"#	c #5C5C5C",
"$	c #787878",
"%	c #959595",
"&	c #CACACA",
"*	c #5A5A5A",
"=	c #565656",
"-	c #909393",
";	c #727575",
">	c #757575",
",	c #708F8F",
"'	c #26D8D8",
")	c #1EABAB",
"!	c #415353",
"~	c #167D7D",
"{	c #116363",
"................................",
".+@@@@@@@@@#@@@@@@@@@$$@@@@@@@@@",
".%.........%.........&&.........",
".%.........%.........&&.........",
".%.........%.........&&.........",
".%.........%.........&&.........",
".%.........%.........&&.........",
".%.........%.........&&.........",
".%.........%.........&&.........",
".%.........%.........&&.........",
".%.........%.........&&.........",
".*@@@@@@@@@=---------;>@@@@@@@@@",
".%.........,''''''''')&.........",
".%.........,''''''''')&.........",
".%.........,''''''''')&.........",
".%.........,''''''''')&.........",
".%.........,''''''''')&.........",
".%.........,''''''''')&.........",
".%.........,''''''''')&.........",
".%.........,''''''''')&.........",
".%.........,''''''''')&.........",
".%.........,''''''''')&.........",
".*@@@@@@@@@!~~~~~~~~~{>@@@@@@@@@",
".%.........,''''''''')&.........",
".%.........,''''''''')&.........",
".%.........,''''''''')&.........",
".%.........,''''''''')&.........",
".%.........,''''''''')&.........",
".%.........,''''''''')&.........",
".%.........,''''''''')&.........",
".%.........,''''''''')&.........",
".%.........,''''''''')&........."};
