/* XPM */
static char * tb_MergeLeft_xpm[] = {
"32 32 26 1",
" 	c None",
".	c #AFAFAF",
"+	c #959595",
"@	c #8D8D8D",
"#	c #8C8C8C",
"$	c #838383",
"%	c #FFFFFF",
"&	c #CDCDCD",
"*	c #C7C7C7",
"=	c #A5A5A5",
"-	c #A0A0A0",
";	c #787878",
">	c #6F8686",
",	c #1EA8A8",
"'	c #188888",
")	c #178383",
"!	c #536E6E",
"~	c #747474",
"{	c #708E8E",
"]	c #26D8D8",
"^	c #1FAEAE",
"/	c #6B8D8D",
"(	c #7C8282",
"_	c #567272",
":	c #4F5656",
"<	c #575757",
".+++++++++@#+++++++++$+++++++++$",
"+%%%%%%%%%&*%%%%%%%%%+%%%%%%%%%+",
"+%%%%%%%%%&*%%%%%%%%%+%%%%%%%%%+",
"+%%%%%%%%%&*%%%%%%%%%+%%%%%%%%%+",
"+%%%%%%%%%&*%%%%%%%%%+%%%%%%%%%+",
"+%%%%%%%%%&*%%%%%%%%%+%%%%%%%%%+",
"+%%%%%%%%%&*%%%%%%%%%+%%%%%%%%%+",
"+%%%%%%%%%&*%%%%%%%%%+%%%%%%%%%+",
"+%%%%%%%%%&*%%%%%%%%%+%%%%%%%%%+",
"+%%%%%%%%%&*%%%%%%%%%+%%%%%%%%%+",
"@&&&&&&&&&=-&&&&&&&&&;&&&&&&&&&;",
">,,,,,,,,,'),,,,,,,,,!*********~",
"{]]]]]]]]]^,]]]]]]]]]/%%%%%%%%%+",
"{]]]]]]]]]^,]]]]]]]]]/%%%%%%%%%+",
"{]]]]]]]]]^,]]]]]]]]]/%%%%%%%%%+",
"{]]]]]]]]]^,]]]]]]]]]/%%%%%%%%%+",
"{]]]]]]]]]^,]]]]]]]]]/%%%%%%%%%+",
"{]]]]]]]]]^,]]]]]]]]]/%%%%%%%%%+",
"{]]]]]]]]]^,]]]]]]]]]/%%%%%%%%%+",
"{]]]]]]]]]^,]]]]]]]]]/%%%%%%%%%+",
"{]]]]]]]]]^,]]]]]]]]]/%%%%%%%%%+",
"(/////////_!/////////:+++++++++<",
"+%%%%%%%%%&*%%%%%%%%%+%%%%%%%%%+",
"+%%%%%%%%%&*%%%%%%%%%+%%%%%%%%%+",
"+%%%%%%%%%&*%%%%%%%%%+%%%%%%%%%+",
"+%%%%%%%%%&*%%%%%%%%%+%%%%%%%%%+",
"+%%%%%%%%%&*%%%%%%%%%+%%%%%%%%%+",
"+%%%%%%%%%&*%%%%%%%%%+%%%%%%%%%+",
"+%%%%%%%%%&*%%%%%%%%%+%%%%%%%%%+",
"+%%%%%%%%%&*%%%%%%%%%+%%%%%%%%%+",
"+%%%%%%%%%&*%%%%%%%%%+%%%%%%%%%+",
"$+++++++++;~+++++++++<+++++++++<"};
