/* XPM */
static char * tb_MergeAbove_xpm[] = {
"32 32 26 1",
" 	c None",
".	c #838383",
"+	c #959595",
"@	c #7C8282",
"#	c #708E8E",
"$	c #6F8686",
"%	c #8D8D8D",
"&	c #AFAFAF",
"*	c #FFFFFF",
"=	c #6B8D8D",
"-	c #26D8D8",
";	c #1EA8A8",
">	c #CDCDCD",
",	c #787878",
"'	c #567272",
")	c #1FAEAE",
"!	c #188888",
"~	c #A5A5A5",
"{	c #747474",
"]	c #C7C7C7",
"^	c #536E6E",
"/	c #178383",
"(	c #A0A0A0",
"_	c #8C8C8C",
":	c #575757",
"<	c #4F5656",
".+++++++++@#########$%+++++++++&",
"+*********=---------;>*********+",
"+*********=---------;>*********+",
"+*********=---------;>*********+",
"+*********=---------;>*********+",
"+*********=---------;>*********+",
"+*********=---------;>*********+",
"+*********=---------;>*********+",
"+*********=---------;>*********+",
"+*********=---------;>*********+",
",>>>>>>>>>')))))))))!~>>>>>>>>>%",
"{]]]]]]]]]^;;;;;;;;;/(]]]]]]]]]_",
"+*********=---------;>*********+",
"+*********=---------;>*********+",
"+*********=---------;>*********+",
"+*********=---------;>*********+",
"+*********=---------;>*********+",
"+*********=---------;>*********+",
"+*********=---------;>*********+",
"+*********=---------;>*********+",
"+*********=---------;>*********+",
":+++++++++<=========^,+++++++++.",
"+*********+*********]>*********+",
"+*********+*********]>*********+",
"+*********+*********]>*********+",
"+*********+*********]>*********+",
"+*********+*********]>*********+",
"+*********+*********]>*********+",
"+*********+*********]>*********+",
"+*********+*********]>*********+",
"+*********+*********]>*********+",
":+++++++++:+++++++++{,+++++++++."};
