/* XPM */
static const char * tb_merge_cells_xpm[] = {
"24 24 8 1",
" 	g None",
".	g #000000",
"+	g #FFFFFF",
"@	g #E4E4E4",
"#	g #ECECEC",
"$	g #B8B8B8",
"%	g #858585",
"&	g #E9E9E9",
"                        ",
"                        ",
"                        ",
"                        ",
"                        ",
"                        ",
"    ..................  ",
"    .++++++++@++++++@.  ",
"    .+#######$######$.  ",
"    .+#######$######$.  ",
"    .+#######$######$.  ",
"    .@$$$$$$$%$$$$$$%.  ",
"    .+#######$######$.  ",
"    .+#######$######$.  ",
"    .+#######$######$.  ",
"    .&$$$$$$$%$$$$$$%.  ",
"    ..................  ",
"                        ",
"                        ",
"                        ",
"                        ",
"                        ",
"                        ",
"                        "};
