/* XPM */
static char * tb_MergeRight_xpm[] = {
"32 32 17 1",
" 	c None",
".	c #838383",
"+	c #959595",
"@	c #6E6E6E",
"#	c #949494",
"$	c #FFFFFF",
"%	c #989898",
"&	c #FCFCFC",
"*	c #5B5B5B",
"=	c #969696",
"-	c #25D2D2",
";	c #26D5D5",
">	c #167F7F",
",	c #438585",
"'	c #26D8D8",
")	c #178181",
"!	c #438686",
".+++++++++@#++++++++#@+++++++++.",
"+$$$$$$$$$%&$$$$$$$$&%$$$$$$$$$+",
"+$$$$$$$$$%&$$$$$$$$&%$$$$$$$$$+",
"+$$$$$$$$$%&$$$$$$$$&%$$$$$$$$$+",
"+$$$$$$$$$%&$$$$$$$$&%$$$$$$$$$+",
"+$$$$$$$$$%&$$$$$$$$&%$$$$$$$$$+",
"+$$$$$$$$$%&$$$$$$$$&%$$$$$$$$$+",
"+$$$$$$$$$%&$$$$$$$$&%$$$$$$$$$+",
"+$$$$$$$$$%&$$$$$$$$&%$$$$$$$$$+",
"+$$$$$$$$$%&$$$$$$$$&%$$$$$$$$$+",
"@%%%%%%%%%*=%%%%%%%%=*%%%%%%%%%@",
"#&&&&&&&&&=-;;;;;;;;->;;;;;;;;;,",
"+$$$$$$$$$%;'''''''';)'''''''''!",
"+$$$$$$$$$%;'''''''';)'''''''''!",
"+$$$$$$$$$%;'''''''';)'''''''''!",
"+$$$$$$$$$%;'''''''';)'''''''''!",
"+$$$$$$$$$%;'''''''';)'''''''''!",
"+$$$$$$$$$%;'''''''';)'''''''''!",
"+$$$$$$$$$%;'''''''';)'''''''''!",
"+$$$$$$$$$%;'''''''';)'''''''''!",
"#&&&&&&&&&=-;;;;;;;;->;;;;;;;;;,",
"@%%%%%%%%%*=%%%%%%%%=*%%%%%%%%%@",
"+$$$$$$$$$%&$$$$$$$$&%$$$$$$$$$+",
"+$$$$$$$$$%&$$$$$$$$&%$$$$$$$$$+",
"+$$$$$$$$$%&$$$$$$$$&%$$$$$$$$$+",
"+$$$$$$$$$%&$$$$$$$$&%$$$$$$$$$+",
"+$$$$$$$$$%&$$$$$$$$&%$$$$$$$$$+",
"+$$$$$$$$$%&$$$$$$$$&%$$$$$$$$$+",
"+$$$$$$$$$%&$$$$$$$$&%$$$$$$$$$+",
"+$$$$$$$$$%&$$$$$$$$&%$$$$$$$$$+",
"+$$$$$$$$$%&$$$$$$$$&%$$$$$$$$$+",
".+++++++++@#++++++++#@+++++++++."};
