/* XPM */
static char * tb_new_xpm[] = {
"24 24 125 2",
"  	c None",
". 	c #000000",
"+ 	c #FFFFFF",
"@ 	c #E0E0E0",
"# 	c #C1C1C1",
"$ 	c #FDFDFD",
"% 	c #FBFBFB",
"& 	c #FAFAF9",
"* 	c #C3C3C3",
"= 	c #A8A8A8",
"- 	c #FCFCFC",
"; 	c #FAFAFA",
"> 	c #F9F9F8",
", 	c #F7F7F6",
"' 	c #ADADAD",
") 	c #767676",
"! 	c #5D5D5D",
"~ 	c #404040",
"{ 	c #FEFEFE",
"] 	c #FBFBFA",
"^ 	c #F9F9F9",
"/ 	c #F7F7F7",
"( 	c #F6F6F5",
"_ 	c #F4F4F4",
": 	c #E2E2E2",
"< 	c #858585",
"[ 	c #4B4B49",
"} 	c #161616",
"| 	c #FDFDFC",
"1 	c #F8F8F7",
"2 	c #F6F6F6",
"3 	c #F5F5F4",
"4 	c #F3F3F2",
"5 	c #F2F2F1",
"6 	c #F0F0EF",
"7 	c #EEEEED",
"8 	c #EDEDEB",
"9 	c #9D9D9D",
"0 	c #F8F8F8",
"a 	c #F4F4F3",
"b 	c #EFEFEE",
"c 	c #EDEDEC",
"d 	c #ECECEA",
"e 	c #EAEAE8",
"f 	c #A4A4A3",
"g 	c #F5F5F5",
"h 	c #F1F1F0",
"i 	c #EEEEEC",
"j 	c #ECECEB",
"k 	c #EAEAE9",
"l 	c #E9E9E7",
"m 	c #E7E7E6",
"n 	c #A4A4A4",
"o 	c #F0F0EE",
"p 	c #EBEBE9",
"q 	c #E9E9E8",
"r 	c #E8E8E6",
"s 	c #E6E6E4",
"t 	c #E5E5E3",
"u 	c #A2A2A2",
"v 	c #EBEBEA",
"w 	c #E7E7E5",
"x 	c #E3E3E1",
"y 	c #E2E2E0",
"z 	c #E4E4E2",
"A 	c #E1E1DE",
"B 	c #DFDFDD",
"C 	c #A3A3A2",
"D 	c #E3E3E0",
"E 	c #E1E1DF",
"F 	c #E0E0DD",
"G 	c #DEDEDB",
"H 	c #DCDCDA",
"I 	c #E0E0DE",
"J 	c #DEDEDC",
"K 	c #DDDDDA",
"L 	c #DBDBD8",
"M 	c #DADAD7",
"N 	c #A0A09F",
"O 	c #DFDFDC",
"P 	c #DDDDDB",
"Q 	c #DCDCD9",
"R 	c #D8D8D5",
"S 	c #D7D7D4",
"T 	c #A2A2A1",
"U 	c #DADAD8",
"V 	c #D9D9D6",
"W 	c #D6D6D2",
"X 	c #D4D4D1",
"Y 	c #D6D6D3",
"Z 	c #D5D5D1",
"` 	c #D3D3D0",
" .	c #D1D1CE",
"..	c #A1A1A0",
"+.	c #D5D5D2",
"@.	c #D2D2CE",
"#.	c #D0D0CD",
"$.	c #CFCFCB",
"%.	c #D4D4D0",
"&.	c #D2D2CF",
"*.	c #D1D1CD",
"=.	c #CDCDCA",
"-.	c #CCCCC8",
";.	c #D3D3CF",
">.	c #CFCFCC",
",.	c #CECECA",
"'.	c #CCCCC7",
").	c #A2A2A0",
"!.	c #D0D0CC",
"~.	c #CDCDC9",
"{.	c #9F9F9F",
"].	c #D0D0D0",
"^.	c #B1B1AF",
"/.	c #B4B4B3",
"(.	c #B4B4B1",
"_.	c #A0A09D",
":.	c #9F9F9D",
"<.	c #9F9F9B",
"[.	c #999995",
"}.	c #8D8D89",
"|.	c #8B8B89",
"1.	c #898989",
"2.	c #83837F",
"3.	c #848482",
"4.	c #5D5D5C",
"                                                ",
"    . . . . . . . . . . . . . . . . . .         ",
"    . + + + + + + + + + + + + + + + @ # .       ",
"    . + + + + + + + + + + + + $ % & * % = .     ",
"    . + + + + + + + + + + $ - ; > , ' ) ! ~ .   ",
"    . + + + + + + + + { - ] ^ / ( _ : < [ } .   ",
"    . + + + + + + { | % ^ 1 2 3 4 5 6 7 8 9 .   ",
"    . + + + + + $ % & 0 , 3 a 5 6 b c d e f .   ",
"    . + + + $ - ; > , g a 5 h b i j k l m n .   ",
"    . + { - ] ^ / ( _ 4 h o 7 j p q r s t u .   ",
"    . + % ^ 1 2 3 4 5 6 7 8 v e r w t x y u .   ",
"    . + 0 , 3 a 5 6 b c d e l w t z y A B C .   ",
"    . + g a 5 h b i j k l m s z D E F G H C .   ",
"    . + 4 h o 7 j p q r s t x E I J K L M N .   ",
"    . + 6 7 8 v e r w t x y I O P Q M R S T .   ",
"    . + c d e l w t z y A B G Q U V S W X T .   ",
"    . + k l m s z D E F G H L V R Y Z `  ....   ",
"    . + r s t x E I J K L M R Y +.` @.#.$.N .   ",
"    . + t x y I O P Q M R S +.%.&.*.$.=.-.T .   ",
"    . + y A B G Q U V S W X ;.*.>.,.-.'.'.)..   ",
"    . + F G H L V R Y Z `  .!.,.~.'.'.'.'.{..   ",
"    . + K L M R Y +.` @.#.$.~.'.'.'.'.'.'.N .   ",
"    . ].^./.(._._.:.:.<.[.}.|.|.|.1.1.2.3.4..   ",
"    . . . . . . . . . . . . . . . . . . . .     "};
