/* XPM */
static char * tb_paste_xpm[] = {
"24 24 125 2",
"  	c None",
". 	c #000000",
"+ 	c #B9B9B9",
"@ 	c #FEFEFE",
"# 	c #F9F9F9",
"$ 	c #757575",
"% 	c #F5F5E8",
"& 	c #565651",
"* 	c #FFFFFF",
"= 	c #A0A0A0",
"- 	c #939393",
"; 	c #7C7C7C",
"> 	c #CFC6A0",
", 	c #D7CEAA",
"' 	c #4B483C",
") 	c #6D6D6D",
"! 	c #6C6C6C",
"~ 	c #A9A9A9",
"{ 	c #3D3A30",
"] 	c #979178",
"^ 	c #8A793D",
"/ 	c #C3BB9A",
"( 	c #444236",
"_ 	c #FAFAFA",
": 	c #EFEFEF",
"< 	c #C7C7C7",
"[ 	c #D8D8D8",
"} 	c #D2D2D2",
"| 	c #7B7B7B",
"1 	c #302E26",
"2 	c #89846C",
"3 	c #C4BC9A",
"4 	c #847235",
"5 	c #C5C5C5",
"6 	c #A7A7A7",
"7 	c #ADADAD",
"8 	c #9A9A9A",
"9 	c #9B9B9B",
"0 	c #868686",
"a 	c #424242",
"b 	c #847033",
"c 	c #C9C09E",
"d 	c #464337",
"e 	c #35332A",
"f 	c #2D2B23",
"g 	c #C6BE9D",
"h 	c #826F33",
"i 	c #9E977D",
"j 	c #4C493C",
"k 	c #171612",
"l 	c #13120F",
"m 	c #3E3B31",
"n 	c #282210",
"o 	c #474438",
"p 	c #B3B3B3",
"q 	c #D6D6D6",
"r 	c #B7AE90",
"s 	c #B1AA8C",
"t 	c #37352B",
"u 	c #151410",
"v 	c #C9C9C9",
"w 	c #E5E5E5",
"x 	c #C6C6C6",
"y 	c #B9B293",
"z 	c #11100D",
"A 	c #313131",
"B 	c #B3D2BA",
"C 	c #7BA676",
"D 	c #618159",
"E 	c #434035",
"F 	c #8D8D8D",
"G 	c #B4B4B4",
"H 	c #2E2E2E",
"I 	c #AFD2B6",
"J 	c #79A674",
"K 	c #62825A",
"L 	c #888888",
"M 	c #BABABA",
"N 	c #AAA48B",
"O 	c #A5A086",
"P 	c #A19A7F",
"Q 	c #312F26",
"R 	c #AED2B6",
"S 	c #78A672",
"T 	c #608158",
"U 	c #DEDEDE",
"V 	c #252525",
"W 	c #1D1D1D",
"X 	c #3E3E3E",
"Y 	c #AFD2B7",
"Z 	c #545454",
"` 	c #383838",
" .	c #AFA88C",
"..	c #050403",
"+.	c #3D3D3D",
"@.	c #688C60",
"#.	c #6B9061",
"$.	c #83A07A",
"%.	c #464646",
"&.	c #12110E",
"*.	c #ABABAB",
"=.	c #484848",
"-.	c #B1D2B8",
";.	c #ACD2B4",
">.	c #618458",
",.	c #618057",
"'.	c #2B2B2B",
").	c #A9A489",
"!.	c #A39E85",
"~.	c #B0D2B7",
"{.	c #57734A",
"].	c #212121",
"^.	c #797979",
"/.	c #EBE7D0",
"(.	c #282828",
"_.	c #7AA674",
":.	c #222222",
"<.	c #C0C0C0",
"[.	c #D2C9A5",
"}.	c #A29053",
"|.	c #8E7C3D",
"1.	c #88793B",
"2.	c #806C2F",
"3.	c #78652B",
"4.	c #251F0C",
"                                                ",
"                . . . .                         ",
"    . . . . . . + @ # $ . . . . . .             ",
"  . % % % % % & * = - ; & % % % % > .           ",
"  . % , , , , ' * ) ! ~ { ] , , , ^ .           ",
"  . % / / / ( _ : < [ } | 1 2 / 3 4 .           ",
"  . % , , ' 5 6 6 7 8 9 0 a ' , , b .           ",
"  . % c / 2 d e f f f f f 1 2 / g h .           ",
"  . % , , , ] ] ] ] ] ] ] ] , , , h .           ",
"  . % c / / / / i j k l l l l { m n . . . .     ",
"  . % , , , , , o p * * * * * * * * * * * q .   ",
"  . % r s s s s t * * * * * * * * * * * * * .   ",
"  . % , , , , , u * 6 v w . . . . . * v x * .   ",
"  . % y s s s s z * * * * A B C D . < * * * .   ",
"  . % , , , , , E * F G * H I J K . L M * * .   ",
"  . % N O P P P Q * * * * H R S T . 9 * * * .   ",
"  . % , , , , , E * U V W X Y S K . Z ` v * .   ",
"  . %  .O P P P ..* * +.Y B I S @.#.$.%.9 * .   ",
"  . % , , , , , &.* + *.=.-.;.S >.,.'.0 < * .   ",
"  . % ).!.P P P Q * * * < =.~.S {.].^.< * * .   ",
"  . /., , , , , E * 6 v w < (._.:.L x <.6 * .   ",
"  . [.}.|.1.2.3.4.* * * * * < ` 9 < * * * * .   ",
"    . . . . . . . q * * * * * * * * * * * q .   ",
"                  . . . . . . . . . . . . .     "};
