/* XPM */
static const char * tb_paste_xpm[] = {
"24 24 129 2",
"  	c None",
". 	c #000000",
"+ 	c #B9B9B9",
"@ 	c #FEFEFE",
"# 	c #F9F9F9",
"$ 	c #757575",
"% 	c #F5F5E8",
"& 	c #565651",
"* 	c #FFFFFF",
"= 	c #A0A0A0",
"- 	c #939393",
"; 	c #7C7C7C",
"> 	c #C5C5BB",
", 	c #CFC6A0",
"' 	c #D7CEAA",
") 	c #ADA689",
"! 	c #4B483C",
"~ 	c #6D6D6D",
"{ 	c #6C6C6C",
"] 	c #A9A9A9",
"^ 	c #3D3A30",
"/ 	c #979178",
"( 	c #C1B898",
"_ 	c #8A793D",
": 	c #C3BB9A",
"< 	c #AFA78A",
"[ 	c #444236",
"} 	c #FAFAFA",
"| 	c #EFEFEF",
"1 	c #C7C7C7",
"2 	c #D8D8D8",
"3 	c #D2D2D2",
"4 	c #7B7B7B",
"5 	c #302E26",
"6 	c #89846C",
"7 	c #C4BC9A",
"8 	c #847235",
"9 	c #C5C5C5",
"0 	c #A7A7A7",
"a 	c #ADADAD",
"b 	c #9A9A9A",
"c 	c #9B9B9B",
"d 	c #868686",
"e 	c #424242",
"f 	c #847033",
"g 	c #C9C09E",
"h 	c #464337",
"i 	c #35332A",
"j 	c #2D2B23",
"k 	c #C6BE9D",
"l 	c #826F33",
"m 	c #7F7964",
"n 	c #4C493C",
"o 	c #171612",
"p 	c #13120F",
"q 	c #3E3B31",
"r 	c #282210",
"s 	c #474438",
"t 	c #B3B3B3",
"u 	c #D6D6D6",
"v 	c #B7AE90",
"w 	c #B1AA8C",
"x 	c #37352B",
"y 	c #151410",
"z 	c #C9C9C9",
"A 	c #E5E5E5",
"B 	c #C6C6C6",
"C 	c #B9B293",
"D 	c #11100D",
"E 	c #313131",
"F 	c #B3D2BA",
"G 	c #7BA676",
"H 	c #618159",
"I 	c #434035",
"J 	c #8D8D8D",
"K 	c #B4B4B4",
"L 	c #2E2E2E",
"M 	c #AFD2B6",
"N 	c #79A674",
"O 	c #62825A",
"P 	c #888888",
"Q 	c #BABABA",
"R 	c #AAA48B",
"S 	c #A5A086",
"T 	c #A19A7F",
"U 	c #312F26",
"V 	c #AED2B6",
"W 	c #78A672",
"X 	c #608158",
"Y 	c #DEDEDE",
"Z 	c #252525",
"` 	c #1D1D1D",
" .	c #3E3E3E",
"..	c #AFD2B7",
"+.	c #545454",
"@.	c #383838",
"#.	c #AFA88C",
"$.	c #050403",
"%.	c #3D3D3D",
"&.	c #688C60",
"*.	c #6B9061",
"=.	c #83A07A",
"-.	c #464646",
";.	c #12110E",
">.	c #ABABAB",
",.	c #484848",
"'.	c #B1D2B8",
").	c #ACD2B4",
"!.	c #618458",
"~.	c #618057",
"{.	c #2B2B2B",
"].	c #A9A489",
"^.	c #A39E85",
"/.	c #B0D2B7",
"(.	c #57734A",
"_.	c #212121",
":.	c #797979",
"<.	c #EBE7D0",
"[.	c #282828",
"}.	c #7AA674",
"|.	c #222222",
"1.	c #C0C0C0",
"2.	c #D2C9A5",
"3.	c #A29053",
"4.	c #8E7C3D",
"5.	c #88793B",
"6.	c #806C2F",
"7.	c #78652B",
"8.	c #251F0C",
"              . . . .                           ",
"  . . . . . . + @ # $ . . . . . .               ",
". % % % % % & * = - ; & > % % % , .             ",
". % ' ' ' ) ! * ~ { ] ^ / ( ' ' _ .             ",
". % : : < [ } | 1 2 3 4 5 6 < 7 8 .             ",
". % ' ' ! 9 0 0 a b c d e ! ) ' f .             ",
". % g : 6 h i j j j j j 5 6 < k l .             ",
". % ' ' ' / / / / / / / / ( ' ' l .             ",
". % g : : : : m n o p p p p ^ q r . . . .       ",
". % ' ' ' ' ' s t * * * * * * * * * * * u .     ",
". % v w w w w x * * * * * * * * * * * * * .     ",
". % ' ' ' ' ' y * 0 z A . . . . . * z B * .     ",
". % C w w w w D * * * * E F G H . 1 * * * .     ",
". % ' ' ' ' ' I * J K * L M N O . P Q * * .     ",
". % R S T T T U * * * * L V W X . c * * * .     ",
". % ' ' ' ' ' I * Y Z `  ...W O . +.@.z * .     ",
". % #.S T T T $.* * %...F M W &.*.=.-.c * .     ",
". % ' ' ' ' ' ;.* + >.,.'.).W !.~.{.d 1 * .     ",
". % ].^.T T T U * * * 1 ,./.W (._.:.1 * * .     ",
". <.' ' ' ' ' I * 0 z A 1 [.}.|.P B 1.0 * .     ",
". 2.3.4.5.6.7.8.* * * * * 1 @.c 1 * * * * .     ",
"  . . . . . . . u * * * * * * * * * * * u .     ",
"                . . . . . . . . . . . . .       ",
"                                                "};
