/* XPM */
static char * tb_print_preview_xpm[] = {
"24 24 184 2",
"  	c None",
". 	c #000000",
"+ 	c #171719",
"@ 	c #F6F6F4",
"# 	c #CDCDCD",
"$ 	c #646464",
"% 	c #161617",
"& 	c #1D1E4E",
"* 	c #0000E7",
"= 	c #000057",
"- 	c #00005E",
"; 	c #00008B",
"> 	c #1414F0",
", 	c #C4C4C3",
"' 	c #464646",
") 	c #0A0A93",
"! 	c #2425E7",
"~ 	c #6869F3",
"{ 	c #CACCE5",
"] 	c #B8B9EB",
"^ 	c #969AE8",
"/ 	c #4249F1",
"( 	c #2626EA",
"_ 	c #D5D4E3",
": 	c #E4E3DF",
"< 	c #A5A29E",
"[ 	c #2B2DD5",
"} 	c #484AEC",
"| 	c #AFB1EC",
"1 	c #E9EAED",
"2 	c #BABCEE",
"3 	c #A2A5ED",
"4 	c #7578EC",
"5 	c #0000EC",
"6 	c #8486E7",
"7 	c #B3B2D3",
"8 	c #131314",
"9 	c #0000D4",
"0 	c #666AF0",
"a 	c #9FA2EF",
"b 	c #EFF4EB",
"c 	c #E8E6EB",
"d 	c #B0B3EB",
"e 	c #A0A7EB",
"f 	c #999EEB",
"g 	c #4B4FF3",
"h 	c #0000E1",
"i 	c #3C3EB4",
"j 	c #D0D0D0",
"k 	c #00003B",
"l 	c #B7B8D4",
"m 	c #ECEDF0",
"n 	c #FEFEEA",
"o 	c #9DA0EB",
"p 	c #9499EB",
"q 	c #8C94EA",
"r 	c #8088EA",
"s 	c #757CFA",
"t 	c #000086",
"u 	c #1B1B62",
"v 	c #CBCBCB",
"w 	c #E9E9E9",
"x 	c #EDEDED",
"y 	c #000058",
"z 	c #A5A6DC",
"A 	c #CED0F1",
"B 	c #DBE1EB",
"C 	c #8F92EB",
"D 	c #8A8EEB",
"E 	c #7D82EB",
"F 	c #6A70EB",
"G 	c #666EFB",
"H 	c #000088",
"I 	c #3C3B83",
"J 	c #6E6E6E",
"K 	c #8D8D8D",
"L 	c #B7B7B7",
"M 	c #EBEBEB",
"N 	c #FAFAFA",
"O 	c #F5F5F5",
"P 	c #0000BF",
"Q 	c #696BEB",
"R 	c #9095EE",
"S 	c #BBC0EB",
"T 	c #898FEB",
"U 	c #7B7FEB",
"V 	c #7178EC",
"W 	c #636AF4",
"X 	c #484CFF",
"Y 	c #0000E4",
"Z 	c #4B4BB7",
"` 	c #494949",
" .	c #2E2E2E",
"..	c #ACACAC",
"+.	c #AAAAAA",
"@.	c #A8A8A8",
"#.	c #BBBBBB",
"$.	c #E1E1E1",
"%.	c #4B4EF0",
"&.	c #4347EE",
"*.	c #5556EC",
"=.	c #949BEC",
"-.	c #8B90ED",
";.	c #7379ED",
">.	c #676EEF",
",.	c #565CFF",
"'.	c #2423A4",
").	c #0000BA",
"!.	c #393896",
"~.	c #363636",
"{.	c #3A3A3A",
"].	c #B3B3B3",
"^.	c #B1B1B1",
"/.	c #AFAFAF",
"(.	c #A9A9A9",
"_.	c #4545E3",
":.	c #0D0DEB",
"<.	c #4B50F3",
"[.	c #8A8DF0",
"}.	c #7075F5",
"|.	c #5D60F5",
"1.	c #3137EE",
"2.	c #3D3B30",
"3.	c #474747",
"4.	c #414141",
"5.	c #696969",
"6.	c #A1A1A1",
"7.	c #B4B4B4",
"8.	c #B2B2B2",
"9.	c #A2A2A2",
"0.	c #8F90B9",
"a.	c #000059",
"b.	c #00005F",
"c.	c #00008F",
"d.	c #0000FE",
"e.	c #444AFF",
"f.	c #0B0C44",
"g.	c #050505",
"h.	c #3B3B3B",
"i.	c #666666",
"j.	c #636363",
"k.	c #A3A3A3",
"l.	c #ADADAD",
"m.	c #ABABAB",
"n.	c #AAAAAB",
"o.	c #ADAEB4",
"p.	c #909090",
"q.	c #565658",
"r.	c #56565E",
"s.	c #010101",
"t.	c #0A0A0A",
"u.	c #5B5B5B",
"v.	c #4B4B4B",
"w.	c #4A4A4A",
"x.	c #606060",
"y.	c #868686",
"z.	c #A0A0A0",
"A.	c #9E9E9E",
"B.	c #7F7F7F",
"C.	c #373737",
"D.	c #3D3D3D",
"E.	c #1A1A1A",
"F.	c #161616",
"G.	c #101010",
"H.	c #4D4D4D",
"I.	c #505050",
"J.	c #555555",
"K.	c #4F4F4F",
"L.	c #454545",
"M.	c #4E4E4E",
"N.	c #616161",
"O.	c #7B7B7B",
"P.	c #393939",
"Q.	c #2D2D2D",
"R.	c #353535",
"S.	c #252525",
"T.	c #717171",
"U.	c #6F6F6F",
"V.	c #404040",
"W.	c #313131",
"X.	c #484848",
"Y.	c #707070",
"Z.	c #727272",
"`.	c #3E3E3E",
"                                                ",
"                                                ",
"                                                ",
"                        . .                     ",
"                      + @ # $ % .               ",
"                    & * = - ; > , ' . . .       ",
"                  ) ! ~ { ] ^ / ( _ : < .       ",
"                  [ } | 1 2 3 4 5 6 7 .         ",
"              8 9 0 a b c d e f g h i           ",
"          . . j k l m n o p q r s t u .         ",
"      . . v w x y z A B C D E F G H I J . .     ",
"    . K L M N O P Q R S T U V W X Y Z `  ..     ",
"    . ..+.@.#.$.%.&.*.=.-.;.>.,.'.).!.~.{..     ",
"    . ].^./.(.@.(._.:.<.[.}.|.1.. . 2.3.4..     ",
"    . 5.6.L 7.8.+.9.0.* a.b.c.d.e.f.. g.h..     ",
"    . i.3.j.k.l.m.(.n.o.k.p.q.r.. . . s.t..     ",
"    . u.u.v.' w.x.y.9.z.A.B.C.D.E.F.G.. . .     ",
"      . . H.I.J.K.' L.M.N.O.P.h.Q.R.S.. . . .   ",
"          . . . 4.u.J.$ T.U.V.W.C.. .   . . . . ",
"                . . . X.Y.Z.{.`..         . . . ",
"                      . . . . .                 ",
"                                                ",
"                                                ",
"                                                "};
