/* XPM */
static const char * tb_print_xpm[] = {
"24 24 138 2",
"  	c None",
". 	c #000000",
"+ 	c #BABABA",
"@ 	c #FFFFFF",
"# 	c #F6F6F6",
"$ 	c #8D8D8D",
"% 	c #A6A6A6",
"& 	c #B5B5B5",
"* 	c #DADADA",
"= 	c #838383",
"- 	c #7A7A7A",
"; 	c #797979",
"> 	c #9F9F9F",
", 	c #5C5C5C",
"' 	c #878787",
") 	c #7D7D7D",
"! 	c #9A9A9A",
"~ 	c #A7A7A7",
"{ 	c #EDEDED",
"] 	c #E9E9E9",
"^ 	c #949494",
"/ 	c #999999",
"( 	c #E4E4E4",
"_ 	c #A1A1A1",
": 	c #C2C2C2",
"< 	c #E1E1E1",
"[ 	c #C8C8C8",
"} 	c #CCCCCC",
"| 	c #87847C",
"1 	c #EAE8E3",
"2 	c #8D8982",
"3 	c #53524C",
"4 	c #807D74",
"5 	c #AAA9A5",
"6 	c #BAB5AB",
"7 	c #F3F3F3",
"8 	c #C3C1BD",
"9 	c #8B8B89",
"0 	c #E6E5E1",
"a 	c #F9F9F8",
"b 	c #FAFAF9",
"c 	c #F9F9F7",
"d 	c #F7F6F5",
"e 	c #F7F7F4",
"f 	c #F6F5F4",
"g 	c #F2F1EE",
"h 	c #F0EFEC",
"i 	c #E5E5E4",
"j 	c #DFDED9",
"k 	c #A4A3A1",
"l 	c #6C6B6A",
"m 	c #F5F4F3",
"n 	c #BEBEBE",
"o 	c #D5D5D5",
"p 	c #B6B6B6",
"q 	c #D3D3D3",
"r 	c #D4D4D3",
"s 	c #B7B7B7",
"t 	c #D4D4D4",
"u 	c #A9A9A9",
"v 	c #CDCDCB",
"w 	c #B5B5B4",
"x 	c #DCDAD3",
"y 	c #6B6B6A",
"z 	c #999896",
"A 	c #918F87",
"B 	c #999895",
"C 	c #E6E4E1",
"D 	c #F0EEEC",
"E 	c #FAFAFA",
"F 	c #FAF9F9",
"G 	c #F9F8F7",
"H 	c #F8F7F6",
"I 	c #F8F8F7",
"J 	c #F4F3F1",
"K 	c #F2F1EF",
"L 	c #565655",
"M 	c #858482",
"N 	c #9C9B99",
"O 	c #6B6A68",
"P 	c #585858",
"Q 	c #5E5C57",
"R 	c #524F4B",
"S 	c #4A4845",
"T 	c #4B4A46",
"U 	c #4B4946",
"V 	c #4A4844",
"W 	c #494743",
"X 	c #484642",
"Y 	c #474541",
"Z 	c #464440",
"` 	c #514F4B",
" .	c #53514E",
"..	c #7B7A77",
"+.	c #797771",
"@.	c #949391",
"#.	c #989694",
"$.	c #868480",
"%.	c #6E6C66",
"&.	c #706D67",
"*.	c #5C5955",
"=.	c #67645F",
"-.	c #5B5954",
";.	c #585651",
">.	c #5D5B56",
",.	c #595652",
"'.	c #53504C",
").	c #575450",
"!.	c #595752",
"~.	c #5C5956",
"{.	c #5B5956",
"].	c #61615E",
"^.	c #696861",
"/.	c #77756F",
"(.	c #7E7B77",
"_.	c #979690",
":.	c #96938D",
"<.	c #807E77",
"[.	c #7D7A74",
"}.	c #787770",
"|.	c #716F6A",
"1.	c #6E6C67",
"2.	c #595753",
"3.	c #63615C",
"4.	c #686661",
"5.	c #6F6E68",
"6.	c #6D6C66",
"7.	c #72716B",
"8.	c #76746F",
"9.	c #6A6963",
"0.	c #8B8880",
"a.	c #B2AFA8",
"b.	c #B6B3AD",
"c.	c #BFBDB6",
"d.	c #BDBBB4",
"e.	c #B0AEA6",
"f.	c #ABA8A2",
"g.	c #9C9991",
"                                                ",
"            . . . . . . . . . . . .             ",
"          . + @ @ @ @ @ @ @ @ @ @ + .           ",
"          . @ @ @ @ @ @ @ @ @ @ @ # .           ",
"          . @ $ % & @ * @ @ @ @ @ # .           ",
"          . @ @ @ @ @ @ @ @ @ @ @ # .           ",
"          . @ = - % @ ; > * + , @ # .           ",
"          . @ @ @ @ @ @ @ @ @ @ @ # .           ",
"          . @ ' ) ! > * @ * ~ * @ # .           ",
"          . # # # # # # # # # # # { .           ",
"        . . ] ^ / % ( ^ _ ( % : ( < . .         ",
"      . @ . [ } } } } } } } } } [ : . | .       ",
"    . @ 1 2 3 . . . . . . . . . . 4 | 5 6 .     ",
"  . @ @ 7 @ @ @ @ @ @ @ @ @ @ @ @ @ @ @ @ 1 .   ",
"  . 8 9 0 a b a c d e b b f g g h i 1 > j 6 .   ",
"  . k l m n o p q p r s t u q & v w x y z A .   ",
"  . B y C D d a E F a G H I I J J J K L M A .   ",
"  . N O P Q R S T U U U V W X Y W Z `  ...+..   ",
"  . @.#.$.%.&.*.=.-.;.-.>.,.'.).!.~.{.].^./..   ",
"  . (._.:.A <.[.}./.|./.|.1.2.3.4.5.6.7.8.9..   ",
"    . . . . . . . . . . . . . . . . . . . .     ",
"    . 0.a.b.c.c.c.c.c.d.e.a.f.e.g.g.g.4 4 .     ",
"      . . . . . . . . . . . . . . . . . .       ",
"                                                "};
