/* XPM */
static const char * tb_para_12before_xpm[] = {
"24 24 40 1",
" 	c None",
".	c #000000",
"+	c #E2E2E2",
"@	c #F2F2F2",
"#	c #F3F3F3",
"$	c #F4F4F4",
"%	c #F5F5F5",
"&	c #F6F6F6",
"*	c #F7F7F7",
"=	c #DBDBDB",
"-	c #F0F0F0",
";	c #E0E0E0",
">	c #E1E1E1",
",	c #E3E3E3",
"'	c #E4E4E4",
")	c #E5E5E5",
"!	c #E6E6E6",
"~	c #E7E7E7",
"{	c #E8E8E8",
"]	c #E9E9E9",
"^	c #EAEAEA",
"/	c #EBEBEB",
"(	c #ECECEC",
"_	c #EDEDED",
":	c #EEEEEE",
"<	c #EFEFEF",
"[	c #F1F1F1",
"}	c #4C4C4C",
"|	c #F8F8F8",
"1	c #F9F9F9",
"2	c #FAFAFA",
"3	c #FBFBFB",
"4	c #FCFCFC",
"5	c #FDFDFD",
"6	c #FEFEFE",
"7	c #FFFFFF",
"8	c #D9D9D9",
"9	c #C9C9C9",
"0	c #DADADA",
"a	c #BDBDBD",
" ....................   ",
".+@@@@###$$$%%%&&**$=.  ",
".-;;>+,')!~{{]^/(_:<,.  ",
".@>>+,')!~{]^^/(_:<-~.  ",
".@+,,')!~{]^/((_:<-[{.  ",
".#,')}!~{]^/(__:}^[@].  ",
".#')!}~^]^/(_:<<}[@#^.  ",
".#)!~}^]^/(_:<-[}@#$/.  ",
".$!~{}}}}}}}}}}}}#$%(.  ",
".$~{]^^/(_:<-[@#$%%&_.  ",
".%{]^//(_:<@[@#$%%&*:.  ",
".%]^//(_:<@[@#$%%&||<.  ",
".%^/((_:<[@@[@%%&|12-.  ",
".&/(_}}}}}}}}}}}}123@.  ",
".*__:}-[@#$%%&*|}234#.  ",
".*:<<}[@#$%&**|1}345$.  ",
".|-[@}#$%&*|1233}467%.  ",
".|[@#$$%&*|123455667%.  ",
".@@#$%&&*|12345677778.  ",
".90:/(_::<-[@#$%%%%'a.  ",
" ....................   ",
"                        ",
"                        ",
"                        "};
