/* XPM */
static char * tb_para_0before_xpm[] = {
"24 24 2 1",
" 	c None",
".	c #000000",
"                        ",
"                        ",
"                        ",
"                        ",
"                        ",
"                        ",
"    .               .   ",
"    .               .   ",
"    .               .   ",
"    .               .   ",
"    .................   ",
"                        ",
"                        ",
"                        ",
"    .................   ",
"    .               .   ",
"    .               .   ",
"    .               .   ",
"    .               .   ",
"                        ",
"                        ",
"                        ",
"                        ",
"                        "};
