/* XPM */
static const char *tb_revision_find_next_xpm[] = {
"24 24 2 1 0 0",
"  c #000000",
"! c None",
"!!!!!!!!!!!!!!!! !!!!!!!",
"!!!!!!!!!!!!!!!!! !!!!!!",
"!!!!!!!!           !!!!!",
"!!!!!!!!           !!!!!",
"!!!!!!!!!!!!!!!!! !!!!!!",
"!!!!!!!!!!!!!!!! !!!!!!!",
"!!!!!!!       !!!!!!!!!!",
"!!!!!!!  !!!!  !!!!!!!!!",
"!!!!!!!  !!!!!  !!!!!!!!",
"!!!!!!!  !!!!!  !!!!!!!!",
"!!!!!!!  !!!!!  !!!!!!!!",
"!!!!!!!  !!!!  !!!!!!!!!",
"!!!!!!!       !!!!!!!!!!",
"!!!!!!!  !!!  !!!!!!!!!!",
"!!!!!!!  !!!!  !!!!!!!!!",
"!!!!!!!  !!!!!  !!!!!!!!",
"!!!!!!!  !!!!!  !!!!!!!!",
"!!!!!!!  !!!!!!  !!!!!!!",
"!!!!!!!  !!!!!!  !!!!!!!",
"!!!!!!!!!!!!!!!!!!!!!!!!",
"!!!!!!!!!!!!!!!!!!!!!!!!",
"!!!!!!!!!!!!!!!!!!!!!!!!",
"!!!!!!!!!!!!!!!!!!!!!!!!",
"!!!!!!!!!!!!!!!!!!!!!!!!"
};
