/* XPM */
static const char * tb_remove_graphic_xpm[] = {
"24 24 25 1",
" 	c None",
".	c #FC0505",
"+	c #000000",
"@	c #C8B986",
"#	c #F0DFA2",
"$	c #F2E1A4",
"%	c #BDAC6F",
"&	c #E8D89F",
"*	c #EFD98A",
"=	c #EED680",
"-	c #E1CD83",
";	c #CCBF90",
">	c #F1DF9C",
",	c #EAD27D",
"'	c #EA836C",
")	c #E45F41",
"!	c #E66C51",
"~	c #DF421E",
"{	c #B8A563",
"]	c #DFC978",
"^	c #796D41",
"/	c #8AA1BA",
"(	c #7590AE",
"_	c #71210F",
":	c #93A8BF",
"..                      ",
" ..                     ",
"  ..         +++++      ",
"   ..       +@#$#%+     ",
"    ..     +&$*==*-+    ",
"     ..   +;>=====*%+   ",
"      ..  +#=======,+   ",
"  +++++..+++========+   ",
"  +'))))..)+=======,+   ",
"  +!~~~~~..+==+===={+   ",
"  +!~~~~~~..]^/^==]+    ",
"  +!~~~~~~~..+/+,{++    ",
"  +!~~~~~~~+..((++      ",
"  +!~~~~~~~++..(+       ",
"  +!~~~~~~~+/(..(+      ",
"  +!~~~~~~~+/((..+      ",
"  +)~~~~~~_/((((..+     ",
"  +++++++++/(((((..     ",
"         +:(((((((..    ",
"         ++++++++++..   ",
"                    ..  ",
"                     .. ",
"                      ..",
"                       ."};
