/* XPM */
static const char * tb_revision_find_prev_xpm[] = {
"24 24 7 1",
" 	c None",
".	c #FFFFFF",
"+	c #F1F1F1",
"@	c #000000",
"#	c #161616",
"$	c #0B0B0B",
"%	c #353535",
"                        ",
"                        ",
"                        ",
"                        ",
"          ..            ",
"         ...      ..... ",
"         ...     ...... ",
"        ....    ....... ",
"       .....    ....... ",
"      ....    ........  ",
"     ....   ............",
"     ....   ............",
"    ....    ............",
"   ..+..   .............",
"@@ #$@.... ..........   ",
"@@@@ %................  ",
"@@     ........ ....... ",
"@@       .......  ..... ",
"@@        ........  ... ",
"@@           ......     ",
"@@             .....    ",
"@@              ...     ",
"@@                      ",
"@@                      "};
