/* XPM */
static const char * tb_revision_select_xpm[] = {
"24 24 179 2",
"  	c None",
". 	c #000000",
"+ 	c #010100",
"@ 	c #B5B8A5",
"# 	c #E4E7D2",
"$ 	c #878A76",
"% 	c #33342B",
"& 	c #0B0B0B",
"* 	c #E2E5CF",
"= 	c #CFD4AF",
"- 	c #CED3AE",
"; 	c #B2B696",
"> 	c #2D2D25",
", 	c #23241D",
"' 	c #9D9F90",
") 	c #C6CAA6",
"! 	c #C4C9A5",
"~ 	c #C6CBA7",
"{ 	c #C7CCA8",
"] 	c #C9CEA9",
"^ 	c #555847",
"/ 	c #1A1B15",
"( 	c #20201A",
"_ 	c #D4D6C2",
": 	c #BEC2A0",
"< 	c #B3B896",
"[ 	c #B0B595",
"} 	c #B3B797",
"| 	c #B6BB99",
"1 	c #BBC09E",
"2 	c #BCC19F",
"3 	c #81856C",
"4 	c #3E3F32",
"5 	c #010101",
"6 	c #FFFFFF",
"7 	c #FAFAFA",
"8 	c #E2E2E2",
"9 	c #A3A3A3",
"0 	c #DADDC8",
"a 	c #AFB494",
"b 	c #AAAF8F",
"c 	c #A3A789",
"d 	c #A6AA8B",
"e 	c #A9AD8E",
"f 	c #A7AB8D",
"g 	c #A4A88A",
"h 	c #A1A588",
"i 	c #CFCFCF",
"j 	c #5C5C5C",
"k 	c #5D5D5D",
"l 	c #6E6E6D",
"m 	c #AEAFAC",
"n 	c #F0F0F0",
"o 	c #0C0C09",
"p 	c #DDDFCB",
"q 	c #969B7E",
"r 	c #9DA286",
"s 	c #95987C",
"t 	c #96997E",
"u 	c #9A9D81",
"v 	c #999D80",
"w 	c #9DA184",
"x 	c #A5AA8B",
"y 	c #D2D2CD",
"z 	c #686A57",
"A 	c #646653",
"B 	c #45473A",
"C 	c #060605",
"D 	c #515150",
"E 	c #D8DBC9",
"F 	c #84866E",
"G 	c #7D8169",
"H 	c #151612",
"I 	c #B4B4B4",
"J 	c #060606",
"K 	c #AEAEAE",
"L 	c #D7DAC9",
"M 	c #797D67",
"N 	c #3D3F34",
"O 	c #E0E0D9",
"P 	c #EBEDDD",
"Q 	c #E8EBD9",
"R 	c #F8F9F3",
"S 	c #E1E4D2",
"T 	c #2A2A2A",
"U 	c #F0F1EA",
"V 	c #DADCD1",
"W 	c #2B2C28",
"X 	c #D7DAC6",
"Y 	c #6F735E",
"Z 	c #0D0D0D",
"` 	c #F4F4EC",
" .	c #F1F3E9",
"..	c #D1D6B4",
"+.	c #D2D7B5",
"@.	c #C0C3AD",
"#.	c #D2D2D2",
"$.	c #FCFCFC",
"%.	c #C9CDB2",
"&.	c #ABB091",
"*.	c #23251E",
"=.	c #494B3D",
"-.	c #DCDCD4",
";.	c #EAECDD",
">.	c #CDD2AD",
",.	c #EAEAEA",
"'.	c #ADB09D",
").	c #B5B999",
"!.	c #81836C",
"~.	c #070806",
"{.	c #D5D8C4",
"].	c #161616",
"^.	c #F2F2EA",
"/.	c #CACFAB",
"(.	c #CACFAA",
"_.	c #C9CEAA",
":.	c #C8C8C8",
"<.	c #444444",
"[.	c #454545",
"}.	c #5E5E5E",
"|.	c #C7C7C7",
"1.	c #DCDED0",
"2.	c #9DA185",
"3.	c #535445",
"4.	c #B6B8A7",
"5.	c #747470",
"6.	c #ECECE2",
"7.	c #C3C8A5",
"8.	c #C2C7A4",
"9.	c #C2C6A4",
"0.	c #C0C5A2",
"a.	c #BFC4A1",
"b.	c #DCDDD6",
"c.	c #868971",
"d.	c #747763",
"e.	c #292A22",
"f.	c #050505",
"g.	c #D7D7D5",
"h.	c #A2A494",
"i.	c #020201",
"j.	c #A6A998",
"k.	c #B8BC9B",
"l.	c #AFB394",
"m.	c #E6E7DE",
"n.	c #A8AC8E",
"o.	c #A6AA8C",
"p.	c #9B9E83",
"q.	c #21221C",
"r.	c #343434",
"s.	c #DBDBD8",
"t.	c #070705",
"u.	c #9E9F91",
"v.	c #E5E6DA",
"w.	c #ADB192",
"x.	c #A9AD8F",
"y.	c #A5A98C",
"z.	c #A3A78A",
"A.	c #9FA387",
"B.	c #E1E2D9",
"C.	c #95987E",
"D.	c #92957B",
"E.	c #8C8F76",
"F.	c #6D705C",
"G.	c #B8B8B7",
"H.	c #E3E5D9",
"I.	c #C0C3AF",
"J.	c #94987C",
"K.	c #8F9379",
"L.	c #8B8F75",
"M.	c #8A8E74",
"N.	c #888C73",
"O.	c #858970",
"P.	c #D8D9D2",
"Q.	c #797C66",
"R.	c #727560",
"S.	c #717460",
"T.	c #71745F",
"U.	c #323232",
"V.	c #BEBEBE",
"                                                ",
"                                                ",
"                                                ",
"    . . . . . . .                               ",
"  + @ # # # # # $ %                             ",
"  & * = = = - - ; >                             ",
", ' * ) ! ~ { ] ] ^ /                           ",
"( _ : < [ } | 1 2 3 4 5 6 6 6 6 7 8 9           ",
", 0 a b c d b e f g h . 6 i j k l m 7 n         ",
"o p q r s t u v t w x . 6 y z A B C D 6 6       ",
". E F G H . . . . . . . 6 I . . . . J 6 K 5     ",
". L M N O P Q Q Q Q Q . 6 R Q Q Q S T 6 U V W   ",
". X Y Z ` = = = = = = . 6  .....+.@.#.$.%.&.*.  ",
". X =.-.;.>.- - >.- >.. 6 6 6 6 6 6 ,.'.).!.~.  ",
". {.].^./.(./.(._.(._.. 6 :.<.[.}.|.6 1.2.3.o   ",
". 4.5.6.7.8.8.9.0.9.a.. 6 b.c.d.e.f.g.6 h.i.    ",
". j.-.k.k.).} } [ [ l.. 6 m.n.o.p.q.r.6 s.t.    ",
". u.v.w.x.o.y.z.z.h A.. 6 B.C.D.E.F.. G.6       ",
". H.I.J.K.L.M.N.N.O.c.. 6 P.Q.R.S.T.( U.6 6     ",
"  . . . . . . . . . . . 6 I . . . . . . V.6     ",
"                      . .             . .       ",
"                                                ",
"                                                ",
"                                                "};
