/* XPM */
static const char *tb_revision_select_xpm[] = {
"24 24 4 1 0 0",
"  c #000000",
"! c #EF2929",
"# c #FFFFFF",
"$ c None",
"$$$$$$$$$$$$$$$$$$$$$$$$",
"$$$$$$$$$$$$$$$$$$$$$$$$",
"$$$$$$$$$$$$$$$$$$$$$$$$",
"$$$$$$$$$$$$$$$$$$$$$$$$",
"$$$$$$$$$$$$$$$$$$$$$$$$",
"$$$$$$$$$$$$$$$$$$$$$$$$",
"$$$$$$$       $$$$$$$$$$",
"$$$$$$$  $$$$  $$$$$$$$$",
"$$$$$$$  $$$$$  $$$$$$$$",
"$$$$$$$  $$$$$  $$$$$$$$",
"$$$$$$$  $$$$$  $$$$$$$$",
"$$$$$$$  $$$$  $$$$$$$$$",
"$$$$$$$       $$$$$$$$$$",
"$$$$$$$  $$$  $$$$$$$$$$",
"$$$$$$$  $$$$  $$$$!!!$$",
"$$$$$$$  $$$$$  $$!!$!!$",
"$$$$$$$  $$$$$  $$!$$!!$",
"$$$$$$$  $$$$$$  $$$!!$$",
"$$$$$$$  $$$$$$  $$!!$$$",
"$$$$$$$$$$$$$$$$$$$!!$$$",
"$$$$$$$$$$$$$$$$$$$$$$$$",
"$$$$$$$$$$$$$$$$$$$!!$$$",
"$$$$$$$$$$$$$$$$$$$!!$$$",
"$$$$$$$$$$$$$$$$$$$$$$$$"
};
