/* XPM */
static const char * tb_revision_show_final_xpm[] = {
"24 24 5 1",
" 	c None",
".	c #FFFFFF",
"+	c #F1F1F1",
"@	c #000000",
"#	c #181818",
"                        ",
"                        ",
"                        ",
"                    ..  ",
"                   .... ",
"     .....         .... ",
"     ......         ....",
"     .......        ....",
"     .......         ...",
"      ........       ...",
"  ..............     ...",
"  ..............     ...",
"  ..............     ...",
"    .+...........    ...",
"@@ @@@ ..........    ...",
"@@@@ #.........      ...",
"@@   .......         ...",
"@@   .....           ...",
"@@   ...             ...",
"@@                   ...",
"@@                   .. ",
"@@                      ",
"@@                      ",
"@@                      "};
