/* XPM */
static const char * tb_redo_xpm[] = {
"24 24 39 1",
" 	c None",
".	c #000000",
"+	c #939A8D",
"@	c #BAD09D",
"#	c #92998C",
"$	c #748261",
"%	c #9EB186",
"&	c #C2D5AA",
"*	c #D1DFBE",
"=	c #BED2A3",
"-	c #99A28F",
";	c #889873",
">	c #D5E1C6",
",	c #CDDCBC",
"'	c #D2E0BF",
")	c #C5D7AE",
"!	c #919889",
"~	c #D4E0C5",
"{	c #D3E0C1",
"]	c #BFD3A6",
"^	c #9BAA87",
"/	c #ABBB96",
"(	c #92AD62",
"_	c #7C9B40",
":	c #59702D",
"<	c #7F8E6B",
"[	c #C8D9B2",
"}	c #85A24D",
"|	c #53692A",
"1	c #9BB572",
"2	c #6D8839",
"3	c #95A77E",
"4	c #8BA859",
"5	c #657255",
"6	c #98AF74",
"7	c #AFC394",
"8	c #6D7A5B",
"9	c #9CAF84",
"0	c #879772",
"                        ",
"                        ",
"                        ",
"                        ",
"            .           ",
"            ..          ",
"            .+.         ",
"         ....@#.        ",
"        .$%&*=@-.       ",
"       .;>,')@@@!.      ",
"      .$~{*]@@@@@^.     ",
"      ./>(______:.      ",
"     .<[}______|.       ",
"     .%1_:..._|.        ",
"     .@_2.  .:.         ",
"     .@_.   ..          ",
"     .34.   .           ",
"     .56.               ",
"      .7.               ",
"      .89.              ",
"       .$0.             ",
"        ..              ",
"                        ",
"                        "};
