/* XPM */
static char * tb_symbol_xpm[] = {
"24 24 4 1",
" 	c None",
".	c #767676",
"+	c #000000",
"@	c #2C2C2C",
"                        ",
"                        ",
"                        ",
"                        ",
"                        ",
"                        ",
"                        ",
"                        ",
"        .++             ",
"       ++..+ ++         ",
"      ++   @++          ",
"      ++    +           ",
"      ++    +           ",
"      ++    +           ",
"      ++    +           ",
"      .++..+++@+        ",
"       .+++  .+         ",
"                        ",
"                        ",
"                        ",
"                        ",
"                        ",
"                        ",
"                        "};
