/* XPM */
static char * tb_stock_paint_xpm[] = {
"24 24 130 2",
"  	c None",
". 	c #000000",
"+ 	c #D5D6D5",
"@ 	c #FFFAFF",
"# 	c #FFFFFF",
"$ 	c #E6DEE6",
"% 	c #5A595A",
"& 	c #CDC6CD",
"* 	c #D5D2D5",
"= 	c #C5C2C5",
"- 	c #E6E2E6",
"; 	c #F6F2F6",
"> 	c #9C9D9C",
", 	c #ACAEAC",
"' 	c #EEEAEE",
") 	c #8B8D8B",
"! 	c #EEE6E6",
"~ 	c #ACA5AC",
"{ 	c #F6F6F6",
"] 	c #A4A1A4",
"^ 	c #414041",
"/ 	c #ACA5A4",
"( 	c #9C959C",
"_ 	c #BDB6BD",
": 	c #ACAAAC",
"< 	c #C5BEC5",
"[ 	c #83797B",
"} 	c #62444A",
"| 	c #4A2C31",
"1 	c #391C20",
"2 	c #311C20",
"3 	c #5A4C4A",
"4 	c #FFF6FF",
"5 	c #FFF6F6",
"6 	c #DEDADE",
"7 	c #9C999C",
"8 	c #525052",
"9 	c #291C20",
"0 	c #291818",
"a 	c #6A5D62",
"b 	c #837D73",
"c 	c #E6DADE",
"d 	c #D5CED5",
"e 	c #736D73",
"f 	c #5A5D5A",
"g 	c #313031",
"h 	c #BDB6B4",
"i 	c #948D83",
"j 	c #DEDEDE",
"k 	c #B4AEB4",
"l 	c #6A696A",
"m 	c #625D62",
"n 	c #4A4C4A",
"o 	c #D5D2CD",
"p 	c #8B897B",
"q 	c #B4B2B4",
"r 	c #6A6D6A",
"s 	c #5A555A",
"t 	c #CDCECD",
"u 	c #E6DEDE",
"v 	c #9C958B",
"w 	c #EEEEEE",
"x 	c #F6EEF6",
"y 	c #B4B6B4",
"z 	c #BDBEBD",
"A 	c #626562",
"B 	c #626162",
"C 	c #CDCACD",
"D 	c #E6E2DE",
"E 	c #A49D94",
"F 	c #F6EEEE",
"G 	c #7B797B",
"H 	c #949194",
"I 	c #737173",
"J 	c #837D83",
"K 	c #EEEAE6",
"L 	c #C5C6C5",
"M 	c #525552",
"N 	c #393C39",
"O 	c #DED6D5",
"P 	c #DEDAD5",
"Q 	c #A49994",
"R 	c #E6E6E6",
"S 	c #625D5A",
"T 	c #7B7D7B",
"U 	c #202420",
"V 	c #312C31",
"W 	c #AC9D94",
"X 	c #D5CECD",
"Y 	c #393439",
"Z 	c #181818",
"` 	c #313029",
" .	c #CDC6C5",
"..	c #7B7573",
"+.	c #4A484A",
"@.	c #181C18",
"#.	c #201C18",
"$.	c #4A444A",
"%.	c #A4958B",
"&.	c #393839",
"*.	c #080808",
"=.	c #393431",
"-.	c #8B4452",
";.	c #A4556A",
">.	c #C56173",
",.	c #DE8D9C",
"'.	c #EECACD",
").	c #CDCAC5",
"!.	c #D5CACD",
"~.	c #524441",
"{.	c #292829",
"].	c #201818",
"^.	c #101008",
"/.	c #181410",
"(.	c #9C3C52",
"_.	c #B41839",
":.	c #BD3C5A",
"<.	c #C5506A",
"[.	c #BD6D7B",
"}.	c #C599A4",
"|.	c #DED2D5",
"1.	c #9C9994",
"2.	c #948D8B",
"3.	c #94858B",
"4.	c #9C8183",
"5.	c #9C7D7B",
"6.	c #A48583",
"7.	c #A48D83",
"8.	c #9C918B",
"9.	c #62615A",
"                                                ",
"                                                ",
"      + @ # # # # # # # # @ $ %                 ",
"      @ # # # # # # # # # # & * +               ",
"      # # # # # # # # # # # = - ; >             ",
"      # # # # # # # # # # # , ' # - )           ",
"      # # # # # # # # # # ! ~ ; # { * ] ^       ",
"      # @ # @ # @ # @ # { / (                   ",
"      # # @ # @ # @ # @ _ : < [ } | 1 2 3       ",
"      # 4 @ { @ 5 @ { * > 6 * 7 8 9 0 a b       ",
"      # @ { 4 { 4 { c ] d 6 ~ e f g e h i       ",
"      # ; { ; { ; ; , _ j k l m ^ n o * p       ",
"      # ; ; ; ; ; q 7 6 _ r s ^ 8 t - u v       ",
"      # w x w w y ( z y A 8 ^ B C ! u D E       ",
"      # F w ' : G H I m 8 ^ J t - D - u E       ",
"      # K ' L l I M 8 ^ N H O u P u 6 u Q       ",
"      # ' R S T e U V N ] 6 u 6 u O O O W       ",
"      # R X M J Y Z ` 8  .- P u P 6 o O v       ",
"      @ - ..B +.@.#.$.: O P c 6 6 + * X %.      ",
"      x y +.&.Z *.=.-.;.>.,.'.6 + * ).!.v       ",
"      * ~.{.].^./.(._.:.<.[.}.o |.X X  .%.      ",
"      1.2.H 2.2.3.4.5.6.7.%.v v 8.i i v 9.      ",
"                                                ",
"                                                "};
