/* XPM */
static const char *tb_semitem_stylesheet_apply_xpm[] = {
/* columns rows colors chars-per-pixel */
"24 24 91 1 ",
" 	c None",
".	c #000000",
"+	c #A0A99E",
"@	c #1B231A",
"#	c #232823",
"$	c #A3BAA0",
"%	c #D2DCD1",
"&	c #020402",
"*	c #7EA379",
"=	c #C5E1C1",
"-	c #D0E9CC",
";	c #CCE5C8",
">	c #CFE8CB",
",	c #D0DCCF",
"'	c #577353",
")	c #3B5438",
"!	c #60845B",
"~	c #D2E9CE",
"{	c #B9D5B5",
"]	c #BCD7B6",
"^	c #BEDABA",
"/	c #BFD8BB",
"(	c #738F70",
"_	c #88A783",
":	c #141A13",
"<	c #121B11",
"[	c #BAD7B6",
"}	c #80AA7B",
"|	c #759F6E",
"1	c #77A270",
"2	c #739D6C",
"3	c #749E6D",
"4	c #1C271A",
"5	c #222621",
"6	c #698765",
"7	c #242A23",
"8	c #9AC295",
"9	c #62855D",
"0	c #050705",
"a	c #5B7B56",
"b	c #2C3B29",
"c	c #212520",
"d	c #97C290",
"e	c #2A2F2A",
"f	c #87AD81",
"g	c #090C08",
"h	c #0C110B",
"i	c #1A1F19",
"j	c #212820",
"k	c #97B793",
"l	c #96BE90",
"m	c #1A2219",
"n	c #8AB985",
"o	c #121611",
"p	c #EBFFE6",
"q	c #525A50",
"r	c #252925",
"s	c #A3C29F",
"t	c #B9D5B6",
"u	c #82AD7C",
"v	c #000100",
"w	c #92AC8F",
"x	c #131712",
"y	c #C2E2BD",
"z	c #D2EDCD",
"A	c #D0EECB",
"B	c #CAEAC6",
"C	c #BFDCBC",
"D	c #97BB93",
"E	c #53714F",
"F	c #31462F",
"G	c #7C9B78",
"H	c #96B592",
"I	c #BAD5B5",
"J	c #BAD6B6",
"K	c #B9D4B6",
"L	c #B5D1B2",
"M	c #8BB185",
"N	c #5F845A",
"O	c #080C08",
"P	c #141C13",
"Q	c #070907",
"R	c #60845C",
"S	c #6B9164",
"T	c #6D9768",
"U	c #6F9869",
"V	c #5F835A",
"W	c #090D09",
"X	c #698F64",
"Y	c #10150F",
"Z	c #040504",
"                        ",
"                        ",
"                        ",
" ...     ..             ",
"  ..     ..             ",
"   ..    ..             ",
"   ..    ..             ",
"    ..   ..             ",
"     ......             ",
"    .......             ",
"   ...   ..   +.        ",
"   ..    .. @#$%        ",
"   ..    .&*=-;>,.  ')  ",
"   ...   .!~{{]^/(  ._: ",
"    .....<[}|1234    56.",
"     ....7890.ab  .  cd.",
"         efg  h  ij .kl.",
"         mn.    opqrstu.",
"         vw.   xyzABCDE.",
"          FG  .HIJKLMNO ",
"           PQ   RSTUVW  ",
"                .XY..   ",
"                  Z     ",
"                  .     "
};
