/* XPM */
static const char * tb_save_as_xpm[] = {
"24 24 96 2",
"  	c None",
". 	c #000000",
"+ 	c #F4CB34",
"@ 	c #E3A445",
"# 	c #E79E3C",
"$ 	c #574C2A",
"% 	c #F6F9FF",
"& 	c #ABD5FF",
"* 	c #CCCCCC",
"= 	c #5F542E",
"- 	c #C5E1FF",
"; 	c #6699CC",
"> 	c #999999",
", 	c #524828",
"' 	c #B4D9FF",
") 	c #FFFFFF",
"! 	c #203141",
"~ 	c #E3A647",
"{ 	c #2C4258",
"] 	c #223446",
"^ 	c #646464",
"/ 	c #35506B",
"( 	c #2B4258",
"_ 	c #656565",
": 	c #8D8D8D",
"< 	c #45678A",
"[ 	c #3A5876",
"} 	c #D2AA71",
"| 	c #6B6B6B",
"1 	c #8C8C8C",
"2 	c #9E9E9A",
"3 	c #4E769D",
"4 	c #4E4015",
"5 	c #696966",
"6 	c #686868",
"7 	c #7C7C7C",
"8 	c #B5B5B5",
"9 	c #EFEFEF",
"0 	c #060605",
"a 	c #AAAAAA",
"b 	c #A7A7A7",
"c 	c #C6C6C6",
"d 	c #E7E7E7",
"e 	c #5C8AB8",
"f 	c #EBF1F8",
"g 	c #F5F5F5",
"h 	c #BBCAD7",
"i 	c #6496C8",
"j 	c #5C8BB9",
"k 	c #5B89B7",
"l 	c #5A87B5",
"m 	c #6598CB",
"n 	c #8EA4BC",
"o 	c #B8B8B8",
"p 	c #C2C2C2",
"q 	c #DFDFDF",
"r 	c #72787D",
"s 	c #2E465F",
"t 	c #436587",
"u 	c #6090C0",
"v 	c #263A4F",
"w 	c #304961",
"x 	c #CBCBCB",
"y 	c #25394C",
"z 	c #4A7095",
"A 	c #426385",
"B 	c #6294C5",
"C 	c #C1C1C1",
"D 	c #2E455D",
"E 	c #436688",
"F 	c #B3B3B3",
"G 	c #233648",
"H 	c #486D91",
"I 	c #556B81",
"J 	c #5E8EBD",
"K 	c #C0C0C0",
"L 	c #293E54",
"M 	c #466A8E",
"N 	c #B4B4B4",
"O 	c #9F9F9F",
"P 	c #233649",
"Q 	c #496E93",
"R 	c #3A5977",
"S 	c #4A5B6C",
"T 	c #3C5B7A",
"U 	c #919191",
"V 	c #B2B2B2",
"W 	c #808080",
"X 	c #7D7D7D",
"Y 	c #777777",
"Z 	c #626262",
"` 	c #575757",
" .	c #192735",
"..	c #344E69",
"+.	c #36516D",
"@.	c #263A4E",
"                                                ",
"                                      . .       ",
"                                    . + @ .     ",
"        . . . . . . . . . . . . . . + # $ .     ",
"      . % & * * * * * * * * * * . + # = .       ",
"      . - ; > > > > > > > > > . + # , . .       ",
"      . ' ; ) ) ) ) ) ) ) ) . + # , . ! .       ",
"      . ' ; ) ) ) ) ) ) ) . + ~ = . { ] .       ",
"      . ' ; ) * * * * * . + # = . ^ / ( .       ",
"      . ' ; ) ) ) ) ) . + # $ . _ : < [ .       ",
"      . ' ; ) ) ) ) ) . } = . | 1 2 3 [ .       ",
"      . ' ; ) * * * . 4 . . 5 6 7 8 3 [ .       ",
"      . ' ; ) ) ) 9 0 . a b 8 c d d e [ .       ",
"      . ' ; f ) g d d d d d d d d h e [ .       ",
"      . ' ; ; i j e e e e e k l e e e [ .       ",
"      . ' ; m n o o p q d * r s t e e [ .       ",
"      . ' ; u o o v w d x o a y z A e [ .       ",
"      . ' B e o C D E C o o F G H E e [ .       ",
"      . I J e K q L M o o N O P Q E e R .       ",
"        . S T U V W W X Y Z `  .w ..+.@..       ",
"          . . . . . . . . . . . . . . .         ",
"                                                ",
"                                                ",
"                                                "};
