/* XPM */
static char * tb_symbol_xpm[] = {
"24 24 86 1",
" 	c None",
".	c #000000",
"+	c #F1F1F1",
"@	c #F0F0F0",
"#	c #EFEFEF",
"$	c #EEEEEE",
"%	c #EDEDED",
"&	c #ECECEC",
"*	c #E5E5E5",
"=	c #E3E3E3",
"-	c #DBDBDB",
";	c #EBEBEB",
">	c #E0E0E0",
",	c #B1B1B1",
"'	c #E2E2E2",
")	c #E4E4E4",
"!	c #E7E7E7",
"~	c #D1D1D1",
"{	c #A6A6A6",
"]	c #ADADAD",
"^	c #1C1C1C",
"/	c #3A3A3A",
"(	c #B0B0B0",
"_	c #7F8488",
":	c #C5CED6",
"<	c #242424",
"[	c #363636",
"}	c #E8E8E8",
"|	c #CDD5DC",
"1	c #BAC6CF",
"2	c #506D89",
"3	c #9EADBB",
"4	c #1F1F1F",
"5	c #323232",
"6	c #E9E9E9",
"7	c #95A6B7",
"8	c #4F575E",
"9	c #262626",
"0	c #EAEAEA",
"a	c #3A4148",
"b	c #313131",
"c	c #42484E",
"d	c #696969",
"e	c #292929",
"f	c #B4B4B4",
"g	c #F8F8F8",
"h	c #A1A1A1",
"i	c #8A8A8A",
"j	c #3F3F3F",
"k	c #303030",
"l	c #A2A2A2",
"m	c #FAFAFA",
"n	c #9D9D9D",
"o	c #868686",
"p	c #F5F5F5",
"q	c #F6F6F6",
"r	c #F7F7F7",
"s	c #D8D8D8",
"t	c #989898",
"u	c #838383",
"v	c #CDCDCD",
"w	c #C0C0C0",
"x	c #BDBDBD",
"y	c #C3C3C3",
"z	c #BFBFBF",
"A	c #BEBEBE",
"B	c #AFAFAF",
"C	c #B7B7B7",
"D	c #7C7C7C",
"E	c #D4D4D4",
"F	c #CFCFCF",
"G	c #ABABAB",
"H	c #A4A4A4",
"I	c #A0A0A0",
"J	c #9A9A9A",
"K	c #919191",
"L	c #BBBBBB",
"M	c #949494",
"N	c #D5D5D5",
"O	c #A3A3A3",
"P	c #9F9F9F",
"Q	c #9C9C9C",
"R	c #9B9B9B",
"S	c #939393",
"T	c #888888",
"U	c #7A7A7A",
"                        ",
"                        ",
"                        ",
"                        ",
"  ..............        ",
" .++++@@#$$%&*=-.       ",
" .+++@@#$$%&;&>,.       ",
" .++>>>>>'=)$!~{.  ..   ",
" .+@>>]^/()*!......_:.  ",
" .@#>><'=[*!}.|1111123. ",
" .##>>4=5,!}6.722222228.",
" .#$>'4)*9}60.7222222a. ",
" .$%'=4*!b60;.......c.  ",
" .%%=)d]ef0;%ghi.  .j   ",
" .%&)*k}60;%$gli.       ",
" .;}*!}60;%$#mno.       ",
" .=)=pqqqrgggstu.       ",
" .v=wxywzAAABCzD.       ",
" .EFG{HllhIIJKLM.       ",
" .NOhPnPIhQRSTU(.       ",
"  ..............        ",
"                        ",
"                        ",
"                        "};
