/* XPM */
static const char *tb_semitem_stylesheet_reflow_xpm[] = {
/* columns rows colors chars-per-pixel */
"24 24 91 1 ",
"  c black",
". c #000100",
"X c #030603",
"o c #040504",
"O c #050705",
"+ c #070907",
"@ c #080C08",
"# c #090C08",
"$ c #090D09",
"% c #0C110B",
"& c #10150F",
"* c #121611",
"= c #131712",
"- c #141A13",
"; c #141C13",
": c #151F14",
"> c #1A1F19",
", c #1A2219",
"< c #1B231A",
"1 c #1C271A",
"2 c #212520",
"3 c #222621",
"4 c #212820",
"5 c #232823",
"6 c #242A23",
"7 c #252925",
"8 c #2A2F2A",
"9 c #2C3B29",
"0 c #31462F",
"q c #3B5438",
"w c #525A50",
"e c #53714F",
"r c #577353",
"t c #5B7B56",
"y c #5F835A",
"u c #5F845A",
"i c #60845B",
"p c #60845C",
"a c #62855D",
"s c #698765",
"d c #698F64",
"f c #6B9164",
"g c #6D9768",
"h c #6F9869",
"j c #739D6C",
"k c #749E6D",
"l c #759F6E",
"z c #738F70",
"x c #7C9B78",
"c c #77A270",
"v c #7EA379",
"b c #80AA7B",
"n c #82AD7C",
"m c #88A783",
"M c #87AD81",
"N c #92AC8F",
"B c #8BB185",
"V c #8AB985",
"C c #96B592",
"Z c #97B793",
"A c #97BB93",
"S c #96BE90",
"D c #A0A99E",
"F c #A3BAA0",
"G c #97C290",
"H c #9AC295",
"J c #A3C29F",
"K c #B5D1B2",
"L c #B9D5B5",
"P c #BAD5B5",
"I c #B9D4B6",
"U c #B9D5B6",
"Y c #BAD6B6",
"T c #BAD7B6",
"R c #BCD7B6",
"E c #BFD8BB",
"W c #BEDABA",
"Q c #BFDCBC",
"! c #C2E2BD",
"~ c #D0DCCF",
"^ c #D2DCD1",
"/ c #C5E1C1",
"( c #CAEAC6",
") c #CCE5C8",
"_ c #CFE8CB",
"` c #D0EECB",
"' c #D0E9CC",
"] c #D2E9CE",
"[ c #D2EDCD",
"{ c #EBFFE6",
"} c None",
/* pixels */
"   }}}}}  }}}}}}}}}}}}}}",
"}  }}}}}  }}}}}}}}}}}}}}",
"}}  }}}}  }}}}}}}}}}}}}}",
"}}  }}}}  }}}}}}}}}}}}}}",
"}}}  }}}  }}}}}}}}}}}}}}",
"}}}}      }}}}}}}}}}}}}}",
"}}}       }}}}}}}}}}}}}}",
"}}   }}}  }}}}}}}}}}}}}}",
"}}  }}}}  }}}}}}}}}}}}}}",
"}}  }}}}  }}}}}}}}}}}}}}",
"}}   }}}  }}}}D }}}}}}}}",
"}}}       }}<5F^}}}}}}}}",
"}}}}      Ov/')_~ }}rq}}",
"}}}}}}}}}}i'LLRWWz}} m-}",
"}}}}}}}}}:Lbkcjk1}}}}3s ",
"}}}}}}}}}6Ha+ t9}} }}3G ",
"}}}}}}}}}8M#}}%}}>3} ZS ",
"}}}}}}}}}<V }}}}={w7JLn ",
"}}}}}}}}} N }}}=![`(QAe ",
"}}}}}}}}}}0x}} CLLLKBu#}",
"}}}}}}}}}}};+}}}udghu#}}",
"}}}}}}}}}}}}}}}} d=  }}}",
"}}}}}}}}}}}}}}}}}}O}}}}}",
"}}}}}}}}}}}}}}}}}} }}}}}"
};
