/* XPM */
static const char * tb_SplitBelow_xpm[] = {
"50 50 4 1",
" 	c None",
".	c #000000",
"+	c #FFFFFF",
"@	c #26D8D8",
"                                                  ",
"                                                  ",
"                                                  ",
"                                                  ",
"                                                  ",
"        ...........            ...........        ",
"        .+++++++++.            .@@@@@@@@@.        ",
"        .+++++++++.            .@@@@@@@@@.        ",
"        .+++++++++.            .@@@@@@@@@.        ",
"        .+++++++++.            .@@@@@@@@@.        ",
"        .+++++++++.            .@@@@@@@@@.        ",
"        .+++++++++.            .@@@@@@@@@.        ",
"        .+++++++++.            .@@@@@@@@@.        ",
"        .+++++++++.            .@@@@@@@@@.        ",
"        .+++++++++.            .@@@@@@@@@.        ",
"        .+++++++++.            .@@@@@@@@@.        ",
"        .+++++++++.            .@@@@@@@@@.        ",
"        .+++++++++.            .@@@@@@@@@.        ",
"        .+++++++++.            .@@@@@@@@@.        ",
"        .+++++++++.            .@@@@@@@@@.        ",
"        .+++++++++.            .@@@@@@@@@.        ",
"        .+++++++++.            .@@@@@@@@@.        ",
"        .+++++++++.            .@@@@@@@@@.        ",
"        .+++++++++.            .@@@@@@@@@.        ",
"        .+++++++++.            .@@@@@@@@@.        ",
"        .+++++++++.        .   .@@@@@@@@@.        ",
"        .+++++++++.        ..  .@@@@@@@@@.        ",
"        .+++++++++............ .@@@@@@@@@.        ",
"        .+++++++++.        ..  .@@@@@@@@@.        ",
"        .+++++++++.        .   .@@@@@@@@@.        ",
"        .+++++++++.            .@@@@@@@@@.        ",
"        .+++++++++.            .@@@@@@@@@.        ",
"        .+++++++++.            .@@@@@@@@@.        ",
"        .+++++++++.            .@@@@@@@@@.        ",
"        .+++++++++.            .@@@@@@@@@.        ",
"        .+++++++++.            .@@@@@@@@@.        ",
"        .+++++++++.            .@@@@@@@@@.        ",
"        .+++++++++.            ...........        ",
"        .+++++++++.            .@@@@@@@@@.        ",
"        .+++++++++.            .@@@@@@@@@.        ",
"        .+++++++++.            .@@@@@@@@@.        ",
"        .+++++++++.            .@@@@@@@@@.        ",
"        .+++++++++.            .@@@@@@@@@.        ",
"        .+++++++++.            .@@@@@@@@@.        ",
"        .+++++++++.            .@@@@@@@@@.        ",
"        .+++++++++.            .@@@@@@@@@.        ",
"        .+++++++++.            .@@@@@@@@@.        ",
"        ...........            ...........        ",
"                                                  ",
"                                                  "};
