/* XPM */
static const char * tb_stock_paint_xpm[] = {
"22 22 44 1",
" 	c None",
".	c #000000",
"+	c #B4A261",
"@	c #D5C072",
"#	c #847646",
"$	c #C7B26A",
"%	c #3F3922",
"&	c #8F804D",
"*	c #5E5432",
"=	c #1E1A10",
"-	c #0F0D08",
";	c #070603",
">	c #FDFDFD",
",	c #FEFEFE",
"'	c #FCFCFC",
")	c #DDDDDD",
"!	c #DEDEDE",
"~	c #DFE5EB",
"{	c #C6CDD3",
"]	c #DBE2E9",
"^	c #B6C9DC",
"/	c #879FB6",
"(	c #CCD7E2",
"_	c #A2B7CC",
":	c #90A7BD",
"<	c #C9D7E4",
"[	c #A0B5C9",
"}	c #D5E0EA",
"|	c #A1B6CA",
"1	c #96ACC2",
"2	c #ACC0D2",
"3	c #8FA6BD",
"4	c #BBC8D7",
"5	c #070707",
"6	c #C8D6E4",
"7	c #181818",
"8	c #494949",
"9	c #DEE5EE",
"0	c #E1E5E8",
"a	c #AAC2D8",
"b	c #879EB6",
"c	c #75818C",
"d	c #94A8BD",
"e	c #54606B",
"               ...    ",
"              .+@#.   ",
"              .$%..   ",
"           ..&%*...   ",
"            .=-;...   ",
"           .>....     ",
"          .,')..      ",
"         .,'!...      ",
"        .,~{..        ",
"       .]^/..         ",
"      .(_:..          ",
"     .<[:..           ",
"    .}|1..            ",
"    .23..             ",
"   .4...              ",
"    5                 ",
"   67                 ",
"  89.                 ",
"  0ab.                ",
"  cde.                ",
"   ..                 ",
"                      "};
