/* XPM */
static const char *tb_semitem_prev_xpm[] = {
/* columns rows colors chars-per-pixel */
"24 24 2 1 ",
"  c black",
". c None",
/* pixels */
"........................",
"........................",
"........................",
".   .....  .............",
"..  .....  .............",
"...  ....  .............",
"...  ....  .............",
"....  ...  .............",
".....      .............",
"....       .............",
"...   ...  .............",
"...  ....  .............",
"...  ....  ........... .",
"...   ...  ........    .",
"....       ......     ..",
".....      ...     .....",
"............     .......",
"............     .......",
"..............     .....",
".................     ..",
"...................    .",
"...................... .",
"........................",
"........................"
};
