/* XPM */
static const char * tb_SplitVertMid_xpm[] = {
"43 49 4 1",
" 	c None",
".	c #000000",
"+	c #FFFFFF",
"@	c #26D8D8",
"                                           ",
"                                           ",
"                                           ",
"    ...........            ...........     ",
"    .+++++++++.            .@@@@@@@@@.     ",
"    .+++++++++.            .@@@@@@@@@.     ",
"    .+++++++++.            .@@@@@@@@@.     ",
"    .+++++++++.            .@@@@@@@@@.     ",
"    .+++++++++.            .@@@@@@@@@.     ",
"    .+++++++++.            .@@@@@@@@@.     ",
"    .+++++++++.            .@@@@@@@@@.     ",
"    .+++++++++.            .@@@@@@@@@.     ",
"    .+++++++++.            .@@@@@@@@@.     ",
"    .+++++++++.            .@@@@@@@@@.     ",
"    .+++++++++.            .@@@@@@@@@.     ",
"    .+++++++++.            .@@@@@@@@@.     ",
"    .+++++++++.            .@@@@@@@@@.     ",
"    .+++++++++.            .@@@@@@@@@.     ",
"    .+++++++++.            .@@@@@@@@@.     ",
"    .+++++++++.            .@@@@@@@@@.     ",
"    .+++++++++.            .@@@@@@@@@.     ",
"    .+++++++++.            .@@@@@@@@@.     ",
"    .+++++++++.            .@@@@@@@@@.     ",
"    .+++++++++.        .   .@@@@@@@@@.     ",
"    .+++++++++.        ..  ...........     ",
"    .+++++++++............ .@@@@@@@@@.     ",
"    .+++++++++.        ..  .@@@@@@@@@.     ",
"    .+++++++++.        .   .@@@@@@@@@.     ",
"    .+++++++++.            .@@@@@@@@@.     ",
"    .+++++++++.            .@@@@@@@@@.     ",
"    .+++++++++.            .@@@@@@@@@.     ",
"    .+++++++++.            .@@@@@@@@@.     ",
"    .+++++++++.            .@@@@@@@@@.     ",
"    .+++++++++.            .@@@@@@@@@.     ",
"    .+++++++++.            .@@@@@@@@@.     ",
"    .+++++++++.            .@@@@@@@@@.     ",
"    .+++++++++.            .@@@@@@@@@.     ",
"    .+++++++++.            .@@@@@@@@@.     ",
"    .+++++++++.            .@@@@@@@@@.     ",
"    .+++++++++.            .@@@@@@@@@.     ",
"    .+++++++++.            .@@@@@@@@@.     ",
"    .+++++++++.            .@@@@@@@@@.     ",
"    .+++++++++.            .@@@@@@@@@.     ",
"    .+++++++++.            .@@@@@@@@@.     ",
"    .+++++++++.            .@@@@@@@@@.     ",
"    ...........            ...........     ",
"                                           ",
"                                           ",
"                                           "};
