/* XPM */
static const char * tb_SplitAbove_xpm[] = {
"42 48 4 1",
" 	c None",
".	c #000000",
"+	c #FFFFFF",
"@	c #26D8D8",
"                                          ",
"                                          ",
"    ...........            ...........    ",
"    .+++++++++.            .@@@@@@@@@.    ",
"    .+++++++++.            .@@@@@@@@@.    ",
"    .+++++++++.            .@@@@@@@@@.    ",
"    .+++++++++.            .@@@@@@@@@.    ",
"    .+++++++++.            .@@@@@@@@@.    ",
"    .+++++++++.            .@@@@@@@@@.    ",
"    .+++++++++.            .@@@@@@@@@.    ",
"    .+++++++++.            .@@@@@@@@@.    ",
"    .+++++++++.            .@@@@@@@@@.    ",
"    .+++++++++.            .@@@@@@@@@.    ",
"    .+++++++++.            ...........    ",
"    .+++++++++.            .@@@@@@@@@.    ",
"    .+++++++++.            .@@@@@@@@@.    ",
"    .+++++++++.            .@@@@@@@@@.    ",
"    .+++++++++.            .@@@@@@@@@.    ",
"    .+++++++++.            .@@@@@@@@@.    ",
"    .+++++++++.            .@@@@@@@@@.    ",
"    .+++++++++.            .@@@@@@@@@.    ",
"    .+++++++++.            .@@@@@@@@@.    ",
"    .+++++++++.        .   .@@@@@@@@@.    ",
"    .+++++++++.        ..  .@@@@@@@@@.    ",
"    .+++++++++............ .@@@@@@@@@.    ",
"    .+++++++++.        ..  .@@@@@@@@@.    ",
"    .+++++++++.        .   .@@@@@@@@@.    ",
"    .+++++++++.            .@@@@@@@@@.    ",
"    .+++++++++.            .@@@@@@@@@.    ",
"    .+++++++++.            .@@@@@@@@@.    ",
"    .+++++++++.            .@@@@@@@@@.    ",
"    .+++++++++.            .@@@@@@@@@.    ",
"    .+++++++++.            .@@@@@@@@@.    ",
"    .+++++++++.            .@@@@@@@@@.    ",
"    .+++++++++.            .@@@@@@@@@.    ",
"    .+++++++++.            .@@@@@@@@@.    ",
"    .+++++++++.            .@@@@@@@@@.    ",
"    .+++++++++.            .@@@@@@@@@.    ",
"    .+++++++++.            .@@@@@@@@@.    ",
"    .+++++++++.            .@@@@@@@@@.    ",
"    .+++++++++.            .@@@@@@@@@.    ",
"    .+++++++++.            .@@@@@@@@@.    ",
"    .+++++++++.            .@@@@@@@@@.    ",
"    .+++++++++.            .@@@@@@@@@.    ",
"    ...........            ...........    ",
"                                          ",
"                                          ",
"                                          "};
