/* XPM */
static const char *tb_semitem_this_xpm[] = {
/* columns rows colors chars-per-pixel */
"24 24 15 1 ",
"  c black",
". c #0C0606",
"X c #0D0606",
"o c #110808",
"O c #201010",
"+ c #361B1B",
"@ c #482424",
"# c #492525",
"$ c #4F2828",
"% c #502828",
"& c #633232",
"* c #753B3B",
"= c #7E3F3F",
"- c #914949",
"; c None",
/* pixels */
";;;;;;;;;;;;;;;;;;;;;;;;",
";;;;;;;;;;;;;;;;;;;;;;;;",
";;;;;;;;;;;;;;;;;;;;;;;;",
";   ;;;;;  ;;;;;;;;;;;;;",
";;  ;;;;;  ;;;;;;;;;;;;;",
";;;  ;;;;  ;;;;;;;;;;;;;",
";;;  ;;;;  ;;;;;;;;;;;;;",
";;;;  ;;;  ;;;        ;;",
";;;;;      ;;;        ;;",
";;;;       ;;;  ;;;;;;;;",
";;;   ;;;  ;;;  ;;;;;;;;",
";;;  ;;;;  ;;;  ;;;;;;;;",
";;;  ;;;;  ;;;       ;;;",
";;;   ;;;  ;;;       ;;;",
";;;;       ;;;  ;;;;;;;;",
";;;;;      ;;;  ;;;;;;;;",
";;;;;;;;;;;;;;  ;;;;;;;;",
"$%@+Oo;;;;;;;;  ;;;;;;;;",
"=--=&+.;;;;;;;  ;;;;;;;;",
"-----*+.;;;;;;  ;;;;;;;;",
"------&O;;;;;;;;;;;;;;;;",
"------=+;;;;;;;;;;;;;;;;",
"-------@;;;;;;;;;;;;;;;;",
"-------@;;;;;;;;;;;;;;;;"
};
