/* XPM */
static const char * tb_search_replace_xpm[] = {
"24 24 255 2",
"  	c None",
". 	c #000000",
"+ 	c #FFFFFF",
"@ 	c #E0E0E0",
"# 	c #C1C1C1",
"$ 	c #F4F4F4",
"% 	c #FDFDFD",
"& 	c #FBFBFB",
"* 	c #C3C3C3",
"= 	c #A8A8A8",
"- 	c #F6F6F6",
"; 	c #ACACAC",
"> 	c #47473F",
", 	c #040404",
"' 	c #030303",
") 	c #4B4B43",
"! 	c #B6B6B6",
"~ 	c #FAFAFA",
"{ 	c #FBFBFA",
"] 	c #ADADAD",
"^ 	c #767676",
"/ 	c #5D5D5D",
"( 	c #404040",
"_ 	c #AAAAAA",
": 	c #34342E",
"< 	c #9D9D8D",
"[ 	c #CFCFB9",
"} 	c #C4C4AF",
"| 	c #8D8D7F",
"1 	c #353530",
"2 	c #9F9F9F",
"3 	c #EFEFEF",
"4 	c #F2F2F2",
"5 	c #F3F3F3",
"6 	c #F8F8F6",
"7 	c #E2E2E2",
"8 	c #858585",
"9 	c #4B4B49",
"0 	c #161616",
"a 	c #46463F",
"b 	c #9C9C8C",
"c 	c #E2E2D0",
"d 	c #EDEDE7",
"e 	c #C0C0AC",
"f 	c #B2B29F",
"g 	c #828274",
"h 	c #44443D",
"i 	c #E3E3E1",
"j 	c #EBEBEB",
"k 	c #F1F1F1",
"l 	c #F0F0F0",
"m 	c #D5D5D5",
"n 	c #F9F9F9",
"o 	c #030302",
"p 	c #D5D5BF",
"q 	c #C3C3AE",
"r 	c #B5B5A2",
"s 	c #A6A695",
"t 	c #959586",
"u 	c #020202",
"v 	c #CDCDCA",
"w 	c #D6D6D3",
"x 	c #DFDFDF",
"y 	c #CACAB5",
"z 	c #DDDDD0",
"A 	c #B7B7A4",
"B 	c #AAAA98",
"C 	c #9B9B8B",
"D 	c #B3B3AA",
"E 	c #C8C8C8",
"F 	c #D7D7D7",
"G 	c #E6E6E6",
"H 	c #EBEBE9",
"I 	c #E9E9E7",
"J 	c #E0E0DE",
"K 	c #BFBFBF",
"L 	c #DADADA",
"M 	c #474740",
"N 	c #929283",
"O 	c #BABAA7",
"P 	c #ADAD9B",
"Q 	c #9F9F8E",
"R 	c #A5A599",
"S 	c #CACAC6",
"T 	c #4C4C45",
"U 	c #B8B8B6",
"V 	c #C9C9C7",
"W 	c #D6D6D6",
"X 	c #D9D9D6",
"Y 	c #D6D6D4",
"Z 	c #E5E5E4",
"` 	c #D7D7D5",
" .	c #BABABA",
"..	c #EDEDED",
"+.	c #A4A4A4",
"@.	c #959595",
"#.	c #34342F",
"$.	c #878779",
"%.	c #A0A090",
"&.	c #B8B8AD",
"*.	c #070707",
"=.	c #787877",
"-.	c #C4C4C2",
";.	c #DADAD9",
">.	c #E4E4E3",
",.	c #E4E4E2",
"'.	c #E2E2E0",
").	c #D3D3D1",
"!.	c #C4C4C4",
"~.	c #010101",
"{.	c #191918",
"].	c #848484",
"^.	c #484840",
"/.	c #414141",
"(.	c #838382",
"_.	c #B1B1B0",
":.	c #C0C0BE",
"<.	c #DEDEDC",
"[.	c #DEDEDB",
"}.	c #D9D9D7",
"|.	c #BDBDBC",
"1.	c #9C9C9B",
"2.	c #A9A9A7",
"3.	c #ADADAB",
"4.	c #B4B4B3",
"5.	c #B8B8B7",
"6.	c #C2C2C0",
"7.	c #CFCFCD",
"8.	c #DDDDDB",
"9.	c #DCDCD9",
"0.	c #DBDBD9",
"a.	c #D5D5D3",
"b.	c #BCBCBC",
"c.	c #949494",
"d.	c #888888",
"e.	c #ABABA8",
"f.	c #B2B2B1",
"g.	c #BABAB7",
"h.	c #BBBBB9",
"i.	c #BEBEBD",
"j.	c #C4C4BE",
"k.	c #C7C7C3",
"l.	c #DBDBD7",
"m.	c #C8C8C7",
"n.	c #B4B4B4",
"o.	c #8B8B8A",
"p.	c #B9B9B9",
"q.	c #C7C7C5",
"r.	c #D9D9D5",
"s.	c #D7D7D3",
"t.	c #D5D5D1",
"u.	c #D0D0CE",
"v.	c #BABAB8",
"w.	c #515151",
"x.	c #8F8F8E",
"y.	c #B2B2B0",
"z.	c #B5B5B3",
"A.	c #C2C2BE",
"B.	c #CACAC8",
"C.	c #C9C9C4",
"D.	c #C7C7C4",
"E.	c #A2A29F",
"F.	c #656562",
"G.	c #D1D1D1",
"H.	c #ADADAC",
"I.	c #BBBBB8",
"J.	c #CDCDCB",
"K.	c #C5C5C3",
"L.	c #A1A1A0",
"M.	c #90908E",
"N.	c #BDBDBB",
"O.	c #DDD4BA",
"P.	c #C7B486",
"Q.	c #DAB357",
"R.	c #D5B96B",
"S.	c #CFB467",
"T.	c #D0C5A8",
"U.	c #D6D1C0",
"V.	c #C5C1B4",
"W.	c #D3D3D3",
"X.	c #C0C0BD",
"Y.	c #C3C3C0",
"Z.	c #C7C7C1",
"`.	c #C4C4BF",
" +	c #A7A7A2",
".+	c #595958",
"++	c #8B887D",
"@+	c #C7C3B9",
"#+	c #B79B5D",
"$+	c #B39349",
"%+	c #B18E42",
"&+	c #B08F44",
"*+	c #B4944A",
"=+	c #C3AF81",
"-+	c #CEC09D",
";+	c #31302C",
">+	c #D1CDBD",
",+	c #23221F",
"'+	c #E9E9E9",
")+	c #D8D8D6",
"!+	c #D3D3D0",
"~+	c #9E9E9C",
"{+	c #767675",
"]+	c #AAA79D",
"^+	c #B5A57A",
"/+	c #92783C",
"(+	c #886D2F",
"_+	c #896D2F",
":+	c #84692E",
"<+	c #846A2F",
"[+	c #826931",
"}+	c #B6A989",
"|+	c #C2BBAC",
"1+	c #BDB9AB",
"2+	c #CECEC9",
"3+	c #BFBFB9",
"4+	c #BCBCB9",
"5+	c #BCBCB8",
"6+	c #B9B9B4",
"7+	c #B7B7B1",
"8+	c #92928D",
"9+	c #535351",
"0+	c #020201",
"a+	c #D1D1D0",
"b+	c #D0D0CC",
"c+	c #CECECC",
"d+	c #CDCDC9",
"e+	c #C5C5C1",
"f+	c #A8A8A5",
"g+	c #9D9D9A",
"h+	c #989895",
"i+	c #91918F",
"j+	c #969693",
"k+	c #939390",
"l+	c #929292",
"m+	c #D1D1CE",
"n+	c #CECECA",
"o+	c #C8C8C4",
"p+	c #BBBBB7",
"q+	c #B4B4B1",
"r+	c #AEAEAB",
"s+	c #A7A7A5",
"t+	c #A7A7A4",
"u+	c #AAAAA7",
"v+	c #A0A0A0",
"w+	c #B1B1AF",
"x+	c #B3B3B1",
"y+	c #B3B3AF",
"z+	c #B2B2AE",
"A+	c #B0B0AE",
"B+	c #AFAFAB",
"C+	c #AEAEAA",
"D+	c #ACACAA",
"E+	c #AAAAA8",
"F+	c #8F8F8D",
"                                                ",
". . . . . . . . . . . . . . . . . .             ",
". + + + + + + + + + + + + + + + @ # .           ",
". + $ + + + + + % % % % % % % & * & = .         ",
". + - + + ; > , ' ) ! % ~ & { ~ ] ^ / ( .       ",
". + - + _ : < [ } | 1 2 3 4 5 6 7 8 9 0 .       ",
". + $ % a b c d e f g h i j k 4 l 3 m ] .       ",
". + 4 n o p { q r s t u v w @ 7 x j 7 # .       ",
". + l 3 ' y z A B C D o E F G H I I J K .       ",
". + 3 L M N O P Q R S T U V W X Y Z `  ..       ",
". + ..+.@.#.$.%.&.v *.=.-.;.>.,.J '.). ..       ",
". + !.~.{.].^., o /.(._.:.<.J <.[.<.}.|..       ",
". E ~.~.~.1.2.3.4.5.6.7.}.8.[.9.0.0.a.b..       ",
"c.~.~.. d.e.f.g.h.i.j.k.V 9.l.}.` }.m.n..       ",
"~.~.~.o.p.q.Y 8.8.9.9.0.l.r.s.a.t.s.u.v..       ",
"w.~.x.y.z.A.B.V C.D.E.F.. . . . . . . . . o .   ",
". G.H.I.J.;.9.l.K.L.M.N.O.P.Q.R.R.R.R.S.T.U.V.. ",
". W.z.X.Y.Z.`. +.+. ++@+#+$+%+&+&+&+*+=+-+;+>+,+",
". '+!.).)+s.t.).!+~+{+]+^+/+(+_+:+<+[+[+}+|+1+. ",
". & 7.2+3+4+5+5+6+7+8+9+. . . . . . . . . 0+.   ",
". + a.!+!+a+u.b+c+d+e+4.f+g+h+i+i+j+k+l+.       ",
". + a+m+u.c+n+n+n+d+o+A.p+q+r+s+t+u+e.v+.       ",
". + w+4.q+q+q+x+x+y+y+z+A+B+C+D+E+C+w+F+.       ",
". . . . . . . . . . . . . . . . . . . .         "};
