/* XPM */
static const char * tb_search_xpm[] = {
"24 24 208 2",
"  	c None",
". 	c #000000",
"+ 	c #FFFFFF",
"@ 	c #E0E0E0",
"# 	c #C1C1C1",
"$ 	c #F4F4F4",
"% 	c #FDFDFD",
"& 	c #FBFBFB",
"* 	c #C3C3C3",
"= 	c #A8A8A8",
"- 	c #F6F6F6",
"; 	c #FBFBFA",
"> 	c #FAFAFA",
", 	c #ADADAD",
"' 	c #767676",
") 	c #5D5D5D",
"! 	c #404040",
"~ 	c #F8F8F8",
"{ 	c #F3F3F3",
"] 	c #F8F8F6",
"^ 	c #E2E2E2",
"/ 	c #858585",
"( 	c #4B4B49",
"_ 	c #161616",
": 	c #F2F2F2",
"< 	c #F0F0F0",
"[ 	c #EFEFEF",
"} 	c #D5D5D5",
"| 	c #F9F9F9",
"1 	c #B3B3B1",
"2 	c #47473F",
"3 	c #0A0A09",
"4 	c #4B4B43",
"5 	c #EDEDEA",
"6 	c #EAEAE7",
"7 	c #E5E5E5",
"8 	c #DFDFDF",
"9 	c #EBEBEB",
"0 	c #A7A7A7",
"a 	c #34342E",
"b 	c #9D9D8D",
"c 	c #CFCFB9",
"d 	c #C4C4AF",
"e 	c #8D8D7F",
"f 	c #353530",
"g 	c #AEAEAE",
"h 	c #EDEDED",
"i 	c #EBEBE9",
"j 	c #E9E9E7",
"k 	c #E0E0DE",
"l 	c #BFBFBF",
"m 	c #46463F",
"n 	c #9C9C8C",
"o 	c #E2E2D0",
"p 	c #EDEDE7",
"q 	c #C0C0AC",
"r 	c #B2B29F",
"s 	c #828274",
"t 	c #4C4C44",
"u 	c #DBDBD8",
"v 	c #D9D9D9",
"w 	c #D9D9D6",
"x 	c #D6D6D4",
"y 	c #E5E5E4",
"z 	c #D7D7D5",
"A 	c #BABABA",
"B 	c #090908",
"C 	c #D5D5BF",
"D 	c #C3C3AE",
"E 	c #B5B5A2",
"F 	c #A6A695",
"G 	c #9C9C8F",
"H 	c #080807",
"I 	c #E0E0DF",
"J 	c #E4E4E3",
"K 	c #E4E4E2",
"L 	c #E2E2E0",
"M 	c #D3D3D1",
"N 	c #EDEDEB",
"O 	c #DBDBD9",
"P 	c #090909",
"Q 	c #CACAB5",
"R 	c #DDDDD0",
"S 	c #B7B7A4",
"T 	c #AAAA98",
"U 	c #9B9B8B",
"V 	c #AEAEA3",
"W 	c #DFDFDD",
"X 	c #DEDEDC",
"Y 	c #DEDEDB",
"Z 	c #D9D9D7",
"` 	c #BDBDBC",
" .	c #E7E7E7",
"..	c #DCDCDC",
"+.	c #474740",
"@.	c #929283",
"#.	c #BABAA7",
"$.	c #ADAD9B",
"%.	c #9F9F8E",
"&.	c #ACACA1",
"*.	c #CFCFCB",
"=.	c #4C4C45",
"-.	c #D0D0CE",
";.	c #DCDCD9",
">.	c #D5D5D3",
",.	c #BCBCBC",
"'.	c #E1E1E1",
").	c #CBCBCB",
"!.	c #797977",
"~.	c #34342F",
"{.	c #878779",
"].	c #A0A090",
"^.	c #AEAEA2",
"/.	c #C3C3BE",
"(.	c #010101",
"_.	c #CDCDCA",
":.	c #D9D9D5",
"<.	c #C8C8C7",
"[.	c #B4B4B4",
"}.	c #D8D8D8",
"|.	c #C3C3C2",
"1.	c #828281",
"2.	c #414141",
"3.	c #7B7B7A",
"4.	c #A7A7A4",
"5.	c #D5D5D1",
"6.	c #D7D7D3",
"7.	c #BABAB8",
"8.	c #DCDCDA",
"9.	c #CCCCCA",
"0.	c #BEBEBB",
"a.	c #ABABA9",
"b.	c #9E9E9C",
"c.	c #9B9B97",
"d.	c #999997",
"e.	c #9C9C98",
"f.	c #A6A6A3",
"g.	c #D1D1D0",
"h.	c #D3D3D0",
"i.	c #DCDCDB",
"j.	c #E0E0DC",
"k.	c #DDDDDB",
"l.	c #D5D5D4",
"m.	c #CACAC7",
"n.	c #BCBCB8",
"o.	c #B4B4B2",
"p.	c #B2B2B1",
"q.	c #B5B5B3",
"r.	c #B7B7B4",
"s.	c #71716F",
"t.	c #9B9B98",
"u.	c #C9C9C7",
"v.	c #B6B6B6",
"w.	c #D4D4D0",
"x.	c #C7C7C4",
"y.	c #C6C6C0",
"z.	c #C0C0BB",
"A.	c #B7B7B2",
"B.	c #B3B3B0",
"C.	c #B0B0AD",
"D.	c #B1B1AE",
"E.	c #AEAEAB",
"F.	c #9E9E9E",
"G.	c #5B5B59",
"H.	c #D0D0CD",
"I.	c #C1C1BD",
"J.	c #D2D2D0",
"K.	c #D1D1CE",
"L.	c #CFCFCC",
"M.	c #CBCBC7",
"N.	c #BFBFBC",
"O.	c #AFAFAD",
"P.	c #7A7A77",
"Q.	c #CBCBC8",
"R.	c #CACAC6",
"S.	c #B8B8B8",
"T.	c #CECEC9",
"U.	c #BFBFB9",
"V.	c #BCBCB9",
"W.	c #B9B9B4",
"X.	c #B8B8B2",
"Y.	c #B3B3AE",
"Z.	c #AFAFAA",
"`.	c #A5A5A0",
" +	c #979794",
".+	c #91918F",
"++	c #9A9A95",
"@+	c #C4C4C0",
"#+	c #B8B8B6",
"$+	c #D0D0CC",
"%+	c #CECECC",
"&+	c #CECECA",
"*+	c #C6C6C2",
"=+	c #BBBBB7",
"-+	c #ACACAA",
";+	c #B3B3B3",
">+	c #CCCCC8",
",+	c #C9C9C6",
"'+	c #C6C6C3",
")+	c #C8C8C4",
"!+	c #C7C7C3",
"~+	c #B1B1AF",
"{+	c #B4B4B3",
"]+	c #B4B4B1",
"^+	c #B3B3AF",
"/+	c #B1B1AD",
"(+	c #B6B6B4",
"_+	c #929290",
"                                                ",
". . . . . . . . . . . . . . . . . .             ",
". + + + + + + + + + + + + + + + @ # .           ",
". + $ + + + + + % % % % % % % & * & = .         ",
". + - + + + % % % % % % & & ; > , ' ) ! .       ",
". + - + & & & & ~ ~ ~ - - - { ] ^ / ( _ .       ",
". + $ % % & & ; > > > ~ ] - $ : < [ } , .       ",
". + : | - - 1 2 3 3 4 , 5 6 7 ^ 8 9 ^ # .       ",
". + < ~ ~ 0 a b c d e f g h 9 i j j k l .       ",
". + [ { [ m n o p q r s t u v w x y z A .       ",
". + h { [ B C ; D E F G H I J K k L M A .       ",
". + 9 N O P Q R S T U V 3 x W X Y X Z ` .       ",
". +  .N ..+.@.#.$.%.&.*.=.-.;.;.O O >.,..       ",
". + 7 '.).!.~.{.].^./.(.(._.:.Z z Z <.[..       ",
". + L J }.|.1.4 3 3 2.3.(.(.4.>.5.6.-.7..       ",
". + X 8.9.0.a.b.c.d.d.e.(.(.(.f.g.h.-.7..       ",
". + i.j.k.l.m.n.o.p.q.r.s.. (.(.t.g.u.v..       ",
". + O w.x.y.z.A.B.C.D.E.F.G.(.(.(.H.I.[..       ",
". + } Z Z 6.w.J.K.K.L.M.N.O.P.(.(.Q.R.S..       ",
". + M T.U.V.n.n.W.X.X.Y.Z.`. +.+++@+M.#+.       ",
". + >.h.h.g.-.$+%+&+&+9.M.*+=+-+O.I.I.;+.       ",
". + g.K.-.%+&+&+&+&+>+>+>+,+'+0.N.)+!+[..       ",
". + ~+{+]+]+]+1 1 ^+^+^+~+/+/+O.O.^+(+_+.       ",
". . . . . . . . . . . . . . . . . . . .         "};
