/* XPM */
static char * tb_text_indent_xpm[] = {
"24 24 80 1",
" 	c None",
".	c #D6D6D6",
"+	c #B9B9B9",
"@	c #ABABAB",
"#	c #C0C0C0",
"$	c #7A7A7A",
"%	c #545454",
"&	c #4D4D4D",
"*	c #525252",
"=	c #515151",
"-	c #4F4F4F",
";	c #909090",
">	c #CFCFCF",
",	c #D4D4D4",
"'	c #CECECE",
")	c #D3D3D3",
"!	c #D1D1D1",
"~	c #A7A7A7",
"{	c #C9C9C9",
"]	c #9B9B9B",
"^	c #BEBEBE",
"/	c #B3B3B3",
"(	c #999999",
"_	c #C6C6C6",
":	c #838383",
"<	c #9D9D9D",
"[	c #A8A8A8",
"}	c #636363",
"|	c #919191",
"1	c #818181",
"2	c #737373",
"3	c #9F9F9F",
"4	c #B0B0B0",
"5	c #8D8D8D",
"6	c #5E5E5E",
"7	c #404040",
"8	c #A4A4A4",
"9	c #626262",
"0	c #282828",
"a	c #212121",
"b	c #0D0D0D",
"c	c #575757",
"d	c #BCBCBC",
"e	c #4E4E4E",
"f	c #535353",
"g	c #111111",
"h	c #0E0E0E",
"i	c #050505",
"j	c #454545",
"k	c #B7B7B7",
"l	c #5C5C5C",
"m	c #7E7E7E",
"n	c #C3C3C3",
"o	c #808080",
"p	c #717171",
"q	c #434343",
"r	c #252525",
"s	c #5F5F5F",
"t	c #AEAEAE",
"u	c #CBCBCB",
"v	c #9A9A9A",
"w	c #989898",
"x	c #B8B8B8",
"y	c #656565",
"z	c #797979",
"A	c #6F6F6F",
"B	c #8C8C8C",
"C	c #C7C7C7",
"D	c #8E8E8E",
"E	c #AAAAAA",
"F	c #5B5B5B",
"G	c #BDBDBD",
"H	c #CDCDCD",
"I	c #A0A0A0",
"J	c #858585",
"K	c #CCCCCC",
"L	c #8B8B8B",
"M	c #BFBFBF",
"N	c #B4B4B4",
"O	c #C5C5C5",
"........................",
"........................",
"........................",
"........................",
"........................",
".....+@@@@@@@@#.........",
".....$%&*=-%&*;>,')!....",
".....~{]^/~{]^/~{]^/....",
".....(_:<[(_}|123}|1{...",
".....4<56+..777777778...",
".....90abcd.eeeeeeee[...",
".....fghijk.llllllmn>...",
".....<opq@..rrrrrrs.....",
".....tuvwxtuy:zABywx....",
".....<CD+E<CD+E<CD+E....",
".....zseFcfseFcfG#H{....",
".....IJJJJJJJJ|<K.......",
".....Lyyyyyyyy<.........",
".....MNNNNNNNNO.........",
"........................",
"........................",
"........................",
"........................",
"........................"};
