/* XPM */
static const char * tb_text_fgcolor_xpm[] = {
"22 22 37 1",
" 	c None",
".	c #A99859",
"+	c #72653C",
"@	c #5D5230",
"#	c #564C2C",
"$	c #605532",
"%	c #594F2F",
"&	c #50482A",
"*	c #5B5130",
"=	c #5E5331",
"-	c #776B40",
";	c #000000",
">	c #0F0E07",
",	c #100E07",
"'	c #685D36",
")	c #050401",
"!	c #37311D",
"~	c #615633",
"{	c #0B0905",
"]	c #110F09",
"^	c #15120B",
"/	c #211E11",
"(	c #2E2818",
"_	c #3A341D",
":	c #342F1B",
"<	c #453D24",
"[	c #463E23",
"}	c #50472A",
"|	c #6D633B",
"1	c #37301D",
"2	c #38331E",
"3	c #807345",
"4	c #2F2A1A",
"5	c #2C2716",
"6	c #2C2717",
"7	c #252113",
"8	c #0D0B05",
"                      ",
"                      ",
"                      ",
"    .+@#$%#&*****=    ",
"    -;;;;;>;,;;;;;    ",
"    ';   ;);!   ;;    ",
"    ~    ;{;!    ;    ",
"         ;];!         ",
"         ;^;!         ",
"         ;/;!         ",
"         ;(;!         ",
"         ;_;:         ",
"         ;<;:         ",
"         ;[;!         ",
"         ;};!         ",
"         ;|;1         ",
"        ;23;4;        ",
"       ;;5;;678       ",
"                      ",
"                      ",
"                      ",
"                      "};
