/* XPM */
static char * tb_text_unindent_xpm[] = {
"24 24 77 1",
" 	c None",
".	c #D6D6D6",
"+	c #B9B9B9",
"@	c #ABABAB",
"#	c #C0C0C0",
"$	c #7A7A7A",
"%	c #545454",
"&	c #4D4D4D",
"*	c #525252",
"=	c #515151",
"-	c #4F4F4F",
";	c #909090",
">	c #CFCFCF",
",	c #D4D4D4",
"'	c #CECECE",
")	c #D3D3D3",
"!	c #D1D1D1",
"~	c #A7A7A7",
"{	c #C9C9C9",
"]	c #9B9B9B",
"^	c #BEBEBE",
"/	c #B3B3B3",
"(	c #999999",
"_	c #C6C6C6",
":	c #696969",
"<	c #B7B7B7",
"[	c #A8A8A8",
"}	c #636363",
"|	c #919191",
"1	c #818181",
"2	c #737373",
"3	c #9F9F9F",
"4	c #A6A6A6",
"5	c #9D9D9D",
"6	c #C3C3C3",
"7	c #404040",
"8	c #A4A4A4",
"9	c #A2A2A2",
"0	c #383838",
"a	c #060606",
"b	c #282828",
"c	c #4E4E4E",
"d	c #989898",
"e	c #222222",
"f	c #020202",
"g	c #111111",
"h	c #949494",
"i	c #5C5C5C",
"j	c #7E7E7E",
"k	c #8E8E8E",
"l	c #333333",
"m	c #808080",
"n	c #252525",
"o	c #5F5F5F",
"p	c #AEAEAE",
"q	c #CBCBCB",
"r	c #6F6F6F",
"s	c #C2C2C2",
"t	c #B8B8B8",
"u	c #656565",
"v	c #838383",
"w	c #797979",
"x	c #8C8C8C",
"y	c #C7C7C7",
"z	c #AAAAAA",
"A	c #5B5B5B",
"B	c #575757",
"C	c #535353",
"D	c #BDBDBD",
"E	c #CDCDCD",
"F	c #A0A0A0",
"G	c #858585",
"H	c #CCCCCC",
"I	c #8B8B8B",
"J	c #BFBFBF",
"K	c #B4B4B4",
"L	c #C5C5C5",
"                        ",
"                        ",
"                        ",
"                        ",
"                        ",
"     +@@@@@@@@#         ",
"     $%&*=-%&*;>,')!    ",
"     ~{]^/~{]^/~{]^/    ",
"     (_:<[(_}|123}|1{   ",
"      4-556 777777778   ",
"     90abb] cccccccc[   ",
"     defggh iiiiiij6>   ",
"      klmm+ nnnnnno     ",
"     pqrstpquvwrxudt    ",
"     5yk+z5yk+z5yk+z    ",
"     wocABCocABCD#E{    ",
"     FGGGGGGGG|5H       ",
"     Iuuuuuuuu5         ",
"     JKKKKKKKKL         ",
"                        ",
"                        ",
"                        ",
"                        ",
"                        "};
