/* XPM */
static const char * tb_text_strikeout_xpm[] = {
"24 24 76 1",
" 	c None",
".	c #000000",
"+	c #E2E2E2",
"@	c #F2F2F2",
"#	c #F3F3F3",
"$	c #F4F4F4",
"%	c #F5F5F5",
"&	c #F6F6F6",
"*	c #F7F7F7",
"=	c #DBDBDB",
"-	c #F0F0F0",
";	c #E0E0E0",
">	c #E1E1E1",
",	c #E3E3E3",
"'	c #E4E4E4",
")	c #E5E5E5",
"!	c #E6E6E6",
"~	c #E7E7E7",
"{	c #E8E8E8",
"]	c #E9E9E9",
"^	c #EAEAEA",
"/	c #EBEBEB",
"(	c #ECECEC",
"_	c #EDEDED",
":	c #EEEEEE",
"<	c #EFEFEF",
"[	c #F1F1F1",
"}	c #AAAAAA",
"|	c #111111",
"1	c #525252",
"2	c #131313",
"3	c #989898",
"4	c #080808",
"5	c #6A6A6A",
"6	c #1B1B1B",
"7	c #383838",
"8	c #8B8B8B",
"9	c #AFAFAF",
"0	c #C8C8C8",
"a	c #323232",
"b	c #141414",
"c	c #C0C0C0",
"d	c #686868",
"e	c #C6C6C6",
"f	c #646464",
"g	c #252525",
"h	c #101010",
"i	c #F8F8F8",
"j	c #161616",
"k	c #1D1D1D",
"l	c #D1D1D1",
"m	c #353535",
"n	c #F9F9F9",
"o	c #A7A7A7",
"p	c #C9C9C9",
"q	c #FAFAFA",
"r	c #4C4C4C",
"s	c #070707",
"t	c #BBBBBB",
"u	c #666666",
"v	c #FBFBFB",
"w	c #FCFCFC",
"x	c #DCDCDC",
"y	c #040404",
"z	c #4D4D4D",
"A	c #212121",
"B	c #0D0D0D",
"C	c #FDFDFD",
"D	c #878787",
"E	c #A3A3A3",
"F	c #7D7D7D",
"G	c #979797",
"H	c #FEFEFE",
"I	c #2C2C2C",
"J	c #FFFFFF",
"K	c #BDBDBD",
" ....................   ",
".+@@@@###$$$%%%&&**$=.  ",
".-;;>+,')!~{{]^/(_:<_.  ",
".@>>+,')!~{]^^/(_:<-[.  ",
".@+,,')!~}.|'((_:<-[@.  ",
".#,'))!~{12.3__:<-[@#.  ",
".#')!~~{=4567:<<-[@#$.  ",
".#)!~{]]8.95.0-[[@#$%.  ",
".$!~{]^^ab^c.d[@##$%&.  ",
".$~{]^/e.f:<gh]#$%%&*.  ",
".%{]^............&**i.  ",
".%]^/(^jk--[l.m%&*iin.  ",
".%^/(_o........p*inqq.  ",
".&/(_:rs+@#$$t.uinqvw.  ",
".*__:xyz@#$%%&AB:qvwC.  ",
".*:<<D.E#$%&**F.GvwCH.  ",
".i-[@IB(%&*inq=.aCHJJ.  ",
".i[@#$$%&*inqvwCCHJJJ.  ",
".@@#$%&&*inqvwCHJJJJ(.  ",
".p_i%&*iinqvwCHJJJJ:K.  ",
" ....................   ",
"                        ",
"                        ",
"                        "};
