/* XPM */
static const char * tb_text_direction_rtl_xpm[] = {
"24 24 83 1",
" 	c None",
".	c #000000",
"+	c #DBDBDB",
"@	c #F4F4F4",
"#	c #F7F7F7",
"$	c #F6F6F6",
"%	c #F5F5F5",
"&	c #F3F3F3",
"*	c #F2F2F2",
"=	c #E2E2E2",
"-	c #EDEDED",
";	c #EFEFEF",
">	c #EEEEEE",
",	c #ECECEC",
"'	c #EBEBEB",
")	c #EAEAEA",
"!	c #E9E9E9",
"~	c #E8E8E8",
"{	c #E7E7E7",
"]	c #E6E6E6",
"^	c #E5E5E5",
"/	c #E4E4E4",
"(	c #E3E3E3",
"_	c #E1E1E1",
":	c #E0E0E0",
"<	c #F0F0F0",
"[	c #F1F1F1",
"}	c #808080",
"|	c #9994A7",
"1	c #494066",
"2	c #9793A5",
"3	c #818181",
"4	c #888888",
"5	c #929292",
"6	c #999999",
"7	c #A2A2A2",
"8	c #AAAAAA",
"9	c #B3B3B3",
"0	c #BABABA",
"a	c #828282",
"b	c #848484",
"c	c #838383",
"d	c #8B8B8B",
"e	c #949494",
"f	c #9C9C9C",
"g	c #A5A5A5",
"h	c #ADADAD",
"i	c #B6B6B6",
"j	c #BDBDBD",
"k	c #C6C6C6",
"l	c #CFCFCF",
"m	c #D7D7D7",
"n	c #DEDEDE",
"o	c #F8F8F8",
"p	c #F9F9F9",
"q	c #858585",
"r	c #FAFAFA",
"s	c #868686",
"t	c #8E8E8E",
"u	c #979797",
"v	c #9F9F9F",
"w	c #A7A7A7",
"x	c #B1B1B1",
"y	c #C1C1C1",
"z	c #CACACA",
"A	c #D2D2D2",
"B	c #FCFCFC",
"C	c #FBFBFB",
"D	c #FDFDFD",
"E	c #FEFEFE",
"F	c #878787",
"G	c #FFFFFF",
"H	c #898989",
"I	c #919191",
"J	c #9A9A9A",
"K	c #A3A3A3",
"L	c #ACACAC",
"M	c #B5B5B5",
"N	c #BEBEBE",
"O	c #C5C5C5",
"P	c #CECECE",
"Q	c #DFDFDF",
"R	c #C9C9C9",
" ....................   ",
".+@##$$%%%@@@&&&****=.  ",
".-;>-,')!~~{]^/(=_::<.  ",
".[<;}-,'))!~{]^|112_*.  ",
".*[33}}4567890]1/(1=*.  ",
".&*[3;>--,')!~{1111(&.  ",
".@&*[<;;>-,')!~1{]1/&.  ",
".%@&a[[<;>-,')!!~{]^&.  ",
".$%bccadefghijklmn{]@.  ",
".#$%b@&*[<;>-,,')!~{@.  ",
".o##$%@&*[<;>>-,')!~%.  ",
".pooq$%@&*[<<;>-,')!%.  ",
".rrssqqtuvwx0yzA+=')%.  ",
".BCrso#$%@@&*[<;>-,'$.  ",
".DBCrpo#$%%@&*[<;>--#.  ",
".EDBFrpo##$%@&*[<;;>#.  ",
".GGH44FIJKLMNOPmQ~[<o.  ",
".GGGHDDBCrpo#$%@@&*[o.  ",
".,GGGGEDBCrpo#$$%@&**.  ",
".j>GGGGEDBCrpoo#$%o-R.  ",
" ....................   ",
"                        ",
"                        ",
"                        "};
