/* XPM */
static const char * tb_text_subscript_xpm[] = {
"24 24 74 1",
" 	c None",
".	c #000000",
"+	c #E2E2E2",
"@	c #F2F2F2",
"#	c #F3F3F3",
"$	c #F4F4F4",
"%	c #F5F5F5",
"&	c #F6F6F6",
"*	c #F7F7F7",
"=	c #DBDBDB",
"-	c #F0F0F0",
";	c #E0E0E0",
">	c #E1E1E1",
",	c #E3E3E3",
"'	c #E4E4E4",
")	c #E5E5E5",
"!	c #E6E6E6",
"~	c #E7E7E7",
"{	c #E8E8E8",
"]	c #E9E9E9",
"^	c #EAEAEA",
"/	c #EBEBEB",
"(	c #ECECEC",
"_	c #EDEDED",
":	c #EEEEEE",
"<	c #EFEFEF",
"[	c #F1F1F1",
"}	c #606060",
"|	c #7B7B7B",
"1	c #0F0F0F",
"2	c #646464",
"3	c #232323",
"4	c #979797",
"5	c #313131",
"6	c #0E0E0E",
"7	c #B5B5B5",
"8	c #3E3E3E",
"9	c #919191",
"0	c #656565",
"a	c #5A5A5A",
"b	c #CFCFCF",
"c	c #101010",
"d	c #C5C5C5",
"e	c #0B0B0B",
"f	c #777777",
"g	c #020202",
"h	c #959595",
"i	c #4C4C4C",
"j	c #4D4D4D",
"k	c #1E1E1E",
"l	c #A0A0A0",
"m	c #D1D1D1",
"n	c #7C7C7C",
"o	c #383838",
"p	c #F8F8F8",
"q	c #AFAFAF",
"r	c #141414",
"s	c #D6D6D6",
"t	c #D0D0D0",
"u	c #F9F9F9",
"v	c #FAFAFA",
"w	c #555555",
"x	c #5F5F5F",
"y	c #333333",
"z	c #737373",
"A	c #FBFBFB",
"B	c #FCFCFC",
"C	c #FDFDFD",
"D	c #FEFEFE",
"E	c #FFFFFF",
"F	c #D9D9D9",
"G	c #C9C9C9",
"H	c #DADADA",
"I	c #BDBDBD",
" ....................   ",
".+@@@@###$$$%%%&&**$=.  ",
".-;;>+,')!~{{]^/(_:<,.  ",
".@>>+,')!~{]^^/(_:<-~.  ",
".@+,,')!~{]^/((_:<-[{.  ",
".#,'))!~}.|/(__:<-[@].  ",
".#')!~~;123(_:<<-[@#^.  ",
".#)!~{]45>67:<-[[@#$/.  ",
".$!~{]^89(0a<-[@##$%(.  ",
".$~{]^bc+_de)[@#$%%&_.  ",
".%{]^/fg666.h@i...j*:.  ",
".%]^//klmmmno#$i.jpp<.  ",
".%^/(qr_-[@s.t%&jpuv-.  ",
".&/(_wx-[@#$yz&*puvA@.  ",
".*__:<-[@#$%%&*...AB#.  ",
".*:<<-[@#$%&**pu.ABC$.  ",
".p-[@@#$%&*puvAA.CDE%.  ",
".p[@#$$%&*puvABCCDEE%.  ",
".@@#$%&&*puvABCDEEEEF.  ",
".GH:/(_::<-[@#$%%%%'I.  ",
" ....................   ",
"                        ",
"                        ",
"                        "};
