/* XPM */
static char * tb_text_underline_P_xpm[] = {
"24 24 2 1",
" 	c None",
".	c #000000",
"                        ",
"                        ",
"                        ",
"                        ",
"                        ",
"                        ",
"                        ",
"                        ",
"        .......         ",
"         ..    .        ",
"         ..    .        ",
"         ..    .        ",
"         ......         ",
"         ..             ",
"         ..             ",
"         ..             ",
"        ......          ",
"                        ",
"       ..........       ",
"                        ",
"                        ",
"                        ",
"                        ",
"                        "};
