/* XPM */
static const char * tb_text_unindent_xpm[] = {
"24 24 70 1",
" 	c None",
".	c #000000",
"+	c #E2E2E2",
"@	c #F2F2F2",
"#	c #F3F3F3",
"$	c #F4F4F4",
"%	c #F5F5F5",
"&	c #F6F6F6",
"*	c #F7F7F7",
"=	c #DBDBDB",
"-	c #F0F0F0",
";	c #E0E0E0",
">	c #E1E1E1",
",	c #E3E3E3",
"'	c #E4E4E4",
")	c #E5E5E5",
"!	c #AEAEAE",
"~	c #E7E7E7",
"{	c #E8E8E8",
"]	c #E9E9E9",
"^	c #EAEAEA",
"/	c #EBEBEB",
"(	c #ECECEC",
"_	c #EDEDED",
":	c #EEEEEE",
"<	c #EFEFEF",
"[	c #E6E6E6",
"}	c #ACACAC",
"|	c #ADADAD",
"1	c #AFAFAF",
"2	c #B0B0B0",
"3	c #B1B1B1",
"4	c #B2B2B2",
"5	c #B3B3B3",
"6	c #B4B4B4",
"7	c #B5B5B5",
"8	c #B6B6B6",
"9	c #F1F1F1",
"0	c #757575",
"a	c #767676",
"b	c #777777",
"c	c #787878",
"d	c #797979",
"e	c #AAAAAA",
"f	c #7A7A7A",
"g	c #ABABAB",
"h	c #7B7B7B",
"i	c #7C7C7C",
"j	c #F8F8F8",
"k	c #F9F9F9",
"l	c #FAFAFA",
"m	c #FBFBFB",
"n	c #FCFCFC",
"o	c #FDFDFD",
"p	c #B7B7B7",
"q	c #B8B8B8",
"r	c #B9B9B9",
"s	c #BABABA",
"t	c #BBBBBB",
"u	c #BCBCBC",
"v	c #BDBDBD",
"w	c #BEBEBE",
"x	c #BFBFBF",
"y	c #C0C0C0",
"z	c #C1C1C1",
"A	c #FFFFFF",
"B	c #FEFEFE",
"C	c #D9D9D9",
"D	c #C9C9C9",
"E	c #DADADA",
" ....................   ",
".+@@@@###$$$%%%&&**$=.  ",
".-;;>+,')!~{{]^/(_:<,.  ",
".@>>+,')[~{]^^/(_:<-~.  ",
".@+}}|!!123445567789{.  ",
".#,'))[~{]^/(__:<-9@].  ",
".#')[~~{]^/(_:<<-9@#^.  ",
".#)[~{]]^0aabbcccdd$/.  ",
".$[~e]^^/(_:<-9@##$%(.  ",
".$~e.^/((abbccddfff&_.  ",
".%e.....::<-9@#$%&**:.  ",
".%]g.(_:<cccddffhhij<.  ",
".%^/|_:<-9@@#$%&*jkl-.  ",
".&/(_:<-9ddfff&*jklm@.  ",
".*__:<-9@#$%%&*jklmn#.  ",
".*:<<-9@#$%&**jklmno$.  ",
".j-pqqqrsttuvwwwxyzA%.  ",
".j9@#$$%&*jklmnooBAA%.  ",
".@@#$%&&*uklmnoBAAAAC.  ",
".DE:/(_::<-9@#$%%%%'v.  ",
" ....................   ",
"                        ",
"                        ",
"                        "};
