/* XPM */
static const char * tb_text_overline_xpm[] = {
"24 24 79 1",
" 	c None",
".	c #000000",
"+	c #E2E2E2",
"@	c #F2F2F2",
"#	c #F3F3F3",
"$	c #F4F4F4",
"%	c #F5F5F5",
"&	c #F6F6F6",
"*	c #F7F7F7",
"=	c #DBDBDB",
"-	c #F0F0F0",
";	c #E0E0E0",
">	c #E1E1E1",
",	c #E3E3E3",
"'	c #E4E4E4",
")	c #E5E5E5",
"!	c #E6E6E6",
"~	c #E7E7E7",
"{	c #E8E8E8",
"]	c #E9E9E9",
"^	c #EAEAEA",
"/	c #EBEBEB",
"(	c #ECECEC",
"_	c #EDEDED",
":	c #EEEEEE",
"<	c #EFEFEF",
"[	c #6C6C6C",
"}	c #F1F1F1",
"|	c #AAAAAA",
"1	c #111111",
"2	c #525252",
"3	c #131313",
"4	c #989898",
"5	c #080808",
"6	c #6A6A6A",
"7	c #1B1B1B",
"8	c #383838",
"9	c #8B8B8B",
"0	c #AFAFAF",
"a	c #C8C8C8",
"b	c #323232",
"c	c #141414",
"d	c #C0C0C0",
"e	c #686868",
"f	c #C6C6C6",
"g	c #646464",
"h	c #252525",
"i	c #101010",
"j	c #F8F8F8",
"k	c #B8B8B8",
"l	c #7B7B7B",
"m	c #979797",
"n	c #F9F9F9",
"o	c #161616",
"p	c #1D1D1D",
"q	c #D1D1D1",
"r	c #353535",
"s	c #FAFAFA",
"t	c #A7A7A7",
"u	c #C9C9C9",
"v	c #FBFBFB",
"w	c #FCFCFC",
"x	c #4C4C4C",
"y	c #070707",
"z	c #BBBBBB",
"A	c #666666",
"B	c #FDFDFD",
"C	c #DCDCDC",
"D	c #040404",
"E	c #4D4D4D",
"F	c #212121",
"G	c #0D0D0D",
"H	c #FEFEFE",
"I	c #878787",
"J	c #A3A3A3",
"K	c #7D7D7D",
"L	c #FFFFFF",
"M	c #2C2C2C",
"N	c #BDBDBD",
" ....................   ",
".+@@@@###$$$%%%&&**$=.  ",
".-;;>+,')!~{{]^/(_:<_.  ",
".@>>+,.........[_:<-}.  ",
".@+,,,')!~{]]^/(_:-}@.  ",
".#,')')!~|.1'((_:-}@#.  ",
".#')!)!~{23.4__:<}@#$.  ",
".#)!~~~{=5678:<<-@#$%.  ",
".$!~{{]]9.06.a-}}#$%&.  ",
".$~{]]^^bc^d.e}@#%%&*.  ",
".%{]^^/f.g:<hi]#$&**j.  ",
".%]^/^^[.k:<l.m$$*jjn.  ",
".%^/((^op--}q.r%&jnss.  ",
".&/(__t........u*nsvw.  ",
".*__::xy+@#$$z.AjsvwB.  ",
".*:<<CDE@#$%%&FG:vwBH.  ",
".j-}@I.J#$%&**K.mBHLL.  ",
".j}@#MG(%&*jns=.bHLLL.  ",
".@@#$%&&*jnsvwBHLLLL(.  ",
".u_j%&*jjnsvwBHLLLL:N.  ",
" ....................   ",
"                        ",
"                        ",
"                        "};
