/* XPM */
static const char * tb_text_justify_xpm[] = {
"24 24 56 1",
" 	c None",
".	c #000000",
"+	c #E2E2E2",
"@	c #F2F2F2",
"#	c #F3F3F3",
"$	c #F4F4F4",
"%	c #F5F5F5",
"&	c #F6F6F6",
"*	c #F7F7F7",
"=	c #DBDBDB",
"-	c #F0F0F0",
";	c #E0E0E0",
">	c #E1E1E1",
",	c #E3E3E3",
"'	c #E4E4E4",
")	c #E5E5E5",
"!	c #E6E6E6",
"~	c #E7E7E7",
"{	c #E8E8E8",
"]	c #E9E9E9",
"^	c #EAEAEA",
"/	c #EBEBEB",
"(	c #ECECEC",
"_	c #EDEDED",
":	c #EEEEEE",
"<	c #EFEFEF",
"[	c #868686",
"}	c #878787",
"|	c #888888",
"1	c #898989",
"2	c #8A8A8A",
"3	c #8B8B8B",
"4	c #8C8C8C",
"5	c #8D8D8D",
"6	c #8E8E8E",
"7	c #F1F1F1",
"8	c #8F8F8F",
"9	c #909090",
"0	c #919191",
"a	c #929292",
"b	c #F8F8F8",
"c	c #939393",
"d	c #F9F9F9",
"e	c #FAFAFA",
"f	c #949494",
"g	c #959595",
"h	c #FBFBFB",
"i	c #FCFCFC",
"j	c #FDFDFD",
"k	c #969696",
"l	c #FEFEFE",
"m	c #FFFFFF",
"n	c #979797",
"o	c #989898",
"p	c #C9C9C9",
"q	c #BDBDBD",
" ....................   ",
".+@@@@###$$$%%%&&**$=.  ",
".-;;>+,')!~{{]^/(_:<_.  ",
".@>[[}}|11223344556-7.  ",
".@+,,')!~{]^/((_:<-7@.  ",
".#,}||1122344555688@#.  ",
".#')!~~{]^/(_:<<-7@#$.  ",
".#)1122234455688899$%.  ",
".$!~{]^^/(_:<-7@##$%&.  ",
".$~22344455688990aa&*.  ",
".%{]^/(_::<-7@#$%&**b.  ",
".%]344556888990aaccbd.  ",
".%^/(_:<-7@@#$%&*bdee.  ",
".&/4556889900aaccfghi.  ",
".*__:<-7@#$%%&*bdehij.  ",
".*:6688990aacccfggkjl.  ",
".b-7@@#$%&*bdehhijlmm.  ",
".b79900aaccfggkkknomm.  ",
".@@#$%&&*bdehijlmmmm(.  ",
".p_b%&*bbdehijlmmmm:q.  ",
" ....................   ",
"                        ",
"                        ",
"                        "};
