/* XPM */
static char * tb_text_fgcolor_xpm[] = {
"24 21 2 1",
" 	c None",
".	c #000000",
"                        ",
"                        ",
"                        ",
"           .            ",
"          ...           ",
"          ...           ",
"         .....          ",
"         .....          ",
"        .. ....         ",
"        .. ....         ",
"       ..   ....        ",
"       .........        ",
"      ...........       ",
"      ..     ....       ",
"     ..       ....      ",
"     ..       ....      ",
"   .....     .......    ",
"                        ",
"                        ",
"                        ",
"                        "};
