/* XPM */
static const char * tb_text_bgcolor_xpm[] = {
"22 22 146 2",
"  	c None",
". 	c #000000",
"+ 	c #141414",
"@ 	c #474747",
"# 	c #EEEEEE",
"$ 	c #050505",
"% 	c #8C8C8C",
"& 	c #4B4B4B",
"* 	c #CACACA",
"= 	c #E1E1E1",
"- 	c #404040",
"; 	c #080808",
"> 	c #8F8F8F",
", 	c #4A4A4A",
"' 	c #CBCBCB",
") 	c #D0D0D0",
"! 	c #E7E7E7",
"~ 	c #424242",
"{ 	c #F9F9F9",
"] 	c #0E0E0E",
"^ 	c #898989",
"/ 	c #4E4E4E",
"( 	c #CECECE",
"_ 	c #D5D5D5",
": 	c #E4E4E4",
"< 	c #EFEFEF",
"[ 	c #414141",
"} 	c #F7F7F7",
"| 	c #0D0D0D",
"1 	c #413533",
"2 	c #883623",
"3 	c #963A27",
"4 	c #4F4F4F",
"5 	c #CFCFCF",
"6 	c #D6D6D6",
"7 	c #E6E6E6",
"8 	c #EDEDED",
"9 	c #F0F0F0",
"0 	c #5C5C5C",
"a 	c #EAEAEA",
"b 	c #1B1B1B",
"c 	c #C16F5D",
"d 	c #DB593B",
"e 	c #A95442",
"f 	c #C2553D",
"g 	c #752E1D",
"h 	c #DDDDDD",
"i 	c #F1F1F1",
"j 	c #ACACAC",
"k 	c #2B2B2B",
"l 	c #E2E2E2",
"m 	c #D9D9D9",
"n 	c #313131",
"o 	c #BA5F4A",
"p 	c #E27E67",
"q 	c #ECCBC4",
"r 	c #C34D31",
"s 	c #8D3723",
"t 	c #393939",
"u 	c #D2D2D2",
"v 	c #F3F3F3",
"w 	c #3B3B3B",
"x 	c #454545",
"y 	c #C2C2C2",
"z 	c #BFBFBF",
"A 	c #202020",
"B 	c #A45846",
"C 	c #DB7860",
"D 	c #EFC6BC",
"E 	c #BC4D32",
"F 	c #4D1D11",
"G 	c #505050",
"H 	c #C6C6C6",
"I 	c #E5E5E5",
"J 	c #ECECEC",
"K 	c #FAFAFA",
"L 	c #303030",
"M 	c #C0C0C0",
"N 	c #B8B8B8",
"O 	c #B0B0B0",
"P 	c #959595",
"Q 	c #BF4124",
"R 	c #E3AA9D",
"S 	c #692210",
"T 	c #AEAEAE",
"U 	c #E8E8E8",
"V 	c #C3C3C3",
"W 	c #B9B9B9",
"X 	c #D7D7D7",
"Y 	c #8D8D8D",
"Z 	c #494949",
"` 	c #1C1C1C",
" .	c #572014",
"..	c #E29684",
"+.	c #5B1C0E",
"@.	c #151515",
"#.	c #C7C7C7",
"$.	c #F5F5F5",
"%.	c #BDBDBD",
"&.	c #868686",
"*.	c #121212",
"=.	c #5B2417",
"-.	c #E48C78",
";.	c #631F0F",
">.	c #222222",
",.	c #E0E0E0",
"'.	c #DADADA",
").	c #69291B",
"!.	c #CA5D43",
"~.	c #67200F",
"{.	c #3A3A3A",
"].	c #C8C8C8",
"^.	c #D3D3D3",
"/.	c #8B8B8B",
"(.	c #1A1A1A",
"_.	c #BD4E35",
":.	c #732411",
"<.	c #C5C5C5",
"[.	c #DBDBDB",
"}.	c #A5A5A5",
"|.	c #C1C1C1",
"1.	c #1D1D1D",
"2.	c #67291A",
"3.	c #CF3C1B",
"4.	c #752412",
"5.	c #2A2A2A",
"6.	c #B3B3B3",
"7.	c #CDCDCD",
"8.	c #8E8E8E",
"9.	c #572216",
"0.	c #D8401D",
"a.	c #902D16",
"b.	c #131313",
"c.	c #949494",
"d.	c #929292",
"e.	c #4A1E13",
"f.	c #BF3718",
"g.	c #762512",
"h.	c #0C0C0C",
"i.	c #28100A",
"j.	c #9F2D14",
"k.	c #3A150B",
"l.	c #260F0A",
"m.	c #8F2D16",
"n.	c #512014",
"o.	c #471C12",
"              . .                           ",
"            .     .                         ",
"            .     .                         ",
"            .   . +                         ",
"            . @ # $ %                       ",
"            & * = - ; >                     ",
"          , ' ) ! ~ { ] ^                   ",
"        / ( _ : < [ } * | 1 2 3             ",
"      4 5 6 7 8 9 0 5 ' a b c d e f g       ",
"    - _ h : < i j k j 8 l m n o p q r s     ",
"  t u = : a v } w } x ! ) y z A B C D E F   ",
"G H _ I J i { K j L M u N O y M P   Q R S   ",
"+ T U a v { K } 9 U _ V W X Y Z ` .  ...+.  ",
"  @.#.i 8 $.$.< 7 u %.#.6 &.*.      =.-.;.  ",
"    >.H J l 7 ,.) %.' '.% @.        ).!.~.  ",
"      {.z ! ( * N ].^./.(.          )._.:.  ",
"        - <.[.}.|.) /.1.            2.3.4.  ",
"          5.6.'.7.8.@.              9.0.a.  ",
"            b.c.d.*.                e.f.g.  ",
"              h.;                   i.j.k.  ",
"                                    l.m.n.  ",
"                                      o.    "};
