/* XPM */
static const char * tb_text_center_xpm[] = {
"24 24 55 1",
" 	c None",
".	c #000000",
"+	c #E2E2E2",
"@	c #F2F2F2",
"#	c #F3F3F3",
"$	c #F4F4F4",
"%	c #F5F5F5",
"&	c #F6F6F6",
"*	c #F7F7F7",
"=	c #DBDBDB",
"-	c #F0F0F0",
";	c #E0E0E0",
">	c #E1E1E1",
",	c #E3E3E3",
"'	c #E4E4E4",
")	c #E5E5E5",
"!	c #E6E6E6",
"~	c #E7E7E7",
"{	c #E8E8E8",
"]	c #E9E9E9",
"^	c #EAEAEA",
"/	c #EBEBEB",
"(	c #ECECEC",
"_	c #EDEDED",
":	c #EEEEEE",
"<	c #EFEFEF",
"[	c #868686",
"}	c #878787",
"|	c #888888",
"1	c #898989",
"2	c #8A8A8A",
"3	c #8B8B8B",
"4	c #8C8C8C",
"5	c #8D8D8D",
"6	c #F1F1F1",
"7	c #8E8E8E",
"8	c #8F8F8F",
"9	c #909090",
"0	c #919191",
"a	c #929292",
"b	c #F8F8F8",
"c	c #F9F9F9",
"d	c #FAFAFA",
"e	c #939393",
"f	c #FBFBFB",
"g	c #FCFCFC",
"h	c #FDFDFD",
"i	c #FEFEFE",
"j	c #FFFFFF",
"k	c #949494",
"l	c #959595",
"m	c #969696",
"n	c #979797",
"o	c #C9C9C9",
"p	c #BDBDBD",
" ....................   ",
".+@@@@###$$$%%%&&**$=.  ",
".-;;>+,')!~{{]^/(_:<_.  ",
".@>>[}}|1122334455<-6.  ",
".@+,,')!~{]^/((_:<-6@.  ",
".#,'))!~223445_:<-6@#.  ",
".#')!~~{]^/(_:<<-6@#$.  ",
".#)!~{22344557886@#$%.  ",
".$!~{]^^/(_:<-6@##$%&.  ",
".$~{2344455788990a%&*.  ",
".%{]^/(_::<-6@#$%&**b.  ",
".%]^/(_:<8889#$%&*bbc.  ",
".%^/(_:<-6@@#$%&*bcdd.  ",
".&/(_:7889900aaebcdfg.  ",
".*__:<-6@#$%%&*bcdfgh.  ",
".*:<<-6@90aaeebcdfghi.  ",
".b-6@@#$%&*bcdffghijj.  ",
".b6@900aaeekllmmmnjjj.  ",
".@@#$%&&*bcdfghijjjj(.  ",
".o_b%&*bbcdfghijjjj:p.  ",
" ....................   ",
"                        ",
"                        ",
"                        "};
