/* XPM */
static char * tb_text_bold_G_xpm[] = {
"24 24 2 1",
" 	c None",
".	c #000000",
"                        ",
"                        ",
"                        ",
"                        ",
"                        ",
"                        ",
"                        ",
"                        ",
"        .........       ",
"       ....    ..       ",
"      ....      .       ",
"      ....              ",
"      ....   ....       ",
"      ....   ....       ",
"      ....     ..       ",
"       ..........       ",
"        ........        ",
"                        ",
"                        ",
"                        ",
"                        ",
"                        ",
"                        ",
"                        "};
