/* XPM */
static char * tb_text_bottomline_it_IT_xpm[] = {
"24 24 2 1",
" 	c None",
".	c #000000",
"                        ",
"                        ",
"                        ",
"                        ",
"                        ",
"                 .      ",
"                 .      ",
"    ...    ...  ....    ",
"   .   .  .. ..  .      ",
"   .      .   .  .      ",
"    ...   .   .  .      ",
"       .  .   .  .      ",
"   .   .  .. ..  .      ",
"    ...    ...    ..    ",
"                        ",
"                        ",
"                        ",
"                        ",
"                        ",
"                        ",
"                        ",
"                        ",
"  ....................  ",
"                        "};
