/* XPM */
static const char * tb_text_indent_xpm[] = {
"24 24 69 1",
" 	c None",
".	c #000000",
"+	c #E2E2E2",
"@	c #F2F2F2",
"#	c #F3F3F3",
"$	c #F4F4F4",
"%	c #F5F5F5",
"&	c #F6F6F6",
"*	c #F7F7F7",
"=	c #DBDBDB",
"-	c #F0F0F0",
";	c #E0E0E0",
">	c #E1E1E1",
",	c #E3E3E3",
"'	c #E4E4E4",
")	c #E5E5E5",
"!	c #AEAEAE",
"~	c #E7E7E7",
"{	c #E8E8E8",
"]	c #E9E9E9",
"^	c #EAEAEA",
"/	c #EBEBEB",
"(	c #ECECEC",
"_	c #EDEDED",
":	c #EEEEEE",
"<	c #EFEFEF",
"[	c #E6E6E6",
"}	c #ACACAC",
"|	c #ADADAD",
"1	c #AFAFAF",
"2	c #B0B0B0",
"3	c #B1B1B1",
"4	c #B2B2B2",
"5	c #B3B3B3",
"6	c #B4B4B4",
"7	c #B5B5B5",
"8	c #B6B6B6",
"9	c #F1F1F1",
"0	c #757575",
"a	c #767676",
"b	c #777777",
"c	c #787878",
"d	c #797979",
"e	c #AAAAAA",
"f	c #7A7A7A",
"g	c #7B7B7B",
"h	c #7C7C7C",
"i	c #F8F8F8",
"j	c #F9F9F9",
"k	c #FAFAFA",
"l	c #FBFBFB",
"m	c #FCFCFC",
"n	c #FDFDFD",
"o	c #B7B7B7",
"p	c #B8B8B8",
"q	c #B9B9B9",
"r	c #BABABA",
"s	c #BBBBBB",
"t	c #BCBCBC",
"u	c #BDBDBD",
"v	c #BEBEBE",
"w	c #BFBFBF",
"x	c #C0C0C0",
"y	c #C1C1C1",
"z	c #FFFFFF",
"A	c #FEFEFE",
"B	c #D9D9D9",
"C	c #C9C9C9",
"D	c #DADADA",
" ....................   ",
".+@@@@###$$$%%%&&**$=.  ",
".-;;>+,')!~{{]^/(_:<,.  ",
".@>>+,')[~{]^^/(_:<-~.  ",
".@+}}|!!123445567789{.  ",
".#,'))[~{]^/(__:<-9@].  ",
".#')[~~{]^/(_:<<-9@#^.  ",
".#)[~{]]^0aabbcccdd$/.  ",
".$[~{e^^/(_:<-9@##$%(.  ",
".$~{].}((abbccddfff&_.  ",
".%.....|::<-9@#$%&**:.  ",
".%]^/.|:<cccddffgghi<.  ",
".%^/(|:<-9@@#$%&*ijk-.  ",
".&/(_:<-9ddfff&*ijkl@.  ",
".*__:<-9@#$%%&*ijklm#.  ",
".*:<<-9@#$%&**ijklmn$.  ",
".i-opppqrsstuvvvwxyz%.  ",
".i9@#$$%&*ijklmnnAzz%.  ",
".@@#$%&&*tjklmnAzzzzB.  ",
".CD:/(_::<-9@#$%%%%'u.  ",
" ....................   ",
"                        ",
"                        ",
"                        "};
