/* XPM */
static char * tb_text_direction_rtl_xpm[] = {
"24 24 3 1",
" 	c None",
".	c #393789",
"+	c #000000",
"                        ",
"                        ",
"                        ",
"   .                    ",
"  ..                    ",
" ...................... ",
"  ..                    ",
"   .                    ",
"                        ",
"                        ",
"         ++             ",
"         ++             ",
"  ++++   +++++    ++++  ",
" ++ +++  +++ ++  ++  ++ ",
" ++      ++  +++     ++ ",
" ++      ++   ++  +++++ ",
" ++      ++   ++ ++  ++ ",
" ++  ++  ++  ++  ++  ++ ",
" ++++++  ++++++  ++++++ ",
"   ++    +  ++    ++  + ",
"                        ",
"                        ",
"                        ",
"                        "};
