/* XPM */
static char * tb_text_overline_F_xpm[] = {
"24 24 3 1",
" 	c None",
".	c #000000",
"+	c #FFFFFF",
"                        ",
"                        ",
"                        ",
"                        ",
"                        ",
"                        ",
"        ........        ",
"                        ",
"        ........        ",
"         ..   ..        ",
"         ..    .        ",
"         ..  .          ",
"         .....          ",
"         ..  .          ",
"         ..  .          ",
"         ..             ",
"         ..             ",
"        ....            ",
"                        ",
"                        ",
"                        ",
"                        ",
"                        ",
"                        "};
