/* XPM */
static char * tb_text_bottomline_pt_PT_xpm[] = {
"20 19 2 1",
" 	c None",
".	c #000000",
".                   ",
".                   ",
".                   ",
". ..   ..   ...  .. ",
".. .. .  . .  . .  .",
".   .   .. ..   ....",
".   .  . .  ..  .   ",
".   . .  .   .. .   ",
".  .. .  . .  . .   ",
"....  ...  ...   ...",
"                    ",
"                    ",
"                    ",
"                    ",
"                    ",
"                    ",
"                    ",
"                    ",
"...................."};
