/* XPM */
static const char * tb_text_align_right_xpm[] = {
"24 24 54 1",
" 	c None",
".	c #000000",
"+	c #E2E2E2",
"@	c #F2F2F2",
"#	c #F3F3F3",
"$	c #F4F4F4",
"%	c #F5F5F5",
"&	c #F6F6F6",
"*	c #F7F7F7",
"=	c #DBDBDB",
"-	c #F0F0F0",
";	c #E0E0E0",
">	c #E1E1E1",
",	c #E3E3E3",
"'	c #E4E4E4",
")	c #E5E5E5",
"!	c #E6E6E6",
"~	c #E7E7E7",
"{	c #E8E8E8",
"]	c #E9E9E9",
"^	c #EAEAEA",
"/	c #EBEBEB",
"(	c #ECECEC",
"_	c #EDEDED",
":	c #EEEEEE",
"<	c #EFEFEF",
"[	c #898989",
"}	c #8A8A8A",
"|	c #8B8B8B",
"1	c #8C8C8C",
"2	c #8D8D8D",
"3	c #8E8E8E",
"4	c #F1F1F1",
"5	c #888888",
"6	c #8F8F8F",
"7	c #909090",
"8	c #919191",
"9	c #929292",
"0	c #F8F8F8",
"a	c #939393",
"b	c #F9F9F9",
"c	c #FAFAFA",
"d	c #949494",
"e	c #959595",
"f	c #FBFBFB",
"g	c #FCFCFC",
"h	c #FDFDFD",
"i	c #969696",
"j	c #FEFEFE",
"k	c #FFFFFF",
"l	c #979797",
"m	c #989898",
"n	c #C9C9C9",
"o	c #BDBDBD",
" ....................   ",
".+@@@@###$$$%%%&&**$=.  ",
".-;;>+,')!~{{]^/(_:<_.  ",
".@>>+,')![}}||11223-4.  ",
".@+,,')!~{]^/((_:<-4@.  ",
".#,')5[[}}|11222366@#.  ",
".#')!~~{]^/(_:<<-4@#$.  ",
".#)!~{]]^/(_2366677$%.  ",
".$!~{]^^/(_:<-4@##$%&.  ",
".$~{]^/(12236677899&*.  ",
".%{]^/(_::<-4@#$%&**0.  ",
".%]^/(22366677899aa0b.  ",
".%^/(_:<-4@@#$%&*0bcc.  ",
".&/(_:<-4@#$899aadefg.  ",
".*__:<-4@#$%%&*0bcfgh.  ",
".*:<<-4@#$%&**adeeihj.  ",
".0-4@@#$%&*0bcffghjkk.  ",
".04@#$$%9aadeeiiilmkk.  ",
".@@#$%&&*0bcfghjkkkk(.  ",
".n_0%&*00bcfghjkkkk:o.  ",
" ....................   ",
"                        ",
"                        ",
"                        "};
