/* XPM */
static char * tb_text_justify_xpm[] = {
"24 24 28 1",
" 	c None",
".	c #6C613A",
"+	c #39341F",
"@	c #4D4529",
"#	c #1E1B10",
"$	c #272315",
"%	c #675D37",
"&	c #413A23",
"*	c #3C3620",
"=	c #1C1A0F",
"-	c #625835",
";	c #352F1C",
">	c #282415",
",	c #38321E",
"'	c #13110A",
")	c #463F26",
"!	c #443D24",
"~	c #2B2717",
"{	c #433C24",
"]	c #0A0905",
"^	c #1A170E",
"/	c #2F2A19",
"(	c #0F0D08",
"_	c #544B2D",
":	c #605633",
"<	c #615734",
"[	c #000000",
"}	c #595030",
"                        ",
"                        ",
"                        ",
"                        ",
"                        ",
"   .++  @# @# $%&++*=   ",
"                        ",
"   -;+>  ,'## )!' @*+   ",
"                        ",
"   %&++*=   -;+>  @*+   ",
"                        ",
"   )+~ {*+>] @*+^/( $   ",
"                        ",
"   _+++@#]  -+++;'  @   ",
"                        ",
"   :*^ <;#[    %&++*=   ",
"                        ",
"   }/'  !>/][    -;+>   ",
"                        ",
"   @*+^ -;+>  @*+ -;+   ",
"                        ",
"                        ",
"                        ",
"                        "};
