/* XPM */
static char * tb_text_indent_xpm[] = {
"24 24 3 1",
" 	c None",
".	c #000000",
"+	c #000080",
"                        ",
"                        ",
"                        ",
"                        ",
"                        ",
"           .            ",
"                        ",
"       ... ..........   ",
"                        ",
"       +   ..........   ",
"       ++  ..........   ",
"     +++++              ",
"       ++  .......      ",
"       +   .......      ",
"                        ",
"       ... ..........   ",
"                        ",
"       ... ...          ",
"                        ",
"           .            ",
"                        ",
"                        ",
"                        ",
"                        "};
