/* XPM */
static char * tb_text_bgcolor_xpm[] = {
"24 21 7 1",
" 	c None",
".	c #000000",
"+	c #666666",
"@	c #CCCCCC",
"#	c #999999",
"$	c #FFFFFF",
"%	c #333333",
"           .            ",
"           .            ",
"           .            ",
"          ..            ",
"         .+.            ",
"        .+@..           ",
"       .+@@.@.          ",
"      .+@@#.#@.         ",
"     .+@@$...##..       ",
"    .+@@$$+.%#+%..      ",
"    .@@$$$@@#+%...      ",
"     .$$$@@#+%. ..      ",
"      .$@@#+%.  ..      ",
"       .@#+%.   ..      ",
"        .+%.    ..      ",
"         ..     ..      ",
"                .       ",
"                        ",
"                        ",
"                        ",
"                        "};
