/* XPM */
static const char * tb_text_topline_xpm[] = {
"24 24 39 1",
" 	c None",
".	c #000000",
"+	c #E2E2E2",
"@	c #F2F2F2",
"#	c #F3F3F3",
"$	c #F4F4F4",
"%	c #F5F5F5",
"&	c #F6F6F6",
"*	c #F7F7F7",
"=	c #DBDBDB",
"-	c #F0F0F0",
";	c #E0E0E0",
">	c #E1E1E1",
",	c #E3E3E3",
"'	c #E4E4E4",
")	c #E5E5E5",
"!	c #E6E6E6",
"~	c #E7E7E7",
"{	c #E8E8E8",
"]	c #E9E9E9",
"^	c #EAEAEA",
"/	c #EBEBEB",
"(	c #ECECEC",
"_	c #EDEDED",
":	c #EEEEEE",
"<	c #EFEFEF",
"[	c #F1F1F1",
"}	c #949494",
"|	c #323232",
"1	c #F8F8F8",
"2	c #F9F9F9",
"3	c #FAFAFA",
"4	c #FBFBFB",
"5	c #FCFCFC",
"6	c #FDFDFD",
"7	c #FEFEFE",
"8	c #FFFFFF",
"9	c #C9C9C9",
"0	c #BDBDBD",
" ....................   ",
".+@@@@###$$$%%%&&**$=.  ",
".-;;>+,')!~{{]^/(_:<_.  ",
".@>>+,')!~{]^^/(_:<-[.  ",
".@+,,')!~{]^/((_:<-[@.  ",
".#,'))!~{]^/(__:<-[@#.  ",
".#')}.............[#$.  ",
".#)!~{]]^/(_:<-[[@#$%.  ",
".$!~{]^^/(.:<-[@##$%&.  ",
".$~{]^/((_.<-[@#$%%&*.  ",
".%{]]..}_:|..+@}..&*1.  ",
".%]^/(+|<-.[+.$|+*112.  ",
".%^/+|..-[.@#.%.*1233.  ",
".&/(.:<.[@.$$.&.12345.  ",
".*__|+<.[@|#$|&.+2356.  ",
".*:<+.|}|$}|.+1}|.567.  ",
".1-[@@#$%&*1234456788.  ",
".1[@#$$%&*12345667888.  ",
".@@#$%&&*12345678888(.  ",
".9_1%&*112345678888:0.  ",
" ....................   ",
"                        ",
"                        ",
"                        "};
