/* XPM */
static const char * tb_text_direction_ltr_xpm[] = {
"24 24 83 1",
" 	c None",
".	c #000000",
"+	c #E2E2E2",
"@	c #F2F2F2",
"#	c #F3F3F3",
"$	c #F4F4F4",
"%	c #F5F5F5",
"&	c #F6F6F6",
"*	c #F7F7F7",
"=	c #DBDBDB",
"-	c #F0F0F0",
";	c #E0E0E0",
">	c #E1E1E1",
",	c #E3E3E3",
"'	c #E4E4E4",
")	c #E5E5E5",
"!	c #E6E6E6",
"~	c #E7E7E7",
"{	c #E8E8E8",
"]	c #E9E9E9",
"^	c #EAEAEA",
"/	c #EBEBEB",
"(	c #ECECEC",
"_	c #EDEDED",
":	c #EEEEEE",
"<	c #EFEFEF",
"[	c #9793A5",
"}	c #494066",
"|	c #9994A7",
"1	c #808080",
"2	c #F1F1F1",
"3	c #BABABA",
"4	c #B3B3B3",
"5	c #AAAAAA",
"6	c #A2A2A2",
"7	c #999999",
"8	c #929292",
"9	c #888888",
"0	c #818181",
"a	c #828282",
"b	c #DEDEDE",
"c	c #D7D7D7",
"d	c #CFCFCF",
"e	c #C6C6C6",
"f	c #BDBDBD",
"g	c #B6B6B6",
"h	c #ADADAD",
"i	c #A5A5A5",
"j	c #9C9C9C",
"k	c #949494",
"l	c #8B8B8B",
"m	c #838383",
"n	c #848484",
"o	c #F8F8F8",
"p	c #858585",
"q	c #F9F9F9",
"r	c #D2D2D2",
"s	c #CACACA",
"t	c #C1C1C1",
"u	c #B1B1B1",
"v	c #A7A7A7",
"w	c #9F9F9F",
"x	c #979797",
"y	c #8E8E8E",
"z	c #868686",
"A	c #FAFAFA",
"B	c #FBFBFB",
"C	c #FCFCFC",
"D	c #FDFDFD",
"E	c #878787",
"F	c #FEFEFE",
"G	c #DFDFDF",
"H	c #CECECE",
"I	c #C5C5C5",
"J	c #BEBEBE",
"K	c #B5B5B5",
"L	c #ACACAC",
"M	c #A3A3A3",
"N	c #9A9A9A",
"O	c #919191",
"P	c #898989",
"Q	c #FFFFFF",
"R	c #C9C9C9",
" ....................   ",
".+@@@@###$$$%%%&&**$=.  ",
".-;;>+,')!~{{]^/(_:<_.  ",
".@>[}}|)!~{]^^/(_1<-2.  ",
".@+},'}!345678911002@.  ",
".#,}}}}~{]^/(__:<02@#.  ",
".#'}!~}{]^/(_:<<-2@#$.  ",
".#)!~{]]^/(_:<-22a#$%.  ",
".$!~bcdefghijklammn%&.  ",
".$~{]^/((_:<-2@#$n%&*.  ",
".%{]^/(_::<-2@#$%&**o.  ",
".%]^/(_:<--2@#$%&pooq.  ",
".%^/+=rst3uvwxyppzzAA.  ",
".&/(_:<-2@#$$%&*ozABC.  ",
".*__:<-2@#$%%&*oqABCD.  ",
".*:<<-2@#$%&**oqAECDF.  ",
".o-2{GcHIJKLMNOE99PQQ.  ",
".o2@#$$%&*oqABCDDPQQQ.  ",
".@@#$%&&*oqABCDFQQQQ(.  ",
".R_o%&*ooqABCDFQQQQ:f.  ",
" ....................   ",
"                        ",
"                        ",
"                        "};
