/* XPM */
static const char * tb_text_align_left_xpm[] = {
"24 24 53 1",
" 	c None",
".	c #000000",
"+	c #E2E2E2",
"@	c #F2F2F2",
"#	c #F3F3F3",
"$	c #F4F4F4",
"%	c #F5F5F5",
"&	c #F6F6F6",
"*	c #F7F7F7",
"=	c #DBDBDB",
"-	c #F0F0F0",
";	c #E0E0E0",
">	c #E1E1E1",
",	c #E3E3E3",
"'	c #E4E4E4",
")	c #E5E5E5",
"!	c #E6E6E6",
"~	c #E7E7E7",
"{	c #E8E8E8",
"]	c #E9E9E9",
"^	c #EAEAEA",
"/	c #EBEBEB",
"(	c #ECECEC",
"_	c #EDEDED",
":	c #EEEEEE",
"<	c #EFEFEF",
"[	c #868686",
"}	c #878787",
"|	c #888888",
"1	c #898989",
"2	c #8A8A8A",
"3	c #8B8B8B",
"4	c #F1F1F1",
"5	c #8C8C8C",
"6	c #8D8D8D",
"7	c #8E8E8E",
"8	c #8F8F8F",
"9	c #F8F8F8",
"0	c #909090",
"a	c #919191",
"b	c #929292",
"c	c #F9F9F9",
"d	c #FAFAFA",
"e	c #FBFBFB",
"f	c #FCFCFC",
"g	c #FDFDFD",
"h	c #FEFEFE",
"i	c #FFFFFF",
"j	c #939393",
"k	c #949494",
"l	c #959595",
"m	c #C9C9C9",
"n	c #BDBDBD",
" ....................   ",
".+@@@@###$$$%%%&&**$=.  ",
".-;;>+,')!~{{]^/(_:<_.  ",
".@>[[}}|11223^/(_:<-4.  ",
".@+,,')!~{]^/((_:<-4@.  ",
".#,}||11223556667-4@#.  ",
".#')!~~{]^/(_:<<-4@#$.  ",
".#)1122235(_:<-44@#$%.  ",
".$!~{]^^/(_:<-4@##$%&.  ",
".$~22355566788@#$%%&*.  ",
".%{]^/(_::<-4@#$%&**9.  ",
".%]35566788800ab&*99c.  ",
".%^/(_:<-4@@#$%&*9cdd.  ",
".&/5667880#$$%&*9cdef.  ",
".*__:<-4@#$%%&*9cdefg.  ",
".*:77880#$%&**9cdefgh.  ",
".9-4@@#$%&*9cdeefghii.  ",
".9400aabbjjkllfgghiii.  ",
".@@#$%&&*9cdefghiiii(.  ",
".m_9%&*99cdefghiiii:n.  ",
" ....................   ",
"                        ",
"                        ",
"                        "};
