/* XPM */
static const char * tb_undo_xpm[] = {
"24 24 26 1",
" 	c None",
".	c #000000",
"+	c #EFE5BA",
"@	c #EFE7C1",
"#	c #EED680",
"$	c #EFE4B6",
"%	c #CCB76D",
"&	c #96864F",
"*	c #AF9D5D",
"=	c #C0AF73",
"-	c #986B07",
";	c #D1940C",
">	c #DBAB36",
",	c #8F6406",
"'	c #D59D1C",
")	c #A49357",
"!	c #DFB74A",
"~	c #B8820A",
"{	c #D7A62C",
"]	c #C0AC66",
"^	c #D4B150",
"/	c #847645",
"(	c #E0C978",
"_	c #C9B46B",
":	c #8D7E4A",
"<	c #AE9C5C",
"                        ",
"                        ",
"                        ",
"                        ",
"          .             ",
"         ..             ",
"        .+.             ",
"       .@#....          ",
"      .$####%&.         ",
"     .+#######*.        ",
"    .=#########&.       ",
"     .-;;;;;;>#%.       ",
"      .,;;;;;;'#).      ",
"       .,;...-;!%.      ",
"        .-.  .~;#.      ",
"         ..   .;#.      ",
"          .   .{].      ",
"              .^/.      ",
"              .(.       ",
"             ._:.       ",
"            .<&.        ",
"             ..         ",
"                        ",
"                        "};
