/* XPM */
static const char * tb_view_full_screen_xpm[] = {
"24 24 100 2",
"  	c None",
". 	c #000000",
"+ 	c #151515",
"@ 	c #FCFCFC",
"# 	c #ECECEC",
"$ 	c #EDEDED",
"% 	c #EEEEEE",
"& 	c #EFEFEF",
"* 	c #F0F0F0",
"= 	c #F1F1F1",
"- 	c #F2F2F2",
"; 	c #CDCDCD",
"> 	c #D1D1D1",
", 	c #D2D2D2",
"' 	c #D3D3D3",
") 	c #D4D4D4",
"! 	c #D6D6D6",
"~ 	c #D7D7D7",
"{ 	c #D8D8D8",
"] 	c #D9D9D9",
"^ 	c #DBDBDB",
"/ 	c #DCDCDC",
"( 	c #DDDDDD",
"_ 	c #DEDEDE",
": 	c #E0E0E0",
"< 	c #E1E1E1",
"[ 	c #E2E2E2",
"} 	c #C2C2C2",
"| 	c #D5D5D5",
"1 	c #808080",
"2 	c #DADADA",
"3 	c #DFDFDF",
"4 	c #E3E3E3",
"5 	c #C3C3C3",
"6 	c #696969",
"7 	c #494949",
"8 	c #909090",
"9 	c #E4E4E4",
"0 	c #C5C5C5",
"a 	c #CCCCCC",
"b 	c #C0C0C0",
"c 	c #B8B8B8",
"d 	c #B9B9B9",
"e 	c #BBBBBB",
"f 	c #BCBCBC",
"g 	c #BEBEBE",
"h 	c #C9C9C9",
"i 	c #E6E6E6",
"j 	c #C6C6C6",
"k 	c #BFBFBF",
"l 	c #CACACA",
"m 	c #E5E5E5",
"n 	c #E7E7E7",
"o 	c #C7C7C7",
"p 	c #B9C3CD",
"q 	c #677C92",
"r 	c #667B91",
"s 	c #667C91",
"t 	c #5F7387",
"u 	c #E8E8E8",
"v 	c #C8C8C8",
"w 	c #6B6B6B",
"x 	c #B2BDC8",
"y 	c #62778D",
"z 	c #61768C",
"A 	c #60758B",
"B 	c #5F748A",
"C 	c #596D82",
"D 	c #969696",
"E 	c #E9E9E9",
"F 	c #7F7F7F",
"G 	c #222222",
"H 	c #FAFAFA",
"I 	c #AFAFAF",
"J 	c #313131",
"K 	c #898989",
"L 	c #EAEAEA",
"M 	c #6E6E6E",
"N 	c #BABABA",
"O 	c #F9F9F9",
"P 	c #ACACAC",
"Q 	c #8C8C8C",
"R 	c #EBEBEB",
"S 	c #CBCBCB",
"T 	c #F8F8F8",
"U 	c #A9A9A9",
"V 	c #CFCFCF",
"W 	c #B5B5B5",
"X 	c #B2B2B2",
"Y 	c #9E9E9E",
"Z 	c #F3F3F3",
"` 	c #CECECE",
" .	c #C1C1C1",
"..	c #C4C4C4",
"+.	c #F4F4F4",
"@.	c #838383",
"#.	c #383838",
"$.	c #8B8B8B",
"%.	c #D0D0D0",
"&.	c #A6A6A6",
"                                                ",
"  . + . . . . . . . . . . . . . . . . . . .     ",
"  . @ # # # # # $ $ % % & & * * = = - - ; .     ",
"  . * > > > , ' ) ! ~ { ] ^ / ( _ : < [ } .     ",
"  . * > > , ' ) | ~ { 1 2 / ( _ 3 < [ 4 5 .     ",
"  . * > , ' ' , ' ) 6 7 8 { 2 / : [ 4 9 0 .     ",
"  . * , ' ' a b c c d e f f g h ] [ 9 i j .     ",
"  . * ' ) , k . . . . . . . . . l : m n o .     ",
"  . = ) | , c . p q q r s r t . } : n u v .     ",
"  . = | ! w c . x y y z A B C . } D u E v .     ",
"  . = ! F G d . H n 9 : / ] I . 5 J K L h .     ",
"  . - ~ ] M N . O 9 : / ] | P . 0 Q L R S .     ",
"  . - ] 2 ! e . T : / ] | > U . j m R $ a .     ",
"  . - 2 ^ { f . V W X I P U Y . v i # % ; .     ",
"  . Z ^ / 2 o . . . . . . . . . > u % & ` .     ",
"  . Z / ( _ ~ h  .} } 5 ..j v , [ $ & * ` .     ",
"  . +.( _ : : 3 3 < @.#.$.m n E # & * = V .     ",
"  . +._ : < [ 4 m i n K L R # $ & * = - > .     ",
"  . +.: < [ 4 m i n u L R # $ & * = - +.> .     ",
"  . |  .} } 5 0 j o v h l S a ` ` V %.> &..     ",
"  . . . . . . . . . . . . . . . . . . . . .     ",
"                                                ",
"                                                ",
"                                                "};
