/* XPM */
static char * tb_view_showpara_xpm[] = {
"24 24 39 1",
" 	c None",
".	c #000000",
"+	c #FFFFFF",
"@	c #EEEEEE",
"#	c #E1E1E1",
"$	c #E2E2E2",
"%	c #E3E3E3",
"&	c #E4E4E4",
"*	c #E5E5E5",
"=	c #E6E6E6",
"-	c #E7E7E7",
";	c #E8E8E8",
">	c #E9E9E9",
",	c #D6D6D6",
"'	c #EAEAEA",
")	c #9D9D9D",
"!	c #C6C6C6",
"~	c #D7D7D7",
"{	c #E0E0E0",
"]	c #EBEBEB",
"^	c #D8D8D8",
"/	c #383838",
"(	c #CACACA",
"_	c #ECECEC",
":	c #D9D9D9",
"<	c #939393",
"[	c #EDEDED",
"}	c #DADADA",
"|	c #DBDBDB",
"1	c #EFEFEF",
"2	c #DCDCDC",
"3	c #8E8E8E",
"4	c #F0F0F0",
"5	c #DDDDDD",
"6	c #F1F1F1",
"7	c #DEDEDE",
"8	c #F2F2F2",
"9	c #D5D5D5",
"0	c #C8C8C8",
"                        ",
"                        ",
"                        ",
"   ..................   ",
"   .+++++++++++++++@.   ",
"   .+###$$%&**=-;;>,.   ",
"   .+###$%&&*=--;>',.   ",
"   .+##$%).....!~''~.   ",
"   .+#$%&.{.-.;>'']^.   ",
"   .+$%&&/(.-.>'']_:.   ",
"   .+%&&*<..;.'']_[:.   ",
"   .+%&*==-.>.']__[}.   ",
"   .+&*==-;.>.]__[@|.   ",
"   .+*==-;>.'.__[@1|.   ",
"   .+==-;>>.]._[@112.   ",
"   .+=-;>>.3_.[@1145.   ",
"   .+-;;>']]_[@@1465.   ",
"   .+;;>']]_[@@14667.   ",
"   .+;>']]_[@@146687.   ",
"   .69,~~^:}}|255770.   ",
"   ..................   ",
"                        ",
"                        ",
"                        "};
