/* XPM */
static char * tb_view_showpara_xpm[] = {
"24 24 2 1",
" 	c None",
".	c #000000",
"                        ",
"                        ",
"                        ",
"                        ",
"                        ",
"                        ",
"        .........       ",
"       ....  .          ",
"       ....  .          ",
"       ....  .          ",
"        ...  .          ",
"          .  .          ",
"          .  .          ",
"          .  .          ",
"          .  .          ",
"          .  .          ",
"          .  .          ",
"          .  .          ",
"          .  .          ",
"          .  .          ",
"                        ",
"                        ",
"                        ",
"                        "};
