/* XPM */
static char * menu_jump_to_xpm[] = {
"16 16 57 1",
" 	c None",
".	c #000000",
"+	c #131710",
"@	c #B4C5A6",
"#	c #C2D3B5",
"$	c #C7D7BA",
"%	c #CCE4BA",
"&	c #C1E4A9",
"*	c #A5B797",
"=	c #DAB957",
"-	c #F3D36A",
";	c #EFCC5A",
">	c #90752C",
",	c #BDD5AB",
"'	c #BBDBA3",
")	c #C5E7AC",
"!	c #C7EAAF",
"~	c #C2D9B1",
"{	c #ACBC9D",
"]	c #D7B950",
"^	c #FEE464",
"/	c #FAD451",
"(	c #967A2E",
"_	c #9AB287",
":	c #6E8F55",
"<	c #719458",
"[	c #729559",
"}	c #73985A",
"|	c #6A8F50",
"1	c #FFEA59",
"2	c #FEDD53",
"3	c #EAC54A",
"4	c #92AA7F",
"5	c #618349",
"6	c #62844A",
"7	c #63864A",
"8	c #618647",
"9	c #F1CF4D",
"0	c #FFED59",
"a	c #FDDE54",
"b	c #ECC54B",
"c	c #5A7D42",
"d	c #F8CF4F",
"e	c #FDE154",
"f	c #FFE456",
"g	c #F9D651",
"h	c #DCB645",
"i	c #FFDA52",
"j	c #FAD550",
"k	c #EBC54B",
"l	c #8B6B27",
"m	c #060904",
"n	c #876926",
"o	c #D2AA39",
"p	c #E8C14A",
"q	c #DDB645",
"r	c #806421",
"                ",
"                ",
"    .           ",
"    +.          ",
" ....@.....     ",
" .#$%&*.=-;>.   ",
" .,')!~{.]^/(   ",
" ._:<[}|.]123.  ",
" .45678.]90ab.  ",
" ....c.]defgh.  ",
"    ..]ddijkl   ",
"    m .nopqr.   ",
"       .....    ",
"                ",
"                ",
"                "};
