/* XPM */
static const char * menu_delete_row_xpm[] = {
"16 16 21 1",
" 	c None",
".	c #000000",
"+	c #E4E4E4",
"@	c #FFFFFF",
"#	c #B8B8B8",
"$	c #ECECEC",
"%	c #CE3131",
"&	c #E1E1D3",
"*	c #F5F5ED",
"=	c #F7F7F1",
"-	c #F0F0E3",
";	c #FCFCFC",
">	c #ABAB9A",
",	c #CCCC98",
"'	c #CCCC97",
")	c #F8F8F5",
"!	c #330000",
"~	c #7E7E7C",
"{	c #9E9E91",
"]	c #9D9D90",
"^	c #E6E6DA",
"                ",
"     .........  ",
"     .+@@@@@@.  ",
"     .#$$$$$@.  ",
"     .######+.  ",
"     ...........",
"%% %% .&*====-;.",
" %%%  .>,'''',)!",
"%% %% .~{]]]]{^.",
"     ...........",
"     .+@@@@@@.  ",
"     .#$$$$$@.  ",
"     .######+.  ",
"     .........  ",
"                ",
"                "};
