/* XPM */
static const char * menu_merge_cells_xpm[] = {
"16 16 8 1",
" 	g None",
".	g #000000",
"+	g #FFFFFF",
"@	g #E4E4E4",
"#	g #ECECEC",
"$	g #B8B8B8",
"%	g #858585",
"&	g #E9E9E9",
"                ",
"                ",
"                ",
"                ",
"............... ",
".++++++@+++++@. ",
".+#####$#####$. ",
".+#####$#####$. ",
".@$$$$$%$$$$$%. ",
".+#####$#####$. ",
".+#####$#####$. ",
".&$$$$$%$$$$$%. ",
"............... ",
"                ",
"                ",
"                "};
