/* XPM */
static const char * menu_insert_table_xpm[] = {
"16 16 10 1",
" 	c None",
".	c #000000",
"+	c #FFFFFF",
"@	c #E7E7E7",
"#	c #DDDDDD",
"$	c #ECECEC",
"%	c #ABABAB",
"&	c #C9C9C9",
"*	c #7D7D7D",
"=	c #7B7B7B",
"                ",
"................",
".++++@++++@+++#.",
".+$$$%$$$$%$$$&.",
".@%%%%%%%%%%%%*.",
".+$$$%$$$$%$$$&.",
".+$$$%$$$$%$$$&.",
".@%%%%%%%%%%%%=.",
".+$$$%$$$$%$$$&.",
".+$$$%$$$$%$$$&.",
".@%%%%%%%%%%%%=.",
".+$$$%$$$$%$$$&.",
".&&&&=&&&&=&&&&.",
"................",
"                ",
"                "};
