/* XPM */
static const char * menu_add_row_xpm[] = {
"16 16 25 1",
" 	c None",
".	c #000000",
"+	c #FFFFFF",
"@	c #E4E4E4",
"#	c #ECECEC",
"$	c #B8B8B8",
"%	c #595959",
"&	c #4C3B1C",
"*	c #A8833F",
"=	c #FFC662",
"-	c #FCFCFC",
";	c #F0F0E3",
">	c #F7F7F1",
",	c #F5F5ED",
"'	c #E1E1D3",
")	c #7C612E",
"!	c #330000",
"~	c #F8F8F5",
"{	c #CCCC98",
"]	c #CCCC97",
"^	c #ABAB9A",
"/	c #E6E6DA",
"(	c #9E9E91",
"_	c #9D9D90",
":	c #7E7E7C",
"                ",
"       .........",
"       .++++++@.",
"       .+#####$.",
" %     .@$$$$$$.",
" .&  ...........",
".*=. .-;>>>>,'. ",
")===.!~{]]]]{^. ",
".*=. ./(____(:. ",
" ..  ...........",
" %     .++++++@.",
"       .+#####$.",
"       .@$$$$$$.",
"       .........",
"                ",
"                "};
