/* XPM */
static const char * menu_book_xpm[] = {
"16 16 108 2",
"  	c None",
". 	c #22272E",
"+ 	c #000000",
"@ 	c #0E0E0E",
"# 	c #9AAABC",
"$ 	c #5D7894",
"% 	c #536D8A",
"& 	c #45617D",
"* 	c #3D5974",
"= 	c #3C5874",
"- 	c #3F5A75",
"; 	c #425C78",
"> 	c #4E5F71",
", 	c #ABBAC9",
"' 	c #657F9B",
") 	c #4F6B89",
"! 	c #44607E",
"~ 	c #365371",
"{ 	c #314E6B",
"] 	c #324E6B",
"^ 	c #496078",
"/ 	c #3E4C57",
"( 	c #252525",
"_ 	c #9BADBF",
": 	c #5A7693",
"< 	c #4A6684",
"[ 	c #3F5C7A",
"} 	c #33506E",
"| 	c #324F6B",
"1 	c #35526E",
"2 	c #4E565D",
"3 	c #A4B1BF",
"4 	c #66809C",
"5 	c #526E8C",
"6 	c #395674",
"7 	c #324F6C",
"8 	c #4A627A",
"9 	c #3D4A57",
"0 	c #494C4E",
"a 	c #707173",
"b 	c #3C3C3C",
"c 	c #8DA0B6",
"d 	c #587492",
"e 	c #4D6987",
"f 	c #35516F",
"g 	c #34516D",
"h 	c #53677C",
"i 	c #2E353B",
"j 	c #565759",
"k 	c #AFBBC9",
"l 	c #6B85A1",
"m 	c #536F8D",
"n 	c #486482",
"o 	c #3A5775",
"p 	c #4E657C",
"q 	c #2F3D49",
"r 	c #676A6D",
"s 	c #4E4E4E",
"t 	c #8298B1",
"u 	c #607B98",
"v 	c #375371",
"w 	c #4D6071",
"x 	c #333B42",
"y 	c #42474B",
"z 	c #9EA5AF",
"A 	c #7E8F9F",
"B 	c #7A8A9B",
"C 	c #748596",
"D 	c #6E7F90",
"E 	c #5E7184",
"F 	c #5D6F83",
"G 	c #596C80",
"H 	c #45505C",
"I 	c #585B5F",
"J 	c #586069",
"K 	c #2E2F34",
"L 	c #45494E",
"M 	c #4B4E51",
"N 	c #45484C",
"O 	c #41464C",
"P 	c #42474C",
"Q 	c #464B50",
"R 	c #65696E",
"S 	c #626569",
"T 	c #616A73",
"U 	c #626669",
"V 	c #AEB0B2",
"W 	c #E7E8E9",
"X 	c #E6E6E8",
"Y 	c #EFF0F0",
"Z 	c #EEEFF0",
"` 	c #EBEDEE",
" .	c #CBCCCD",
"..	c #8F9499",
"+.	c #1D2023",
"@.	c #3A444E",
"#.	c #636F7C",
"$.	c #9EABB9",
"%.	c #DDE1E4",
"&.	c #E4E7E9",
"*.	c #F0F1F2",
"=.	c #BBBDC0",
"-.	c #5B5E61",
";.	c #222C34",
">.	c #5B6269",
",.	c #AAB2BA",
"'.	c #0D1115",
").	c #161D24",
"                                ",
"        . + + + + + + + + +     ",
"        @ # $ % & * = - ; > +   ",
"      + , ' ) ! ~ { { ] ^ /     ",
"      ( _ : < [ } { | 1 > 2 +   ",
"    + 3 4 5 ! 6 { { 7 8 9 0 a   ",
"    b c d e [ f { { g h i j +   ",
"  + k l m n o 7 { { p q r +     ",
"  s t u ) ! v { { { w x y +     ",
"+ z A B C D E F F G H I +       ",
"+ J K L M M N O P Q R S +       ",
"+ T U V W X Y Z `  ...+         ",
"+.+ + @.#.$.%.&.*.=.-.+         ",
"      + + + + ;.>.,.+           ",
"              '.+ + ).          ",
"                                "};
