/* XPM */
static const char * menu_credits_xpm[] = {
"16 16 72 1",
" 	c None",
".	c #000000",
"+	c #FEFEFE",
"@	c #FDFDFD",
"#	c #E0E0E0",
"$	c #C1C1C1",
"%	c #F1F1F1",
"&	c #C3C3C3",
"*	c #FBFBFB",
"=	c #A8A8A8",
"-	c #ADADAD",
";	c #767676",
">	c #5D5D5D",
",	c #404040",
"'	c #DCDCDC",
")	c #989898",
"!	c #777777",
"~	c #747474",
"{	c #8F8F8F",
"]	c #C2C2C2",
"^	c #858585",
"/	c #4B4B49",
"(	c #161616",
"_	c #DDDDDD",
":	c #797979",
"<	c #B6B6B6",
"[	c #E5E5E5",
"}	c #EAEAEA",
"|	c #C8C8C8",
"1	c #7F7F7F",
"2	c #CACACA",
"3	c #EEEEEE",
"4	c #C5C5C5",
"5	c #959595",
"6	c #B8B8B8",
"7	c #7A7A7A",
"8	c #6F6F6F",
"9	c #CECECE",
"0	c #888888",
"a	c #ECECEC",
"b	c #C4C4C4",
"c	c #737373",
"d	c #787878",
"e	c #D2D2D2",
"f	c #E9E9E9",
"g	c #6E6E6E",
"h	c #EBEBEB",
"i	c #717171",
"j	c #E4E4E4",
"k	c #D4D4D4",
"l	c #6C6C6C",
"m	c #D9D9D9",
"n	c #929292",
"o	c #B7B7B7",
"p	c #B5B5B5",
"q	c #707070",
"r	c #6B6B6B",
"s	c #ABABAB",
"t	c #E8E8E8",
"u	c #C0C0C0",
"v	c #D3D3D3",
"w	c #E7E7E7",
"x	c #BFBFBF",
"y	c #D0D0D0",
"z	c #909090",
"A	c #E6E6E6",
"B	c #BEBEBE",
"C	c #BDBDBD",
"D	c #E3E3E3",
"E	c #BBBBBB",
"F	c #BCBCBC",
"G	c #A0A0A0",
"  .........     ",
" .++++++@#$.    ",
" .+%%%%%%&*=.   ",
" .+%%%%%%-;>,.  ",
" .+%')!~{]^/(.  ",
" .+_:<[}|1234.  ",
" .+5647:890ab.  ",
" .@c[defghih&.  ",
" .@cj;k#lm^}$.  ",
" .@nopq:qrstu.  ",
" .@v;<#tttwwx.  ",
" .@tyzil!AA[B.  ",
" .@wwAAA[[jjC.  ",
" .@A[[[jjDDDE.  ",
" .]CCCFFEEEEG.  ",
"  ...........   "};
