/* XPM */
static char * orient_horizontal_xpm[] = {
"48 48 11 1",
" 	c None",
".	c #000000",
"+	c #FFFFFF",
"@	c #AAAAAA",
"#	c #727272",
"$	c #E3E3E3",
"%	c #1D1D1D",
"&	c #C7C7C7",
"*	c #8E8E8E",
"=	c #555555",
"-	c #393939",
"                                                ",
"                                                ",
"                                                ",
"                                                ",
"                                                ",
"                                                ",
"      ...................................       ",
"      .+++++++++++++++++++++++++++++++++..      ",
"      .+++++++++++++++++++++++++++++++++.+.     ",
"      .+++++++++++++++++++++++++++++++++.++.    ",
"      .+++++++++++++++++++++++++++++++++.....   ",
"      .++++++++++++++++++++++@#+++++++++++++.   ",
"      .+++++++++++++++++++++$%.+++++++++++++.   ",
"      .+++++++++++++++++++++#..$++++++++++++.   ",
"      .++++++++++++++++++++&...@++++++++++++.   ",
"      .++++++++++++++++++++%...*++++++++++++.   ",
"      .+++++++++++++++++++#....=++++++++++++.   ",
"      .++++++++++++++++++$.%...-++++++++++++.   ",
"      .++++++++++++++++++-==....++++++++++++.   ",
"      .+++++++++++++++++*.$#....$+++++++++++.   ",
"      .++++++++++++++++$.*+@....@+++++++++++.   ",
"      .++++++++++++++++=%++@....*+++++++++++.   ",
"      .+++++++++++++++@.&+++....=+++++++++++.   ",
"      .++++++++++++++$%=++++....-+++++++++++.   ",
"      .++++++++++++++#.$++++=....+++++++++++.   ",
"      .+++++++++++++&.*+++++=....$++++++++++.   ",
"      .+++++++++++++%............@++++++++++.   ",
"      .++++++++++++#.*@@@@@@#....*++++++++++.   ",
"      .+++++++++++$.=+++++++&....=++++++++++.   ",
"      .+++++++++++-.$++++++++....-++++++++++.   ",
"      .++++++++++*.*+++++++++.....++++++++++.   ",
"      .+++++++++$..++++++++++=....&+++++++++.   ",
"      .++++++++$%..+++++++++$.....*+++++++++.   ",
"      .+++++++*....%=+++++&-.......-=+++++++.   ",
"      .+++++++&@@@@@@+++++$@@@@@@@@@@+++++++.   ",
"      .+++++++++++++++++++++++++++++++++++++.   ",
"      .+++++++++++++++++++++++++++++++++++++.   ",
"      .+++++++++++++++++++++++++++++++++++++.   ",
"      .......................................   ",
"                                                ",
"                                                ",
"                                                ",
"                                                ",
"                                                ",
"                                                ",
"                                                ",
"                                                ",
"                                                "};
