/* XPM */
static const char * menu_new_window_xpm[] = {
"16 16 88 1",
" 	c None",
".	c #000000",
"+	c #2F2F2F",
"@	c #FCFCFC",
"#	c #F8F8F8",
"$	c #F9F9F9",
"%	c #F3F3F3",
"&	c #F6F6F6",
"*	c #98A9B4",
"=	c #879BA9",
"-	c #8499AA",
";	c #728A9E",
">	c #6F879C",
",	c #668096",
"'	c #667F95",
")	c #6A8398",
"!	c #6F869B",
"~	c #748B9F",
"{	c #8496A9",
"]	c #7C8C9D",
"^	c #DBDBDB",
"/	c #EBECED",
"(	c #3B566E",
"_	c #385269",
":	c #3C556D",
"<	c #3E586E",
"[	c #415970",
"}	c #445C72",
"|	c #475D73",
"1	c #496176",
"2	c #4D6378",
"3	c #526A7F",
"4	c #65778A",
"5	c #728190",
"6	c #EEEEEE",
"7	c #A1A4A6",
"8	c #BCBFC2",
"9	c #B1B5B7",
"0	c #C6C8CB",
"a	c #CACCCE",
"b	c #CACBCE",
"c	c #C6C7C9",
"d	c #D4D5D6",
"e	c #D6D7D8",
"f	c #CDCFD0",
"g	c #C8C8CA",
"h	c #D0D1D2",
"i	c #D6D6D6",
"j	c #B9B9B9",
"k	c #E5E5E5",
"l	c #E0E0E0",
"m	c #E7E7E7",
"n	c #E8E8E8",
"o	c #E6E6E6",
"p	c #EBEBEB",
"q	c #ECECEC",
"r	c #D9D9D9",
"s	c #BCBCBC",
"t	c #F0F0F0",
"u	c #C3C3C3",
"v	c #E9E9E9",
"w	c #E2E2E2",
"x	c #D8D8D8",
"y	c #CFCFCF",
"z	c #C4C4C4",
"A	c #B6B6B6",
"B	c #A5A5A5",
"C	c #888888",
"D	c #EAEAEA",
"E	c #C5C5C5",
"F	c #D4D4D4",
"G	c #FFFFFF",
"H	c #F2F2F2",
"I	c #CBCBCB",
"J	c #D5D5D5",
"K	c #EFEFEF",
"L	c #314E6C",
"M	c #CCCCCC",
"N	c #F7F7F7",
"O	c #EDEDED",
"P	c #D7D7D7",
"Q	c #576E87",
"R	c #FAFAFA",
"S	c #BBC2CC",
"T	c #E3E3E3",
"U	c #D1D1D1",
"V	c #181818",
"W	c #090909",
".+..............",
".@##########$$%.",
".&*=-;>,')!~{]^.",
"./(_:<[}|12345^.",
".67890abcdefghi.",
".6jklmnnopqqkrs.",
".tunnvowlxyzABC.",
".tzvDDl.........",
".tEDppF.GGGGGGG.",
".HIpqqJ.GKLLLLM.",
".NxqOOi.GKKLLLM.",
".N^O6KP.GKLLLLM.",
".#i6KOx.GQLLKLM.",
".Rt&#Ki.GSQKKKM.",
".tTwlUj.GMMMMMMV",
".........W......"};
