/* XPM */
static char * stock_form_time_field_16_xpm[] = {
"16 16 66 1",
" 	c None",
".	c #000000",
"+	c #3D3D3D",
"@	c #D0D0D0",
"#	c #F5F5F5",
"$	c #FAFAFA",
"%	c #F9F9F9",
"&	c #F1F1F1",
"*	c #C9C9C9",
"=	c #393939",
"-	c #A6A6A6",
";	c #F6F6F6",
">	c #FBFBFB",
",	c #F7F7F7",
"'	c #C0C0C0",
")	c #F8F8F8",
"!	c #9D9D9D",
"~	c #A0A0A0",
"{	c #FCFCFC",
"]	c #B4B4B4",
"^	c #F2F2F2",
"/	c #EDEDED",
"(	c #969696",
"_	c #343434",
":	c #9A9A9A",
"<	c #E8E8E8",
"[	c #303030",
"}	c #BBBBBB",
"|	c #F3F3F3",
"1	c #7C7C7C",
"2	c #B2B2B2",
"3	c #E7E7E7",
"4	c #FFFFFF",
"5	c #5E5E5E",
"6	c #F4F4F4",
"7	c #EBEBEB",
"8	c #DDDDDD",
"9	c #ECECEC",
"0	c #BDBDBD",
"a	c #3F3F3F",
"b	c #CDCDCD",
"c	c #EEEEEE",
"d	c #EAEAEA",
"e	c #B6B6B6",
"f	c #E3E3E3",
"g	c #BCBCBC",
"h	c #C8C8C8",
"i	c #171717",
"j	c #BEBEBE",
"k	c #E9E9E9",
"l	c #B5B5B5",
"m	c #E2E2E2",
"n	c #E4E4E4",
"o	c #F0F0F0",
"p	c #B9B9B9",
"q	c #E5E5E5",
"r	c #DBDBDB",
"s	c #EFEFEF",
"t	c #E6E6E6",
"u	c #B0B0B0",
"v	c #313131",
"w	c #E1E1E1",
"x	c #2F2F2F",
"y	c #909090",
"z	c #8D8D8D",
"A	c #AFAFAF",
"     ......     ",
"   .+@#$%&*=.   ",
"  .-;%>,')#&!.  ",
" .~#)$>{]%;^/(. ",
" _&;%>{{:)#^/<[ ",
".}|;%{{{1)#&/<2.",
".3^#%{4{5,6&738.",
".906)>>>ab|cdef.",
".7g^#,))hij9klm.",
".nco^666^0.p<qr.",
".e7cs&&&scp.tfu.",
" v<79/c/97k3nwx ",
" .y<kdddk<tnmz. ",
"  .yq33elqfwz.  ",
"   .[28mmrAx.   ",
"     ......     "};
