/* XPM */
static char * tb_insert_fields_16_xpm[] = {
"16 16 43 1",
" 	c None",
".	c #000000",
"+	c #BFBFBF",
"@	c #F5F5F5",
"#	c #F6F6F6",
"$	c #F7F7F7",
"%	c #F8F8F8",
"&	c #F9F9F9",
"*	c #B9B9B9",
"=	c #E1E1E1",
"-	c #E2E2E2",
";	c #E3E3E3",
">	c #E4E4E4",
",	c #E5E5E5",
"'	c #E7E7E7",
")	c #E8E8E8",
"!	c #E9E9E9",
"~	c #EAEAEA",
"{	c #EBEBEB",
"]	c #EDEDED",
"^	c #EEEEEE",
"/	c #EFEFEF",
"(	c #717171",
"_	c #727272",
":	c #737373",
"<	c #747474",
"[	c #F0F0F0",
"}	c #F1F1F1",
"|	c #757575",
"1	c #F3F3F3",
"2	c #F4F4F4",
"3	c #767676",
"4	c #777777",
"5	c #314E6C",
"6	c #9DB8D2",
"7	c #787878",
"8	c #797979",
"9	c #7A7A7A",
"0	c #FAFAFA",
"a	c #FBFBFB",
"b	c #FCFCFC",
"c	c #BEBEBE",
"d	c #C1C1C1",
" .............  ",
" +@@####$$%%&&* ",
".@=-;>,')!~{]^/.",
".@-;>,((__:<</[.",
".#;>,')!~{]^/[}.",
".#>,')__:<<||}1.",
".#,')!~{]^/[}12.",
".#')!~:<<||342@.",
".$)5~{]^/[}12@#.",
".$!55]666}447#$.",
".%~5]^/[}12@#$&.",
".&]^/[34477890a.",
".&^/[}12@#$&0ab.",
".c/[}12@#$&0abd ",
"  ............  ",
"                "};
