/* XPM */
static char * tb_select_row_16_xpm[] = {
"16 16 13 1",
" 	c None",
".	c #000000",
"+	c #FFFFFF",
"@	c #C6C6C6",
"#	c #EBEBEB",
"$	c #F2F2F2",
"%	c #BBBBBB",
"&	c #DFDFDF",
"*	c #ADADAD",
"=	c #7C7C7C",
"-	c #757575",
";	c #6C6C6C",
">	c #CDCDCD",
"................",
".++++@++++@+++#.",
".+$$$%$$$$%$$$&.",
".+$$$%$$$$%$$$&.",
".+$$$%$$$$%$$$&.",
".@%%%%%%%%%%%%*.",
".=---%----%---;.",
".=---%----%---;.",
".=---%----%---;.",
".=---%----%---;.",
".@%%%%%%%%%%%%*.",
".+$$$%$$$$%$$$&.",
".+$$$%$$$$%$$$&.",
".+$$$%$$$$%$$$&.",
".#&&&*&&&&*&&&>.",
"................"};
