/* XPM */
static char * tb_save_template_16_xpm[] = {
"16 16 83 1",
" 	c None",
".	c #000000",
"+	c #FEFEFE",
"@	c #FDFDFD",
"#	c #E0E0E0",
"$	c #C1C1C1",
"%	c #DDDDDD",
"&	c #E1E1E1",
"*	c #7D8EA0",
"=	c #F1F1F1",
"-	c #C3C3C3",
";	c #FBFBFB",
">	c #A8A8A8",
",	c #E8E8E8",
"'	c #F9F9F9",
")	c #ADADAD",
"!	c #767676",
"~	c #5D5D5D",
"{	c #404040",
"]	c #F0F0F0",
"^	c #E2E2E2",
"/	c #858585",
"(	c #4B4B49",
"_	c #161616",
":	c #DBDBDB",
"<	c #E3E3E3",
"[	c #EFEFEF",
"}	c #F8F8F8",
"|	c #EEEEEE",
"1	c #C5C5C5",
"2	c #798A9B",
"3	c #7B8D9F",
"4	c #7B8C9F",
"5	c #EDEDED",
"6	c #ECECEC",
"7	c #C4C4C4",
"8	c #DADADA",
"9	c #DCDCDC",
"0	c #EBEBEB",
"a	c #F7F7F7",
"b	c #676868",
"c	c #394046",
"d	c #D9D9D9",
"e	c #768798",
"f	c #7A8C9E",
"g	c #DDDEDF",
"h	c #E2B9B3",
"i	c #E2B9B2",
"j	c #E3BAB3",
"k	c #B6B2BA",
"l	c #D7D7D7",
"m	c #F5F5F5",
"n	c #CECFD2",
"o	c #EAEAEA",
"p	c #89A1B4",
"q	c #748495",
"r	c #E9E9E9",
"s	c #798A9D",
"t	c #D8D8D8",
"u	c #A6B9C9",
"v	c #A0B2C2",
"w	c #9EB2C1",
"x	c #E7E7E7",
"y	c #E6E6E6",
"z	c #788A9C",
"A	c #E5E5E5",
"B	c #BEC0C3",
"C	c #66727A",
"D	c #7C8C9A",
"E	c #E4E4E4",
"F	c #F4F4F4",
"G	c #D1D1D1",
"H	c #42586A",
"I	c #657178",
"J	c #7C8C99",
"K	c #CACACA",
"L	c #BDBDBD",
"M	c #BCBCBC",
"N	c #BBBBBB",
"O	c #6D6D6D",
"P	c #080808",
"Q	c #D0D0D0",
"R	c #A9A9A9",
" .........      ",
".++++++@#$.     ",
".+%%%&*=-;>.    ",
".+%%%,=')!~{.   ",
".+%%%=*]^/(_.   ",
".+%:<[[}[||1.   ",
".+::2|3|4567.   ",
".@890a0ab......c",
".@de66f0.ghiijk.",
".@l,m,,m.noo,&p.",
".@qorrs,.no^ttp.",
".@<m,,,m.nuvvwp.",
".@xxyyzA.nBllCD.",
".@yAAAEF.nGH7IJ.",
".KLLLMMNOPQRGI..",
" .............. "};
