/* XPM */
static char * tb_close_xpm[] = {
"24 24 2 1",
" 	c #FF0000",
".	c None",
"  ....................  ",
"   ..................   ",
".   ................   .",
"..   ..............   ..",
"...   ............   ...",
"....   ..........   ....",
".....   ........   .....",
"......   ......   ......",
"........  ....   .......",
".........  ..   ........",
"..........     .........",
"..........    ..........",
".........      .........",
"........   ..   ........",
".......   ....   .......",
"......   ......   ......",
".....   ........   .....",
"....   ..........   ....",
"...   .............  ...",
"..   ...............  ..",
".   .................  .",
"   ...................  ",
"  ..................... ",
"........................"};
