/* XPM */
static const char * menu_delete_table_xpm[] = {
"16 16 86 1",
" 	c None",
".	c #FB0000",
"+	c #AB0000",
"@	c #1F0000",
"#	c #000000",
"$	c #5F0000",
"%	c #F30000",
"&	c #470000",
"*	c #FF0C0C",
"=	c #FF0707",
"-	c #FF9F9F",
";	c #FFFFFF",
">	c #E7E7E7",
",	c #FF8F8F",
"'	c #FF0000",
")	c #FFE5E5",
"!	c #FC1A1A",
"~	c #FE0000",
"{	c #F75A5A",
"]	c #ABA8A8",
"^	c #ECECEC",
"/	c #ABABAB",
"(	c #F0B1B1",
"_	c #FB2C2C",
":	c #FD1212",
"<	c #D2A5A5",
"[	c #D75050",
"}	c #F80C0C",
"|	c #BE8383",
"1	c #CF6060",
"2	c #FD0202",
"3	c #F01D1D",
"4	c #B79090",
"5	c #7D7D7D",
"6	c #EFBCBC",
"7	c #F41515",
"8	c #FE0202",
"9	c #F38282",
"0	c #EFB7B7",
"a	c #F51313",
"b	c #F56A6A",
"c	c #ECE5E5",
"d	c #C9C9C9",
"e	c #F84D4D",
"f	c #FB2E2E",
"g	c #EB2828",
"h	c #ECE1E1",
"i	c #B29B9B",
"j	c #F90909",
"k	c #B49494",
"l	c #7B7B7B",
"m	c #ECE9E9",
"n	c #D35858",
"o	c #FE0707",
"p	c #F1A1A1",
"q	c #FE0808",
"r	c #F90A0A",
"s	c #F1A6A6",
"t	c #FA3838",
"u	c #F75C5C",
"v	c #EED3D3",
"w	c #EB2727",
"x	c #F38C8C",
"y	c #B98E8E",
"z	c #ED2020",
"A	c #FD0101",
"B	c #CE6161",
"C	c #ADA6A6",
"D	c #F80D0D",
"E	c #F61111",
"F	c #FFB5B5",
"G	c #FC1919",
"H	c #F0ADAD",
"I	c #EECBCB",
"J	c #FB2828",
"K	c #FE0303",
"L	c #DF7474",
"M	c #7B0000",
"N	c #FD0404",
"O	c #F71C1C",
"P	c #CAC0C0",
"Q	c #C9C6C6",
"R	c #E07171",
"S	c #F22F2F",
"T	c #0B0000",
"U	c #9B0000",
"                ",
".+@###########$%",
"&*=-;>;;;;>;;,'+",
"#)!~{]^^^^/(_:<#",
"#>][~}|///12345#",
"#;^^6789^0abc^d#",
"#;^^^]e~f'gh^^d#",
"#>////i7~jk///l#",
"#;^^mno_pqrs^^d#",
"#;^^t'uh^vw'x^d#",
"#>yzAB////CDE|l#",
"#FoGH/^^^^/IJKL#",
"MNOPdlddddldQRST",
"'UT#############",
"                ",
"                "};
